<svg width="149" height="28" viewBox="0 0 149 28" fill="none" xmlns="http://www.w3.org/2000/svg">
    <path d="M142.769 0a5.474 5.474 0 0 0-5.467 5.467 5.472 5.472 0 0 0 5.467 5.464 5.473 5.473 0 0 0 5.467-5.464A5.476 5.476 0 0 0 142.769 0zm0 9.888a4.426 4.426 0 0 1-4.421-4.421 4.428 4.428 0 0 1 4.421-4.422 4.428 4.428 0 0 1 4.422 4.422 4.428 4.428 0 0 1-4.422 4.421z" fill="#fff"/>
    <path d="M143.947 3.69c-.406 0-.621.037-.713.06.008-.096.024-.322.024-.605v-.537h-.982v.537c0 .286.016.509.024.604-.09-.022-.308-.06-.713-.06h-1.579v.983h.416c.52 0 .855-.068 1.204-.348l.089.106c-.582.231-1.132.863-1.132 1.671 0 1.171.917 2.018 2.183 2.018 1.266 0 2.184-.85 2.184-2.018 0-.808-.55-1.44-1.133-1.671l.09-.106c.349.28.683.348 1.203.348h.417V3.69H143.947zm.019 2.343c0 .676-.493 1.147-1.198 1.147s-1.198-.471-1.198-1.147c0-.675.482-1.157 1.198-1.157s1.198.466 1.198 1.157z" fill="#fff"/>
    <path fill-rule="evenodd" clip-rule="evenodd" d="M90.031 13.046c0 1.818-.35 3.358-1.049 4.622-.698 1.264-1.645 2.224-2.839 2.88-1.188.656-2.522.984-4 .984-1.484 0-2.82-.331-4.01-.992-1.187-.662-2.131-1.622-2.83-2.88-.694-1.264-1.04-2.802-1.04-4.614 0-1.817.346-3.358 1.04-4.621.699-1.264 1.643-2.224 2.83-2.88 1.19-.656 2.526-.984 4.01-.984 1.478 0 2.812.328 4 .984 1.194.656 2.14 1.616 2.84 2.88.698 1.263 1.048 2.804 1.048 4.621zm-4.081 0c0-1.075-.154-1.984-.46-2.726-.301-.742-.737-1.304-1.307-1.686-.564-.381-1.245-.572-2.04-.572-.79 0-1.471.19-2.041.572-.57.382-1.008.944-1.315 1.686-.3.742-.451 1.65-.451 2.726s.15 1.985.451 2.727c.307.742.745 1.304 1.315 1.685.57.382 1.25.573 2.04.573.797 0 1.477-.19 2.041-.573.57-.381 1.006-.943 1.307-1.685.306-.742.46-1.651.46-2.727zM10.453 20.322c-1.22.656-2.67.984-4.347.984H0V4.786h6.098c1.683 0 3.132.332 4.347.993a6.78 6.78 0 0 1 2.823 2.84c.662 1.23.992 2.704.992 4.42 0 1.72-.33 3.199-.992 4.435a6.78 6.78 0 0 1-2.815 2.848zM8.283 8.667c-.645-.318-1.44-.476-2.387-.476H3.993v9.711h1.96c.924 0 1.707-.156 2.347-.468.645-.317 1.132-.83 1.46-1.54.333-.716.5-1.667.5-2.856 0-1.188-.167-2.135-.5-2.839-.334-.71-.826-1.22-1.476-1.532z" fill="#fff"/>
    <path d="m38.055 16.886-3.694-12.1h-4.469l5.574 16.52h5.315l5.574-16.52h-4.469l-3.694 12.1h-.137z" fill="#fff"/>
    <path fill-rule="evenodd" clip-rule="evenodd" d="M102.388 5.513c-.898-.484-1.965-.726-3.202-.726h-6.824v16.519h3.993v-5.13h2.71c1.263 0 2.355-.234 3.275-.702.919-.468 1.626-1.126 2.121-1.976.5-.855.75-1.852.75-2.992 0-1.135-.245-2.13-.734-2.985a5.085 5.085 0 0 0-2.089-2.008zm-2.557 2.799c-.409-.205-.911-.307-1.508-.307h-1.968v5.025h1.968c.602 0 1.105-.105 1.508-.314a2.16 2.16 0 0 0 .928-.88c.209-.381.314-.825.314-1.33 0-.511-.105-.952-.314-1.323a2.113 2.113 0 0 0-.928-.871zM131.223 5.456c-.898-.446-1.965-.67-3.202-.67h-6.823v16.52h3.992v-5.654h2.045l3.02 5.654h4.356l-3.424-6.285c.91-.419 1.613-1.023 2.109-1.813.5-.802.75-1.775.75-2.92 0-1.13-.244-2.105-.734-2.928-.489-.828-1.185-1.463-2.089-1.904zm-2.556 2.807c-.409-.172-.912-.258-1.509-.258h-1.968v4.5h1.968c.602 0 1.105-.077 1.509-.233.408-.161.717-.403.927-.726.21-.328.315-.747.315-1.258s-.105-.933-.315-1.267a1.896 1.896 0 0 0-.927-.758z" fill="#fff"/>
    <path d="M16.591 21.306V4.786H28.11V8.03h-7.525v3.388h6.937v3.25h-6.937v3.396h7.526v3.243H16.591zM48.133 21.306V4.786h11.518V8.03h-7.525v3.388h6.936v3.25h-6.936v3.396h7.525v3.243H48.133zM62.151 4.787v16.519h10.865v-3.243h-6.872V4.787h-3.993zM107.179 21.306V4.786h11.518V8.03h-7.525v3.388h6.936v3.25h-6.936v3.396h7.525v3.243h-11.518z" fill="#fff"/>
</svg>
