<svg width="600" height="252" viewBox="0 0 600 252" fill="none" xmlns="http://www.w3.org/2000/svg">
<path fill-rule="evenodd" clip-rule="evenodd" d="M175 87V95H161V87H175ZM176 86H160V96H176V86ZM160 80H176V81H160V80ZM160 83H176V84H160V83Z" fill="black" fill-opacity="0.6"/>
<path fill-rule="evenodd" clip-rule="evenodd" d="M314 1V14H301V1H314ZM313 2H302V13H313V2Z" fill="black" fill-opacity="0.6"/>
<path d="M302 2H313V13H302V2Z" fill="white"/>
<path d="M307.5 7L312 12H303L307.5 7Z" fill="#16E03A"/>
<path d="M307.5 8L312 3H303L307.5 8Z" fill="#E13A1B"/>
<path d="M307 7H312L311.999 12L307 7Z" fill="#2B7FDC"/>
<path d="M307 8H312L311.999 3L307 8Z" fill="#A43DF0"/>
<path d="M303 7H308L303 12V7Z" fill="#CBF23C"/>
<path d="M303 8H308L303 3V8Z" fill="#FFA000"/>
<path fill-rule="evenodd" clip-rule="evenodd" d="M294 1V14H281V1H294ZM293 2H282V13H293V2Z" fill="black" fill-opacity="0.6"/>
<path d="M282 2H293V13H282V2Z" fill="white"/>
<path d="M283 3H287V7H283V3Z" fill="#E13A1B"/>
<path d="M288 8H292V12H288V8Z" fill="#168E12"/>
<path d="M288 3H292V7H288V3Z" fill="#2367FF"/>
<path d="M283 8H287V12H283V8Z" fill="#EEAF0F"/>
<path fill-rule="evenodd" clip-rule="evenodd" d="M446.8 2C449.304 2 451.57 3.275 453.6 5.825C451.57 8.375 449.304 9.65 446.8 9.65C444.296 9.65 442.03 8.375 440 5.825C442.03 3.275 444.296 2 446.8 2Z" fill="black" fill-opacity="0.6"/>
<path d="M446.8 2.95605C444.775 2.95605 442.877 3.80805 441.096 5.57405L440.85 5.82405L440.906 5.88405C442.678 7.71405 444.567 8.63005 446.584 8.69005L446.8 8.69405C448.899 8.69405 450.86 7.78005 452.695 5.88405L452.75 5.82405L452.695 5.76605C450.923 3.93605 449.034 3.02005 447.017 2.96005L446.8 2.95605Z" fill="white"/>
<path d="M446.8 8.37502C448.208 8.37502 449.35 7.23335 449.35 5.82502C449.35 4.4167 448.208 3.27502 446.8 3.27502C445.392 3.27502 444.25 4.4167 444.25 5.82502C444.25 7.23335 445.392 8.37502 446.8 8.37502Z" fill="black" fill-opacity="0.6"/>
<path fill-rule="evenodd" clip-rule="evenodd" d="M523.9 4.89995C523.9 2.99995 525 1.69995 526.9 1.69995C528.4 1.69995 529.6 2.59995 529.6 4.29995C529.6 5.49995 529.1 5.99995 528.5 6.49995C527.9 6.99995 527.4 7.39995 527.4 8.69995H526.1C526.1 7.19995 526.4 6.69995 527.1 6.09995C527.6 5.59995 528.1 5.29995 528.1 4.39995C528.1 3.29995 527.3 2.99995 526.9 2.99995C525.9 2.99995 525.4 3.79995 525.4 4.89995H523.9Z" fill="black" fill-opacity="0.6"/>
<path d="M527.687 9.58712L525.787 9.61328L525.812 11.4131L527.712 11.3869L527.687 9.58712Z" fill="black" fill-opacity="0.6"/>
<path d="M266.844 0.582967L272.644 10.397C272.68 10.4577 272.699 10.5269 272.699 10.5974C272.7 10.668 272.682 10.7374 272.647 10.7986C272.612 10.8598 272.561 10.9107 272.5 10.9461C272.439 10.9814 272.37 11 272.299 11H260.701C260.631 10.9999 260.561 10.9811 260.501 10.9457C260.44 10.9103 260.389 10.8594 260.354 10.7982C260.319 10.737 260.301 10.6676 260.302 10.5972C260.302 10.5267 260.321 10.4577 260.357 10.397L266.156 0.582967C266.192 0.523278 266.242 0.473832 266.302 0.439488C266.362 0.405144 266.431 0.387085 266.5 0.387085C266.57 0.387085 266.638 0.405144 266.698 0.439488C266.758 0.473832 266.809 0.523278 266.844 0.582967Z" fill="#E13A1B"/>
<path d="M267 9V10H266V9H267ZM267 4V8H266V4H267Z" fill="white"/>
<path d="M250.314 2L251 2.661L243.384 10L239 5.776L239.686 5.115L243.384 8.678L250.314 2Z" fill="#5E83F4"/>
<path fill-rule="evenodd" clip-rule="evenodd" d="M208 0V7H215V8H208V15H207V8H200V7H207V0H208Z" fill="black" fill-opacity="0.2"/>
<path fill-rule="evenodd" clip-rule="evenodd" d="M226.5 9V12H225.5V9H226.5ZM223.525 7.768L224.232 8.475L222.111 10.596L221.404 9.889L223.525 7.768ZM228.475 7.768L230.596 9.889L229.889 10.596L227.768 8.475L228.475 7.768ZM223 5.5V6.5H220V5.5H223ZM232 5.5V6.5H229V5.5H232ZM229.89 1.404L230.596 2.111L228.475 4.232L227.768 3.525L229.889 1.404H229.89ZM222.11 1.404L224.232 3.525L223.525 4.232L221.404 2.111L222.111 1.404H222.11ZM226.5 0V3H225.5V0H226.5Z" fill="black" fill-opacity="0.6"/>
<path d="M412.629 4L414 5.323L406.046 13L401 8.129L402.371 6.806L406.046 10.353L412.629 4Z" fill="#E13A1B"/>
<path d="M431.31 1.69C432.23 2.61 432.23 4.103 431.31 5.024L425.138 11.195C422.728 11.827 421.506 12.161 421.471 12.195L420.805 12.862C420.717 12.9504 420.597 13.0001 420.472 13.0001C420.347 13.0001 420.227 12.9504 420.138 12.862C420.05 12.7736 420 12.6536 420 12.5285C420 12.4034 420.05 12.2834 420.138 12.195L420.805 11.529C420.839 11.494 421.173 10.272 421.805 7.862L427.976 1.69C428.896 0.77 430.389 0.77 431.31 1.69ZM428.744 2.265L428.643 2.357L423.138 7.862L425.138 9.862L430.643 4.357C431.163 3.837 431.193 3.013 430.735 2.457L430.643 2.357C430.395 2.1081 430.062 1.96076 429.711 1.94375C429.36 1.92674 429.015 2.04127 428.743 2.265H428.744ZM422.591 8.648L422.063 10.937L424.35 10.407L422.59 8.648H422.591Z" fill="#525252" fill-opacity="0.75"/>
<path fill-rule="evenodd" clip-rule="evenodd" d="M428.744 2.26505L428.643 2.35705L423.138 7.86205L425.138 9.86205L430.643 4.35705C431.163 3.83705 431.193 3.01305 430.735 2.45705L430.643 2.35705C430.394 2.10815 430.062 1.96081 429.71 1.94379C429.359 1.92678 429.014 2.04132 428.743 2.26505H428.744Z" fill="black" fill-opacity="0.2"/>
<path fill-rule="evenodd" clip-rule="evenodd" d="M327.444 4.55599C327.814 3.81499 328.185 3.81499 328.556 4.55599C329.111 5.66599 329.111 6.77799 329.666 7.33299C330.037 7.70299 330.963 8.07399 332.444 8.44399C333.185 8.81399 333.185 9.18499 332.444 9.55599C331.334 10.111 330.222 10.111 329.667 10.666C329.297 11.037 328.926 11.963 328.556 13.444C328.186 14.185 327.815 14.185 327.444 13.444C326.889 12.334 326.889 11.222 326.334 10.667C325.778 10.111 324.667 10.111 323.556 9.55599C322.815 9.18599 322.815 8.81499 323.556 8.44399C325.037 8.07399 325.963 7.70399 326.333 7.33399C326.703 6.96299 327.074 6.03699 327.444 4.55599Z" fill="black" fill-opacity="0.6"/>
<path d="M5 121L7 123H15V133H0V121H5ZM4.585 122H1V132H14V124H6.586L4.585 122Z" fill="#EEAF0F"/>
<path d="M4.585 122H1V132H14V124H6.586L4.585 122Z" fill="#EEAF0F" fill-opacity="0.3"/>
<path fill-rule="evenodd" clip-rule="evenodd" d="M12.334 4L13 4.666L8.665 9L13 13.334L12.334 14L8 9.665L3.666 14L3 13.334L7.334 9L3 4.666L3.666 4L8 8.334L12.334 4ZM35 1V15H21V1H35ZM34 2H22V14H34V2Z" fill="black" fill-opacity="0.6"/>
<path d="M34 2H22V14H34V2Z" fill="white"/>
<path d="M34.1465 1.146L34.8545 1.854L21.8545 14.854L21.1465 14.146L34.1465 1.146Z" fill="#E13A1B"/>
<path fill-rule="evenodd" clip-rule="evenodd" d="M359.34 4L360 4.583L355 9L350 4.583L350.66 4L355 7.833L359.34 4Z" fill="black" fill-opacity="0.6"/>
<path d="M95.827 0L96 0.94L40.173 10L40 9.06L95.827 0Z" fill="#E13A1B"/>
<path d="M12 104C18.6274 104 24 98.6274 24 92C24 85.3726 18.6274 80 12 80C5.37258 80 0 85.3726 0 92C0 98.6274 5.37258 104 12 104Z" fill="#E13A1B"/>
<path d="M16.967 86L18 87.124L13.082 92L18 96.876L16.967 98L12 93.073L7.033 98L6 96.876L10.917 92L6 87.124L7.033 86L12 90.926L16.967 86Z" fill="white"/>
<path d="M52 104C58.6274 104 64 98.6274 64 92C64 85.3726 58.6274 80 52 80C45.3726 80 40 85.3726 40 92C40 98.6274 45.3726 104 52 104Z" fill="#2367FF"/>
<path d="M52.802 89V98H51V89H52.802ZM52.802 86V87.802H51V86H52.802Z" fill="white"/>
<path d="M132 104C138.627 104 144 98.6274 144 92C144 85.3726 138.627 80 132 80C125.373 80 120 85.3726 120 92C120 98.6274 125.373 104 132 104Z" fill="#2367FF"/>
<path d="M132.671 95.492C132.683 94.855 132.797 93.576 134.141 92.177C134.863 91.424 135.985 90.635 135.985 88.862C135.985 87.882 135.074 85.5 131.943 85.5C128.813 85.5 128 88.098 128 89.502H129.513C129.513 88.346 130.145 86.925 131.943 86.925C133.741 86.925 134.359 88.349 134.359 88.968C134.359 89.701 134.141 90.245 133.143 91.084C132.146 91.923 131.117 93.642 131.117 94.849C131.117 94.955 131.145 95.28 131.15 95.492H132.671ZM132.831 98.5V96.698H131.03V98.5H132.832H132.831Z" fill="white"/>
<path d="M94.6118 83.6201L103.47 99.2931C103.728 99.7495 103.862 100.266 103.858 100.79C103.854 101.314 103.713 101.828 103.449 102.281C103.185 102.734 102.807 103.11 102.352 103.371C101.897 103.632 101.382 103.769 100.858 103.769H83.1418C82.6175 103.769 82.1024 103.632 81.6477 103.371C81.1931 103.11 80.8148 102.734 80.5505 102.281C80.2863 101.828 80.1453 101.314 80.1417 100.79C80.138 100.266 80.2719 99.7495 80.5298 99.2931L89.3878 83.6211C89.6492 83.1584 90.0287 82.7735 90.4877 82.5057C90.9466 82.2378 91.4684 82.0967 91.9998 82.0967C92.5312 82.0967 93.053 82.2378 93.512 82.5057C93.9709 82.7735 94.3504 83.1584 94.6118 83.6211V83.6201Z" fill="#EEAF0F"/>
<path d="M92.802 98.198V100H91V98.198H92.802ZM92.802 88V97H91V88H92.802Z" fill="white"/>
<path d="M471.291 3L472 3.63L468.666 7L472 10.37L471.291 11L468 7.674L464.709 11L464 10.37L467.333 7L464 3.63L464.709 3L468 6.326L471.291 3ZM44.615 67C43.723 67 43 67.806 43 68.8V70H50V68.8C50 67.806 49.277 67 48.385 67H44.615ZM46.5 63C46.1022 63 45.7206 63.158 45.4393 63.4393C45.158 63.7206 45 64.1022 45 64.5C45 64.8978 45.158 65.2794 45.4393 65.5607C45.7206 65.842 46.1022 66 46.5 66C46.8978 66 47.2794 65.842 47.5607 65.5607C47.842 65.2794 48 64.8978 48 64.5C48 64.1022 47.842 63.7206 47.5607 63.4393C47.2794 63.158 46.8978 63 46.5 63Z" fill="white"/>
<path d="M2.615 67C1.723 67 1 67.806 1 68.8V70H8V68.8C8 67.806 7.277 67 6.385 67H2.615ZM4.5 63C4.10218 63 3.72064 63.158 3.43934 63.4393C3.15804 63.7206 3 64.1022 3 64.5C3 64.8978 3.15804 65.2794 3.43934 65.5607C3.72064 65.842 4.10218 66 4.5 66C4.89782 66 5.27936 65.842 5.56066 65.5607C5.84196 65.2794 6 64.8978 6 64.5C6 64.1022 5.84196 63.7206 5.56066 63.4393C5.27936 63.158 4.89782 63 4.5 63Z" fill="white"/>
<path d="M7.385 67C8.23 67 8.923 67.723 8.995 68.645L9 68.8V70H12V68.8C12 67.806 11.277 67 10.385 67H7.385ZM8.5 63C8.10218 63 7.72064 63.158 7.43934 63.4393C7.15804 63.7206 7 64.1022 7 64.5C7 64.8978 7.15804 65.2794 7.43934 65.5607C7.72064 65.842 8.10218 66 8.5 66C8.89782 66 9.27936 65.842 9.56066 65.5607C9.84196 65.2794 10 64.8978 10 64.5C10 64.1022 9.84196 63.7206 9.56066 63.4393C9.27936 63.158 8.89782 63 8.5 63Z" fill="white"/>
<path d="M33 60V73H20V60H33ZM29.462 67H23.538C22.188 67 21.085 68.245 21.005 69.817L21 70V72H32V70C32 68.405 30.946 67.1 29.616 67.005L29.462 67ZM26.5 61C25.837 61 25.2011 61.2634 24.7322 61.7322C24.2634 62.2011 24 62.837 24 63.5C24 64.163 24.2634 64.7989 24.7322 65.2678C25.2011 65.7366 25.837 66 26.5 66C27.163 66 27.7989 65.7366 28.2678 65.2678C28.7366 64.7989 29 64.163 29 63.5C29 62.837 28.7366 62.2011 28.2678 61.7322C27.7989 61.2634 27.163 61 26.5 61Z" fill="white"/>
<path fill-rule="evenodd" clip-rule="evenodd" d="M69.462 67.96L69.586 67.967C70.326 68.044 70.969 68.812 71.034 69.828L71.04 70V71.04H61.96V70L61.966 69.828C62.031 68.812 62.674 68.044 63.414 67.967L63.538 67.96H69.462ZM66.5 61.96C66.7022 61.96 66.9025 61.9998 67.0893 62.0772C67.2761 62.1546 67.4459 62.268 67.5889 62.411C67.7319 62.554 67.8453 62.7238 67.9227 62.9106C68.0001 63.0975 68.04 63.2977 68.04 63.5C68.04 63.7022 68.0001 63.9025 67.9227 64.0893C67.8453 64.2761 67.7319 64.4459 67.5889 64.5889C67.4459 64.7319 67.2761 64.8453 67.0893 64.9227C66.9025 65.0001 66.7022 65.04 66.5 65.04C66.0915 65.04 65.6998 64.8777 65.411 64.5889C65.1222 64.3001 64.96 63.9084 64.96 63.5C64.96 63.0915 65.1222 62.6998 65.411 62.411C65.6998 62.1222 66.0915 61.96 66.5 61.96Z" fill="black" fill-opacity="0.1"/>
<path fill-rule="evenodd" clip-rule="evenodd" d="M69.462 67C70.863 67 72 68.343 72 70V72H61V70C61 68.343 62.137 67 63.538 67H69.462ZM69.462 67.96H63.538C62.748 67.96 62.035 68.755 61.966 69.828L61.96 70V71.04H71.04V70C71.04 68.9 70.367 68.049 69.586 67.967L69.462 67.96ZM66.5 61C67.1499 60.9984 67.7748 61.25 68.2424 61.7013C68.71 62.1527 68.9834 62.7684 69.0047 63.418C69.0261 64.0675 68.7936 64.6998 68.3567 65.1809C67.9197 65.662 67.3126 65.954 66.664 65.995L66.5 66C65.8501 66.0016 65.2252 65.75 64.7576 65.2987C64.29 64.8473 64.0166 64.2316 63.9953 63.5821C63.9739 62.9325 64.2064 62.3002 64.6433 61.8191C65.0803 61.3381 65.6874 61.0461 66.336 61.005L66.5 61ZM66.5 61.96C66.0916 61.96 65.6999 62.1223 65.4111 62.4111C65.1223 62.6999 64.96 63.0916 64.96 63.5C64.96 63.9084 65.1223 64.3001 65.4111 64.589C65.6999 64.8778 66.0916 65.04 66.5 65.04C66.9084 65.04 67.3001 64.8778 67.5889 64.589C67.8777 64.3001 68.04 63.9084 68.04 63.5C68.04 63.0916 67.8777 62.6999 67.5889 62.4111C67.3001 62.1223 66.9084 61.96 66.5 61.96Z" fill="black" fill-opacity="0.2"/>
<g opacity="0.6">
<path d="M88.5 68C89.8807 68 91 66.8807 91 65.5C91 64.1193 89.8807 63 88.5 63C87.1193 63 86 64.1193 86 65.5C86 66.8807 87.1193 68 88.5 68Z" fill="black"/>
<path fill-rule="evenodd" clip-rule="evenodd" d="M86 69H91C91.7956 69 92.5587 69.3161 93.1213 69.8787C93.6839 70.4413 94 71.2044 94 72V74H83V72C83 71.2044 83.3161 70.4413 83.8787 69.8787C84.4413 69.3161 85.2044 69 86 69Z" fill="black"/>
</g>
<path d="M493.415 6.051L495.053 9.596L493.283 9.122C492.975 10.118 492.391 11.0061 491.598 11.6828C490.805 12.3596 489.836 12.7971 488.804 12.9444C487.772 13.0917 486.719 12.9428 485.768 12.515C484.818 12.0872 484.008 11.3981 483.434 10.528L484.119 9.734C484.553 10.4926 485.199 11.1084 485.977 11.5062C486.755 11.9041 487.632 12.0668 488.501 11.9746C489.371 11.8824 490.194 11.5391 490.871 10.9867C491.549 10.4344 492.051 9.6968 492.316 8.864L490.224 8.302L493.414 6.052L493.415 6.051ZM488.027 2C489.914 2 491.579 2.95 492.569 4.399L491.809 5.059C491.346 4.34191 490.689 3.77125 489.914 3.41356C489.138 3.05587 488.278 2.92589 487.432 3.03878C486.586 3.15167 485.789 3.50278 485.135 4.05116C484.481 4.59954 483.996 5.32259 483.737 6.136L485.83 6.698L482.638 8.948L481 5.405L482.77 5.879C483.117 4.7556 483.814 3.77283 484.76 3.07476C485.706 2.3767 486.851 2.00004 488.027 2Z" fill="white"/>
<path fill-rule="evenodd" clip-rule="evenodd" d="M9 160V164.765L4.5 169L0 164.765V160H9Z" fill="black" fill-opacity="0.6"/>
<path d="M8 161H1V164.332L4.499 167.626L8 164.332V161Z" fill="white"/>
<path fill-rule="evenodd" clip-rule="evenodd" d="M28 161V164.332L24.499 167.626L21 164.332V161H28Z" fill="black" fill-opacity="0.1"/>
<path fill-rule="evenodd" clip-rule="evenodd" d="M29 160V164.765L24.5 169L20 164.765V160H29ZM28 161H21V164.332L24.499 167.626L28 164.332V161Z" fill="black" fill-opacity="0.2"/>
<path fill-rule="evenodd" clip-rule="evenodd" d="M49 160V165H40V160H49Z" fill="black" fill-opacity="0.6"/>
<path d="M48 161H41V164H48V161Z" fill="white"/>
<path fill-rule="evenodd" clip-rule="evenodd" d="M69 160V165H60V160H69ZM68 161H61V164H68V161Z" fill="black" fill-opacity="0.2"/>
<path fill-rule="evenodd" clip-rule="evenodd" d="M61 161H68V164H61V161Z" fill="black" fill-opacity="0.1"/>
<path d="M84.5 161.373L88 164.667V168H81V164.667L84.5 161.373Z" fill="white"/>
<path fill-rule="evenodd" clip-rule="evenodd" d="M84.5 160L89 164.235V169H80V164.235L84.5 160ZM84.5 161.373L81 164.667V168H88V164.667L84.5 161.373Z" fill="black" fill-opacity="0.6"/>
<path fill-rule="evenodd" clip-rule="evenodd" d="M101 168V164.668L104.501 161.374L108 164.668V168H101Z" fill="black" fill-opacity="0.1"/>
<path fill-rule="evenodd" clip-rule="evenodd" d="M100 169V164.235L104.5 160L109 164.235V169H100ZM101 168H108V164.668L104.501 161.374L101 164.668V168Z" fill="black" fill-opacity="0.2"/>
<path fill-rule="evenodd" clip-rule="evenodd" d="M120 162H121V171H120V162ZM158 162H159V171H158V162ZM148 164H149V169H148V164ZM168 164H169V169H168V164ZM185 164H186V169H185V164ZM130 164H131V169H130V164Z" fill="black" fill-opacity="0.2"/>
<path d="M203 162H202V171H203V162Z" fill="#C4C4C4"/>
<path d="M250 162H249V171H250V162Z" fill="#C4C4C4"/>
<path d="M214 164H215V169H214V164Z" fill="#C4C4C4"/>
<path d="M238 164H237V169H238V164Z" fill="#C4C4C4"/>
<path d="M261 164H262V169H261V164Z" fill="#C4C4C4"/>
<path d="M284 164H283V169H284V164Z" fill="#C4C4C4"/>
<path d="M300 162H301V171H300V162Z" fill="#C4C4C4"/>
<path d="M357 162H358V166.5V171H357V162Z" fill="#C4C4C4"/>
<path d="M315 164H316V169H315V164Z" fill="#C4C4C4"/>
<path d="M343 164H342V169H343V164Z" fill="#C4C4C4"/>
<path d="M398 164H399V169H398V164Z" fill="#C4C4C4"/>
<path d="M373 164H372V169H373V164Z" fill="#C4C4C4"/>
<path d="M415 162H416V171H415V162Z" fill="#C4C4C4"/>
<path d="M491 162H492V171H491V162Z" fill="#C4C4C4"/>
<path d="M435 164H436V169H435V164Z" fill="#C4C4C4"/>
<path d="M472 164H471V169H472V164Z" fill="#C4C4C4"/>
<path d="M546 164H547V169H546V164Z" fill="#C4C4C4"/>
<path d="M512 164H511V169H512V164Z" fill="#C4C4C4"/>
<path d="M16 185.913L8.913 193L16 200.087L15.087 201L8 193.913L0.913 201L0 200.087L7.087 193L0 185.913L0.913 185L8 192.087L15.087 185L16 185.913Z" fill="#7E7E7E"/>
<path d="M40 184.515L31.026 193.5L40 202.485L38.487 204L28 193.5L38.487 183L40 184.515Z" fill="#4A4A4A" fill-opacity="0.7"/>
<path d="M42 120H52.5L56 123V136H42V120Z" fill="#42ADFF"/>
<rect x="42" y="120" width="4" height="1.99967" fill="#003D75"/>
<rect x="42" y="121.999" width="4" height="1.99967" fill="#006DCC"/>
<rect x="42" y="124" width="4" height="2.00021" fill="#0096FA"/>
<path d="M53 127.636H49.6877C49.7008 127.464 49.7138 127.169 49.7138 126.811V126H48.2905V126.811C48.2905 127.169 48.3079 127.464 48.3166 127.636H45V129.032H46.6496C46.1143 129.445 45.827 130.129 45.827 130.99C45.827 132.645 47.0892 134 49 134C50.9108 134 52.173 132.649 52.173 130.99C52.173 130.125 51.8422 129.418 51.3504 129.032H53V127.636ZM49 132.608C47.9684 132.608 47.2503 131.77 47.2503 130.782C47.2503 129.794 47.9684 128.955 49 128.955C50.0316 128.955 50.7497 129.794 50.7497 130.782C50.7497 131.77 50.0316 132.608 49 132.608Z" fill="white"/>
<path fill-rule="evenodd" clip-rule="evenodd" d="M32 120H21V136H35V123L32 120Z" fill="#5E84E2"/>
<path opacity="0.15" d="M32 123H35V126L32 123Z" fill="black"/>
<path opacity="0.6" d="M35 123H32.2C32.147 123 32.0961 122.979 32.0586 122.941C32.0211 122.904 32 122.853 32 122.8V120L35 123Z" fill="white"/>
<path opacity="0.3" fill-rule="evenodd" clip-rule="evenodd" d="M33 133V134H25V133H33ZM29.735 126.606L30.975 127.844L27.485 131.316L25.585 131.908L26.245 130.078L29.735 126.606ZM31.946 125.622C32.256 125.932 32.286 126.414 32.036 126.758L31.946 126.865L31.324 127.485L30.08 126.243L30.702 125.623C30.867 125.458 31.0907 125.365 31.324 125.365C31.5573 125.365 31.781 125.458 31.946 125.623V125.622Z" fill="black"/>
<path d="M32 132V133H24V132H32ZM28.735 125.606L29.975 126.844L26.485 130.316L24.585 130.908L25.245 129.078L28.735 125.606ZM30.946 124.622C31.256 124.932 31.286 125.414 31.036 125.758L30.946 125.865L30.324 126.485L29.08 125.243L29.702 124.623C29.867 124.458 30.0907 124.365 30.324 124.365C30.5573 124.365 30.781 124.458 30.946 124.623V124.622Z" fill="white"/>
<path fill-rule="evenodd" clip-rule="evenodd" d="M74 120H63V136H77V123L74 120Z" fill="#00B672"/>
<path opacity="0.15" d="M74 123H77V126L74 123Z" fill="black"/>
<path opacity="0.6" d="M77 123H74.2C74.147 123 74.0961 122.979 74.0586 122.941C74.0211 122.904 74 122.853 74 122.8V120L77 123Z" fill="white"/>
<path d="M67 129V132H66V129H67ZM69 127V132H68V127H69ZM71 125V132H70V125H71ZM73 127V132H72V127H73Z" fill="white"/>
<path opacity="0.3" fill-rule="evenodd" clip-rule="evenodd" d="M68 130V133H67V130H68ZM70 128V133H69V128H70ZM72 126V133H71V126H72ZM74 128V133H73V128H74Z" fill="black"/>
<path fill-rule="evenodd" clip-rule="evenodd" d="M95 120H84V136H98V123L95 120Z" fill="#F68133"/>
<path opacity="0.15" d="M95 123H98V126L95 123Z" fill="black"/>
<path opacity="0.6" d="M98 123H95.2C95.147 123 95.0961 122.979 95.0586 122.941C95.0211 122.904 95 122.853 95 122.8V120L98 123Z" fill="white"/>
<path opacity="0.3" fill-rule="evenodd" clip-rule="evenodd" d="M91.0051 126.003V129.993L94.9851 129.994C94.8897 130.638 94.6172 131.243 94.1979 131.741C93.7787 132.239 93.2292 132.611 92.6109 132.815C91.9926 133.019 91.3298 133.047 90.6965 132.896C90.0632 132.745 89.4843 132.421 89.0246 131.96C88.5648 131.499 88.2422 130.919 88.0928 130.285C87.9433 129.652 87.973 128.989 88.1785 128.371C88.3839 127.753 88.7571 127.205 89.2562 126.787C89.7553 126.369 90.3608 126.098 91.0051 126.004V126.003ZM92.0001 125.005C93.018 125.119 93.9665 125.577 94.6892 126.302C95.4118 127.028 95.8655 127.979 95.9751 128.997H94.7381C94.6352 128.306 94.314 127.666 93.8214 127.17C93.3287 126.675 92.6906 126.35 92.0001 126.243V125.005Z" fill="black"/>
<path d="M90.0051 125.003V128.993L93.9851 128.994C93.8897 129.638 93.6172 130.243 93.1979 130.741C92.7787 131.239 92.2292 131.611 91.6109 131.815C90.9926 132.019 90.3298 132.047 89.6965 131.896C89.0632 131.745 88.4843 131.421 88.0246 130.96C87.5648 130.499 87.2422 129.919 87.0928 129.285C86.9433 128.652 86.973 127.989 87.1785 127.371C87.3839 126.753 87.7571 126.205 88.2562 125.787C88.7553 125.369 89.3608 125.098 90.0051 125.004V125.003ZM91.0001 124.005C92.018 124.119 92.9665 124.577 93.6892 125.302C94.4118 126.028 94.8655 126.979 94.9751 127.997H93.7381C93.6352 127.306 93.314 126.666 92.8214 126.17C92.3287 125.675 91.6906 125.35 91.0001 125.243V124.005Z" fill="white"/>
<path d="M433 61H451L457 67.25V91H433V61Z" fill="#42ADFF"/>
<rect x="433" y="61" width="7" height="5" fill="#003D75"/>
<rect x="433" y="66" width="7" height="4" fill="#006DCC"/>
<rect x="433" y="70" width="7" height="5" fill="#0096FA"/>
<path d="M454 79.2499H449.446C449.464 79.013 449.482 78.6079 449.482 78.1156V77H447.524V78.1156C447.524 78.6079 447.548 79.013 447.56 79.2499H443V81.1694H445.268C444.532 81.7365 444.137 82.6776 444.137 83.8618C444.137 86.1365 445.873 88 448.5 88C451.127 88 452.863 86.1428 452.863 83.8618C452.863 82.6714 452.408 81.6992 451.732 81.1694H454V79.2499ZM448.5 86.0867C447.082 86.0867 446.094 84.9337 446.094 83.5751C446.094 82.2164 447.082 81.0635 448.5 81.0635C449.918 81.0635 450.906 82.2164 450.906 83.5751C450.906 84.9337 449.918 86.0867 448.5 86.0867Z" fill="white"/>
<path fill-rule="evenodd" clip-rule="evenodd" d="M332 61H313V91H337V66L332 61Z" fill="#5E84E2"/>
<path opacity="0.15" d="M332 66H337V71L332 66Z" fill="black"/>
<path opacity="0.6" d="M337 66H332.333C332.245 66 332.16 65.9649 332.098 65.9025C332.035 65.84 332 65.7553 332 65.667V61L337 66Z" fill="white"/>
<path opacity="0.3" fill-rule="evenodd" clip-rule="evenodd" d="M332 82.9999V83.9999H319V82.9999H332ZM327.831 71.5119L330.156 73.8319L323.611 80.3419L320.049 81.4529L321.287 78.0219L327.831 71.5119ZM331.976 69.6669C332.572 70.2619 332.616 71.2009 332.106 71.8469L331.975 71.9969L330.809 73.1589L328.478 70.8309L329.643 69.6679C329.953 69.3589 330.372 69.1853 330.81 69.1853C331.247 69.1853 331.666 69.3589 331.976 69.6679V69.6669Z" fill="black"/>
<path d="M331 81.9999V82.9999H318V81.9999H331ZM326.831 70.5119L329.156 72.8319L322.611 79.3419L319.049 80.4529L320.287 77.0219L326.831 70.5119ZM330.976 68.6669C331.572 69.2619 331.616 70.2009 331.106 70.8469L330.975 70.9969L329.809 72.1589L327.478 69.8309L328.643 68.6679C328.953 68.3589 329.372 68.1853 329.81 68.1853C330.247 68.1853 330.666 68.3589 330.976 68.6679V68.6669Z" fill="white"/>
<path fill-rule="evenodd" clip-rule="evenodd" d="M372 61H353V91H377V66.02L372 61Z" fill="#00B672"/>
<path opacity="0.15" d="M372 66H377V71L372 66Z" fill="black"/>
<path opacity="0.6" d="M377 66H372.333C372.245 66 372.16 65.9649 372.098 65.9025C372.035 65.84 372 65.7553 372 65.667V61L377 66Z" fill="white"/>
<path opacity="0.3" fill-rule="evenodd" clip-rule="evenodd" d="M365 74V84H362V74H365ZM361 77V84H358V77H361ZM369 70V84H366V70H369ZM373 74V84H370V74H373Z" fill="black"/>
<path d="M364 73V83H361V73H364ZM360 76V83H357V76H360ZM368 69V83H365V69H368ZM372 73V83H369V73H372Z" fill="white"/>
<path fill-rule="evenodd" clip-rule="evenodd" d="M412 61H393V91H417V66L412 61Z" fill="#F68133"/>
<path opacity="0.15" d="M412 66H417V71L412 66Z" fill="black"/>
<path opacity="0.6" d="M417 66H412.333C412.245 66 412.16 65.9649 412.098 65.9025C412.035 65.84 412 65.7553 412 65.667V61L417 66Z" fill="white"/>
<path opacity="0.3" fill-rule="evenodd" clip-rule="evenodd" d="M405.008 72.002V78.992L411.98 78.993C411.883 80.2321 411.432 81.4173 410.681 82.4081C409.931 83.3988 408.912 84.1537 407.746 84.5831C406.579 85.0125 405.314 85.0986 404.101 84.831C402.887 84.5634 401.775 83.9534 400.898 83.0733C400.02 82.1933 399.413 81.08 399.149 79.8655C398.884 78.651 398.974 77.3862 399.406 76.221C399.839 75.0558 400.597 74.0391 401.589 73.2913C402.582 72.5436 403.769 72.0961 405.008 72.002ZM406 70.014C408.078 70.1365 410.039 71.0172 411.511 72.4892C412.983 73.9611 413.863 75.922 413.986 78H411.981C411.862 76.4537 411.193 75.0009 410.097 73.9041C409 72.8073 407.547 72.1387 406.001 72.019V70.014H406Z" fill="black"/>
<path d="M404.008 71.002V77.992L410.98 77.993C410.883 79.2321 410.432 80.4173 409.681 81.4081C408.931 82.3988 407.912 83.1537 406.746 83.5831C405.579 84.0125 404.314 84.0986 403.101 83.831C401.887 83.5634 400.775 82.9534 399.898 82.0733C399.02 81.1933 398.413 80.08 398.149 78.8655C397.884 77.651 397.974 76.3862 398.406 75.221C398.839 74.0558 399.597 73.0391 400.589 72.2913C401.582 71.5436 402.769 71.0961 404.008 71.002ZM405 69.014C407.078 69.1365 409.039 70.0172 410.511 71.4892C411.983 72.9611 412.863 74.922 412.986 77H410.981C410.862 75.4537 410.193 74.0009 409.097 72.9041C408 71.8073 406.547 71.1387 405.001 71.019V69.014H405Z" fill="white"/>
<path d="M128.5 34.25V36.393H136V38H127V34.25H128.5ZM131.523 33.682C132.073 33.684 132.518 34.128 132.522 34.677C132.523 34.8087 132.497 34.9392 132.447 35.0611C132.397 35.1829 132.323 35.2937 132.231 35.387C132.138 35.4804 132.027 35.5545 131.906 35.6051C131.784 35.6558 131.654 35.6819 131.522 35.682C131.256 35.6812 131.002 35.5749 130.814 35.3865C130.627 35.198 130.521 34.9428 130.522 34.677C130.527 34.127 130.973 33.684 131.522 33.682H131.523ZM131.55 26.975C132.346 26.975 133.109 27.2911 133.671 27.8537C134.234 28.4163 134.55 29.1794 134.55 29.975C134.55 30.7706 134.234 31.5337 133.671 32.0963C133.109 32.6589 132.346 32.975 131.55 32.975C130.755 32.9739 129.992 32.6575 129.43 32.0951C128.867 31.5328 128.551 30.7703 128.55 29.975C128.55 28.318 129.893 26.975 131.55 26.975ZM131.55 28.517C131.163 28.5175 130.793 28.6714 130.519 28.945C130.246 29.2185 130.092 29.5893 130.092 29.976C130.092 30.2641 130.178 30.5456 130.338 30.7851C130.498 31.0245 130.726 31.2111 130.992 31.3213C131.258 31.4314 131.551 31.4602 131.833 31.404C132.116 31.3477 132.376 31.209 132.579 31.0053C132.783 30.8015 132.922 30.542 132.978 30.2595C133.034 29.977 133.005 29.6841 132.895 29.4179C132.785 29.1517 132.599 28.9241 132.359 28.764C132.12 28.6038 131.838 28.5182 131.55 28.518V28.517ZM132.5 23V24.607H135.5V26.214H127.5V24.607H130.5V23H132.5Z" fill="white"/>
<path fill-rule="evenodd" clip-rule="evenodd" d="M160 20H192L184.132 37.3104C182.833 40.1664 179.986 42 176.849 42H160V20Z" fill="#EB2E4F"/>
<path d="M166.151 23.384C166.884 22.9413 167.815 22.877 168.612 23.2139C170.676 24.0858 172.337 25.5938 173.304 27.473L173.321 27.5028C173.579 27.9912 173.778 28.5044 173.912 29.0328C173.917 29.0514 173.92 29.07 173.925 29.0885C173.948 29.1731 173.97 29.2577 173.989 29.3432C173.998 29.3804 174.005 29.4167 174.013 29.4529C174.03 29.5264 174.044 29.5989 174.058 29.6714L174.08 29.7875C174.093 29.8628 174.105 29.9391 174.116 30.0153C174.12 30.0487 174.131 30.0831 174.131 30.1175C174.146 30.2263 174.159 30.3415 174.168 30.4457C174.177 30.5498 174.184 30.6529 174.19 30.7561V30.8361C174.197 30.9337 174.197 31.034 174.197 31.127V31.1484C174.197 31.2516 174.191 31.3547 174.191 31.457V31.5351C174.187 31.628 174.181 31.721 174.174 31.8139V31.8502C174.166 31.9524 174.155 32.0547 174.143 32.1569L174.132 32.2285C174.127 32.2629 174.118 32.2964 174.118 32.3298C174.038 32.8666 173.904 33.3955 173.718 33.91L173.709 33.9416C173.046 35.7378 171.769 37.2921 170.066 38.3755C169.908 38.4752 169.747 38.5707 169.582 38.6618C168.832 39.0793 167.898 39.1124 167.114 38.7491C166.329 38.3916 165.802 37.6881 165.723 36.8901C165.519 34.8223 166.119 32.755 167.418 31.0508L167.39 31.0275L167.415 31.0006C165.912 29.4439 165.057 27.4535 165.001 25.3788C164.977 24.5763 165.413 23.8205 166.151 23.384ZM172.221 29.491L172.197 29.4994C172.114 29.5319 172.032 29.5654 171.951 29.6007L171.895 29.624C171.793 29.6714 171.691 29.716 171.59 29.7643L171.544 29.7875C171.46 29.8294 171.378 29.8712 171.295 29.9158L171.218 29.9595C171.148 29.9976 171.077 30.0376 171.008 30.0785L170.92 30.1324C170.851 30.1742 170.783 30.217 170.716 30.2607L170.659 30.2979C170.575 30.3536 170.491 30.4113 170.41 30.4698L170.399 30.4773C170.315 30.5349 170.231 30.599 170.149 30.6632L170.091 30.7096C170.029 30.7598 169.967 30.811 169.906 30.863L169.871 30.8937C169.443 31.2651 169.064 31.6806 168.741 32.1318C167.764 33.4959 167.321 35.1219 167.485 36.7451C167.509 36.9915 167.672 37.2084 167.915 37.3177C168.157 37.4322 168.447 37.4227 168.679 37.2926C170.203 36.4439 171.367 35.149 171.981 33.6191L171.921 33.6014C171.83 33.5772 171.738 33.5521 171.648 33.5252L171.533 33.4899L171.301 33.4155L171.181 33.3746C171.103 33.3467 171.025 33.3188 170.947 33.2891L170.845 33.25C170.734 33.2082 170.616 33.1608 170.515 33.1153C170.413 33.0697 170.311 33.0242 170.209 32.9768L170.131 32.9396C170.038 32.894 169.944 32.8485 169.853 32.8011L169.831 32.7899C169.734 32.7388 169.637 32.6858 169.541 32.6319L169.468 32.5901C169.383 32.5408 169.299 32.4906 169.217 32.4395L169.181 32.4181C169.152 32.4005 169.125 32.3819 169.097 32.3633C169.421 31.9122 169.801 31.4972 170.23 31.127L170.22 31.1205L170.261 31.1447C170.342 31.1949 170.425 31.2413 170.507 31.2878C170.541 31.3073 170.576 31.325 170.609 31.3436C170.685 31.3845 170.762 31.4245 170.839 31.4626L170.941 31.5118C171.05 31.5639 171.159 31.615 171.27 31.6624C171.356 31.6996 171.443 31.7349 171.529 31.7684L171.614 31.8009C171.674 31.8232 171.734 31.8455 171.794 31.866L171.896 31.9013L172.063 31.9561L172.165 31.9887C172.22 32.0054 172.276 32.0212 172.332 32.0361L172.396 32.0547V32.0324C172.411 31.9227 172.422 31.813 172.431 31.7033V31.6336C172.438 31.5453 172.445 31.4607 172.445 31.3678C172.441 31.3306 172.441 31.2952 172.434 31.2534V30.9114C172.43 30.7998 172.424 30.6883 172.414 30.5767C172.406 30.4903 172.396 30.4038 172.385 30.3174C172.382 30.2904 172.372 30.2625 172.372 30.2356C172.364 30.177 172.355 30.1185 172.346 30.0599L172.328 29.9669C172.317 29.914 172.307 29.8601 172.296 29.8071C172.289 29.7736 172.282 29.7401 172.274 29.7067C172.261 29.6546 172.249 29.6026 172.236 29.5505L172.221 29.491ZM173.643 27.1901C175.72 26.8684 177.846 27.2346 179.693 28.2321C180.455 28.644 180.948 29.4183 180.995 30.2782C181.049 31.1373 180.649 31.9624 179.94 32.4581L179.87 32.507C178.163 33.6761 176.12 34.2632 174.048 34.1799C174.246 33.627 174.37 33.0503 174.414 32.4651H174.402C176 32.4676 177.561 31.99 178.877 31.0907L178.934 31.0508C179.154 30.8979 179.277 30.6425 179.259 30.3771C179.246 30.1105 179.093 29.8702 178.857 29.7433C177.43 28.973 175.795 28.6642 174.183 28.8599C174.182 28.8501 174.18 28.8404 174.178 28.831C174.102 28.257 173.918 27.7018 173.643 27.1901ZM167.882 24.6751C167.636 24.571 167.348 24.5918 167.123 24.73C166.894 24.8635 166.758 25.0977 166.766 25.3463C166.807 26.9742 167.451 28.5415 168.591 29.7931L168.636 29.755C168.706 29.6946 168.777 29.6351 168.848 29.5765C168.878 29.5514 168.908 29.5273 168.939 29.5031C169 29.4501 169.062 29.4055 169.125 29.3572L169.227 29.2828C169.292 29.2336 169.358 29.1871 169.424 29.1406L169.514 29.0774C169.611 29.0114 169.714 28.9435 169.807 28.884C169.9 28.8246 169.995 28.7679 170.091 28.7112L170.165 28.6684C170.254 28.6173 170.343 28.5671 170.434 28.5187L170.457 28.5057C170.554 28.45 170.649 28.4053 170.751 28.357L170.83 28.3189C170.918 28.2771 171.005 28.2362 171.095 28.1962L171.135 28.1776C171.237 28.1339 171.339 28.0921 171.441 28.0512L171.522 28.0196L171.624 27.9815C170.821 26.5251 169.502 25.3598 167.882 24.6751Z" fill="white"/>
<path fill-rule="evenodd" clip-rule="evenodd" d="M80 20H112L104.132 37.31C103.496 38.7085 102.472 39.8944 101.18 40.726C99.8887 41.5577 98.3851 42 96.849 42H80V20Z" fill="#F68133"/>
<path d="M90.4997 25C90.6677 25 90.8347 25.006 90.9997 25.019V31H96.9807C97.0813 32.303 96.7867 33.6061 96.1354 34.7391C95.4842 35.8722 94.5065 36.7826 93.33 37.3516C92.1534 37.9206 90.8327 38.1217 89.5402 37.9287C88.2476 37.7358 87.0432 37.1576 86.0842 36.2698C85.1252 35.3819 84.4561 34.2256 84.1642 32.9518C83.8723 31.6779 83.9712 30.3456 84.4479 29.1288C84.9247 27.912 85.7572 26.8671 86.8368 26.1306C87.9163 25.3941 89.1929 25.0001 90.4997 25ZM91.9997 23C93.8563 23 95.6367 23.7375 96.9495 25.0503C98.2622 26.363 98.9997 28.1435 98.9997 30H96.9997C96.9997 28.6739 96.473 27.4021 95.5353 26.4645C94.5976 25.5268 93.3258 25 91.9997 25V23Z" fill="white"/>
<path fill-rule="evenodd" clip-rule="evenodd" d="M40 20H72L64.132 37.31C63.4964 38.7085 62.4717 39.8944 61.1802 40.726C59.8887 41.5577 58.3851 42 56.849 42H40V20Z" fill="#00B672"/>
<path d="M47 31V38H44V31H47ZM51 28V38H48V28H51ZM55 24V38H52V24H55ZM59 28V38H56V28H59Z" fill="white"/>
<path fill-rule="evenodd" clip-rule="evenodd" d="M0 20H32L24.132 37.31C23.4964 38.7085 22.4717 39.8944 21.1802 40.726C19.8887 41.5577 18.3851 42 16.849 42H0V20Z" fill="#5E84E2"/>
<path d="M4 37H17V38H4V37ZM14.726 28.513L8.26 34.835L4.74 35.913L5.963 32.581L12.429 26.259L14.726 28.513ZM16.523 24.468C17.149 25.082 17.159 26.073 16.553 26.7L15.371 27.86L13.068 25.598L14.218 24.469C14.5265 24.1687 14.94 24.0006 15.3705 24.0006C15.801 24.0006 16.2145 24.1687 16.523 24.469V24.468Z" fill="white"/>
<path d="M178.924 238.136V240.863H188.563V242.909H176.996V238.136H178.924V238.136ZM182.809 237.413C183.147 237.413 183.471 237.546 183.711 237.783C183.952 238.02 184.089 238.343 184.093 238.68C184.094 238.848 184.061 239.014 183.996 239.169C183.932 239.324 183.838 239.465 183.719 239.583C183.477 239.823 183.15 239.958 182.809 239.958C182.468 239.958 182.141 239.823 181.899 239.583C181.779 239.465 181.685 239.325 181.62 239.17C181.556 239.015 181.522 238.848 181.522 238.68C181.529 237.98 182.103 237.417 182.809 237.413V237.413ZM182.844 228.877C184.972 228.878 186.697 230.587 186.698 232.695C186.695 234.803 184.971 236.51 182.843 236.514C180.715 236.511 178.99 234.803 178.988 232.695C178.988 230.587 180.714 228.878 182.843 228.877H182.844ZM182.844 230.84C182.349 230.839 181.874 231.033 181.523 231.381C181.171 231.729 180.972 232.202 180.969 232.696C180.973 233.19 181.172 233.663 181.523 234.011C181.875 234.358 182.349 234.552 182.844 234.55C183.338 234.552 183.812 234.358 184.163 234.01C184.513 233.663 184.712 233.19 184.714 232.696C184.714 231.672 183.877 230.841 182.843 230.841L182.844 230.84ZM184.064 223.818V225.863H187.92V227.909H177.639V225.863H181.494V223.818H184.064V223.818Z" fill="white"/>
<g clip-path="url(#clip0_3428_82190)">
<path d="M182 248L192.5 248C194.433 248 196 246.433 196 244.5V240.999L182 240.999L182 248Z" fill="#98D0F5"/>
<path d="M182 241.003L196 241.003V234.002L182 234.002L182 241.003Z" fill="url(#paint0_linear_3428_82190)"/>
<path d="M182 234.003L196 234.003V227.002L182 227.002L182 234.003Z" fill="url(#paint1_linear_3428_82190)"/>
<path d="M182 227.001L196 227.001V223.5C196 221.567 194.433 220 192.5 220L182 220L182 227.001Z" fill="url(#paint2_linear_3428_82190)"/>
<path d="M182 248V220H185.5C185.249 222.137 184.656 227.429 184.228 233.273C183.773 239.478 183.566 245.861 183.505 248H182Z" fill="url(#paint3_linear_3428_82190)"/>
<path d="M172.9 220H182V248H172.9C171.597 248 170.946 248 170.418 247.829C169.353 247.482 168.518 246.647 168.171 245.582C168 245.054 168 244.403 168 243.1V224.9C168 223.597 168 222.946 168.171 222.418C168.518 221.353 169.353 220.518 170.418 220.171C170.946 220 171.597 220 172.9 220Z" fill="url(#paint4_linear_3428_82190)"/>
<path d="M179.252 225.694H175.731C175.745 225.518 175.759 225.218 175.759 224.852V224.024H174.246V224.852C174.246 225.218 174.265 225.518 174.274 225.694H170.748V227.119H172.502C171.933 227.54 171.627 228.239 171.627 229.118C171.627 230.807 172.969 232.19 175 232.19C177.032 232.19 178.373 230.812 178.373 229.118C178.373 228.234 178.022 227.513 177.499 227.119H179.252V225.694ZM175 230.77C173.904 230.77 173.14 229.914 173.14 228.905C173.14 227.897 173.904 227.041 175 227.041C176.097 227.041 176.86 227.897 176.86 228.905C176.86 229.914 176.097 230.77 175 230.77Z" fill="white"/>
</g>
<path fill-rule="evenodd" clip-rule="evenodd" d="M112 220H159L147.425 245.218C146.496 247.242 145.006 248.957 143.131 250.159C141.257 251.361 139.077 252 136.85 252H112V220Z" fill="#F68133"/>
<path d="M127.422 227.273C127.669 227.273 127.914 227.282 128.157 227.3V236L136.941 236.001C136.959 236.241 136.969 236.483 136.969 236.727C136.969 241.949 132.694 246.182 127.422 246.182C122.149 246.182 117.875 241.949 117.875 236.727C117.875 231.506 122.149 227.273 127.422 227.273ZM129.625 224.363C135.303 224.363 139.906 228.923 139.906 234.545H136.969C136.969 230.529 133.681 227.273 129.625 227.273V224.363Z" fill="white"/>
<path fill-rule="evenodd" clip-rule="evenodd" d="M56 220H103L91.425 245.218C90.4961 247.242 89.0059 248.957 87.1314 250.159C85.2569 251.361 83.0768 252 80.85 252H56V220Z" fill="#00B672"/>
<path d="M66.281 236V246.182H61.875V236H66.281ZM72.156 231.636V246.182H67.75V231.636H72.156ZM78.031 225.818V246.182H73.625V225.818H78.031ZM83.906 231.636V246.182H79.5V231.636H83.906Z" fill="white"/>
<path fill-rule="evenodd" clip-rule="evenodd" d="M0 220H47L35.425 245.218C34.4961 247.242 33.0059 248.957 31.1314 250.159C29.2569 251.361 27.0769 252 24.85 252H0V220Z" fill="#5E84E2"/>
<path d="M5.875 244.727H24.969V246.182H5.875V244.727ZM21.628 232.382L12.131 241.578L6.961 243.146L8.76 238.3L18.256 229.105L21.629 232.382H21.628ZM24.268 226.499C24.4858 226.708 24.6599 226.959 24.7801 227.236C24.9003 227.513 24.9643 227.811 24.9683 228.113C24.9722 228.415 24.9162 228.715 24.8034 228.995C24.6906 229.275 24.5232 229.53 24.311 229.745L22.576 231.432L19.193 228.143L20.883 226.501C21.819 225.591 23.333 225.591 24.269 226.499H24.268Z" fill="white"/>
<path fill-rule="evenodd" clip-rule="evenodd" d="M559.552 4.066L558.827 4.781L561.038 6.961L555.987 6.963V2H555V7.974H561.038L558.827 10.155L559.552 10.871L563 7.469L559.552 4.066Z" fill="black" fill-opacity="0.6"/>
<path fill-rule="evenodd" clip-rule="evenodd" d="M564 20V21.697L551.697 34H550L564 20ZM562 27V32H557L562 27Z" fill="black" fill-opacity="0.48"/>
<g clip-path="url(#clip1_3428_82190)">
<path d="M132 44L142 44C143.105 44 144 43.1045 144 42V37.9991L132 37.9991L132 44Z" fill="#98D0F5"/>
<path d="M132 38.0029L144 38.0029V32.0021L132 32.0021L132 38.0029Z" fill="#43AEFF"/>
<path d="M132 32.0019L144 32.0019V26.0011L132 26.0011L132 32.0019Z" fill="#0182E5"/>
<rect x="132" y="20" width="1" height="24" fill="black" fill-opacity="0.12"/>
<path d="M132 26.0009L144 26.001V22.0001C144 20.8956 143.105 20.0001 142 20.0001L132 20.0001L132 26.0009Z" fill="#014D9A"/>
<path d="M122.8 20H132V44H122.8C122.055 44 121.683 44 121.382 43.9021C120.773 43.7043 120.296 43.2269 120.098 42.618C120 42.3168 120 41.9445 120 41.2V22.8C120 22.0555 120 21.6832 120.098 21.382C120.296 20.7731 120.773 20.2957 121.382 20.0979C121.683 20 122.055 20 122.8 20Z" fill="#42ADFF"/>
<path d="M129.645 24.8809H126.627C126.639 24.7302 126.651 24.4724 126.651 24.1591V23.4492H125.354V24.1591C125.354 24.4724 125.37 24.7302 125.378 24.8809H122.355V26.1025H123.859C123.371 26.4634 123.109 27.0623 123.109 27.8158C123.109 29.2634 124.259 30.4492 126 30.4492C127.741 30.4492 128.891 29.2673 128.891 27.8158C128.891 27.0583 128.59 26.4396 128.142 26.1025H129.645V24.8809ZM126 29.2317C125.06 29.2317 124.406 28.4979 124.406 27.6334C124.406 26.7688 125.06 26.0351 126 26.0351C126.94 26.0351 127.595 26.7688 127.595 27.6334C127.595 28.4979 126.94 29.2317 126 29.2317Z" fill="white"/>
</g>
<defs>
<linearGradient id="paint0_linear_3428_82190" x1="189" y1="241.004" x2="189" y2="234.003" gradientUnits="userSpaceOnUse">
<stop stop-color="#37A5FA"/>
<stop offset="0.115015" stop-color="#42ADFF"/>
</linearGradient>
<linearGradient id="paint1_linear_3428_82190" x1="189" y1="234.003" x2="189" y2="227.002" gradientUnits="userSpaceOnUse">
<stop stop-color="#007BD9"/>
<stop offset="0.125267" stop-color="#0082E5"/>
</linearGradient>
<linearGradient id="paint2_linear_3428_82190" x1="189" y1="227.001" x2="189" y2="220" gradientUnits="userSpaceOnUse">
<stop stop-color="#00458A"/>
<stop offset="0.114689" stop-color="#004D99"/>
</linearGradient>
<linearGradient id="paint3_linear_3428_82190" x1="182.215" y1="227.304" x2="184.748" y2="227.579" gradientUnits="userSpaceOnUse">
<stop stop-opacity="0.49"/>
<stop offset="1" stop-opacity="0"/>
</linearGradient>
<linearGradient id="paint4_linear_3428_82190" x1="175" y1="220" x2="175" y2="248" gradientUnits="userSpaceOnUse">
<stop stop-color="#42ADFF"/>
<stop offset="1" stop-color="#33A7FF"/>
</linearGradient>
<clipPath id="clip0_3428_82190">
<rect width="28" height="28" fill="white" transform="translate(168 220)"/>
</clipPath>
<clipPath id="clip1_3428_82190">
<rect width="24" height="24" fill="white" transform="translate(120 20)"/>
</clipPath>
</defs>
</svg>
