<svg xmlns="http://www.w3.org/2000/svg" width="1345" height="1225" fill="none"><path fill="#000" fill-opacity=".6" fill-rule="evenodd" d="M341 3v20h-16V3zm-1 1h-14v18h14z" clip-rule="evenodd"/><path fill="#000" fill-opacity=".6" fill-rule="evenodd" d="M338 17v1h-10v-1zm0-3v1h-10v-1zm0-3v1h-10v-1zm0-3v1h-10V8zM383 21h-20V5h20zm-1-1V6h-18v14z" clip-rule="evenodd"/><path fill="#000" fill-opacity=".6" fill-rule="evenodd" d="M379 15v1h-12v-1zm0-3v1h-12v-1zm0-3v1h-12V9zM822 3v20h-17v-3.5h-1v-1h1v-3h-1v-1h1v-3h-1v-1h1v-3h-1v-1h1V3zm-1 1h-15v2.5h1v1h-1v3h1v1h-1v3h1v1h-1v3h1v1h-1V22h15z" clip-rule="evenodd"/><path fill="#2367FF" fill-rule="evenodd" d="M817.576 12.968v5.7h-1.368V7.592h1.368v4.224h1.776v1.152zm-5.616 1.878a11.6 11.6 0 0 1-2.232 1.53l-.828-.876a9.6 9.6 0 0 0 1.944-1.284 8.3 8.3 0 0 0 1.356-1.476q.54-.768.822-1.56t.342-1.536q-1.368.036-2.724.036h-1.26V8.528h3.624a68 68 0 0 0 1.848-.024q-.084 1.284-.408 2.412a8.3 8.3 0 0 1-.936 2.112 8.3 8.3 0 0 1-1.548 1.818" clip-rule="evenodd"/><path fill="#000" fill-opacity=".6" fill-rule="evenodd" d="M863 2v21h-21V2zm-11 1h-9v19h9v-3h-1v-1h1v-3h-1v-1h1v-3h-1v-1h1V7h-1V6h1zm10 0h-9v3h1v1h-1v3h1v1h-1v3h1v1h-1v3h1v1h-1v3h9z" clip-rule="evenodd"/><path fill="#2367FF" fill-rule="evenodd" d="M849.784 12.584v3.8h-.912V9h.912v2.816h1.184v.768zm-3.744 1.252q-.624.555-1.488 1.02l-.552-.584a6.4 6.4 0 0 0 1.296-.856q.544-.473.904-.984.36-.512.548-1.04t.228-1.024q-.912.024-1.816.024h-.84v-.768h2.416a45 45 0 0 0 1.232-.016 7.6 7.6 0 0 1-.272 1.608q-.216.751-.624 1.408a5.6 5.6 0 0 1-1.032 1.212m14.46 2.6V12.5h1.184v-.768H860.5v-2.68h-.912v7.384zm-2.52-2.096q-.736.088-1.48.088h-1.456V9.572h.912v4.088h.736q.752 0 1.376-.104t1.2-.248v.784q-.552.16-1.288.248" clip-rule="evenodd"/><path fill="#000" fill-opacity=".6" fill-rule="evenodd" d="M888 2v1h4V2h1v1h4V2h1v1h3v20h-17V3h3V2zm-1 2h-2v18h15V4h-2v1h-1V4h-4v1h-1V4h-4v1h-1z" clip-rule="evenodd"/><path fill="#2367FF" fill-rule="evenodd" d="M896.176 13.376v5.7h-1.368V8h1.368v4.224h1.776v1.152zm-5.616 1.878a11.6 11.6 0 0 1-2.232 1.53l-.828-.876a9.6 9.6 0 0 0 1.944-1.284 8.3 8.3 0 0 0 1.356-1.476q.54-.768.822-1.56t.342-1.536q-1.368.036-2.724.036h-1.26V8.936h3.624a68 68 0 0 0 1.848-.024q-.084 1.284-.408 2.412a8.3 8.3 0 0 1-.936 2.112 8.3 8.3 0 0 1-1.548 1.818" clip-rule="evenodd"/><path fill="#000" fill-opacity=".6" fill-rule="evenodd" d="M284 58v3h8v-3h1v3h8v-3h1v4h-19v-4zm18-14v4h-1v-3h-8v3h-1v-3h-8v3h-1v-4z" clip-rule="evenodd"/><path fill="#2367FF" fill-rule="evenodd" d="M302 58V48h-19v10zm-18-9h17v8h-17z" clip-rule="evenodd"/><path fill="#2367FF" fill-opacity=".3" d="M301 49h-17v8h17z"/><path fill="#000" fill-opacity=".6" fill-rule="evenodd" d="M294.784 56.884v-3.8h1.184v-.768h-1.184V49.5h-.912v7.384zm-5.232-1.528a7.7 7.7 0 0 0 1.488-1.02q.624-.556 1.032-1.212t.624-1.408a7.6 7.6 0 0 0 .272-1.608 62 62 0 0 1-1.232.016h-2.416v.768h.84q.904 0 1.816-.024-.04.495-.228 1.024a4.3 4.3 0 0 1-.548 1.04q-.36.512-.904.984-.545.472-1.296.856zM337 52v1h-13v8h13v1h-14V52zm-11-4v-1h10v-2h-12v5h11v1h-12v-7h14v3h6v1h-6v1h-1v-1z" clip-rule="evenodd"/><path fill="#2367FF" fill-rule="evenodd" d="M343 53.56c0-1.966-2.008-3.56-4.484-3.56h-2.491v.791h2.491l.191.004c1.837.08 3.297 1.287 3.297 2.766 0 1.53-1.578 3.106-3.504 3.106h-3.516l2.216-1.905-.677-.834L333 57.143 336.5 60l.7-.952-2.216-1.59h3.516c2.476 0 4.5-1.93 4.5-3.897M332 55v1h-6v-1zm0 3v1h-6v-1z" clip-rule="evenodd"/><path fill="#000" fill-opacity=".6" fill-rule="evenodd" d="M444.692 102.058a.5.5 0 0 1 0-.707l.959-.959.966-4.186-.158-.158 10.607-10.607a3 3 0 0 1 4.243 4.243l-10.607 10.607-.158-.158-4.186.966-.959.959a.5.5 0 0 1-.707 0m3.182-6.01 2.828 2.828 9.9-9.9a2 2 0 0 0 .101-2.718l-.101-.11a2 2 0 0 0-2.719-.101l-.11.102zm-1.087 3.863.052.052 2.872-.664-2.261-2.26z" clip-rule="evenodd"/><path fill="#000" fill-opacity=".2" fill-rule="evenodd" d="m450.703 98.876-2.828-2.829 9.899-9.899a2 2 0 0 1 2.829 2.829z" clip-rule="evenodd"/><path fill="#000" fill-opacity=".6" fill-rule="evenodd" d="M1084.69 102.058a.51.51 0 0 1 0-.707l.96-.959.97-4.186-.16-.158 10.61-10.607a2.997 2.997 0 0 1 4.24 0 3.003 3.003 0 0 1 0 4.243l-10.61 10.607-.16-.158-4.18.966-.96.959a.5.5 0 0 1-.71 0m3.18-6.01 2.83 2.828 9.9-9.9c.75-.745.78-1.932.1-2.718l-.1-.11a2 2 0 0 0-2.72-.101l-.11.102zm-1.08 3.863.05.052 2.87-.664-2.26-2.26z" clip-rule="evenodd"/><path fill="#000" fill-opacity=".2" fill-rule="evenodd" d="m1090.7 98.876-2.83-2.829 9.9-9.899a2 2 0 0 1 2.83 0c.78.781.78 2.047 0 2.829z" clip-rule="evenodd"/><path fill="#2367FF" d="M974 84v8.999l9 .001v1l-9-.002V103h-1v-9.002L964 94v-1l9-.001V84z"/><path fill="#E13A1B" d="m1020.32 85 .68.677-7.32 7.323 7.32 7.323-.68.677-7.32-7.323-7.32 7.323-.68-.677 7.32-7.323-7.32-7.323.68-.677 7.32 7.322z"/><path fill="#44ACF0" d="M43 125h20v11H43z" opacity=".8"/><path fill="#88C83F" d="M43 136h20v5H43z" opacity=".8"/><path fill="#000" fill-opacity=".6" fill-rule="evenodd" d="M64 124v18H42v-18zm-1 1H43v16h20z" clip-rule="evenodd"/><path fill="#157C15" fill-rule="evenodd" d="M55.556 141h.888c3.344-.744 3.556-4 3.556-4s-2.915.215-3.556 4v-5h-.888zm0 0c-.64-3.786-3.556-4-3.556-4s.212 3.257 3.556 4" clip-rule="evenodd"/><path fill="#FFE243" d="m56 127.912 1.266 1.272.791-1.244q1.533 2.677 1.437 4.081c-.105 1.553-1.533 2.968-3.27 2.968h-.448c-1.737 0-3.165-1.415-3.27-2.968q-.096-1.4 1.437-4.081l.791 1.244z"/><path fill="#FFE243" fill-rule="evenodd" d="m53.897 126 1.009 1.586L56 126.487l1.093 1.099 1.01-1.585.82 1.433c1.113 1.944 1.65 3.468 1.569 4.657-.145 2.13-2.052 3.909-4.268 3.909h-.448c-2.216 0-4.123-1.779-4.268-3.909-.08-1.186.456-2.709 1.569-4.657zm3.369 3.183L56 127.912l-1.266 1.271-.791-1.243q-1.533 2.681-1.437 4.081c.105 1.553 1.533 2.968 3.27 2.968h.448c1.737 0 3.165-1.415 3.27-2.968q.096-1.404-1.437-4.081z" clip-rule="evenodd"/><path fill="#000" fill-opacity=".6" fill-rule="evenodd" d="M102 84v17H83V84zm-8 16v-3h-6v-1h6v-3h-6v-1h6v-3.001L95 89v3h6v-7h-6v3l-1-.001V85H84v7h3v1h-3v3h3v1h-3v3zm7-3h-6v3h6zm0-4h-6v3h6z" clip-rule="evenodd"/><path fill="#000" fill-opacity=".2" fill-rule="evenodd" d="M88 89h6v3h-6z" clip-rule="evenodd"/><path fill="#E13A1B" d="M88 85v2.999L101 88v1l-13-.001V100h-1V88.999L84 89v-1l3-.001V85z"/><path fill="url(#a)" d="M783 123v20h-20v-20z"/><path fill="url(#b)" d="M803 143v-20h20v20z"/><path fill="#2367FF" fill-opacity=".3" fill-rule="evenodd" d="m1204 125.415 4.58 4.584H1204zm4.58 15.584-4.58-4.584v4.584zm11 0-4.58-4.584v4.584zm0-11-4.58-4.584v4.584z" clip-rule="evenodd"/><path fill="#2367FF" fill-rule="evenodd" d="m1203 123 8 8h-8zm8 19-8-8v8zm11 0-8-8v8zm-18-5.585v4.584h4.58zm11 4.584v-4.584l4.58 4.584zm7-9.999-8-8v8zm-18-5.585v4.584h4.58zm11 4.584v-4.584l4.58 4.584z" clip-rule="evenodd"/><path fill="#000" fill-opacity=".6" fill-rule="evenodd" d="M1213 122v10h10v1h-10v10h-1v-10.001l-10 .001v-1l10-.001V122z" clip-rule="evenodd"/><path fill="#2367FF" fill-opacity=".3" fill-rule="evenodd" d="m1244 125.415 4.58 4.584H1244zm4.58 15.584-4.58-4.584v4.584zm12.42 0v-4.584l-4.58 4.584zm0-11v-4.584l-4.58 4.584z" clip-rule="evenodd"/><path fill="#2367FF" fill-rule="evenodd" d="M1262 123v8h-8zm-11 19-8-8v8zm11 0v-8l-8 8zm-1-5.585-4.58 4.584h4.58zm-17 4.584v-4.584l4.58 4.584zm7-9.999-8-8v8zm10-5.585-4.58 4.584h4.58zm-17 4.584v-4.584l4.58 4.584z" clip-rule="evenodd"/><path fill="#000" fill-opacity=".6" fill-rule="evenodd" d="M1253 122v10h10v1h-10v10h-1v-10.001l-10 .001v-1l10-.001V122z" clip-rule="evenodd"/><path fill="#2367FF" fill-opacity=".3" fill-rule="evenodd" d="m1284 139.585 4.58-4.584H1284zm0-14.17 4.58 4.584H1284zm11 0 4.58 4.584H1295zm4.58 9.586-4.58 4.584v-4.584z" clip-rule="evenodd"/><path fill="#2367FF" fill-rule="evenodd" d="m1283 142 8-8h-8zm0-19 8 8h-8zm11 0 8 8h-8zm-5.42 6.999H1284v-4.584zm6.42 0h4.58l-4.58-4.584zm7 4.001-8 8v-8zm-18 5.585v-4.584h4.58zm11-4.584v4.584l4.58-4.584z" clip-rule="evenodd"/><path fill="#000" fill-opacity=".6" fill-rule="evenodd" d="M1293 122v10h10v1h-10v10h-1v-10.001l-10 .001v-1l10-.001V122z" clip-rule="evenodd"/><path fill="#D8D8D8" d="M1321 121h24v24h-24z" opacity=".01"/><path fill="#2367FF" fill-opacity=".3" fill-rule="evenodd" d="m1324 139.585 4.58-4.584H1324zm0-14.17 4.58 4.584H1324zm17 0v4.584h-4.58zm0 9.586v4.584l-4.58-4.584z" clip-rule="evenodd"/><path fill="#2367FF" fill-rule="evenodd" d="M1342 142v-8h-8zm-19-19 8 8h-8zm19 0v8h-8zm-1 6.999h-4.58l4.58-4.584zm-17 0h4.58l-4.58-4.584zm7 4.001-8 8v-8zm10 5.585-4.58-4.584h4.58zm-17-4.584v4.584l4.58-4.584z" clip-rule="evenodd"/><path fill="#000" fill-opacity=".6" fill-rule="evenodd" d="M1333 122v10h10v1h-10v10h-1v-10.001l-10 .001v-1l10-.001V122zM53.5 302v-16.424L58.381 290l.619-.561L53 284l-6 5.439.619.561 4.881-4.424V302zM93.5 284v16.424L98.381 296l.619.561L93 302l-6-5.439.619-.561 4.881 4.424V284zM142 293.5h-16.424l4.424 4.881-.561.619-5.439-6 5.439-6 .561.619-4.424 4.881H142zM164 293.5h16.424L176 298.381l.561.619 5.439-6-5.439-6-.561.619 4.424 4.881H164zM97.303 339.403v-6.769h2.109v-1.368h-2.11v-5.016h-1.624v13.153zm-9.32-2.722c4.118-2.209 5.814-5.273 6.085-9.348q-.798.014-6.498.028v1.368a275 275 0 0 0 4.731-.042c-.185 2.351-1.724 5.13-5.301 6.954zM135.367 339.232l1.695-6.869h2.266l.236-.954h-2.266l1.273-5.159h-1.111l-3.205 12.982zm-8.602-2.793c4.336-2.095 6.963-5.116 8.229-9.092q-.687.014-6.234.029l-.235.955q3.904 0 5.069-.043c-1.113 2.95-3.538 5.614-7.344 7.41zM181.25 339v.75h-16.5V339zm-4.125-12.767v4.887h2.146v.905h-2.146v6.507h-1.053v-12.299zm-3.132 1.04c-.27 3.766-2.052 6.628-5.67 8.613l-.662-.702c3.186-1.701 4.861-4.226 5.225-7.02q-.93.034-3.741.039l-1.052.001v-.904q5.253-.013 5.9-.027M216.938 327.149v5.1l4.312.001v.75l-2.047-.001v.263h-2.265v6.869h-1.112v-7.132h-3.559c-.935 1.647-2.354 3.033-4.308 4.163l-.312.176-.699-.741c1.825-.974 3.18-2.205 4.099-3.598l-6.297.001v-.75l6.743-.001a9 9 0 0 0 .97-3.062l-.241.008q-.333.009-.816.015l-.412.005-3.59.015v-.955l6.228-.029c-.105 1.463-.426 2.797-.981 4.003h3.175v-5.1zM244 342v-2l.999-.001.001 1 .999.001.001 1zm18-9v1h-1v5h-1v-3h1v-1h-1v-1h-1v-1zm-17.001 2.999v3L244 339v-3zM253 336v3h-1v-3zm-8.001-4.001v1L246 333v1l-1.001-.001v1L244 335v-1h-1v-1h1v-1zM253 332v1h1v1h-1v1h-1v-1h-1v-1h1v-1zm-3 1v1h-3v-1zm8 0v1h-3v-1zm-13.001-5.001v3L244 331v-3zM253 328v3h-1v-3zm-1-3v-1h1v1h1v1h-1v1h-1v-1h-1.001l.001-1zm-5 17-.001-1h3l.001 1zm7.999-1h3l.001 1h1l-.001-1H260v-1h1v2h-6zM253 342v1h-1v-1h-1l-.001-1H252v-1h1v1h.999l.001 1zm-3-17-.001 1h-3l.001-1zm-4.001 1H245l-.001.999L244 327v-2h2z" clip-rule="evenodd"/><path fill="#2367FF" fill-rule="evenodd" d="M261.641 327.883V332h-1.047v-8h1.047v3.051H263v.832zm-4.299 1.356a9 9 0 0 1-1.708 1.106l-.634-.633a7.4 7.4 0 0 0 1.488-.928 6.1 6.1 0 0 0 1.038-1.066 4.6 4.6 0 0 0 .629-1.126q.216-.573.262-1.11a86 86 0 0 1-2.085.026h-.965v-.832h2.774q.331 0 .68-.004.35-.005.735-.013a7.8 7.8 0 0 1-.313 1.742 5.8 5.8 0 0 1-.716 1.525 6 6 0 0 1-1.185 1.313" clip-rule="evenodd"/><path fill="#000" fill-opacity=".6" fill-rule="evenodd" d="M293 339v1h.999l.001 1h-1v1h-1v-1h-1l-.001-1H292v-1zm-8.001-.001.001 1 .999.001.001 1h-2v-2zm5 1.001.001 1h-3l-.001-1zm3.001-5v3h-1v-3zm-8.001-.001v3L284 338v-3zm0-4v1L286 332v1l-1.001-.001v1L284 334v-1h-1v-1h1v-1zM293 331v1h1v1h-1v1h-1v-1h-1v-1h1v-1zm9 1v1h-3v-1zm-12 0v1h-3v-1zm8 0v1h-3v-1zm-13.001-5.001v3L284 330v-3zM293 327v3h-1v-3zm8 0v3h-1v-3zm-8-4v1h1v1h-1v1h-1v-1h-1.001l.001-1h1v-1zm-7 1-.001 1H285l-.001.999L284 326v-2zm15 0v2h-1v-1h-1v-1zm-3 0v1h-3v-1zm-8 0-.001 1h-3l.001-1z" clip-rule="evenodd"/><path fill="#2367FF" fill-rule="evenodd" d="M301.641 337.883V342h-1.047v-8h1.047v3.051H303v.832zm-4.299 1.356a9 9 0 0 1-1.708 1.106l-.634-.633a7.4 7.4 0 0 0 1.488-.928 6.1 6.1 0 0 0 1.038-1.066 4.6 4.6 0 0 0 .629-1.126q.216-.573.262-1.11a86 86 0 0 1-2.085.026h-.965v-.832h2.774q.331 0 .68-.004.35-.005.735-.013a7.8 7.8 0 0 1-.313 1.742 5.8 5.8 0 0 1-.716 1.525 6 6 0 0 1-1.185 1.313" clip-rule="evenodd"/><path fill="#000" fill-opacity=".6" fill-rule="evenodd" d="M578.241 326.004v4.487l1.887.001v2.724h-1.887v6.056h-2.953l.001-10.856c-.403 3.651-2.131 6.289-5.524 8.191l-.258.141-.505.271-1.962-2.076.892-.455c2.182-1.113 3.57-2.714 4.104-4.42l.058-.197.041-.167-.56.009-3.542.009v-2.724l5.226-.003 2.029-.035v-.956zm-.75.75h-1.453v11.768h1.453v-6.056h1.887v-1.224h-1.887zm-2.894.969-.823.014q-.265.005-4.991.011v1.224l3.264-.017.969-.021-.017.176c-.22 2.006-1.536 4.323-4.464 5.908l-.262.138.88.931.253-.139c3.501-1.965 4.954-4.663 5.191-8.225M616.375 339.282v-6.507h2.147v-.905h-2.147v-4.887h-1.053v12.299zm-8.802-2.646c3.618-1.985 5.4-4.847 5.67-8.613q-.648.014-5.899.027v.904q3.699 0 4.792-.04c-.364 2.794-2.038 5.319-5.224 7.02z" clip-rule="evenodd"/><path fill="#000" fill-opacity=".2" fill-rule="evenodd" d="m617.874 332.775.001 5.757h-1.053l-.001-5.757zm-3.131-5.502c-.263 3.675-1.966 6.488-5.409 8.466l-.261.147-.111-.119c1.618-1.154 2.754-2.546 3.453-4.179a8.5 8.5 0 0 0 1.221-3.424l-.403.013.01-.154-4.4.027.001-.75q5.251-.013 5.899-.027m3.132-1.04v4.887h2.147v.905l-1.501-.001.001-.154h-1.701l.001-5.637z" clip-rule="evenodd"/><path fill="#000" fill-opacity=".6" fill-rule="evenodd" d="M656.575 332.166H659v.956h-2.219V340h-1.088l-.001-1.098h.016v-6.736zm-3.031-4.067q-.21 2.982-1.632 5.258-1.33 2.125-3.86 3.634l-.368.212-.684-.742a12.2 12.2 0 0 0 2.177-1.498 10 10 0 0 0 1.618-1.777 9 9 0 0 0 1.068-1.991 9.2 9.2 0 0 0 .537-2.154l-.234.007h.234c.07-.302.105-.61.153-.925zm3.237 2.969h-1.073V327h1.073zm-9.334-2.941h3.852l.028-.184a9 9 0 0 1-.213 1.127l-.437.006-.867.006-2.363.001zM696.938 327v1.097l-.015.001v11.901l-1.091.001v-13zm-3.6 3.145a10.5 10.5 0 0 1-1.348 3.212q-1.35 2.125-3.922 3.634l-.373.212-.695-.742a12.4 12.4 0 0 0 2.212-1.498 10.2 10.2 0 0 0 1.644-1.777 9 9 0 0 0 1.415-3.018l.436-.007zm4.481 1.385H700v1.098h-2.181zm-9.815-2.447v1.349h-.545v-1.349zm5.645-.984q-.04.575-.128 1.122l-.766.004-.297-.001.028-.183-.87.023-.88.012-.881.006-2.401.001v-.956h4.21a65 65 0 0 0 1.985-.028M736.781 340v-6.878H739v-.956h-2.219V327h-1.088v13zm-9.097-2.797q2.804-1.569 4.228-3.846 1.423-2.276 1.632-5.258a86 86 0 0 1-1.953.028h-4.144v.956h1.506q.851 0 1.724-.007a65 65 0 0 0 1.723-.035 9.2 9.2 0 0 1-.537 2.154 9 9 0 0 1-1.068 1.991 10 10 0 0 1-1.618 1.777 12.2 12.2 0 0 1-2.177 1.498zM23 380v1H3v-1zm-6-3v1H3v-1zm-4-3v1H3v-1zm0-3v1H3v-1zm4-3v1H3v-1zm6-3v1H3v-1zM63 380v1H43v-1zm-5-3v1H48v-1zm0-3v1H48v-1zm5-3v1H43v-1zm-5-3v1H48v-1zm5-3v1H43v-1zM83 380v1h20v-1zm6-3v1h14v-1zm4-3v1h10v-1zm0-3v1h10v-1zm-4-3v1h14v-1zm-6-3v1h20v-1zM123 380v1h20v-1zm0-3v1h20v-1zm0-3v1h20v-1zm0-3v1h20v-1zm0-3v1h20v-1zm0-3v1h20v-1zM203 380v1h20v-1zm0-3v1h20v-1zm0-3v1h20v-1z" clip-rule="evenodd"/><path fill="#2367FF" fill-rule="evenodd" d="M223 366v-1h-9v1zm0 2v1h-9v-1zm0 3v1h-9v-1z" clip-rule="evenodd"/><path fill="#2367FF" d="m209.05 365-.707.627 2.743 2.429-8.086.045v.887l8.086-.046-2.743 2.431.707.627 3.95-3.5z"/><path fill="#000" fill-opacity=".6" fill-rule="evenodd" d="M163 380v1h20v-1zm0-3v1h20v-1zm0-3v1h20v-1z" clip-rule="evenodd"/><path fill="#2367FF" fill-rule="evenodd" d="M183 366v-1h-9v1zm0 2v1h-9v-1zm0 3v1h-9v-1z" clip-rule="evenodd"/><path fill="#2367FF" d="m166.95 365 .707.627-2.743 2.429 8.086.045v.887l-8.086-.046 2.743 2.431-.707.627-3.95-3.5z"/><path fill="#000" fill-opacity=".6" fill-rule="evenodd" d="M423 380v1h-3v-1zm0-3v1h-20v-1zm0-3v1h-20v-1zm0-3v1h-20v-1zm0-3v1h-20v-1zm0-3v1h-20v-1zm-5 15v1h-2v-1zm-4 0v1h-2v-1zm-4 0v1h-2v-1zm-4 1h-3v-1h3zM463 380v1h-5v-1zm0-3v1h-20v-1zm0-3v1h-20v-1zm0-3v1h-20v-1zm0-3v1h-20v-1zm0-3v1h-20v-1zm-15 16h-5v-1h5zM19 403v8h-1v-7H4v18h5v1H3v-20zm-3 8v1H6v-1zm0-3v1H6v-1z" clip-rule="evenodd"/><path fill="#2367FF" fill-rule="evenodd" d="M14 415v-1H6v1zm-3 3v-1H6v1z" clip-rule="evenodd"/><path fill="#000" fill-opacity=".6" fill-rule="evenodd" d="M23.564 410.836a1.8 1.8 0 0 1 0 2.546l-2.546 2.545.796.796a.674.674 0 1 1-.955.954l-.796-.795-1.219 1.217h-1.272l1.855-1.855-1.274-1.272-3.126 3.127h-1.273l3.764-3.764-.795-.794a.675.675 0 0 1 .954-.955l.796.795 2.545-2.545a1.8 1.8 0 0 1 2.546 0" clip-rule="evenodd"/><path fill="#2367FF" d="m18.845 418.099-5.464 5.465a1.8 1.8 0 1 1-2.545-2.546l2.918-2.919z"/><path fill="#000" fill-opacity=".6" fill-rule="evenodd" d="M59 403v9h-1v-8H44v18h8v1h-9v-20zm-7 14v1h-6v-1zm0-3v1h-6v-1z" clip-rule="evenodd"/><path fill="#2367FF" fill-rule="evenodd" d="M56 409v-1H46v1zm0 3v-1H46v1z" clip-rule="evenodd"/><path fill="#E13A1B" d="m63.535 422.771-.763.764-4.34-4.34-4.391 4.391-.764-.763 4.392-4.392-4.443-4.442.763-.764 4.443 4.442 4.39-4.39.765.763-4.391 4.391z"/><path fill="#000" fill-opacity=".6" fill-rule="evenodd" d="M85 403v5h-1v-3.896c-.16.14-.038.281-.298.421a5 5 0 0 1-.541.257l-.161.059v-.591a4.1 4.1 0 0 0 .978-.584q.334-.275.513-.536l.08-.13zm2 4v1h-1v-1zm16 12v1h-9v-1zm0-7v1h-9v-1zm0-7v1H89v-1zm-15.005 5L90 415h-.913l-.527-1.38h-2.12l-.534 1.38H85l1.99-5zM92 414v1h-1v-1zm-4.508-3.336-.859 2.35h1.726zM90 419v4h-1v-4zm2 3v1h-1v-1zm-2-5v1h-1v-1zM129 417v5h-1v-3.896c-.16.14-.038.281-.298.421a5 5 0 0 1-.541.257l-.161.059v-.591q.56-.242.978-.584a2.7 2.7 0 0 0 .513-.536l.079-.13zm4 0v5h-1v-3.896c-.16.14-.038.281-.298.421a5 5 0 0 1-.541.257l-.161.059v-.591q.56-.242.978-.584a2.7 2.7 0 0 0 .513-.536l.079-.13zm4 0v5h-1v-3.896c-.16.14-.038.281-.298.421a5 5 0 0 1-.541.257l-.161.059v-.591q.56-.242.978-.584a2.7 2.7 0 0 0 .513-.536l.079-.13zm-6 4v1h-1v-1zm4 0v1h-1v-1zm-8-11v5h-1v-3.896c-.16.14-.038.281-.298.421a5 5 0 0 1-.541.257l-.161.059v-.591q.56-.242.978-.584a2.7 2.7 0 0 0 .513-.536l.079-.13zm4 0v5h-1v-3.896c-.16.14-.038.281-.298.421a5 5 0 0 1-.541.257l-.161.059v-.591q.56-.242.978-.584a2.7 2.7 0 0 0 .513-.536l.079-.13zm-2 4v1h-1v-1zm-4-11v5h-1v-3.896c-.16.14-.038.281-.298.421a5 5 0 0 1-.541.257l-.161.059v-.591q.56-.242.978-.584a2.7 2.7 0 0 0 .513-.536l.079-.13zm18 16v1h-3v-1zm0-7v1h-9v-1zm0-7v1h-15v-1zM165 417v5h-1v-3.896c-.16.14-.038.281-.298.421a5 5 0 0 1-.541.257l-.161.059v-.591q.56-.242.978-.584a2.7 2.7 0 0 0 .513-.536l.079-.13zm4 0v5h-1v-3.896c-.16.14-.038.281-.298.421a5 5 0 0 1-.541.257l-.161.059v-.591q.56-.242.978-.584a2.7 2.7 0 0 0 .513-.536l.079-.13zm4 0v5h-1v-3.896c-.16.14-.038.281-.298.421a5 5 0 0 1-.541.257l-.161.059v-.591q.56-.242.978-.584a2.7 2.7 0 0 0 .513-.536l.079-.13zm-6 4v1h-1v-1zm4 0v1h-1v-1zm-6-11v5h-1v-3.896c-.16.14-.038.281-.298.421a5 5 0 0 1-.541.257l-.161.059v-.591q.56-.242.978-.584a2.7 2.7 0 0 0 .513-.536l.079-.13zm4 0v5h-1v-3.896c-.16.14-.038.281-.298.421a5 5 0 0 1-.541.257l-.161.059v-.591q.56-.242.978-.584a2.7 2.7 0 0 0 .513-.536l.079-.13zm-2 4v1h-1v-1zm-2-11v5h-1v-3.896c-.16.14-.038.281-.298.421a5 5 0 0 1-.541.257l-.161.059v-.591q.56-.242.978-.584a2.7 2.7 0 0 0 .513-.536l.079-.13zm18 16v1h-7v-1zm0-7v1h-11v-1zm0-7v1h-15v-1zM205 417v5h-1v-3.896c-.16.14-.038.281-.298.421a5 5 0 0 1-.541.257l-.161.059v-.591q.56-.242.978-.584a2.7 2.7 0 0 0 .513-.536l.079-.13zm5 0v5h-1v-3.896c-.16.14-.038.281-.298.421a5 5 0 0 1-.541.257l-.161.059v-.591q.56-.242.978-.584a2.7 2.7 0 0 0 .513-.536l.079-.13zm5 0v5h-1v-3.896c-.16.14-.038.281-.298.421a5 5 0 0 1-.541.257l-.161.059v-.591q.56-.242.978-.584a2.7 2.7 0 0 0 .513-.536l.079-.13zm-7 3v1h-2v-1zm5 0v1h-2v-1zm-8-10v5h-1v-3.896c-.16.14-.038.281-.298.421a5 5 0 0 1-.541.257l-.161.059v-.591q.56-.242.978-.584a2.7 2.7 0 0 0 .513-.536l.079-.13zm5 0v5h-1v-3.896c-.16.14-.038.281-.298.421a5 5 0 0 1-.541.257l-.161.059v-.591q.56-.242.978-.584a2.7 2.7 0 0 0 .513-.536l.079-.13zm-2 3v1h-2v-1zm-3-10v5h-1v-3.896c-.16.14-.038.281-.298.421a5 5 0 0 1-.541.257l-.161.059v-.591q.56-.242.978-.584a2.7 2.7 0 0 0 .513-.536l.079-.13zm18 16v1h-5v-1zm0-7v1h-10v-1zm0-7v1h-15v-1zM254 422v1h-1v-1zm-3.914-4q.556 0 .904.144t.511.363q.163.217.229.552.024.138.033.424l.004.323.002 1.5q.008.772.045 1.012.035.223.122.435l.064.139h-.769a1.9 1.9 0 0 1-.147-.59q-.41.382-.787.54a2.1 2.1 0 0 1-.812.158q-.716 0-1.101-.385-.384-.385-.384-.984 0-.353.145-.642t.381-.466q.234-.177.529-.266.174-.051.488-.098l.167-.024q.892-.117 1.312-.279l.005-.212q0-.495-.209-.698-.282-.275-.838-.275-.52 0-.767.201-.207.167-.323.548l-.043.161-.72-.108q.098-.509.323-.822t.65-.482.986-.169m.936 2.491q-.344.155-.981.269l-.221.037q-.454.072-.642.162a.66.66 0 0 0-.29.264.74.74 0 0 0-.103.385q0 .325.223.541t.653.216q.424 0 .756-.205.331-.206.487-.561.099-.23.115-.639l.003-.172zM247.995 410l2.005 5h-.913l-.527-1.38h-2.12l-.534 1.38H245l1.989-5zm4.005 4v1h-1v-1zm-4.508-3.336-.859 2.35h1.726zM245 403v5h-1v-3.896c-.16.14-.038.281-.298.421a5 5 0 0 1-.541.257l-.161.059v-.591q.56-.242.978-.584a2.7 2.7 0 0 0 .513-.536l.079-.13zm2 4v1h-1v-1zm16 12v1h-7v-1zm0-7v1h-9v-1zm0-7v1h-14v-1zM290 419v4h-1v-4zm2 3v1h-1v-1zm-2-5v1h-1v-1zm-2.005-7 2.005 5h-.913l-.527-1.38h-2.12l-.534 1.38H285l1.989-5zm4.005 4v1h-1v-1zm-4.508-3.336-.859 2.35h1.726zM285 403v5h-1v-5zm2 4v1h-1v-1zm16 12v1h-9v-1zm0-7v1h-9v-1zm0-7v1h-14v-1zM383 421v1h-12v-1zm0-5v1h-12v-1zm0-5v1h-12v-1zm0-5v1h-12v-1zm-14 12v1h-1v-1zm-4-.667v.834h2V419h-4v-.833h1v-.834zm1-.833v.833h-1v-.833zm1-1.667v1.667h-1v-1.667zm-3 0v.834h-1v-.834zm2-.833v.833h-2V414zm3-6v1h-1v-1zm-3-4v5h-1v-3.896c-.16.14-.038.281-.298.421a5 5 0 0 1-.541.257l-.161.059v-.591q.56-.242.978-.584a2.7 2.7 0 0 0 .513-.536l.079-.13zM423 421v1h-10v-1zm0-5v1h-10v-1zm0-5v1h-10v-1zm0-5v1h-10v-1zm-16 7a4 4 0 1 1 0 8 4 4 0 0 1 0-8m0 .889a3.111 3.111 0 1 0 0 6.222 3.111 3.111 0 0 0 0-6.222m-.444 3.555v.889h1.777v.889h-2.666v-1.778zm.888-.888v.888h-.888v-.888zm.889-.889v.889h-.889v-.889zm-.889-.889v.889h-1.777v-.889zM407 403a4 4 0 1 1 0 8 4 4 0 0 1 0-8m0 .889a3.111 3.111 0 1 0 0 6.222 3.111 3.111 0 0 0 0-6.222m.444.889v4.444h-.888v-3.463c-.143.125-.034.25-.265.374q-.261.14-.482.229l-.142.052v-.525q.497-.214.869-.519.297-.245.456-.477l.071-.115zM463 421v1h-12v-1zm0-5v1h-12v-1zm0-5v1h-12v-1zm0-5v1h-12v-1zm-16 8v6h-1v-6zm-2 0v6h-1v-6zm4 5v1h-1v-1zm-3-15v6h-1v-6zm3 5v1h-1v-1zM503 421v1h-12v-1zm0-5v1h-12v-1zm0-5v1h-12v-1zm0-5v1h-12v-1zm-17.513 8 .148.003q.505.02.826.179.367.182.575.561.207.378.207.792 0 .385-.184.724a1.4 1.4 0 0 1-.556.549q.48.159.739.544.258.384.258.909 0 .422-.157.783a1.5 1.5 0 0 1-.389.559q-.23.196-.58.297a3 3 0 0 1-.69.097l-.164.003h-2.02v-6zm4.513 5v1h-1v-1zm-4.574-1.771h-1.225v2.063h1.319q.339 0 .477-.029.241-.048.405-.163a.85.85 0 0 0 .267-.334q.105-.219.105-.505 0-.336-.152-.584a.82.82 0 0 0-.421-.348 2 2 0 0 0-.635-.098zm-.166-2.521h-1.059v1.813h1.145q.466 0 .669-.069a.75.75 0 0 0 .403-.299.95.95 0 0 0 .135-.524q0-.299-.126-.526a.66.66 0 0 0-.362-.311q-.182-.065-.568-.08zm.735-10.708 2.005 5h-.913l-.527-1.38h-2.12l-.534 1.38H483l1.989-5zm4.005 4v1h-1v-1zm-4.508-3.336-.859 2.35h1.726zM543 421v1h-12v-1zm0-5v1h-12v-1zm0-5v1h-12v-1zm0-5v1h-12v-1zm-15.399 8c1.814 1.591 1.864 3.268.151 4.863l-.151.137-.601-.527c1.486-1.303 1.532-2.522.139-3.82l-.139-.126zM524 417.333v.834h2V419h-4v-.833h1v-.834zm1-.833v.833h-1v-.833zm1-1.667v1.667h-1v-1.667zm-3 0v.834h-1v-.834zm2-.833v.833h-2V414zm0-10v5h-1v-3.896c-.16.14-.038.281-.298.421a5 5 0 0 1-.541.257l-.161.059v-.591q.56-.242.978-.584a2.7 2.7 0 0 0 .513-.536l.079-.13zm2.601 0c1.814 1.591 1.864 3.268.151 4.863l-.151.137-.601-.527c1.486-1.303 1.532-2.522.139-3.82l-.139-.126zM583 421v1h-12v-1zm0-5v1h-12v-1zm0-5v1h-12v-1zm0-5v1h-12v-1zm-14 12v1h-1v-1zm-5-5v2c.33-.384.488-.5 1-.5 1.297 0 2 1.047 2 2.105s-.254 1.423-.586 1.795c-.333.372-.86.6-1.407.6-.495 0-.666-.094-.926-.428l-.081-.108V419h-1v-6zm1 2.5c-.672-.023-.986.281-1.009 1.33-.023 1.098.412 1.167.866 1.17l.218.001.148.002c.416.004.777-.056.777-1.003l-.006-.285c-.033-.727-.226-1.188-.994-1.215m4-7.5v1h-1v-1zm-3.914-4q.556 0 .904.144t.511.363q.163.217.229.552.024.138.033.424l.004.323.002 1.5q.007.772.045 1.012.035.223.122.435l.064.139h-.769a1.9 1.9 0 0 1-.147-.59q-.41.382-.787.54a2.1 2.1 0 0 1-.812.158q-.716 0-1.101-.385-.384-.385-.384-.984 0-.353.145-.642.146-.29.381-.466t.529-.266q.174-.051.488-.098l.167-.024q.892-.117 1.312-.279l.005-.212q0-.495-.209-.698-.283-.275-.838-.275-.52 0-.767.201-.207.167-.323.548l-.043.161-.72-.108q.098-.509.323-.822t.65-.482.986-.169m.936 2.491q-.344.155-.981.269l-.221.037q-.454.072-.642.162a.66.66 0 0 0-.29.264.74.74 0 0 0-.103.385q0 .325.223.541t.653.216q.424 0 .756-.205.331-.206.487-.561.099-.23.115-.639l.003-.172zM623 421v1h-10v-1zm0-5v1h-10v-1zm0-5v1h-10v-1zm0-5v1h-10v-1zm-12 12v1h-1v-1zm-2 0v1h-6v-1zm-1-3v1h-4v-1zm1-9v1h-6v-1zm2 0v1h-1v-1zM663 421v1h-12v-1zm0-5v1h-12v-1zm0-5v1h-12v-1zm0-5v1h-12v-1zm-16 10v4h-1v-4zm-2 0v4h-1v-4zm4 3v1h-1v-1zm-4-5v1h-1v-1zm2 0v1h-1v-1zm-1-8v4h-1v-4zm3 3v1h-1v-1zm-3-5v1h-1v-1zM103 461v1H90v-1zm0-5v1H90v-1zm0-5v1H90v-1zm0-5v1H90v-1zm-17.25 9a1.75 1.75 0 1 1 0 3.5 1.75 1.75 0 0 1 0-3.5m0-10a1.75 1.75 0 1 1 0 3.5 1.75 1.75 0 0 1 0-3.5M143 461v1h-13v-1zm0-5v1h-13v-1zm0-5v1h-13v-1zm0-5v1h-13v-1zm-16 9v3h-3v-3zm0-10v3h-3v-3zM183 461v1h-13v-1zm0-5v1h-13v-1zm0-5v1h-13v-1zm0-5v1h-13v-1zm-17.5 8.379 2.122 2.121-2.122 2.121-2.121-2.121zm0-10 2.122 2.121-2.122 2.121-2.121-2.121zM223 461v1h-11v-1zm0-5v1h-11v-1zm0-5v1h-11v-1zm0-5v1h-11v-1zm-12.5 7-5 6-2.5-3.6h.5l2 1.2 4.5-3.6zm0-9-5 6-2.5-3.6h.5l2 1.2 4.5-3.6zM263 461v1h-11v-1zm0-5v1h-11v-1zm0-5v1h-11v-1zm0-5v1h-11v-1zm-19 8 6 2.5-6 2.5v-.5l2.5-2-2.5-2zm0-10 6 2.5-6 2.5v-.5l2.5-2-2.5-2zM303 461v1h-13v-1zm0-5v1h-13v-1zm0-5v1h-13v-1zm0-5v1h-13v-1zm-17 12v1h-1v-1zm-1-1v1h-1v-1zm2 0v1h-1v-1zm-3-1v1h-1v-1zm4 0v1h-1v-1zm-3-1v1h-1v-1zm2 0v1h-1v-1zm-1-1v1h-1v-1zm0-6v1h-1v-1zm-1-1v1h-1v-1zm2 0v1h-1v-1zm-3-1v1h-1v-1zm4 0v1h-1v-1zm-3-1v1h-1v-1zm2 0v1h-1v-1zm-1-1v1h-1v-1zM383 461v1h-13v-1zm0-5v1h-13v-1zm0-5v1h-13v-1zm0-5v1h-13v-1zm-17.75 9.1c.69 0 1.25.537 1.25 1.2s-.56 1.2-1.25 1.2-1.25-.537-1.25-1.2.56-1.2 1.25-1.2m0-9.6c.69 0 1.25.537 1.25 1.2s-.56 1.2-1.25 1.2-1.25-.537-1.25-1.2.56-1.2 1.25-1.2M423 461v1h-13v-1zm0-5v1h-13v-1zm0-5v1h-13v-1zm0-5v1h-13v-1zm-17.5 8.379 2.122 2.121-2.122 2.121-2.121-2.121zm0-10 2.122 2.121-2.122 2.121-2.121-2.121zM463 461v1h-13v-1zm0-5v1h-13v-1zm0-5v1h-13v-1zm0-5v1h-13v-1zm-16 9v3h-3v-3zm0-10v3h-3v-3zM503 461v1h-13v-1zm0-5v1h-13v-1zm0-5v1h-13v-1zm0-5v1h-13v-1zm-17.25 9a1.75 1.75 0 1 1-.001 3.501 1.75 1.75 0 0 1 .001-3.501m0-10a1.75 1.75 0 1 1-.001 3.501 1.75 1.75 0 0 1 .001-3.501M543 461v1h-13v-1zm0-5v1h-13v-1zm0-5v1h-13v-1zm0-5v1h-13v-1zm-17 12v1h-1v-1zm-1-1v1h-1v-1zm2 0v1h-1v-1zm-3-1v1h-1v-1zm4 0v1h-1v-1zm-3-1v1h-1v-1zm2 0v1h-1v-1zm-1-1v1h-1v-1zm0-6v1h-1v-1zm-1-1v1h-1v-1zm2 0v1h-1v-1zm-3-1v1h-1v-1zm4 0v1h-1v-1zm-3-1v1h-1v-1zm2 0v1h-1v-1zm-1-1v1h-1v-1zM583 461v1h-11v-1zm0-5v1h-11v-1zm0-5v1h-11v-1zm0-5v1h-11v-1zm-19 8 6 2.5-6 2.5v-.5l2.5-2-2.5-2zm0-10 6 2.5-6 2.5v-.5l2.5-2-2.5-2zM623 461v1h-11v-1zm0-5v1h-11v-1zm0-5v1h-11v-1zm0-5v1h-11v-1zm-12.5 7-5 6-2.5-3.6h.5l2 1.2 4.5-3.6zm0-9-5 6-2.5-3.6h.5l2 1.2 4.5-3.6z" clip-rule="evenodd"/><path fill="#000" fill-opacity=".2" fill-rule="evenodd" d="M22 542v-19H3v19zM9 529.001 4 529v-5h5zM4 541v-11l5 .001V534h1v-3.999h2v-1h-2V524h5v5.001h-2v1h2V534h1v-4h5v11zm17-12h-5v-5h5z" clip-rule="evenodd"/><path fill="#2367FF" d="M22 542v-7h-4.5l-.964 1H21v5h-5v-4.464l-1 .999V541h-5v-3.535l-1-1V541H4v-5h4.535L7.5 535H3v7z"/><path fill="#2367FF" fill-opacity=".3" fill-rule="evenodd" d="M9 541v-4.535L8.535 536H4v5zm2-3.949v-.586l-.465-.465H10v.051zm4-.93-1 1v-.585l.536-.536H15zM21 541v-5h-4.464l-.536.536V541zm-6-3.464V541h-5v-3.535L12.536 540z" clip-rule="evenodd"/><path fill="#2367FF" d="m12.536 539 3.535-3.536-.707-.707L13 537.121V525h-1v12.051l-2.293-2.294-.707.707z"/><path fill="#000" fill-opacity=".2" fill-rule="evenodd" d="M62 523v19H43v-19zm-13 12.999L44 536v5h5zM44 524v11l5-.001V531h1v3.999h2v1h-2V541h5v-5.001h-2v-1h2V531h1v4h5v-11zm17 12h-5v5h5z" clip-rule="evenodd"/><path fill="#2367FF" d="M62 523v7h-4.5l-.964-1H61v-5h-5v4.464l-1-.999V524h-5v3.535l-1 1V524h-5v5h4.535l-1.035 1H43v-7z"/><path fill="#2367FF" fill-opacity=".3" fill-rule="evenodd" d="M49 524v4.535l-.465.465H44v-5zm2 3.949v.586l-.465.465H50v-.051zm4 .93-1-1v.585l.536.536H55zM61 524v5h-4.464l-.536-.536V524zm-6 3.464V524h-5v3.535L52.535 525z" clip-rule="evenodd"/><path fill="#2367FF" d="m52.536 526 3.535 3.536-.707.707L53 527.879V540h-1v-12.051l-2.293 2.294-.707-.707z"/><path fill="#000" fill-opacity=".2" fill-rule="evenodd" d="M102 542H83v-19h19zm-12.999-13L89 524h-5v5zM101 524H90l.001 5H94v1h-3.999v2h-1v-2H84v5h5.001v-2h1v2H94v1h-4v5h11zm-12 17v-5h-5v5z" clip-rule="evenodd"/><path fill="#2367FF" d="M102 542h-7v-4.5l1-.964V541h5v-5h-4.464l.999-1H101v-5h-3.535l-1-1H101v-5h-5v4.535l-1-1.035V523h7z"/><path fill="#2367FF" fill-opacity=".3" fill-rule="evenodd" d="M101 529h-4.535l-.465-.465V524h5zm-3.949 2h-.586l-.465-.465V530h.051zm-.93 4 1-1h-.585l-.536.536V535zm4.879 6h-5v-4.464l.536-.536H101zm-3.464-6H101v-5h-3.535l2.535 2.536z" clip-rule="evenodd"/><path fill="#2367FF" d="m99 532.536-3.536 3.535-.707-.707L97.121 533H85v-1h12.051l-2.294-2.293.707-.707z"/><path fill="#000" fill-opacity=".2" fill-rule="evenodd" d="M123 542h19v-19h-19zm12.999-13 .001-5h5v5zM124 524h11l-.001 5H131v1h3.999v2h1v-2H141v5h-5.001v-2h-1v2H131v1h4v5h-11zm12 17v-5h5v5z" clip-rule="evenodd"/><path fill="#2367FF" d="M123 542h7v-4.5l-1-.964V541h-5v-5h4.464l-.999-1H124v-5h3.535l1-1H124v-5h5v4.535l1-1.035V523h-7z"/><path fill="#2367FF" fill-opacity=".3" fill-rule="evenodd" d="M124 529h4.535l.465-.465V524h-5zm3.949 2h.586l.465-.465V530h-.051zm.93 4-1-1h.585l.536.536V535zM124 541h5v-4.464l-.536-.536H124zm3.464-6H124v-5h3.535L125 532.536z" clip-rule="evenodd"/><path fill="#2367FF" d="m126 532.536 3.536 3.535.707-.707-2.364-2.364H140v-1h-12.051l2.294-2.293-.707-.707z"/><path fill="#2367FF" fill-rule="evenodd" d="M174 534v-10h-10v10zm-9-3h2v2h-2zm3 0v2h2v-2zm3 2v-2h2v2zm0-5v2h2v-2zm-3 2v-2h2v2zm-1-2h-2v2h2zm1-1v-2h2v2zm-1-2h-2v2h2zm6 2h-2v-2h2z" clip-rule="evenodd"/><path fill="#000" fill-opacity=".6" fill-rule="evenodd" d="M182 542v1h-18v-1zm0-3v1h-18v-1zm0-3v1h-18v-1z" clip-rule="evenodd"/><path fill="#2367FF" fill-rule="evenodd" d="M218 534v-10h-10v10zm-9-3h2v2h-2zm3 0v2h2v-2zm3 2v-2h2v2zm0-5v2h2v-2zm-3 2v-2h2v2zm-1-2h-2v2h2zm1-1v-2h2v2zm-1-2h-2v2h2zm6 2h-2v-2h2z" clip-rule="evenodd"/><path fill="#000" fill-opacity=".6" fill-rule="evenodd" d="M222 542v1h-18v-1zm0-3v1h-18v-1zm0-3v1h-18v-1z" clip-rule="evenodd"/><path fill="#2367FF" fill-rule="evenodd" d="M262 534v-10h-10v10zm-9-3h2v2h-2zm3 0v2h2v-2zm3 2v-2h2v2zm0-5v2h2v-2zm-3 2v-2h2v2zm-1-2h-2v2h2zm1-1v-2h2v2zm-1-2h-2v2h2zm6 2h-2v-2h2z" clip-rule="evenodd"/><path fill="#000" fill-opacity=".6" fill-rule="evenodd" d="M262 542v1h-18v-1zm0-3v1h-18v-1zm0-3v1h-18v-1z" clip-rule="evenodd"/><path fill="#000" fill-opacity=".2" fill-rule="evenodd" d="M502 523v19h-19v-19zm-13 12.999-5 .001v5h5zm1 0V541h5v-5.001zm6 .001v5h5v-5zm0-6v5h5v-5zm-6-.001v5h5v-5zm-1 0-5 .001v5l5-.001zm1-5.999v4.999h5V524zm-1 0h-5v5l5-.001zm7 5h5v-5h-5z" clip-rule="evenodd"/><path fill="#2367FF" fill-rule="evenodd" d="M488 527v-1h-3v1zm0 5v1h-3v-1zm0 6v1h-3v-1zm6 0v1h-3v-1zm6 1v-1h-3v1zm-6-6v-1h-3v1zm6-1v1h-3v-1zm-6-6v1h-3v-1zm6 1v-1h-3v1z" clip-rule="evenodd"/><path fill="#2367FF" fill-opacity=".3" fill-rule="evenodd" d="M529 528.999V524h-5v5zm0 6v-5l-5 .001v5zM541 530v5h-5v-5zm-12 5.999V541h-5v-5zm6 0V541h-5v-5.001zm6 5.001v-5h-5v5zm-6-11.001v5h-5v-5zm6-5.999v5h-5v-5zm-6 4.999V524h-5v4.999z" clip-rule="evenodd"/><path fill="#2367FF" fill-rule="evenodd" d="M542 542v-19h-19v19zm-18-6 5-.001V541h-5zm6-.001V541h5v-5.001zm6 5.001v-5h5v5zm0-11v5h5v-5zm-6 4.999v-5h5v5zm-1-5-5 .001v5l5-.001zm1-1V524h5v4.999zM529 524h-5v5l5-.001zm12 5h-5v-5h5z" clip-rule="evenodd"/><path fill="#000" fill-opacity=".6" fill-rule="evenodd" d="M582 523v19h-19v-19zm-1 1h-17v17h17z" clip-rule="evenodd"/><path fill="#000" fill-opacity=".2" fill-rule="evenodd" d="M568 524v2.999l13 .001v1l-13-.001V541h-1v-13.001l-3 .001v-1l3-.001V524z" clip-rule="evenodd"/><path fill="#2367FF" fill-opacity=".3" d="M571 531h7v7h-7z"/><path fill="#2367FF" fill-rule="evenodd" d="M579 539h-9v-9h9zm-5-4h-3v3h3zm1 0h3v3h-3zm-1-4h-3v3h3zm1 0h3v3h-3z" clip-rule="evenodd"/><path fill="#000" fill-opacity=".6" fill-rule="evenodd" d="M722 537v-13h16v13zm10-1h5v-2h-5zm-7 0v-2h-2v2zm6-2h-5v2h5zm1-1h5v-2h-5zm-7 0v-2h-2v2zm6-2h-5v2h5zm1-1h5v-2h-5zm-7 0v-2h-2v2zm6-2h-5v2h5zm1-1h5v-2h-5zm-7 0v-2h-2v2zm6-2h-5v2h5z" clip-rule="evenodd"/><path fill="#2367FF" d="m740.522 528 2.478 2.5-2.478 2.5-.522-.527 1.955-1.973-1.955-1.973zM732 539.522 729.5 542l-2.5-2.478.527-.522 1.973 1.955 1.973-1.955z"/><path fill="#E13A1B" d="m23.535 582.771-.764.764-4.339-4.34-4.392 4.391-.763-.763 4.391-4.392-4.443-4.442.764-.764 4.443 4.442 4.391-4.39.763.763-4.39 4.391z"/><path fill="#000" fill-opacity=".2" fill-rule="evenodd" d="M4 576v5h5v-5h1v5h2v1H3v-6zm18-13v6h-1v-5h-5v5H3v-6zm-7 1h-5v4.999h5zm-6 0H4v5l5-.001z" clip-rule="evenodd"/><path fill="#E13A1B" fill-rule="evenodd" d="M6 570v-1H3v3h1v-2zm-3 6v-3h1v2h2v1zm7-1v1H7v-1zm12-6v3h-1v-2h-2v-1zm-12 1v-1H7v1zm4-1v1h-3v-1zm4 1v-1h-3v1z" clip-rule="evenodd"/><path fill="#E13A1B" d="m63.535 582.771-.764.764-4.339-4.34-4.392 4.391-.763-.763 4.391-4.392-4.443-4.442.764-.764 4.443 4.442 4.391-4.39.763.763-4.39 4.391z"/><path fill="#000" fill-opacity=".2" fill-rule="evenodd" d="M56 564h5v5h-5v1h5v2h1v-9h-6zm-13 18h6v-1h-5v-5h5v-13h-6zm1-7v-5h4.999v5zm0-6v-5h5l-.001 5z" clip-rule="evenodd"/><path fill="#E13A1B" fill-rule="evenodd" d="M50 566h-1v-3h3v1h-2zm6-3h-3v1h2v2h1zm-1 7h1v-3h-1zm-6 12h3v-1h-2v-2h-1zm1-12h-1v-3h1zm-1 4h1v-3h-1zm1 4h-1v-3h1z" clip-rule="evenodd"/><path fill="#000" fill-opacity=".6" fill-rule="evenodd" d="M102 563v19H83v-19zm-13 12.999L84 576v5h5zm6 0h-5V581h5zm6 .001h-5v5h5zm-17-1h17v-5h-6v-.001h-5V570h-1v-.001L84 570zm17-11h-5v5h5zm-6 0h-5v4.999h5zm-6 0h-5v5l5-.001z" clip-rule="evenodd"/><path fill="#2367FF" fill-rule="evenodd" d="M102 576v-7H83v7zm-18-6h17v5H84z" clip-rule="evenodd"/><path fill="#2367FF" fill-opacity=".3" d="M84 570h17v5H84z"/><path fill="#000" fill-opacity=".6" fill-rule="evenodd" d="M143 576v6h-8v-1h1l-.001-5zm-1 0h-5v5h5zm0-12h-5v5h-13v-6h19v6h-1zm-12 0h-5v5l5-.001zm6 0h-5v4.999h5z" clip-rule="evenodd"/><path fill="#2367FF" d="M143 569v7h-9.985a3.64 3.64 0 0 0-1.361-1H142v-5h-17v3h-1v-4z"/><path fill="#2367FF" fill-opacity=".3" d="M142 570v5h-10.346a3.6 3.6 0 0 0-1.157-.274l-.247-.009h-3.46l1.055-1.076-1.641-1.641-1.204 1.192V570z"/><path fill="#000" fill-opacity=".6" fill-rule="evenodd" d="m126.204 573.375.641.64-2.033 1.985h5.438c2.002 0 3.25 1.421 3.25 3.423S132.5 583 130 583v-1c1.502 0 2.5-1.075 2.5-2.577 0-1.501-.748-2.423-2.25-2.423h-5.438l2.033 2.142-.641.641-3.204-3.237zM130 582v1h-4v-1zM182 570h-1v-6.059h-17V570h-1v-7h19zm-13-6v6h-1v-6z" clip-rule="evenodd"/><path fill="#2367FF" fill-opacity=".3" fill-rule="evenodd" d="M172 578v-7h-8v7zm9 0v-7h-8v7z" clip-rule="evenodd"/><path fill="#2367FF" d="M164 580v1h8v-1h1v1h8v-1h1v3h-1v-1h-8v1h-1v-1h-8v1h-1v-3z"/><path fill="#2367FF" fill-rule="evenodd" d="M163 579v-9h19v9zm9-8h-8v7h8zm1 0h8v7h-8z" clip-rule="evenodd"/><path fill="#000" fill-opacity=".6" fill-rule="evenodd" d="M210 563v1h-6.059v17H210v1h-7v-19zm-6 13h6v1h-6z" clip-rule="evenodd"/><path fill="#2367FF" fill-opacity=".3" fill-rule="evenodd" d="M218 573h-7v8h7zm0-9h-7v8h7z" clip-rule="evenodd"/><path fill="#2367FF" d="M220 581h1v-8h-1v-1h1v-8h-1v-1h3v1h-1v8h1v1h-1v8h1v1h-3z"/><path fill="#2367FF" fill-rule="evenodd" d="M219 582h-9v-19h9zm-8-9v8h7v-8zm0-1v-8h7v8z" clip-rule="evenodd"/><path fill="#E13A1B" d="m263.535 582.771-.764.764-4.339-4.34-4.392 4.391-.763-.763 4.391-4.392-4.443-4.442.764-.764 4.443 4.442 4.391-4.39.763.763-4.39 4.391z"/><path fill="#000" fill-opacity=".2" fill-rule="evenodd" d="M256 564v5h5v1h-5v2h-1v-2.001h-5v5h2v1h-2V581h-1v-5.001l-5 .001v-1l5-.001v-5l-5 .001v-1l5-.001V564h1v4.999h5V564z" clip-rule="evenodd"/><path fill="#E13A1B" fill-rule="evenodd" d="M246 564v-1h-3v3h1v-2zm-2 6v-3h-1v3zm0 1v3h-1v-3zm0 7v-3h-1v3zm0 1v2h2v1h-3v-3zm6 2v1h-3v-1zm12-14v3h-1v-3zm0-4v3h-1v-2h-2v-1zm-12 1v-1h-3v1zm4-1v1h-3v-1zm4 1v-1h-3v1z" clip-rule="evenodd"/><path fill="#168E12" fill-rule="evenodd" d="M283 582h19v-19h-19zm1-1v-5h17v5zm0-11v5h17v-5zm0-6h17v5h-17z" clip-rule="evenodd"/><path fill="#5EBB5C" fill-opacity=".3" d="M284 564h17v5h-17z"/><path fill="#168E12" fill-rule="evenodd" d="M288 567v-1h-3v1zm0 5v1h-3v-1zm0 6v1h-3v-1zm6-12v1h-3v-1zm6 1v-1h-3v1z" clip-rule="evenodd"/><path fill="#000" fill-opacity=".6" fill-rule="evenodd" d="M342 563v13h-1v-12h-17v17h12v1h-13v-19z" clip-rule="evenodd"/><path fill="#000" fill-opacity=".2" fill-rule="evenodd" d="M330 564v4.999h5V564h1v5h5v1h-5v5h1v1l-7-.001V581h-1v-5.001l-5 .001v-1l5-.001v-5l-5 .001v-1l5-.001V564zm10 11h1v1h-1zm-5-5.001h-5v5h5z" clip-rule="evenodd"/><path fill="#2367FF" d="M339 573v5h5v1h-5v5h-1v-5h-5v-1h5v-5z"/><path fill="#2367FF" fill-rule="evenodd" d="M342 569v7h-2v-1h1v-5h-5v5h1v1h-14v-7zm-13 1h-5v5h5zm1 0h5v5h-5z" clip-rule="evenodd"/><path fill="#2367FF" fill-opacity=".3" fill-rule="evenodd" d="M329 570v5h-5v-5zm6 0v5h-5v-5zm2 2h3v3h1v-5h-5v5h1z" clip-rule="evenodd"/><path fill="#000" fill-opacity=".6" fill-rule="evenodd" d="m382 563-.001 14h-1l.001-13h-17v17h12v1h-13v-19z" clip-rule="evenodd"/><path fill="#000" fill-opacity=".2" fill-rule="evenodd" d="M374.999 580h1l.001 1h-1zM370 564l.001 5h5l-.001-5h1l.001 5H381v1h-4.999l-.002 7h-1l.001-1h-5v5h-1v-5h-5v-1h5.001v-5H364v-1h5.001l-.001-5zm5.001 6h-5v5h5z" clip-rule="evenodd"/><path fill="#2367FF" d="M379 573v5h5v1h-5v5h-1v-5h-5v-1h5v-5z"/><path fill="#2367FF" fill-rule="evenodd" d="M376 582h-7v-19h7l-.001 14h-1l.001-1h-5v5h5l-.001-1h1zm-1-12h-5v5h5zm-5-1v-5h5v5z" clip-rule="evenodd"/><path fill="#2367FF" fill-opacity=".3" fill-rule="evenodd" d="M375 569v-5h-5v5zm0 1v5h-5v-5zm-5 6h5v1h-3v3h2.999l.001 1h-5z" clip-rule="evenodd"/><path fill="#000" fill-opacity=".6" fill-rule="evenodd" d="M21 603v20H5v-20zm-1 1H6v18h14z" clip-rule="evenodd"/><path fill="#000" fill-opacity=".6" fill-rule="evenodd" d="M18 610v1H8v-1zm0-2v1H8v-1zm0-2v1H8v-1zM61 603v20H45v-20zm-1 1H46v18h14z" clip-rule="evenodd"/><path fill="#000" fill-opacity=".6" fill-rule="evenodd" d="M58 615v1H48v-1zm0-2v1H48v-1zm0-2v1H48v-1zM101 603v20H85v-20zm-1 1H86v18h14z" clip-rule="evenodd"/><path fill="#000" fill-opacity=".6" fill-rule="evenodd" d="M98 619v1H88v-1zm0-2v1H88v-1zm0-2v1H88v-1zM381 603v20h-16v-20zm-1 1h-14v18h14z" clip-rule="evenodd"/><path fill="#000" fill-opacity=".6" fill-rule="evenodd" d="M376 610v1h-6v-1zm2-2v1h-10v-1zm-1-2v1h-8v-1zM421 603v20h-16v-20zm-1 1h-14v18h14z" clip-rule="evenodd"/><path fill="#000" fill-opacity=".6" fill-rule="evenodd" d="M416 615v1h-6v-1zm2-2v1h-10v-1zm-1-2v1h-8v-1zM461 603v20h-16v-20zm-1 1h-14v18h14z" clip-rule="evenodd"/><path fill="#000" fill-opacity=".6" fill-rule="evenodd" d="M456 619v1h-6v-1zm2-2v1h-10v-1zm-1-2v1h-8v-1zM4 663H2v-2h1v1h1zm6-1v1H8v-1zm-3 0v1H5v-1zm13 0v1h-2v-1zm-3 0v1h-2v-1zm5 0v-1h1v2h-2v-1zm-20-4h1v2H2zm20 0h1v2h-1zm0-3h1v2h-1zm-20 0h1v2H2zm2-2H3v1H2v-3h1v1h1zm14 0v-1h2v1zm-3 0v-1h2v1zm-7 0v-1h2v1zm-3 0v-1h2v1zm17 0h-1v-1h1v-1h1v3h-1zm-20-5h1v2H2zm20 0h1v2h-1zm-20-3h1v2H2zm20 0h1v2h-1zm0-2h-1v-1h2v2h-1zm-4 0v-1h2v1zm-3 0v-1h2v1zm-2 0v9h1v1h-1v9h1v1h-3v-1h1v-9h-1v-1h1v-9h-1v-1h3v1zm-5 0v-1h2v1zm-3 0v-1h2v1zm-2 0v1H2v-2h2v1zM44 663h-2v-2h1v1h1zm6-1v1h-2v-1zm-3 0v1h-2v-1zm13 0v1h-2v-1zm-3 0v1h-2v-1zm5 0v-1h1v2h-2v-1zm-8 1h-3v-1h1v-1h1v1h1zm-2-5h1v2h-1zm10 0h1v2h-1zm-20 0h1v2h-1zm0-3h1v2h-1zm20 0h1v2h-1zm-10 0h1v2h-1zm-8-2h-1v1h-1v-3h1v1h1zm14 0v-1h2v1zm-3 0v-1h2v1zm-7 0v-1h2v1zm-3 0v-1h2v1zm17 0h-1v-1h1v-1h1v3h-1zm-8 0h-1v1h-1v-1h-1v-1h1v-1h1v1h1zm-12-5h1v2h-1zm20 0h1v2h-1zm-10 0h1v2h-1zm0-3h1v2h-1zm-10 0h1v2h-1zm20 0h1v2h-1zm-10-2h-9v1h-1v-2h21v2h-1v-1h-9v1h-1zM103 642v21H82v-21zm-11 16h1v2h-1zm0-3h1v2h-1zm2-2h-1v1h-1v-1h-1v-1h1v-1h1v1h1zm4 0v-1h2v1zm-3 0v-1h2v1zm-7 0v-1h2v1zm-3 0v-1h2v1zm7-5h1v2h-1zm0-3h1v2h-1zm-8 8h-1v9h9v-1h1v1h9v-9h-1v-1h1v-9h-9v1h-1v-1h-9v9h1zM124 663h-2v-2h1v1h1zm-2-15h1v2h-1zm8 14v1h-2v-1zm-3 0v1h-2v-1zm13 0v1h-2v-1zm-3 0v1h-2v-1zm5 0v-1h1v2h-2v-1zm-20-4h1v2h-1zm20 0h1v2h-1zm-20-3h1v2h-1zm20 0h1v2h-1zm0-7h1v2h-1zm-20-3h1v2h-1zm20 0h1v2h-1zm0-2h-1v-1h2v2h-1zm-4 0v-1h2v1zm-3 0v-1h2v1zm-2 0v9h9v-1h1v3h-1v-1h-9v9h1v1h-3v-1h1v-9h-9v1h-1v-3h1v1h9v-9h-1v-1h3v1zm-5 0v-1h2v1zm-3 0v-1h2v1zm-2 0v1h-1v-2h2v1zM183 642v21h-21v-21zm-20 11v9h9v-9zm19 0h-9v9h9zm0-10h-9v9h9zm-19 9h9v-9h-9zM204 663h-2v-2h1v1h1zm6-1v1h-2v-1zm-3 0v1h-2v-1zm13 0v1h-2v-1zm-3 0v1h-2v-1zm-3 1h-3v-1h1v-1h1v1h1zm-12-5h1v2h-1zm10 0h1v2h-1zm0-3h1v2h-1zm-10 0h1v2h-1zm2-2h-1v1h-1v-3h1v1h1zm14 0v-1h2v1zm-3 0v-1h2v1zm-7 0v-1h2v1zm-3 0v-1h2v1zm9 0h-1v1h-1v-1h-1v-1h1v-1h1v1h1zm-12-5h1v2h-1zm10 0h1v2h-1zm-10-3h1v2h-1zm10 0h1v2h-1zm10 17v-9h-1v-1h1v-9h-1v-1h2v21h-2v-1zm-4-19v-1h2v1zm-3 0v-1h2v1zm-2 0v1h-1v-1h-1v-1h3v1zm-5 0v-1h2v1zm-3 0v-1h2v1zm-2 0v1h-1v-2h2v1zM244 663h-2v-2h1v1h1zm0-10h-1v1h-1v-3h1v1h1zm6 9v1h-2v-1zm-3 0v1h-2v-1zm13 0v1h-2v-1zm-3 0v1h-2v-1zm5 0v-1h1v2h-2v-1zm-8 1h-3v-1h1v-1h1v1h1zm-12-5h1v2h-1zm20 0h1v2h-1zm-10 0h1v2h-1zm0-3h1v2h-1zm10 0h1v2h-1zm-20 0h1v2h-1zm16-2v-1h2v1zm-10 0v-1h2v1zm-3 0v-1h2v1zm17 0h-1v-1h1v-1h1v3h-1zm-8 0h1v-1h2v1h-4v1h-1v-1h-1v-1h1v-1h1v1h1zm-12-5h1v2h-1zm20 0h1v2h-1zm-10 0h1v2h-1zm-10-3h1v2h-1zm20 0h1v2h-1zm-10 0h1v2h-1zm10-2h-1v-1h2v2h-1zm-4 0v-1h2v1zm-3 0v-1h2v1zm-2 0v1h-1v-1h-1v-1h3v1zm-5 0v-1h2v1zm-3 0v-1h2v1zm-2 0v1h-1v-2h2v1zM294 663h-3v-1h1v-1h1v1h1zm-4-1v1h-2v-1zm-3 0v1h-2v-1zm13 0v1h-2v-1zm-3 0v1h-2v-1zm5 0v-1h1v2h-2v-1zm-10-4h1v2h-1zm10 0h1v2h-1zm0-3h1v2h-1zm-10 0h1v2h-1zm2-2h-1v1h-1v-1h-1v-1h1v-1h1v1h1zm4 0v-1h2v1zm-3 0v-1h2v1zm-7 0v-1h2v1zm-3 0v-1h2v1zm17 0h-1v-1h1v-1h1v3h-1zm-10-5h1v2h-1zm10 0h1v2h-1zm-10-3h1v2h-1zm10 0h1v2h-1zm0-2h-1v-1h2v2h-1zm-4 0v-1h2v1zm-3 0v-1h2v1zm-2 0v1h-1v-1h-1v-1h3v1zm-5 0v-1h2v1zm-3 0v-1h2v1zm-2 0v9h1v1h-1v9h1v1h-2v-21h2v1zM334 663h-3v-1h1v-1h1v1h1zm8-10h-9v1h-1v-1h-9v1h-1v-3h1v1h9v-1h1v1h9v-1h1v3h-1zm-12 9v1h-2v-1zm-3 0v1h-2v-1zm13 0v1h-2v-1zm-3 0v1h-2v-1zm-13 1h-2v-2h1v1h1zm18-1v-1h1v2h-2v-1zm0-4h1v2h-1zm-20 0h1v2h-1zm10 0h1v2h-1zm0-3h1v2h-1zm-10 0h1v2h-1zm20 0h1v2h-1zm-20-7h1v2h-1zm10 0h1v2h-1zm10 0h1v2h-1zm-20-3h1v2h-1zm10 0h1v2h-1zm10 0h1v2h-1zm0-2h-1v-1h2v2h-1zm-4 0v-1h2v1zm-3 0v-1h2v1zm-2 0v1h-1v-1h-1v-1h3v1zm-5 0v-1h2v1zm-3 0v-1h2v1zm-2 0v1h-1v-2h2v1zM363.354 662.354l.352-.354H364v1h-2v-2h1v.292l-.354.354zM380 662v1h-2v-1zm-3 0v1h-2v-1zm-3 0v1h-3v-1zm-4 0v1h-2v-1zm-3 0v1h-2v-1zm16-1v2h-2v-1h1v-1zm-20-3v2h-1v-2zm20 0v2h-1v-2zm-20-3v2h-1v-2zm20 0v2h-1v-2zm-20-4v3h-1v-3zm20 0v3h-1v-3zm-20-3v2h-1v-2zm20 0v2h-1v-2zm-20-3v2h-1v-2zm20 0v2h-1v-2zm0-3v2h-1v-.294l.354-.352-.708-.708-.354.354H381v-1zm-19 0v1h-1v1h-1v-2zm16 0v1h-2v-1zm-3 0v1h-2v-1zm-3 0v1h-3v-1zm-4 0v1h-2v-1zm-3 0v1h-2v-1z" clip-rule="evenodd"/><path fill="#000" fill-opacity=".6" fill-rule="evenodd" d="m381.646 642.646.708.708-19 19-.708-.708zM421.646 662.354l-.352-.354H421v1h2v-2h-1v.292l.354.354zM405 662v1h2v-1zm3 0v1h2v-1zm3 0v1h3v-1zm4 0v1h2v-1zm3 0v1h2v-1zm-16-1v2h2v-1h-1v-1zm20-3v2h1v-2zm-20 0v2h1v-2zm20-3v2h1v-2zm-20 0v2h1v-2zm20-4v3h1v-3zm-20 0v3h1v-3zm20-3v2h1v-2zm-20 0v2h1v-2zm20-3v2h1v-2zm-20 0v2h1v-2zm0-3v2h1v-.294l-.354-.352.708-.708.354.354H404v-1zm19 0v1h1v1h1v-2zm-16 0v1h2v-1zm3 0v1h2v-1zm3 0v1h3v-1zm4 0v1h2v-1zm3 0v1h2v-1z" clip-rule="evenodd"/><path fill="#000" fill-opacity=".6" fill-rule="evenodd" d="m403.354 642.646-.708.708 19 19 .708-.708zM443 661v1h9v-1h1v1h9v-1h1v2h-21v-2zm-1-3h1v2h-1zm20 0h1v2h-1zm-10 0h1v2h-1zm0-3h1v2h-1zm10 0h1v2h-1zm-20 0h1v2h-1zm2-2h-1v1h-1v-3h1v1h1zm4 0v-1h2v1zm-3 0v-1h2v1zm13 0v-1h2v1zm-3 0v-1h2v1zm7 0h-1v-1h1v-1h1v3h-1zm-8 0h-1v1h-1v-1h-1v-1h1v-1h1v1h1zm-12-5h1v2h-1zm20 0h1v2h-1zm-10 0h1v2h-1zm-10-3h1v2h-1zm20 0h1v2h-1zm-10 0h1v2h-1zm10-2h-1v-1h2v2h-1zm-4 0v-1h2v1zm-3 0v-1h2v1zm-2 0v1h-1v-1h-1v-1h3v1zm-5 0v-1h2v1zm-3 0v-1h2v1zm-2 0v1h-1v-2h2v1z" clip-rule="evenodd"/><path fill="#000" fill-opacity=".2" fill-rule="evenodd" d="M483 652v-9h1v8h17v-8h1v9z" clip-rule="evenodd"/><path fill="#000" fill-opacity=".6" fill-rule="evenodd" d="M485 650v-7h1v2h6v-2h1v2h6v-2h1v7zm7-4h-6v3h6zm7 0h-6v3h6zm1 17h-1v-2h-6v2h-1v-2h-6v2h-1v-7h15zm-1-6h-6v3h6zm-13 3h6v-3h-6z" clip-rule="evenodd"/><path fill="#000" fill-opacity=".2" fill-rule="evenodd" d="M502 663h-1v-8h-17v8h-1v-9h19z" clip-rule="evenodd"/><path fill="#2367FF" fill-rule="evenodd" d="M490 648v-1h-2v1zm7 0v-1h-2v1zm-7 10v1h-2v-1zm7 1v-1h-2v1z" clip-rule="evenodd"/><path fill="#000" fill-opacity=".2" fill-rule="evenodd" d="M523 656v-13h1v12h17v-12h1v13z" clip-rule="evenodd"/><path fill="#000" fill-opacity=".6" fill-rule="evenodd" d="M525 654v-11h1v2h6v-2h1v2h6v-2h1v11zm7-4h-6v3h6zm7 0h-6v3h6zm-7-4h-6v3h6zm7 0h-6v3h6zM540 663h-1v-2h-6v2h-1v-2h-6v2h-1v-3h15z" clip-rule="evenodd"/><path fill="#000" fill-opacity=".2" fill-rule="evenodd" d="M542 663h-1v-4h-17v4h-1v-5h19z" clip-rule="evenodd"/><path fill="#2367FF" fill-rule="evenodd" d="M530 647v1h-2v-1zm0 5v-1h-2v1zm7 0v-1h-2v1zm0-4v-1h-2v1zm-7 14v1h-2v-1zm7 1v-1h-2v1z" clip-rule="evenodd"/><path fill="#000" fill-opacity=".2" fill-rule="evenodd" d="M563 652v-9h1v8h17v-8h1v9z" clip-rule="evenodd"/><path fill="#000" fill-opacity=".6" fill-rule="evenodd" d="M580 663h-1v-2h-6v2h-1v-2h-6v2h-1v-7h15zm-1-6h-6v3h6zm-13 3h6v-3h-6z" clip-rule="evenodd"/><path fill="#000" fill-opacity=".2" fill-rule="evenodd" d="M582 663h-1v-8h-17v8h-1v-9h19z" clip-rule="evenodd"/><path fill="#2367FF" fill-rule="evenodd" d="M570 659v-1h-2v1zm7 0v-1h-2v1z" clip-rule="evenodd"/><path fill="#000" fill-opacity=".6" fill-rule="evenodd" d="M23 723v12h-3v-1h2v-10H12v2h-1v-3zM6 731v1H4v10h10v-2h1v3H3v-12z" clip-rule="evenodd"/><path fill="#5EBB5C" fill-opacity=".3" d="M7 727h12v12H7z"/><path fill="#168E12" fill-rule="evenodd" d="M19 739v-12H7v12zM8 728h10v10H8z" clip-rule="evenodd"/><path fill="#5EBB5C" fill-opacity=".3" d="M43 723h12v12H43z"/><path fill="#168E12" fill-rule="evenodd" d="M55 735v-12H43v12zm-11-11h10v10H44z" clip-rule="evenodd"/><path fill="#000" fill-opacity=".6" fill-rule="evenodd" d="M56 731v1h6v10H52v-6h-1v7h12v-12z" clip-rule="evenodd"/><path fill="#5EBB5C" fill-opacity=".3" fill-rule="evenodd" d="M91 731v-4h-4v4zm8 8v-4h-4v4z" clip-rule="evenodd"/><path fill="#168E12" fill-rule="evenodd" d="M91 728v-1h-4v4h.999l.001-3zm8 11v-4h-1.001l.001 3h-3v1z" clip-rule="evenodd"/><path fill="#000" fill-opacity=".6" fill-rule="evenodd" d="M103 723v12h-8v-1h7v-10H92v7h-1v-8z" clip-rule="evenodd"/><path fill="#000" fill-opacity=".6" fill-rule="evenodd" d="M95 731v12H83v-12zm-1 1H84v10h10z" clip-rule="evenodd"/><path fill="#5EBB5C" fill-opacity=".3" d="M135 723v7h-5v5h-7v-12z"/><path fill="#168E12" d="M135 723v7h-1.001l.001-6h-10v10h6v1h-7v-12z"/><path fill="#000" fill-opacity=".6" fill-rule="evenodd" d="M131 731v12h12v-12zm1 1h10v10h-10z" clip-rule="evenodd"/><path fill="#2367FF" d="M329.515 733.99c.75-1.316 1.523-2.558 2.579-3.588.482-.471 1.077-.84 1.655-1.204.22-.139.532-.175.806-.188 1.113-.055 1.623.572 1.389 1.634a30 30 0 0 0-.427 2.308c-.049.354-.003.728.047 1.087.114.818-.416 1.32-1.244 1.149-.229-.047-.455-.107-.762-.18.662.888.826 1.768.429 2.723-.61 1.467-2.234 1.71-3.247.473a6.8 6.8 0 0 1-.716-1.082c-.203-.378-.343-.789-.531-1.236-.048.122-.093.217-.122.317-.236.791-.654 1.485-1.195 2.107-.902 1.037-2.37.884-3.029-.316-.554-1.01-.444-1.982.301-2.988-.331.08-.575.151-.824.195-.753.135-1.307-.332-1.18-1.064.174-.997-.04-1.946-.236-2.906-.075-.37-.182-.739-.205-1.113-.033-.524.24-.854.758-1.016.832-.261 1.552.009 2.217.475 1.016.713 1.745 1.683 2.433 2.681.378.549.717 1.122 1.104 1.732"/><path fill="#000" fill-opacity=".6" fill-rule="evenodd" d="M343 741v1h-20v-1zm0-3v1h-7v-1zm0-12v1h-20v-1zm0-3v1h-20v-1zM383 741v1h-20v-1zm0-3v1h-20v-1zm-14.583-2.999a2.3 2.3 0 0 0-.103.999H363v-1zm4.576-.115.134.329c.085.214.165.42.255.617l.081.168-.905.001q.12-.246.216-.506l.097-.292c.029-.1.074-.195.122-.317M383 735v1l-5.316.001q.06-.509-.097-1.001zm-16.005-2.999c.019.28.019.563-.011.849l-.021.15H363v-1zM383 732v1l-3.941.001a4.6 4.6 0 0 1-.06-.842l.014-.159zm-9.402 0q-.297.486-.583.99l-.619-.991zm-7.098-3 .003.118c.011.187.044.373.083.558l.071.324H363v-1zm9.559 0a6 6 0 0 0-.465.402 10 10 0 0 0-.563.598h-4.053a8.6 8.6 0 0 0-.962-1zm6.941 0v1h-3.632l.076-.356q.078-.356.047-.643zm0-3v1h-20v-1zm0-3v1h-20v-1z" clip-rule="evenodd"/><path fill="#2367FF" d="M373.015 732.99c.75-1.316 1.523-2.558 2.579-3.588.482-.471 1.077-.84 1.655-1.204.22-.139.532-.175.806-.188 1.113-.055 1.623.572 1.389 1.634a30 30 0 0 0-.427 2.308c-.049.354-.003.728.047 1.087.114.818-.416 1.32-1.244 1.149-.229-.047-.455-.107-.762-.18.662.888.826 1.768.429 2.723-.61 1.467-2.234 1.71-3.247.473a6.8 6.8 0 0 1-.716-1.082c-.203-.378-.343-.789-.531-1.236-.048.122-.093.217-.122.317-.236.791-.654 1.485-1.195 2.107-.902 1.037-2.37.884-3.029-.316-.554-1.01-.444-1.982.301-2.988-.331.08-.575.151-.824.195-.753.135-1.307-.332-1.18-1.064.174-.997-.04-1.946-.236-2.906-.075-.37-.182-.739-.205-1.113-.033-.524.24-.854.758-1.016.832-.261 1.552.009 2.217.475 1.016.713 1.745 1.683 2.433 2.681.378.549.717 1.122 1.104 1.732M413.015 732.99c.75-1.316 1.523-2.558 2.579-3.588.482-.471 1.077-.84 1.655-1.204.22-.139.532-.175.806-.188 1.113-.055 1.623.572 1.389 1.634a30 30 0 0 0-.427 2.308c-.049.354-.003.728.047 1.087.114.818-.416 1.32-1.244 1.149-.229-.047-.455-.107-.762-.18.662.888.826 1.768.429 2.723-.61 1.467-2.234 1.71-3.247.473a6.8 6.8 0 0 1-.716-1.082c-.203-.378-.343-.789-.531-1.236-.048.122-.093.217-.122.317-.236.791-.654 1.485-1.195 2.107-.902 1.037-2.37.884-3.029-.316-.554-1.01-.444-1.982.301-2.988-.331.08-.575.151-.824.195-.753.135-1.307-.332-1.18-1.064.174-.997-.04-1.946-.236-2.906-.075-.37-.182-.739-.205-1.113-.033-.524.24-.854.758-1.016.832-.261 1.552.009 2.217.475 1.016.713 1.745 1.683 2.433 2.681.378.549.717 1.122 1.104 1.732"/><path fill="#000" fill-opacity=".6" fill-rule="evenodd" d="M423 741v1h-20v-1zm0-3v1h-20v-1zm0-3v1h-20v-1zm0-3v1h-20v-1zm0-3v1h-20v-1zm0-3v1h-20v-1zm0-3v1h-20v-1z" clip-rule="evenodd"/><path fill="#2367FF" d="M453.014 732.491c.692-1.184 1.406-2.302 2.38-3.229.445-.424.995-.756 1.528-1.084.203-.124.492-.157.744-.169 1.028-.05 1.499.515 1.283 1.47a26 26 0 0 0-.395 2.077c-.045.319-.003.656.043.979.106.736-.383 1.188-1.147 1.034-.212-.042-.421-.096-.704-.162.611.799.763 1.592.396 2.451-.563 1.32-2.063 1.539-2.997.425a6 6 0 0 1-.661-.973c-.188-.34-.316-.71-.491-1.112-.043.109-.085.195-.112.285-.218.711-.604 1.337-1.104 1.896-.832.933-2.187.796-2.795-.285-.511-.908-.41-1.783.277-2.688-.305.071-.53.135-.76.175-.695.121-1.206-.299-1.089-.957.16-.898-.037-1.753-.218-2.616-.069-.333-.168-.665-.19-1.001-.03-.473.222-.77.7-.916.768-.234 1.434.009 2.047.429.938.641 1.611 1.514 2.246 2.412.349.494.662 1.01 1.019 1.559"/><path fill="#000" fill-opacity=".6" fill-rule="evenodd" d="M463 741v1h-20v-1zm0-3v1h-20v-1zm0-12v1h-20v-1zm0-3v1h-20v-1z" clip-rule="evenodd"/><path fill="#2367FF" d="M493.015 733.99c.75-1.316 1.523-2.558 2.579-3.588.482-.471 1.077-.84 1.655-1.204.22-.139.532-.175.806-.188 1.113-.055 1.623.572 1.389 1.634a30 30 0 0 0-.427 2.308c-.049.354-.003.728.047 1.087.114.818-.416 1.32-1.244 1.149-.229-.047-.455-.107-.762-.18.662.888.826 1.768.429 2.723-.61 1.467-2.234 1.71-3.247.473a6.8 6.8 0 0 1-.716-1.082c-.203-.378-.343-.789-.531-1.236-.048.122-.093.217-.122.317-.236.791-.654 1.485-1.195 2.107-.902 1.037-2.37.884-3.029-.316-.554-1.01-.444-1.982.301-2.988-.331.08-.575.151-.824.195-.753.135-1.307-.332-1.18-1.064.174-.997-.04-1.946-.236-2.906-.075-.37-.182-.739-.205-1.113-.033-.524.24-.854.758-1.016.832-.261 1.552.009 2.217.475 1.016.713 1.745 1.683 2.433 2.681.378.549.717 1.122 1.104 1.732"/><path fill="#000" fill-opacity=".6" fill-rule="evenodd" d="M503 741v1h-20v-1zm-18-3v1h-2v-1zm18 0v1h-2v-1zm-18-3v1h-2v-1zm18 0v1h-2v-1zm-18-3v1h-2v-1zm18 0v1h-2v-1zm-18-3v1h-2v-1zm18 0v1h-2v-1zm0-3v1h-20v-1zm0-3v1h-20v-1zM525 733h-1v-8h18v7h-1v-6h-16zM535 736v8h-1v-2h-2v-1h2v-6h6v-2h1v2h2v1zm5 5v-4h1v5h-5v-1z" clip-rule="evenodd"/><path fill="#F67768" fill-rule="evenodd" d="M525 737v-3h-1v3zm-1 4v-2h1v1h1v1zm7-1v1h-3v-1z" clip-rule="evenodd"/><path fill="#44ACF0" d="M541 726v6h-2v1h-14v-7z" opacity=".8"/><path fill="#FFE243" d="m534.997 727-1.543 1.629-.657-1.085-.085.188c-.484 1.09-.715 1.935-.712 2.541v.142c.082 1.261 1.143 2.395 2.416 2.567l.154.016c.01.001.798.004.86 0 1.339-.1 2.481-1.273 2.566-2.583l.004-.142c-.001-.607-.236-1.462-.716-2.543l-.085-.188-.657 1.087z"/><path fill="#88C83F" d="M539 733v1h-6v6h-8v-7z" opacity=".8"/><path fill="#000" fill-opacity=".2" fill-rule="evenodd" d="M582.535 731.42a.586.586 0 0 1 .057.763l-.051.062-6.259 6.785-.041-.073a3.6 3.6 0 0 0-.56-.715l-.137-.13a3.5 3.5 0 0 0-.579-.425l-.064-.035 6.801-6.248a.6.6 0 0 1 .773-.036z" clip-rule="evenodd"/><path fill="#000" fill-opacity=".6" fill-rule="evenodd" d="m581.253 730.898-7.628 7.009.684.217c.286.102.613.316.904.605.326.325.554.69.642 1.005l.162.578 7.024-7.615.075-.089a1.28 1.28 0 0 0-.112-1.675 1.264 1.264 0 0 0-1.751-.035m1.282.522a.586.586 0 0 1 .057.763l-.051.062-6.259 6.785-.041-.074a3.6 3.6 0 0 0-.56-.714l-.137-.13a3.5 3.5 0 0 0-.579-.425l-.064-.035 6.801-6.249a.6.6 0 0 1 .773-.035zm-13.746 11.926c5.991 1.123 6.292-2.447 6.5-3.246l-1.376-1.412c-2.527.354-3.41 2.912-3.41 2.912-.963 1.768-1.714 1.746-1.714 1.746M579 723v8h-1.001l.001-7h-14v14l6-.001V739h-7v-16z" clip-rule="evenodd"/><path fill="#2367FF" fill-opacity=".3" d="M622.535 731.42a.586.586 0 0 1 .057.763l-.051.062-6.259 6.785-.041-.073a3.6 3.6 0 0 0-.56-.715l-.137-.13a3.5 3.5 0 0 0-.579-.425l-.064-.035 6.801-6.248a.6.6 0 0 1 .773-.036z"/><path fill="#2367FF" fill-rule="evenodd" d="m613.625 737.907 7.628-7.009a1.264 1.264 0 0 1 1.751.035c.447.444.497 1.157.112 1.675l-.075.089-7.024 7.615-.162-.578c-.088-.315-.316-.68-.642-1.005-.291-.289-.618-.503-.904-.605zm8.967-5.724a.586.586 0 0 0-.057-.763l-.06-.052a.6.6 0 0 0-.773.035l-6.801 6.249.064.035c.198.115.394.258.579.425l.137.13c.225.224.415.468.56.714l.041.074 6.259-6.785z" clip-rule="evenodd"/><path fill="#2367FF" d="M608.789 743.346c5.991 1.123 6.292-2.447 6.5-3.246l-1.376-1.412c-2.527.354-3.41 2.912-3.41 2.912-.963 1.768-1.714 1.746-1.714 1.746M619 723v8h-1.001l.001-7h-14v14l6-.001V739h-7v-16z"/><path fill="#000" fill-opacity=".6" fill-rule="evenodd" d="M661 723v16h-16v-16zm-1 1h-14v14h14z" clip-rule="evenodd"/><path fill="#000" fill-opacity=".2" fill-rule="evenodd" d="M661 740v3h-1.001l.001-2h-14l-.001 2H645v-3z" clip-rule="evenodd"/><path fill="#2367FF" fill-rule="evenodd" d="M701 739v-16h-16v16zm-15-15h14v14h-14z" clip-rule="evenodd"/><path fill="#2367FF" fill-opacity=".3" d="M701 740v3h-1.001l.001-2h-14l-.001 2H685v-3z"/><path fill="#000" fill-opacity=".2" fill-rule="evenodd" d="M742.535 731.42a.586.586 0 0 1 .057.763l-.051.062-6.259 6.785-.041-.073a3.6 3.6 0 0 0-.56-.715l-.137-.13a3.5 3.5 0 0 0-.579-.425l-.064-.035 6.801-6.248a.6.6 0 0 1 .773-.036z" clip-rule="evenodd"/><path fill="#000" fill-opacity=".6" fill-rule="evenodd" d="m741.253 730.898-7.628 7.009.684.217c.286.102.613.316.904.605.326.325.554.69.642 1.005l.162.578 7.024-7.615.075-.089a1.28 1.28 0 0 0-.112-1.675 1.264 1.264 0 0 0-1.751-.035m1.282.522a.586.586 0 0 1 .057.763l-.051.062-6.259 6.785-.041-.074a3.6 3.6 0 0 0-.56-.714l-.137-.13a3.5 3.5 0 0 0-.579-.425l-.064-.035 6.801-6.249a.6.6 0 0 1 .773-.035zm-13.746 11.926c5.991 1.123 6.292-2.447 6.5-3.246l-1.376-1.412c-2.527.354-3.41 2.912-3.41 2.912-.963 1.768-1.714 1.746-1.714 1.746M731.122 724l4.475 11.176-.692.635h-1.648l-1.031-2.683h-4.721l-.975 2.683H724L728.6 724zm-1.289 2.755-1.556 4.306h3.223z" clip-rule="evenodd"/><path fill="#2367FF" fill-opacity=".3" d="M782.535 731.42a.586.586 0 0 1 .057.763l-.051.062-6.259 6.785-.041-.073a3.6 3.6 0 0 0-.56-.715l-.137-.13a3.5 3.5 0 0 0-.579-.425l-.064-.035 6.801-6.248a.6.6 0 0 1 .773-.036z"/><path fill="#2367FF" fill-rule="evenodd" d="m771.122 724 4.475 11.176-.692.635h-1.648l-1.031-2.683h-4.721l-.975 2.683H764L768.6 724zm10.131 6.898-7.628 7.009.684.217c.286.102.613.316.904.605.326.325.554.69.642 1.005l.162.578 7.024-7.615.075-.089a1.28 1.28 0 0 0-.112-1.675 1.264 1.264 0 0 0-1.751-.035m1.282.522a.586.586 0 0 1 .057.763l-.051.062-6.259 6.785-.041-.074a3.6 3.6 0 0 0-.56-.714l-.137-.13a3.5 3.5 0 0 0-.579-.425l-.064-.035 6.801-6.249a.6.6 0 0 1 .773-.035zm-7.293 8.886c-.231 1.07-.88 4.085-6.453 3.04 0 0 .751.022 1.714-1.746 0 0 .883-2.558 3.41-2.912l1.376 1.412q-.021.084-.047.206m-6.965-9.245 1.556-4.306 1.667 4.306z" clip-rule="evenodd"/><path fill="#000" fill-opacity=".6" fill-rule="evenodd" d="m809.53 735.811.975-2.683h4.721l1.031 2.683h2.594L814.122 724H811.6l-4.6 11.811zm4.97-4.75h-3.223l1.556-4.306z" clip-rule="evenodd"/><path fill="url(#c)" fill-rule="evenodd" d="m809.53 737 .975 2.683h4.721l1.031-2.683h2.594l-2.402 6h-2.433l.484-1.25h-3.223l.452 1.25h-2.392L807 737z" clip-rule="evenodd"/><path fill="#2367FF" fill-rule="evenodd" d="m850.505 733.128-.975 2.683H847L851.6 724h2.522l4.729 11.811h-2.594l-1.031-2.683zm.772-2.067h3.223l-1.667-4.306z" clip-rule="evenodd"/><path fill="url(#d)" d="m849.53 737 .975 2.683h4.721l1.031-2.683h2.594l-2.402 6h-2.433l.484-1.25h-3.223l.452 1.25h-2.392L847 737z"/><path fill="#000" fill-opacity=".6" fill-rule="evenodd" d="M903 723v20h-20v-20zm-1 1h-18v18h18z" clip-rule="evenodd"/><path fill="#000" fill-opacity=".6" fill-rule="evenodd" d="M892.556 740h.888v-5h-.888zm0 0c-.64-3.155-3.556-3.333-3.556-3.333s.212 2.713 3.556 3.333m4.444-3.333s-2.915.179-3.556 3.333c3.344-.62 3.556-3.333 3.556-3.333" clip-rule="evenodd"/><path fill="#000" fill-opacity=".2" fill-rule="evenodd" d="M889.007 731.482c.129 1.917 1.824 3.518 3.794 3.518h-.057c-1.986 0-3.617-1.6-3.738-3.355a3 3 0 0 1-.005-.283zm7.987.163c-.121 1.755-1.752 3.355-3.738 3.355h-.057c1.97 0 3.665-1.601 3.794-3.518l.006-.121q.004.147-.005.284M893 727.8l1.125 1.132.317-.5.005.005.387-.603.16.284q1.191 2.168 1.112 3.34c-.094 1.382-1.363 2.642-2.907 2.642h-.398c-1.545 0-2.813-1.26-2.907-2.642q-.085-1.244 1.271-3.623l.388.602.004-.005.318.5z" clip-rule="evenodd"/><path fill="#000" fill-opacity=".6" fill-rule="evenodd" d="M892.028 727.427 891.13 726l-.729 1.291c-.989 1.752-1.466 3.123-1.394 4.191.129 1.916 1.824 3.518 3.794 3.518h.398c1.97 0 3.665-1.602 3.794-3.518.072-1.07-.405-2.441-1.395-4.192l-.729-1.289-.897 1.426-.972-.988zm.972.373 1.125 1.132.704-1.107q1.362 2.382 1.277 3.633c-.094 1.382-1.363 2.642-2.907 2.642h-.398c-1.545 0-2.813-1.26-2.907-2.642q-.085-1.247 1.277-3.633l.704 1.107z" clip-rule="evenodd"/><path fill="#2367FF" fill-rule="evenodd" d="M932.556 740h.888c3.344-.62 3.556-3.333 3.556-3.333s-2.915.179-3.556 3.333v-5h-.888zm0 0c-.64-3.155-3.556-3.333-3.556-3.333s.212 2.713 3.556 3.333" clip-rule="evenodd"/><path fill="#2367FF" fill-opacity=".3" fill-rule="evenodd" d="M934.125 728.932 933 727.8l-1.125 1.132-.318-.5-.004.005-.388-.602q-1.356 2.38-1.271 3.623c.094 1.382 1.362 2.642 2.907 2.642h.398c1.544 0 2.813-1.26 2.907-2.642q.08-1.172-1.112-3.34l-.16-.284-.387.603-.005-.005zm2.869 2.713c-.121 1.755-1.752 3.355-3.738 3.355h-.057c1.97 0 3.665-1.601 3.794-3.518l.006-.121q.004.147-.005.284m-7.987-.163c.129 1.917 1.824 3.518 3.794 3.518h-.057c-1.986 0-3.617-1.6-3.738-3.355a3 3 0 0 1-.005-.283z" clip-rule="evenodd"/><path fill="#2367FF" fill-rule="evenodd" d="m931.13 726 .898 1.427.972-.988.972.988.897-1.426.729 1.289c.99 1.751 1.467 3.122 1.395 4.192-.129 1.916-1.824 3.518-3.794 3.518h-.398c-1.97 0-3.665-1.602-3.794-3.518-.072-1.068.405-2.439 1.394-4.191zm2.995 2.932L933 727.8l-1.125 1.132-.704-1.107q-1.362 2.387-1.277 3.633c.094 1.382 1.362 2.642 2.907 2.642h.398c1.544 0 2.813-1.26 2.907-2.642q.085-1.251-1.277-3.633z" clip-rule="evenodd"/><path fill="#2367FF" fill-rule="evenodd" d="M943 743v-20h-20v20zm-19-19h18v18h-18z" clip-rule="evenodd"/><path fill="#000" fill-opacity=".6" fill-rule="evenodd" d="M979 723v16h-16v-16zm-1 1h-14v14h14zM979 743h-1v-1h-14v1h-1v-3h1v1h14v-1h1zM980 739v-1h1v-14h-1v-1h3v1h-1v14h1v1z" clip-rule="evenodd"/><path fill="#2367FF" fill-rule="evenodd" d="M1019 739v-16h-16v16zm-15-15h14v14h-14z" clip-rule="evenodd"/><path fill="#2367FF" d="M1019 743h-1v-1h-14v1h-1v-3h1v1h14v-1h1zM1020 739v-1h1v-14h-1v-1h3v1h-1v14h1v1z"/><path fill="#000" fill-opacity=".6" fill-rule="evenodd" d="M4 764v18h1v-18zm12 15H8v-5h8zm1 1v-7H7v7z" clip-rule="evenodd"/><path fill="#168E12" d="M22 766v5H7v-5zm-1 1H8v3h13z"/><path fill="#5EBB5C" fill-opacity=".3" d="M8 767h13v3H8z"/><path fill="#168E12" d="M51 766v1h-5v3h5v1h-6v-5zm9 0v5h-6v-1h5v-3h-5v-1z"/><path fill="#000" fill-opacity=".6" fill-rule="evenodd" d="M58 773v7h-4v-1h2.98v-5H54v-1zm-7 0v1h-3v5h3v1h-4v-7zM52 764h1v18h-1z" clip-rule="evenodd"/><path fill="#5EBB5C" fill-opacity=".3" d="M50.96 767v3H46v-3zm9.04 0v3h-6.01v-3z"/><path fill="#000" fill-opacity=".6" fill-rule="evenodd" d="M101 764v18h1v-18zm-3 15h-8v-5h8zm1 1v-7H89v7z" clip-rule="evenodd"/><path fill="#168E12" d="M99 766v5H84v-5zm-1 1H85v3h13z"/><path fill="#5EBB5C" fill-opacity=".3" d="M85 767h13v3H85z"/><path fill="#000" fill-opacity=".6" fill-rule="evenodd" d="M133 767v10h-7v-10zm-1 1h-5v8h5zm10-4v1h-18v-1z" clip-rule="evenodd"/><path fill="#168E12" d="M140 767v15h-5v-15zm-1 1h-3v13h3z"/><path fill="#5EBB5C" fill-opacity=".3" d="M139 768h-3v13h3z"/><path fill="#168E12" d="M167 774v5h3v-5h1v6h-5v-6zm-1-9h5v6h-1v-5h-3v5h-1z"/><path fill="#000" fill-opacity=".6" fill-rule="evenodd" d="M180 778h-7v-4h1v3h5v-3h1zm0-7h-1v-3h-5v3h-1v-4h7zM182 772v1h-18v-1z" clip-rule="evenodd"/><path fill="#5EBB5C" fill-opacity=".3" d="M170 771h-3l.04-5H170zm0 8h-2.96v-5H170z"/><path fill="#000" fill-opacity=".6" fill-rule="evenodd" d="M213 769v10h-7v-10zm-1 1h-5v8h5zm10 11v1h-18v-1z" clip-rule="evenodd"/><path fill="#168E12" d="M220 764v15h-5v-15zm-1 1h-3v13h3z"/><path fill="#5EBB5C" fill-opacity=".3" d="M219 765h-3v13h3z"/><path fill="#000" fill-opacity=".6" fill-rule="evenodd" d="M247 776h9v5h-9zm1 1v3h7v-3zm-1-12h12v5h-12zm1 1v3h10v-3zm-2 15v1h-3v-1h1v-7h-1v-1h1v-8h-1v-1h3v1h-1v8h1v1h-1v7z" clip-rule="evenodd"/><path fill="#168E12" d="M247 771h16v4h-16zm1 1v2h14v-2z"/><path fill="#5EBB5C" fill-opacity=".3" d="M248 772v2h14v-2z"/><path fill="#000" fill-opacity=".6" fill-rule="evenodd" d="M290 767v9h-5v-9zm-1 1h-3v7h3zm12-1v12h-5v-12zm-1 1h-3v10h3zm-15-2h-1v-3h1v1h7v-1h1v1h8v-1h1v3h-1v-1h-8v1h-1v-1h-7z" clip-rule="evenodd"/><path fill="#168E12" d="M295 767v16h-4v-16zm-1 1h-2v14h2z"/><path fill="#5EBB5C" fill-opacity=".3" d="M294 768h-2v14h2z"/><path fill="#000" fill-opacity=".6" fill-rule="evenodd" d="m324 769.182 2.739 2.818 2.739-2.818-.548-.564-1.804 1.856v-1.691c0-2.201 1.735-3.986 3.874-3.986V764c-2.567 0-4.648 2.141-4.648 4.783l-.001 1.691-1.803-1.856z" clip-rule="evenodd"/><path fill="#2367FF" fill-rule="evenodd" d="M324.004 781.735a9 9 0 0 1 7.995-8.68L332 782h-8zm14.122.266a9.04 9.04 0 0 0 3.361-3.005l.096.287c.271.858.417 1.77.417 2.717z" clip-rule="evenodd"/><path fill="#000" fill-opacity=".6" fill-rule="evenodd" d="M342 773a9 9 0 0 0-8.735-8.996L333 764v18a9 9 0 0 0 9-9m-1 0a8 8 0 0 1-6.774 7.907l-.226.03v-15.875l.216.03a8 8 0 0 1 6.78 7.659zM382 769.182 379.261 772l-2.739-2.818.548-.564 1.804 1.856v-1.691c0-2.201-1.735-3.986-3.874-3.986V764c2.567 0 4.648 2.141 4.648 4.783l.001 1.691 1.803-1.856z" clip-rule="evenodd"/><path fill="#2367FF" fill-rule="evenodd" d="M381.996 781.735a9 9 0 0 0-7.995-8.68L374 782h8zm-14.122.266a9.04 9.04 0 0 1-3.361-3.005l-.096.287A9 9 0 0 0 364 782z" clip-rule="evenodd"/><path fill="#000" fill-opacity=".6" fill-rule="evenodd" d="M364 773a9 9 0 0 1 8.735-8.996L373 764v18a9 9 0 0 1-9-9m1 0a8 8 0 0 0 6.774 7.907l.226.03v-15.875l-.216.03a8 8 0 0 0-6.78 7.659zM411 773a8 8 0 0 0-7.764-7.997L403 765v16a8 8 0 0 0 8-8m-1 0c0 3.529-2.518 6.453-5.806 6.973L404 780v-14l.185.026c3.229.506 5.71 3.328 5.812 6.755z" clip-rule="evenodd"/><path fill="#2367FF" d="M415 773a8 8 0 0 1 8-8v16a8 8 0 0 1-8-8"/><path fill="#000" fill-opacity=".6" d="M412.5 765h1v16h-1z"/><path fill="#000" fill-opacity=".6" fill-rule="evenodd" d="M453 771a8 8 0 0 0 7.997-7.764L461 763h-16a8 8 0 0 0 8 8m0-1c-3.529 0-6.453-2.518-6.973-5.806L446 764h14l-.026.185c-.506 3.229-3.328 5.71-6.755 5.812z" clip-rule="evenodd"/><path fill="#2367FF" d="M453 775a8 8 0 0 1 8 8h-16a8 8 0 0 1 8-8"/><path fill="#000" fill-opacity=".6" fill-rule="evenodd" d="M461 772.5v1h-16v-1zM22 807v9h-6.5l-.583-1H21v-8zm-11.583 3-.417.714V810zM10 805v-1h9v1z" clip-rule="evenodd"/><path fill="#2367FF" fill-opacity=".3" d="m11 811.983 3 5.142v3.874H7V819l-.092-.001z"/><path fill="#2367FF" fill-rule="evenodd" d="m14.5 816-3.5-6-5.25 9h1.157L11 811.983l3 5.145V816zm3.5 6-.584-1H7v1z" clip-rule="evenodd"/><path fill="#000" fill-opacity=".6" fill-rule="evenodd" d="M6 820v3H3v-3zm12-3v3h-3v-3zm-6-11v3H9v-3zm11-3v3h-3v-3zM62 807v9h-5.5l-.583-1H61v-8zm-3-3v1h-8v3l-1 1.714V804z" clip-rule="evenodd"/><path fill="#2367FF" fill-opacity=".3" d="M51 811.983 56.26 821l-9.26-.001V819l-.092-.001z"/><path fill="#2367FF" d="m51 810 7 12H47v-1h9.259L51 811.983 46.907 819H45.75z"/><path fill="#000" fill-opacity=".6" fill-rule="evenodd" d="M46 820v3h-3v-3zm17 0v3h-3v-3zm-17-17v3h-3v-3zm17 0v3h-3v-3z" clip-rule="evenodd"/><path fill="#D6D6D6" fill-rule="evenodd" d="M261 896.601a2 2 0 0 1-1.014 1.74l-9.001 5.101a2 2 0 0 1-1.971 0l-2.999-1.696a2 2 0 0 1-1.015-1.741v-10.606a2 2 0 0 1 1.014-1.74l8.374-4.746a3 3 0 0 1 3.151.119l2.575 1.729c.554.371.886.994.886 1.661z" clip-rule="evenodd"/><mask id="e" width="16" height="22" x="245" y="882" maskUnits="userSpaceOnUse" style="mask-type:luminance"><path fill="#fff" fill-rule="evenodd" d="M261 896.601a2 2 0 0 1-1.014 1.74l-9.001 5.101a2 2 0 0 1-1.971 0l-2.999-1.696a2 2 0 0 1-1.015-1.741v-10.606a2 2 0 0 1 1.014-1.74l8.374-4.746a3 3 0 0 1 3.151.119l2.575 1.729c.554.371.886.994.886 1.661z" clip-rule="evenodd"/></mask><g fill-rule="evenodd" clip-rule="evenodd" mask="url(#e)"><path fill="url(#f)" fill-opacity=".6" d="M261 896.601a2 2 0 0 1-1.014 1.74l-9.001 5.101a2 2 0 0 1-1.971 0l-2.999-1.696a2 2 0 0 1-1.015-1.741v-10.606a2 2 0 0 1 1.014-1.74l8.374-4.746a3 3 0 0 1 3.151.119l2.575 1.729c.554.371.886.994.886 1.661z"/><path fill="url(#g)" fill-opacity=".9" d="M250 891.838a2 2 0 0 1 1.022-1.744l8.489-4.759a1 1 0 0 1 1.489.872v10.394a2 2 0 0 1-1.014 1.74l-9.239 5.236a.5.5 0 0 1-.747-.435z"/></g><path fill="#000" fill-opacity=".6" fill-rule="evenodd" d="M244.536 972.071 242 969.536l.707-.708 1.378 1.329v-3.086c0-2.209.791-3 3-3h3.086l-1.329-1.364.707-.707 2.536 2.536-2.536 2.535-.707-.707 1.329-1.293h-3.086c-1.598 0-1.909.425-2 2l.001 3.086 1.278-1.329.707.708z" clip-rule="evenodd"/><path fill="#000" fill-opacity=".2" fill-rule="evenodd" d="M244 973h1v3l5-.001v-5h-2v-1h2V968h1v1.999h5v1h-5v5l-7 .001zm12-9v1h-3v-1z" clip-rule="evenodd"/><path fill="#2367FF" fill-rule="evenodd" d="M244 976v7h19v-19h-7v12zm6 1v5h-5v-5zm6 0h-5v5h5zm1 0h5v5h-5zm5-6h-5v5h5zm-5-6h5v5h-5z" clip-rule="evenodd"/><path fill="#2367FF" fill-opacity=".3" fill-rule="evenodd" d="M262 970v-5h-5v5zm0 1v5h-5v-5zm-12 11v-5h-5v5zm6-5v5h-5v-5zm6 0v5h-5v-5z" clip-rule="evenodd"/><path fill="#168E12" fill-rule="evenodd" d="M327 978v-8h-4v8zm-3-7h2v6h-2z" clip-rule="evenodd"/><path fill="#5EBB5C" fill-opacity=".3" d="M324 971h2v6h-2z"/><path fill="#2367FF" fill-rule="evenodd" d="M332 978v-15h-4v15zm-3-14h2v13h-2z" clip-rule="evenodd"/><path fill="#2367FF" fill-opacity=".3" d="M329 964h2v13h-2z"/><path fill="#000" fill-opacity=".6" fill-rule="evenodd" d="M337 968v5.805l-1 .919V969h-2v7.562l-.375.345.065.021-.69.634V968z" clip-rule="evenodd"/><path fill="#000" fill-opacity=".2" fill-rule="evenodd" d="M342.535 971.42a.586.586 0 0 1 .057.763l-.051.062-6.259 6.785-.041-.073a3.6 3.6 0 0 0-.56-.715l-.137-.13a3.5 3.5 0 0 0-.579-.425l-.064-.035 6.801-6.248a.6.6 0 0 1 .773-.036z" clip-rule="evenodd"/><path fill="#000" fill-opacity=".6" fill-rule="evenodd" d="m341.253 970.898-7.628 7.009.684.217c.286.102.613.316.904.605.326.325.554.69.642 1.005l.162.578 7.024-7.615.075-.089a1.28 1.28 0 0 0-.112-1.675 1.264 1.264 0 0 0-1.751-.035m1.282.522a.586.586 0 0 1 .057.763l-.051.062-6.259 6.785-.041-.074a3.6 3.6 0 0 0-.56-.714l-.137-.13a3.5 3.5 0 0 0-.579-.425l-.064-.035 6.801-6.249a.6.6 0 0 1 .773-.035z" clip-rule="evenodd"/><path fill="#2367FF" d="M328.789 983.346c5.991 1.123 6.292-2.447 6.5-3.246l-1.376-1.412c-2.527.354-3.41 2.912-3.41 2.912-.963 1.768-1.714 1.746-1.714 1.746"/><path fill="#000" fill-opacity=".6" fill-rule="evenodd" d="M368 973v10h-5v-10zm-1 1h-3v8h3zm8-9v18h-5v-18zm-1 1h-3v16h3zm8 5v12h-5v-12zm-1 1h-3v10h3z" clip-rule="evenodd"/><path fill="#2367FF" d="M363 971h5v1h-5zM370 963h5v1h-5zM377 969h5v1h-5z"/><path fill="#000" fill-opacity=".6" fill-rule="evenodd" d="M408 973v10h-5v-10zm-1 1h-3v8h3zM412 965v1h-1v16h3v-7h1v8h-5v-18zM422 975v8h-5v-8h1v7h3v-7z" clip-rule="evenodd"/><path fill="#2367FF" fill-opacity=".3" d="M414 964h8v9h-8z"/><path fill="#2367FF" fill-rule="evenodd" d="M423 963v11h-10v-11zm-1 1h-8v9h8zm-1 7v-1h-6v1zm0-3v1h-6v-1zm0-1v-1h-6v1z" clip-rule="evenodd"/><path fill="#000" fill-opacity=".6" fill-rule="evenodd" d="M444 963v19h19v1h-20v-20z" clip-rule="evenodd"/><path fill="#2367FF" d="M463 966h-19v1h19zM463 970h-19v1h19zM444 974h19v1h-19zM463 978h-19v1h19z"/><path fill="#000" fill-opacity=".6" fill-rule="evenodd" d="M484 963v19h19v1h-20v-20z" clip-rule="evenodd"/><path fill="#2367FF" d="M487 982v-19h1v19zM491 982v-19h1v19zM495 982v-19h1v19zM499 982v-19h1v19z"/><path fill="#000" fill-opacity=".6" fill-rule="evenodd" d="M538.243 964.757a6 6 0 0 1 .51 7.906c.223.02.44.116.611.287l3.535 3.535a.999.999 0 1 1-1.414 1.414l-3.535-3.535a1 1 0 0 1-.289-.611 6 6 0 1 1 .582-8.996m-7.779.707a5 5 0 0 0 0 7.072 5 5 0 0 0 7.072 0 5 5 0 0 0 0-7.072 5 5 0 0 0-7.072 0" clip-rule="evenodd"/><path fill="#2367FF" fill-rule="evenodd" d="m525 977-.027 6H524v-4h-1v-1l.221-.11c.425-.22 1.088-.603 1.282-.828l.044-.062zm2.5 0a1.5 1.5 0 0 1 1.5 1.5v3a1.5 1.5 0 0 1-3 0v-3a1.5 1.5 0 0 1 1.5-1.5m5.439 1.5a1.5 1.5 0 1 0-3 0v3a1.5 1.5 0 0 0 3 0zm-5.439-.5a.5.5 0 0 0-.492.41l-.008.09v3a.5.5 0 0 0 .992.09l.008-.09v-3a.5.5 0 0 0-.5-.5m3.447.41a.501.501 0 0 1 .992.09v3l-.008.09a.5.5 0 0 1-.992-.09v-3z" clip-rule="evenodd"/><path fill="#000" fill-opacity=".6" fill-rule="evenodd" d="M578.243 964.757a6 6 0 0 1 .51 7.906c.223.02.44.116.611.287l3.535 3.535a.999.999 0 1 1-1.414 1.414l-3.535-3.535a1 1 0 0 1-.289-.611 6 6 0 1 1 .582-8.996m-7.779.707a5 5 0 0 0 0 7.072 5 5 0 0 0 7.072 0 5 5 0 0 0 0-7.072 5 5 0 0 0-7.072 0" clip-rule="evenodd"/><path fill="#2367FF" d="M571 968.5h6v1h-6zM565 977l-.027 6H564v-4h-1v-1l.221-.11c.425-.22 1.088-.603 1.282-.828l.044-.062z"/><path fill="#2367FF" fill-rule="evenodd" d="M573 978v-1h-2v1h-1v1h1v-1zm0 2v-2h1v2zm-1 1h1v-1h-1zm0 0h-1v1h-1v1h4v-1h-2z" clip-rule="evenodd"/><path fill="#2367FF" d="m565.5 982.696 3-5.196.866.5-3 5.196z"/><path fill="#000" fill-opacity=".6" fill-rule="evenodd" d="M618.243 964.757a6 6 0 0 1 .51 7.906c.223.02.44.116.611.287l3.535 3.535a.999.999 0 1 1-1.414 1.414l-3.535-3.535a1 1 0 0 1-.289-.611 6 6 0 1 1 .582-8.996m-7.779.707a5 5 0 0 0 0 7.072 5 5 0 0 0 7.072 0 5 5 0 0 0 0-7.072 5 5 0 0 0-7.072 0" clip-rule="evenodd"/><path fill="#2367FF" d="M611 968.5h6v1h-6z"/><path fill="#2367FF" fill-rule="evenodd" d="M606 977v1h-2v-1zm-2 1v1h-1v-1zm2 2h1v-2h-1zm-1 1v-1h1v1zm0 0v1h2v1h-4v-1h1v-1zm10 2v-1h1v-2h-1v-1h1v-1h-1v-1h-2v1h-1v1h1v-1h2v1h-1v1h1v2h-2v-1h-1v1h1v1z" clip-rule="evenodd"/><path fill="#2367FF" d="m607.5 982.696 3-5.196.866.5-3 5.196z"/><path fill="#000" fill-opacity=".6" fill-rule="evenodd" d="M658.243 964.757a6 6 0 0 1 .51 7.906c.223.02.44.116.611.287l3.535 3.535a.999.999 0 1 1-1.414 1.414l-3.535-3.535a1 1 0 0 1-.289-.611 6 6 0 1 1 .582-8.996m-7.779.707a5 5 0 0 0 0 7.072 5 5 0 0 0 7.072 0 5 5 0 0 0 0-7.072 5 5 0 0 0-7.072 0" clip-rule="evenodd"/><path fill="#2367FF" d="M654.5 966v2.5h2.5v1h-2.5v2.5h-1v-2.5H651v-1h2.5V966z"/><path fill="#2367FF" fill-rule="evenodd" d="M655 978v-1h-2v1h-1v1h1v-1zm0 2v-2h1v2zm-1 1h1v-1h-1zm0 0h-1v1h-1v1h4v-1h-2zM646 978v-1h-2v1h-1v1h1v-1zm0 1v-1h1v1zm0 1h-1v-1h1zm0 2h1v-2h-1zm-2 0v1h2v-1zm0 0h-1v-1h1z" clip-rule="evenodd"/><path fill="#2367FF" d="m647.5 982.696 3-5.196.866.5-3 5.196z"/><path fill="#000" fill-opacity=".6" fill-rule="evenodd" d="M698.243 964.757a6 6 0 0 1 .51 7.906c.223.02.44.116.611.287l3.535 3.535a.999.999 0 1 1-1.414 1.414l-3.535-3.535a1 1 0 0 1-.289-.611 6 6 0 1 1 .582-8.996m-7.779.707a5 5 0 0 0 0 7.072 5 5 0 0 0 7.072 0 5 5 0 0 0 0-7.072 5 5 0 0 0-7.072 0" clip-rule="evenodd"/><path fill="#2367FF" d="M694.5 966v2.5h2.5v1h-2.5v2.5h-1v-2.5H691v-1h2.5V966z"/><path fill="#2367FF" fill-rule="evenodd" d="M692 977v1h-2v-1zm-2 1v1h-1v-1zm2 2h1v-2h-1zm-1 1v-1h1v1zm0 0v1h2v1h-4v-1h1v-1zm-3 2v-1h-1v-1h-1v-1h-1v-1h-1v-1h-1v1h1v1h1v1h1v1h1v1z" clip-rule="evenodd"/><path fill="#2367FF" fill-rule="evenodd" d="M687 979v-1h1v1zm-1 1h1v-1h-1zm-1 1v-1h1v1zm-1 1h1v-1h-1zm0 0v1h-1v-1z" clip-rule="evenodd"/><path fill="#000" fill-opacity=".6" fill-rule="evenodd" d="M724 974v4h4v1h-5v-5zm-1-11h16v4h-1v-3h-14v4h-1zM733 975v8h-4v-8zm5-7v15h-4v-15zm4 14v-9h-2v9h-1v-10h4v11h-4v-1zm-10-6h-2v6h2zm5-7h-2v13h2z" clip-rule="evenodd"/><path fill="#2367FF" fill-rule="evenodd" d="M723 968v6h10v-1h-4v-4h4v-1zm1 1h4v4h-4z" clip-rule="evenodd"/><path fill="#000" fill-opacity=".6" fill-rule="evenodd" d="M729 964v4h-1v-4zm5 0v3h-1v-3z" clip-rule="evenodd"/><path fill="#2367FF" fill-opacity=".3" fill-rule="evenodd" d="M728 973v-4h-4v4zm5 0v-4h-4v4z" clip-rule="evenodd"/><g fill="#000" fill-rule="evenodd" clip-path="url(#h)" clip-rule="evenodd"><path fill-opacity=".6" d="M301 883v16h-16v-16zm-1 1h-14v14h14z"/><path fill-opacity=".25" d="M300 901h1v1h-1z"/><path fill-opacity=".35" d="M285 900h1v1h-1zm15 0h1v1h-1z"/><path fill-opacity=".15" d="M300 902h1v1h-1z"/><path fill-opacity=".25" d="M285 901h1v1h-1z"/><path fill-opacity=".15" d="M285 902h1v1h-1z"/><path fill-opacity=".4" d="M301 899v1h-16v-1z"/></g><g fill="#000" fill-rule="evenodd" clip-path="url(#i)" clip-rule="evenodd"><path fill-opacity=".6" d="M339 883v16h-16v-16zm-1 1h-14v14h14z"/><path fill-opacity=".2" d="M343 903h-16v-4h12v-12h4z"/></g><g fill-rule="evenodd" clip-path="url(#j)" clip-rule="evenodd"><path fill="#D0E8D0" d="M383 883v20h-20v-20zm-1 1h-18v18h18z"/><path fill="#8AC688" d="M382 884v18h-18v-18zm-1 1h-16v16h16z"/><path fill="#168E12" d="M381 885v16h-16v-16zm-1 1h-14v14h14z"/></g><g fill-rule="evenodd" clip-path="url(#k)" clip-rule="evenodd"><path fill="#E0E0E0" d="M423 883v20h-20v-20zm-1 1h-18v18h18z"/><path fill="#C2C2C2" d="M422 884v18h-18v-18zm-1 1h-16v16h16z"/><path fill="#A3A3A3" d="M421 885v16h-16v-16zm-1 1h-14v14h14z"/></g><g fill="#000" fill-opacity=".6" fill-rule="evenodd" clip-path="url(#l)" clip-rule="evenodd"><path d="M421 1203v20h-16v-20zm-1 1h-14v18h14z"/><path d="M418 1217v1h-4v-1zm-7-1c.55 0 1 .45 1 1s-.45 1-1 1-1-.45-1-1 .45-1 1-1m7-3v1h-5v-1zm-8-1c.55 0 1 .45 1 1s-.45 1-1 1-1-.45-1-1 .45-1 1-1m8-3v1h-6v-1zm-9-1c.55 0 1 .45 1 1s-.45 1-1 1-1-.45-1-1 .45-1 1-1"/></g><g fill="#2367FF" clip-path="url(#m)"><path d="M461 1203v20h-16v-20zm-1 1h-14v18h14z"/><path d="M458 1217v1h-4v-1zm-7-1c.55 0 1 .45 1 1s-.45 1-1 1-1-.45-1-1 .45-1 1-1m7-3v1h-5v-1zm-8-1c.55 0 1 .45 1 1s-.45 1-1 1-1-.45-1-1 .45-1 1-1m8-3v1h-6v-1zm-9-1c.55 0 1 .45 1 1s-.45 1-1 1-1-.45-1-1 .45-1 1-1"/></g><g fill="#000" fill-opacity=".6" fill-rule="evenodd" clip-path="url(#n)" clip-rule="evenodd"><path d="M501 1203v5h-1v-4h-14v18h3v1h-4v-20z"/><path d="M501.6 1213.32c.78-.78.78-2.05 0-2.83s-1.93-.78-2.72-.1l-.11.1-2.12 2.12.02.02c-.08.06-.16.13-.24.2l-.14.13-4.24 4.24c-1.37 1.37-1.53 3.42-.35 4.6s3.09 1.02 4.46-.22l.14-.13 4.95-4.95c.12-.12.23-.25.33-.38l.71.71c-.1.13-.22.25-.34.37l-4.95 4.95c-1.76 1.76-4.45 1.92-6.01.35s-1.4-4.25.35-6.01l4.24-4.24c.12-.12.24-.23.37-.34l-.02-.02 2.12-2.12a3 3 0 0 1 4.24 0 3 3 0 0 1 0 4.24l-7.07 7.07c-.78.78-2.05.78-2.83 0s-.78-2.05 0-2.83l5.66-5.66.71.71-5.66 5.66a.996.996 0 0 0 0 1.41c.36.36.93.39 1.33.08l.09-.08 7.07-7.07z"/></g><g fill="#2367FF" clip-path="url(#o)"><path d="M541 1203v5h-1v-4h-14v18h3v1h-4v-20z"/><path d="M541.6 1213.32c.78-.78.78-2.05 0-2.83s-1.93-.78-2.72-.1l-.11.1-2.12 2.12.02.02c-.08.06-.16.13-.24.2l-.14.13-4.24 4.24c-1.37 1.37-1.53 3.42-.35 4.6s3.09 1.02 4.46-.22l.14-.13 4.95-4.95c.12-.12.23-.25.33-.38l.71.71c-.1.13-.22.25-.34.37l-4.95 4.95c-1.76 1.76-4.45 1.92-6.01.35s-1.4-4.25.35-6.01l4.24-4.24c.12-.12.24-.23.37-.34l-.02-.02 2.12-2.12a3 3 0 0 1 4.24 0 3 3 0 0 1 0 4.24l-7.07 7.07c-.78.78-2.05.78-2.83 0s-.78-2.05 0-2.83l5.66-5.66.71.71-5.66 5.66a.996.996 0 0 0 0 1.41c.36.36.93.39 1.33.08l.09-.08 7.07-7.07z"/></g><g clip-path="url(#p)"><path fill="#000" fill-opacity=".6" fill-rule="evenodd" d="m578.72 1215.81 4.08 1.9-9.9 4.61-9.9-4.61 4.07-1.9 1.18.55-2.89 1.35 7.53 3.51 7.53-3.51-2.89-1.35 1.18-.55zm0-4.8 4.08 1.9-9.9 4.61-9.9-4.61 4.07-1.9 1.18.55-2.89 1.35 7.53 3.51 7.53-3.51-2.89-1.35 1.18-.55zm-5.82-7.51 9.9 4.61-9.9 4.61-9.9-4.61zm0 1.1-7.53 3.51 7.53 3.51 7.53-3.51z" clip-rule="evenodd"/></g><g clip-path="url(#q)"><path fill="#2367FF" d="m618.72 1215.81 4.08 1.9-9.9 4.61-9.9-4.61 4.07-1.9 1.18.55-2.89 1.35 7.53 3.51 7.53-3.51-2.89-1.35 1.18-.55zm0-4.8 4.08 1.9-9.9 4.61-9.9-4.61 4.07-1.9 1.18.55-2.89 1.35 7.53 3.51 7.53-3.51-2.89-1.35 1.18-.55zm-5.82-7.51 9.9 4.61-9.9 4.61-9.9-4.61zm0 1.1-7.53 3.51 7.53 3.51 7.53-3.51z"/></g><defs><clipPath id="h"><path fill="#fff" d="M281 881h24v24h-24z"/></clipPath><clipPath id="i"><path fill="#fff" d="M321 881h24v24h-24z"/></clipPath><clipPath id="j"><path fill="#fff" d="M361 881h24v24h-24z"/></clipPath><clipPath id="k"><path fill="#fff" d="M401 881h24v24h-24z"/></clipPath><clipPath id="l"><path fill="#fff" d="M401 1201h24v24h-24z"/></clipPath><clipPath id="m"><path fill="#fff" d="M441 1201h24v24h-24z"/></clipPath><clipPath id="n"><path fill="#fff" d="M481 1201h24v24h-24z"/></clipPath><clipPath id="o"><path fill="#fff" d="M521 1201h24v24h-24z"/></clipPath><clipPath id="p"><path fill="#fff" d="M561 1201h24v24h-24z"/></clipPath><clipPath id="q"><path fill="#fff" d="M601 1201h24v24h-24z"/></clipPath><linearGradient id="a" x1="756.227" x2="776.511" y1="136.872" y2="156.797" gradientUnits="userSpaceOnUse"><stop stop-color="#2367FF"/><stop offset="1" stop-color="#fff" stop-opacity=".4"/></linearGradient><linearGradient id="b" x1="829.773" x2="809.489" y1="129.128" y2="109.203" gradientUnits="userSpaceOnUse"><stop stop-color="#2367FF"/><stop offset="1" stop-color="#fff" stop-opacity=".4"/></linearGradient><linearGradient id="c" x1="807" x2="807" y1="737" y2="743" gradientUnits="userSpaceOnUse"><stop stop-opacity=".2"/><stop offset="1" stop-color="#fff" stop-opacity=".2"/></linearGradient><linearGradient id="d" x1="847" x2="847" y1="737" y2="743" gradientUnits="userSpaceOnUse"><stop stop-color="#49A0FF" stop-opacity=".3"/><stop offset=".049" stop-color="#52A5FF" stop-opacity=".3"/><stop offset="1" stop-color="#fff" stop-opacity=".3"/></linearGradient><linearGradient id="g" x1="248.916" x2="258.614" y1="898.87" y2="901.032" gradientUnits="userSpaceOnUse"><stop stop-color="#E6E6E6"/><stop offset="1" stop-color="#CDCDCD" stop-opacity=".831"/></linearGradient><radialGradient id="f" cx="0" cy="0" r="1" gradientTransform="rotate(99.426 -254.489 550.953)scale(14.3137 17.1221)" gradientUnits="userSpaceOnUse"><stop stop-color="#2B2B2B"/><stop offset=".372" stop-color="#848484"/><stop offset="1" stop-color="#B4B4B4"/></radialGradient></defs></svg>