<svg width="1199" height="99" xmlns="http://www.w3.org/2000/svg">
    <g fill="none" fill-rule="evenodd">
        <path d="M0 0h1199v99H0z"/>
        <path d="M901 51h48v48h-48z"/>
        <path d="M944 90v1h-22v-1h22zm0-10v1h-22v-1h22zm0-10v1h-22v-1h22zm0-10v1h-22v-1h22zm-38 21 12.84 3.78L906 88.558l4.35-3.78L906 81zm1.794 1.025 3.26 2.754h6.225l-9.485-2.754zM906 59l12.84 3.78L906 66.558l4.35-3.78L906 59zm1.794 1.025 3.26 2.754h6.225l-9.485-2.754z" fill-opacity=".6" fill="#000"/>
        <path d="M851 51h48v48h-48z"/>
        <path d="M894 90v1h-20v-1h20zm0-10v1h-20v-1h20zm0-10v1h-20v-1h20zm0-10v1h-20v-1h20zm-28.219 22 .346.007c.185.006.411.017.679.031l2.167.138c.174.013.346.067.515.164.17.096.304.204.403.324.099.12.148.234.148.344 0 .198-.06.37-.18.515-.12.146-.287.256-.504.329a2.387 2.387 0 0 1-.606.11l-.179.007-1.554.047-.032.109.045.114c.054.146.08.267.08.363 0 .145-.066.316-.199.511-.133.196-.234.301-.305.317-.07.015-.184.053-.343.113-.16.06-.254.116-.285.168l.05.219c.018.093.028.164.028.21a.712.712 0 0 1-.125.41c-.07.103-.204.198-.404.288l-.128.053c-.15.057-.237.106-.257.148 0 .297-.09.496-.27.598-.18.101-.376.152-.59.152-.198 0-.492-.042-.883-.125-.39-.088-.682-.133-.875-.133l-.184.008c-.141.01-.32.03-.537.061l-.52.075a5.188 5.188 0 0 1-.618.052c-.433 0-.9-.128-1.4-.383l-.217-.117-.125.117-.042.073c-.177.259-.622.388-1.333.388-.25 0-.404-.119-.461-.356l-.026-.146c-.036-.26-.056-.708-.06-1.342v-.219c0-.131.008-.291.023-.48l.07-.713c.014-.167.027-.363.04-.588l.028-.386c.039-.41.094-.682.167-.813.094-.17.341-.254.742-.254.396 0 .654.031.774.094.12.062.218.18.297.351a.5.5 0 0 0 .195.195l.163-.082.08-.043a7.32 7.32 0 0 1 1.105-.484c.403-.14 1.024-.266 1.863-.375.838-.11 1.917-.164 3.234-.164zm-2.554 4.383c-.053 0-.116.047-.192.14-.075.094-.113.16-.113.196 0 .094.146.224.437.39.292.167.568.25.828.25.102 0 .18-.013.235-.04l.047-.03.18-.14-.016-.141-.1-.074a.81.81 0 0 0-.206-.098l-.108-.023a1.84 1.84 0 0 1-.585-.22l-.173-.1c-.125-.074-.203-.11-.234-.11zm-.993-3.664c-.411 0-.958.108-1.64.324-.683.216-1.108.495-1.278.836a2.54 2.54 0 0 0-.254 1.144l.01 1.253.006.162c.01.218.167.407.469.566.252.132.552.21.902.232l.215.006.082-.004c.092-.006.244-.02.455-.043l1.236-.14.016-.047-.008-.039c-.022-.057-.088-.138-.198-.244l-.278-.255-.024-.025-.18-.593-.507.039a8.547 8.547 0 0 1-.805.054c-.36 0-.539-.101-.539-.304 0-.094.057-.141.172-.141l.111.005.536.046c.075.005.14.009.194.01l.073.001c.578 0 .867-.067.867-.203 0-.026-.017-.065-.05-.117-.034-.052-.062-.078-.083-.078-.086 0-.183.003-.29.01l-.545.046a5.764 5.764 0 0 1-.462.022c-.093 0-.236-.05-.43-.148-.192-.1-.288-.214-.288-.344 0-.047.015-.107.047-.18.107.007.253.03.437.07l.305.07c.406.1.719.15.937.15.448 0 .672-.102.672-.305 0-.12-.142-.307-.426-.559l-.113-.098.031-.14.075-.026a.462.462 0 0 1 .129-.021c.13 0 .236.042.32.125l.193.186c.115.108.203.187.264.236.091.073.186.11.285.11.125 0 .188-.06.188-.18 0-.105-.068-.237-.204-.399.084-.083.146-.125.188-.125.099 0 .185.037.258.11.273.282.654.477 1.143.584l.216.04.078-.132.063-.57-.245-.177a4.866 4.866 0 0 0-1.072-.542c-.476-.172-.894-.258-1.254-.258zm-4.32.219a.446.446 0 0 0-.2.058.29.29 0 0 0-.148.152.77.77 0 0 0-.033.22l-.002.109c0 .05-.01.147-.028.29l-.058.397c-.114.797-.172 1.409-.172 1.836l.032.297.078.07.18-.117v-.54l.062-.1.094.015.015.117-.03.781.015.165.093.14c.105-.062.157-.146.157-.25l-.002-.046-.014-.15a5.065 5.065 0 0 1-.039-.593c0-.546.03-1.117.09-1.712l.09-.81.008-.134v-.078l-.05-.052c-.05-.044-.095-.066-.138-.066zm.766.593h-.11l-.07.074a.755.755 0 0 0-.129.176c-.02.045-.041.153-.063.326l-.16 1.502v1.024l.118.086.125-.149v-.273l.093-.016.149.336.062-.062v-1.618l.008-.078.04-.226c.062-.339.093-.604.093-.797 0-.07-.033-.15-.1-.238l-.056-.067zm5.101 1.969-.048.055-.042.06-.035.065-.14.297.007.032c.033.078.185.174.454.288.307.13.643.195 1.007.195a.908.908 0 0 0 .438-.094c.114-.062.172-.143.172-.242 0-.245-.14-.381-.42-.409l-.602-.027-.135-.021-.132-.035-.524-.164zm-1.39.367h-.11l-.078.17-.015.041v.031l.06.095a.755.755 0 0 0 .133.144l.072.05.149.016c.03 0 .075-.034.132-.102l.024-.03c-.01-.157-.059-.265-.145-.325a.505.505 0 0 0-.173-.084l-.05-.006zm.5-.86a.292.292 0 0 0-.203.079.245.245 0 0 0-.086.187c0 .105.041.201.125.29.083.088.18.132.289.132.203 0 .304-.135.304-.406-.14-.187-.284-.281-.43-.281zm3.39-1.046c.063.161.094.286.094.375 0 .151-.105.289-.316.414-.211.125-.463.188-.754.188-.159 0-.357-.027-.595-.08l-.187-.046-.132.383.115.045c.163.054.359.08.588.08.468 0 .853-.077 1.152-.23.3-.154.45-.337.45-.55 0-.063-.03-.169-.087-.317a.396.396 0 0 0-.328-.262zm-2.484.516h-.125l-.082.052c-.096.068-.145.131-.145.19 0 .056.07.132.212.229l.093.06h.148c.115-.078.172-.149.172-.211 0-.078-.041-.151-.125-.219a.985.985 0 0 0-.13-.095l-.018-.006zm1.586-.547h-.125l-.07.069c-.084.088-.125.161-.125.22 0 .083.046.163.14.238a.457.457 0 0 0 .62-.017l.06-.073-.031-.117-.104-.085c-.162-.13-.273-.207-.335-.229l-.03-.006zm2.398-1.422h-.289l-1.039.047-.61-.032-.466-.011c-.178-.003-.38-.004-.604-.004-.316 0-.575.029-.776.087l-.114.038.031.086.266.118c.18.085.364.18.554.289l.29.17c.28.168.481.25.601.25.156 0 .352-.025.586-.077l.137-.024a.637.637 0 0 1 .082-.007l.246.039c.159.026.4.039.722.039.26 0 .444-.016.551-.047l.13-.035a.361.361 0 0 1 .07-.012l.09.007.073.008c.152.021.264.032.336.032.276 0 .506-.045.688-.133.182-.089.273-.193.273-.313 0-.182-.145-.303-.437-.363l-.258-.05a2.964 2.964 0 0 0-.26-.037l-.052-.003-.305.047-.056-.004a1.571 1.571 0 0 1-.164-.031l-.296-.074zm-2-22.508.346.007c.231.008.527.022.887.043l1.959.126c.174.013.346.067.515.164.17.096.304.204.403.324.099.12.148.234.148.344 0 .198-.06.37-.18.515-.12.146-.287.256-.504.329a2.387 2.387 0 0 1-.606.11l-.179.007-1.554.047-.032.109c.084.198.125.357.125.477 0 .145-.066.316-.199.511-.133.196-.234.301-.305.317-.07.015-.184.053-.343.113-.16.06-.254.116-.285.168l.05.219c.018.093.028.164.028.21a.712.712 0 0 1-.125.41c-.07.103-.204.198-.404.288l-.128.053c-.15.057-.237.106-.257.148 0 .297-.09.496-.27.598-.18.101-.376.152-.59.152-.198 0-.492-.042-.883-.125-.39-.088-.682-.133-.875-.133l-.184.008c-.141.01-.32.03-.537.061l-.52.075a5.188 5.188 0 0 1-.618.052c-.433 0-.9-.128-1.4-.383l-.217-.117-.125.117c-.14.307-.6.46-1.375.46-.25 0-.404-.118-.461-.355l-.026-.146c-.036-.26-.056-.708-.06-1.342v-.219c0-.131.008-.291.023-.48l.07-.713c.014-.167.027-.363.04-.588l.028-.386c.039-.41.094-.682.167-.813.094-.17.341-.254.742-.254.396 0 .654.031.774.094.12.062.218.18.297.351a.5.5 0 0 0 .195.195l.163-.082.08-.043a7.32 7.32 0 0 1 1.105-.484c.403-.14 1.024-.266 1.863-.375.838-.11 1.917-.164 3.234-.164zm-2.554 4.383c-.053 0-.116.047-.192.14-.075.094-.113.16-.113.196 0 .094.146.224.437.39.292.167.568.25.828.25.102 0 .18-.013.235-.04l.047-.03.18-.14-.016-.141a.867.867 0 0 0-.306-.172l-.108-.023a1.84 1.84 0 0 1-.585-.22l-.173-.1c-.125-.074-.203-.11-.234-.11zm-.993-3.664c-.411 0-.958.108-1.64.324-.683.216-1.108.495-1.278.836a2.54 2.54 0 0 0-.254 1.144l.01 1.253.006.162c.01.218.167.407.469.566.252.132.552.21.902.232l.215.006.082-.004c.092-.006.244-.02.455-.043l1.236-.14.016-.047c0-.057-.069-.151-.206-.283l-.278-.255-.024-.025-.18-.593-.507.039a8.547 8.547 0 0 1-.805.054c-.36 0-.539-.101-.539-.304 0-.094.057-.141.172-.141l.111.005.536.046c.075.005.14.009.194.01l.073.002c.578 0 .867-.068.867-.204 0-.026-.017-.065-.05-.117-.034-.052-.062-.078-.083-.078-.086 0-.183.003-.29.01l-.545.046a5.764 5.764 0 0 1-.462.022c-.093 0-.236-.05-.43-.148-.192-.1-.288-.214-.288-.344 0-.047.015-.107.047-.18.107.007.253.03.437.07l.305.07c.406.1.719.15.937.15.448 0 .672-.102.672-.305 0-.12-.142-.307-.426-.559l-.113-.098.031-.14a.562.562 0 0 1 .203-.047c.13 0 .237.042.32.125l.194.186c.115.108.203.187.264.236.091.073.186.11.285.11.125 0 .188-.06.188-.18 0-.105-.068-.237-.204-.399.084-.083.146-.125.188-.125.099 0 .185.037.258.11.273.282.654.477 1.143.584l.216.04.078-.132.063-.57a4.865 4.865 0 0 0-1.317-.72c-.476-.171-.894-.257-1.254-.257zm-4.32.218a.446.446 0 0 0-.2.06.29.29 0 0 0-.148.151.77.77 0 0 0-.033.22l-.002.109c0 .05-.01.147-.028.29l-.058.397c-.114.797-.172 1.409-.172 1.836l.032.297.078.07.18-.117v-.54l.062-.1.094.015.015.117-.03.781.015.165.093.14c.105-.062.157-.146.157-.25l-.002-.046-.014-.15a5.065 5.065 0 0 1-.039-.593c0-.546.03-1.117.09-1.712l.09-.81.008-.134v-.078c-.068-.078-.13-.117-.188-.117zm.766.594h-.11a1 1 0 0 0-.199.25c-.02.045-.041.153-.063.326l-.16 1.502v1.024l.118.086.125-.149v-.273l.093-.016.149.336.062-.062v-1.618l.008-.078.04-.226c.062-.339.093-.604.093-.797 0-.07-.033-.15-.1-.238l-.056-.067zm5.101 1.969a.615.615 0 0 0-.09.115l-.035.065-.14.297c0 .083.153.19.46.32.308.13.644.195 1.008.195a.908.908 0 0 0 .438-.094c.114-.062.172-.143.172-.242 0-.245-.14-.381-.42-.409l-.463-.02c-.094 0-.185-.01-.274-.028l-.132-.035-.524-.164zm-1.39.367h-.11l-.078.17-.015.041v.031a.86.86 0 0 0 .193.24l.072.05.149.015c.03 0 .075-.034.132-.102l.024-.03c-.01-.157-.059-.265-.145-.325a.505.505 0 0 0-.173-.084l-.05-.006zm.5-.86a.292.292 0 0 0-.203.079.245.245 0 0 0-.086.187c0 .105.041.201.125.29.083.088.18.132.289.132.203 0 .304-.135.304-.406-.14-.187-.284-.281-.43-.281zm3.39-1.046c.063.161.094.286.094.375 0 .151-.105.289-.316.414-.211.125-.463.188-.754.188-.159 0-.357-.027-.595-.08l-.187-.045-.132.382c.182.084.416.125.703.125.468 0 .853-.077 1.152-.23.3-.154.45-.337.45-.55 0-.063-.03-.169-.087-.317a.396.396 0 0 0-.328-.262zm-2.484.516h-.125c-.151.088-.227.169-.227.242 0 .056.07.132.212.229l.093.06h.148c.115-.078.172-.149.172-.211 0-.078-.041-.151-.125-.219a.985.985 0 0 0-.13-.095l-.018-.006zm1.586-.547h-.125c-.13.12-.196.216-.196.289 0 .083.047.163.141.238a.457.457 0 0 0 .62-.017l.06-.073-.031-.117-.195-.157a1.122 1.122 0 0 0-.244-.157l-.03-.006zm2.398-1.422h-.289l-1.039.047-.61-.032-.466-.011c-.178-.003-.38-.004-.604-.004-.316 0-.575.029-.776.087l-.114.038.031.086c.262.11.535.245.82.407l.29.17c.28.168.481.25.601.25.156 0 .352-.025.586-.077l.137-.024a.637.637 0 0 1 .082-.008l.246.04c.159.026.4.039.722.039.26 0 .444-.016.551-.047l.13-.035a.361.361 0 0 1 .07-.012l.09.007.073.008c.152.021.264.032.336.032.276 0 .506-.045.688-.133.182-.089.273-.193.273-.313 0-.182-.145-.303-.437-.363l-.258-.05a2.964 2.964 0 0 0-.26-.037l-.052-.003-.305.047c-.047 0-.12-.012-.22-.035l-.296-.074z" fill-opacity=".6" fill="#000"/>
        <path d="M801 51h48v48h-48z"/>
        <path d="M844 90v1h-22v-1h22zm0-10v1h-22v-1h22zm0-10v1h-22v-1h22zm0-10v1h-22v-1h22zm-32.879 25 2.122 2.121-2.122 2.122L809 87.12 811.121 85zm-3-3 2.122 2.121-2.122 2.122L806 84.12 808.121 82zm6 0 2.122 2.121-2.122 2.122L812 84.12 814.121 82zm-3-3 2.122 2.121-2.122 2.122L809 81.12 811.121 79zm0-14 2.122 2.121-2.122 2.122L809 67.12 811.121 65zm-3-3 2.122 2.121-2.122 2.122L806 64.12 808.121 62zm6 0 2.122 2.121-2.122 2.122L812 64.12 814.121 62zm-3-3 2.122 2.121-2.122 2.122L809 61.12 811.121 59z" fill-opacity=".6" fill="#000"/>
        <path d="M751 51h48v48h-48z"/>
        <path d="M794 90v1h-22v-1h22zm0-10v1h-22v-1h22zm0-10v1h-22v-1h22zm0-10v1h-22v-1h22zm-32.5 20 1.323 2.68 2.957.43-2.14 2.085.505 2.946-2.645-1.391-2.645 1.39.505-2.945-2.14-2.086 2.957-.43L761.5 80zm0-21 1.323 2.68 2.957.43-2.14 2.085.505 2.946-2.645-1.391-2.645 1.39.505-2.945-2.14-2.086 2.957-.43L761.5 59z" fill-opacity=".6" fill="#000"/>
        <path d="M701 51h48v48h-48z"/>
        <path d="M744 90v1h-22v-1h22zm0-10v1h-22v-1h22zm0-10v1h-22v-1h22zm0-10v1h-22v-1h22zm-28 20-6.667 8L706 83.2h.667l2.666 1.6 6-4.8H716zm0-21-6.667 8L706 62.2h.667l2.666 1.6 6-4.8H716z" fill-opacity=".6" fill="#000"/>
        <path d="M651 51h48v48h-48z"/>
        <path d="M694 90v1h-24v-1h24zm0-10v1h-24v-1h24zm0-10v1h-24v-1h24zm0-10v1h-24v-1h24zm-29 21v8h-8v-8h8zm-1 1h-6v6h6v-6zm0 .5-4 5-2-3h.4l1.6 1 3.6-3h.4zm1-23.5v8h-8v-8h8zm-1 1h-6v6h6v-6zm0 .5-4 5-2-3h.4l1.6 1 3.6-3h.4z" fill-opacity=".6" fill="#000"/>
        <path d="M601 51h48v48h-48z"/>
        <path d="M644 90v1h-24v-1h24zm0-10v1h-24v-1h24zm0-10v1h-24v-1h24zm0-10v1h-24v-1h24zm-32.5 20a4.5 4.5 0 1 1 0 9 4.5 4.5 0 0 1 0-9zm0 1a3.5 3.5 0 1 0 0 7 3.5 3.5 0 0 0 0-7zm0 2a1.5 1.5 0 1 1 0 3 1.5 1.5 0 0 1 0-3zm0-24a4.5 4.5 0 1 1 0 9 4.5 4.5 0 0 1 0-9zm0 1a3.5 3.5 0 1 0 0 7 3.5 3.5 0 0 0 0-7zm0 2a1.5 1.5 0 1 1 0 3 1.5 1.5 0 0 1 0-3z" fill-opacity=".6" fill="#000"/>
        <path d="M551 51h48v48h-48z"/>
        <path d="M594 90v1h-24v-1h24zm0-10v1h-24v-1h24zm0-10v1h-24v-1h24zm0-10v1h-24v-1h24zm-37 20 8 5-8 5V80zm1 1.803v6.393L563.114 85 558 81.803zM557 59l8 5-8 5V59zm1 1.803v6.393l5.114-3.197L558 60.803z" fill-opacity=".6" fill="#000"/>
        <path d="M501 51h48v48h-48z"/>
        <path d="M544 90v1h-24v-1h24zm0-10v1h-24v-1h24zm0-10v1h-24v-1h24zm0-10v1h-24v-1h24zm-32.5 19.55 4.95 4.95-4.95 4.95-4.95-4.95 4.95-4.95zm0 1.238-3.712 3.712 3.712 3.712 3.712-3.712-3.712-3.712zm0-22.238 4.95 4.95-4.95 4.95-4.95-4.95 4.95-4.95zm0 1.238-3.712 3.712 3.712 3.712 3.712-3.712-3.712-3.712z" fill-opacity=".6" fill="#000"/>
        <path d="M451 51h48v48h-48z"/>
        <path d="M494 90v1h-24v-1h24zm0-10v1h-24v-1h24zm0-10v1h-24v-1h24zm0-10v1h-24v-1h24zm-29 21v8h-8v-8h8zm-1 1h-6v6h6v-6zm1-23v8h-8v-8h8zm-1 1h-6v6h6v-6z" fill-opacity=".6" fill="#000"/>
        <path d="M401 51h48v48h-48z"/>
        <path d="M444 90v1h-24v-1h24zm0-10v1h-24v-1h24zm0-10v1h-24v-1h24zm0-10v1h-24v-1h24zm-32.5 20a4.5 4.5 0 1 1 0 9 4.5 4.5 0 0 1 0-9zm0 1a3.5 3.5 0 1 0 0 7 3.5 3.5 0 0 0 0-7zm0-22a4.5 4.5 0 1 1 0 9 4.5 4.5 0 0 1 0-9zm0 1a3.5 3.5 0 1 0 0 7 3.5 3.5 0 0 0 0-7z" fill-opacity=".6" fill="#000"/>
        <path d="M351 51h48v48h-48z"/>
        <path d="M394 90v1h-24v-1h24zm0-10v1h-24v-1h24zm0-10v1h-24v-1h24zm0-10v1h-24v-1h24zm-37 21 6 4.243-6 4.242V81zm0-22 6 4.243-6 4.242V59z" fill-opacity=".6" fill="#000"/>
        <path d="M301 51h48v48h-48z"/>
        <path d="M344 90v1h-24v-1h24zm0-10v1h-24v-1h24zm0-10v1h-24v-1h24zm0-10v1h-24v-1h24zm-35 22.172L311.828 85 309 87.828 306.172 85 309 82.172zm0-22L311.828 63 309 65.828 306.172 63 309 60.172z" fill-opacity=".6" fill="#000"/>
        <path d="M251 51h48v48h-48z"/>
        <path d="M294 90v1h-24v-1h24zm0-10v1h-24v-1h24zm0-10v1h-24v-1h24zm0-10v1h-24v-1h24zm-34 20.757L264.243 85 260 89.243 255.757 85 260 80.757zm0-22L264.243 63 260 67.243 255.757 63 260 58.757z" fill-opacity=".6" fill="#000"/>
        <path d="M201 51h48v48h-48z"/>
        <path d="M244 90v1h-24v-1h24zm0-10v1h-24v-1h24zm0-10v1h-24v-1h24zm0-10v1h-24v-1h24zm-33 23v4h-4v-4h4zm0-24v4h-4v-4h4z" fill-opacity=".6" fill="#000"/>
        <path d="M151 51h48v48h-48z"/>
        <path d="M194 90v1h-24v-1h24zm0-10v1h-24v-1h24zm0-10v1h-24v-1h24zm0-10v1h-24v-1h24zm-31 22v6h-6v-6h6zm0-23v6h-6v-6h6z" fill-opacity=".6" fill="#000"/>
        <path d="M101 51h48v48h-48z"/>
        <path d="M144 90v1h-24v-1h24zm0-10v1h-24v-1h24zm0-10v1h-24v-1h24zm0-10v1h-24v-1h24zm-35 23a2 2 0 1 1 0 4 2 2 0 0 1 0-4zm0-24a2 2 0 1 1 0 4 2 2 0 0 1 0-4z" fill-opacity=".6" fill="#000"/>
        <path d="M51 51h48v48H51z"/>
        <path d="M94 90v1H70v-1h24zm0-10v1H70v-1h24zm0-10v1H70v-1h24zm0-10v1H70v-1h24zM60.5 81a3.5 3.5 0 1 1 0 7 3.5 3.5 0 0 1 0-7zm0-22a3.5 3.5 0 1 1 0 7 3.5 3.5 0 0 1 0-7z" fill-opacity=".6" fill="#000"/>
        <path d="M1 51h48v48H1z"/>
        <path d="M41 59v32H9V59h32zm-1 1H10v30h30V60z" fill-opacity=".6" fill="#000"/>
        <path fill="#E13A1B" fill-rule="nonzero" d="m39.646 59.646.708.708-30 30-.708-.708z"/>
        <path d="M1151 1h48v48h-48z"/>
        <path d="M1194 39v1h-16v-1h16zm0-14v1h-22v-1h22zm0-14v1h-28v-1h28zm-24 31v1h-1v-1h1zm-2-5v6h-1v-6h1zm0-2v1h-1v-1h1zm-1-7v1h-1v-1h1zm-5.061-7 3.061 8h-1.128l-.872-2.423h-3.128l-.821 2.423H1158l2.872-8h1.067zm-.49 1L1160 26h3l-1.551-4zM1160 14v1h-1v-1h1zm-3-7v8h-1V7h1z" fill-opacity=".6" fill="#000"/>
        <path d="M1101 1h48v48h-48z"/>
        <path d="M1144 39v1h-16v-1h16zm0-14v1h-22v-1h22zm0-14v1h-28v-1h28zm-21 31v1h-1v-1h1zm-4.871-6c1.477 0 1.959.506 2.123.71.163.203.278.46.343.772.028.145.045.378.052.698l.003.349v1.75c.004.919.027 1.508.07 1.766.036.21.097.412.184.61l.096.194h-1.153a2.459 2.459 0 0 1-.221-.826l-.168.144-.184.148c-.429.328-1.067.685-2.047.685-1.33 0-2.227-.695-2.227-1.917 0-.328.109-1.044.788-1.551.883-.659 2.135-.423 3.746-.934l.005-.37c-.013-.558-.191-1.288-1.57-1.288-1.128 0-1.412.44-1.575.897l-.124.377-1.08-.152c.098-.475.231-.81.485-1.15.253-.342.977-.912 2.454-.912zm1.405 3.487c-.357.15-.871.28-1.544.389l-.26.04c-.454.067-.775.143-.963.227a.963.963 0 0 0-.59.908c0 .847.79 1.06 1.314 1.06.598 0 1.467-.235 1.865-1.072.104-.22.16-.53.174-.928l.004-.207v-.417zM1117 28v1h-1v-1h1zm-5.061-7 3.061 8h-1.128l-.872-2.423h-3.128l-.821 2.423H1108l2.872-8h1.067zm-.49 1L1110 26h3l-1.551-4zm-.449-9v1h-1v-1h1zm-2-6v7h-1V8.546c-.24.196-.556.393-.947.59-.313.156-.6.282-.862.377l-.191.064V8.75a6.221 6.221 0 0 0 1.467-.818c.358-.274.627-.542.806-.802l.083-.13h.644z" fill-opacity=".6" fill="#000"/>
        <g>
            <path d="M1051 1h48v48h-48z"/>
            <path d="M1094 39v1h-16v-1h16zm0-14v1h-22v-1h22zm0-14v1h-28v-1h28zm-35 25v7h-1v-5.454c-.24.196-.556.393-.947.59-.313.156-.6.282-.862.377l-.191.064v-.827a6.221 6.221 0 0 0 1.467-.818c.358-.274.627-.542.806-.802l.083-.13h.644zm14 0v7h-1v-5.454c-.24.196-.556.393-.947.59-.313.156-.6.282-.862.377l-.191.064v-.827a6.221 6.221 0 0 0 1.467-.818c.358-.274.627-.542.806-.802l.083-.13h.644zm-7 0v7h-1v-5.454c-.24.196-.556.393-.947.59-.313.156-.6.282-.862.377l-.191.064v-.827a6.221 6.221 0 0 0 1.467-.818c.358-.274.627-.542.806-.802l.083-.13h.644zm-3 4v1h-2v-1h2zm7 0v1h-2v-1h2zm-11-19v7h-1v-5.454c-.24.196-.556.393-.947.59-.313.156-.6.282-.862.377l-.191.064v-.827a6.221 6.221 0 0 0 1.467-.818c.358-.274.627-.542.806-.802l.083-.13h.644zm7 0v7h-1v-5.454c-.24.196-.556.393-.947.59-.313.156-.6.282-.862.377l-.191.064v-.827a6.221 6.221 0 0 0 1.467-.818c.358-.274.627-.542.806-.802l.083-.13h.644zm-3 4v1h-2v-1h2zm-4-19v7h-1V7.546c-.24.196-.556.393-.947.59-.313.156-.6.282-.862.377l-.191.064V7.75a6.221 6.221 0 0 0 1.467-.818c.358-.274.627-.542.806-.802l.083-.13h.644z" fill-opacity=".6" fill="#000"/>
        </g>
        <g>
            <path d="M951 1h48v48h-48z"/>
            <path d="M994 39v1h-16v-1h16zm0-14v1h-22v-1h22zm0-14v1h-28v-1h28zm-24 31v1h-1v-1h1zm-2-5v6h-1v-6h1zm0-2v1h-1v-1h1zm-1-7v1h-1v-1h1zm-5.061-7L965 29h-1.128L963 26.577h-3.128L959.051 29H958l2.872-8h1.067zm-.49 1L960 26h3l-1.551-4zM961 13v1h-1v-1h1zm-2-6v7h-1V8.546c-.24.196-.556.393-.947.59-.313.156-.6.282-.862.377l-.191.064V8.75a6.221 6.221 0 0 0 1.467-.818c.358-.274.627-.542.806-.802l.083-.13H959z" fill-opacity=".6" fill="#000"/>
        </g>
        <g>
            <path d="M901 1h48v48h-48z"/>
            <path d="M944 39v1h-28v-1h28zm0-10v1h-28v-1h28zm0-10v1h-28v-1h28zm0-10v1h-28V9h28zm-32 29v1h-1v-1h1zm-5-6v7h-1v-7h1zm3 0v7h-1v-7h1zm-3-2v1h-1v-1h1zm3 0v1h-1v-1h1zm0-13v1h-1v-1h1zm-3-6v7h-1v-7h1zm0-2v1h-1V9h1z" fill-opacity=".6" fill="#000"/>
        </g>
        <g>
            <path d="M851 1h48v48h-48z"/>
            <path d="M894 39v1h-22v-1h22zm0-10v1h-22v-1h22zm0-10v1h-22v-1h22zm0-10v1h-22V9h22zm-27 27v1h-1v-1h1zm-2 0v1h-9v-1h9zm-1-4v1h-7v-1h7zm3-19v1h-1v-1h1zm-2 0v1h-9v-1h9z" fill-opacity=".6" fill="#000"/>
        </g>
        <g>
            <path d="M801 1h48v48h-48z"/>
            <path d="M807.23 30v3.575c.52-.651 1.183-.977 1.99-.977 2.041 0 3.076 1.726 3.076 3.522 0 1.795-.4 2.415-.923 3.047-.524.632-1.353 1.019-2.215 1.019-.79 0-1.424-.305-1.9-.915l-.116-.159v.91H806V30h1.23zm7.77 9v1h-1v-1h1zm-5.89-5.39c-1.058-.04-1.947.948-1.982 2.727-.04 2.062.9 2.783 1.928 2.837 1.027.054 1.982-.898 1.982-2.79 0-1.509-.568-2.724-1.928-2.775zm.376-23.61c1.646 0 2.183.548 2.366.769.182.221.31.5.382.837.031.158.05.41.058.757l.004.378.002 2.139.01.635c.012.505.034.85.067 1.037.039.228.107.448.204.661l.107.21H811.4a2.609 2.609 0 0 1-.246-.895l-.174.147c-.473.39-1.228.913-2.499.913-1.482 0-2.481-.754-2.481-2.078 0-.356.121-1.132.878-1.682.984-.714 2.38-.458 4.174-1.012l.007-.32-.004-.152-.013-.157c-.067-.557-.384-1.168-1.733-1.168-1.272 0-1.58.488-1.762.99l-.132.39-1.203-.164c.11-.515.258-.877.54-1.247.282-.37 1.089-.988 2.734-.988zM815 16v1h-1v-1h1zm-3.948-2.22c-.397.162-.97.303-1.72.422l-.29.043c-.506.073-.864.155-1.073.246-.21.091-.657.361-.657.985 0 .917.88 1.148 1.463 1.148.667 0 1.635-.254 2.079-1.162.116-.238.178-.574.194-1.006l.004-.225v-.45zM844 39v1h-24v-1h24zm0-10v1h-24v-1h24zm0-10v1h-24v-1h24zm0-10v1h-24V9h24z" fill-opacity=".6" fill="#000"/>
        </g>
        <g>
            <path d="M751 1h48v48h-48z"/>
            <path d="M794 39v1h-24v-1h24zm0-10v1h-24v-1h24zm0-10v1h-24v-1h24zm0-10v1h-24V9h24zm-31.2 22c.776.784 1.35 1.57 1.723 2.36.318.68.477 1.392.477 2.135 0 .843-.214 1.658-.642 2.445a8.47 8.47 0 0 1-1.302 1.802L762.8 40h-.8c1.236-1.498 1.853-2.998 1.853-4.5a5.91 5.91 0 0 0-.266-1.747 6.179 6.179 0 0 0-.59-1.348c-.144-.253-.428-.658-.85-1.214L762 31h.8zm-4.168 1c.726 0 1.3.185 1.723.556.423.371.635.831.635 1.38 0 .278-.062.553-.186.822-.124.27-.33.553-.617.851-.255.265-.66.618-1.216 1.058l-.557.436c-.365.288-.608.491-.731.61a3.11 3.11 0 0 0-.28.31l-.112.154H761V39h-5c-.006-.206.03-.404.11-.594.126-.314.33-.623.61-.928.24-.26.573-.556.996-.887l.22-.168c.822-.622 1.377-1.114 1.666-1.477.289-.363.433-.706.433-1.03 0-.339-.131-.625-.394-.858-.264-.233-.607-.35-1.03-.35-.447 0-.804.124-1.073.371-.235.217-.368.506-.4.868l-.007.16-.955-.09c.066-.657.312-1.157.738-1.501.426-.344 1-.516 1.718-.516zM762.8 9c.776.784 1.35 1.57 1.723 2.36.318.68.477 1.392.477 2.135 0 .843-.214 1.658-.642 2.445a8.47 8.47 0 0 1-1.302 1.802L762.8 18h-.8c1.236-1.498 1.853-2.998 1.853-4.5a5.91 5.91 0 0 0-.266-1.747 6.179 6.179 0 0 0-.59-1.348c-.144-.253-.428-.658-.85-1.214L762 9h.8zm-2.8 1v7h-1v-5.454c-.24.196-.556.393-.947.59-.313.156-.6.282-.862.377l-.191.064v-.827a6.221 6.221 0 0 0 1.467-.818c.358-.274.627-.542.806-.802l.083-.13H760z" fill-opacity=".6" fill="#000"/>
        </g>
        <g>
            <path d="M701 1h48v48h-48z"/>
            <path d="M744 39v1h-24v-1h24zm0-10v1h-24v-1h24zm0-10v1h-24v-1h24zm0-10v1h-24V9h24zm-37 21 3.751.004c.54-.004 1.29.124 1.82.48a2.31 2.31 0 0 1 1.005 1.896c.005 1.196-.865 1.759-1.301 1.974.793.209 1.752.877 1.752 2.254 0 .436-.178 1.512-.959 2.082-.78.57-1.763.597-2.231.611l-3.837.005V30zm9 8v1h-1v-1h1zm-7.769-2.992v3.2h2.317c.398 0 1.007.008 1.55-.299.54-.307.653-1.005.653-1.301 0-.633-.304-1.06-.654-1.276-.39-.24-.96-.32-1.468-.32l-2.398-.004zm0-3.91v2.812h2.013c.546 0 .935-.038 1.174-.108.724-.21.946-.756.946-1.276 0-.519-.265-.99-.544-1.148l-.111-.064-.09-.045c-.154-.067-.399-.13-.925-.157l-.492-.012-1.97-.002zM717 18v1h-1v-1h1zm-6.1-8.306L714.71 19h-1.403l-1.085-2.818h-3.891L707.308 19H706l3.574-9.306h1.326zm-.692 1.149-1.523 4.336h3.155l-1.632-4.336z" fill-opacity=".6" fill="#000"/>
        </g>
        <g>
            <path d="M651 1h48v48h-48z"/>
            <path d="M694 39v1h-28v-1h28zm0-10v1h-28v-1h28zm0-10v1h-28v-1h28zm0-10v1h-28V9h28zm-32 29v1h-1v-1h1zm-5-8v9h-1v-9h1zm3 0v9h-1v-9h1zm0-12v1h-1v-1h1zm-3-8v9h-1v-9h1z" fill-opacity=".6" fill="#000"/>
        </g>
        <g>
            <path d="M601 1h48v48h-48z"/>
            <path d="M644 39v1h-22v-1h22zm0-10v1h-22v-1h22zm0-10v1h-22v-1h22zm0-10v1h-22V9h22zm-32 20a6 6 0 1 1 0 12 6 6 0 0 1 0-12zm0 1a5 5 0 1 0 0 10 5 5 0 0 0 0-10zm.132 1.808c.726 0 1.3.164 1.723.492.423.328.635.735.635 1.22 0 .247-.062.49-.186.728s-.33.489-.617.753c-.255.234-.66.546-1.216.935l-.84.586c-.21.151-.36.265-.448.34-.106.09-.199.182-.28.273l-.112.137h3.709V38h-5a1.12 1.12 0 0 1 .11-.526c.126-.277.33-.55.61-.82.24-.23.573-.493.996-.785l.22-.149c.822-.55 1.377-.985 1.666-1.306.289-.321.433-.625.433-.911 0-.3-.131-.553-.394-.76-.264-.205-.607-.309-1.03-.309-.447 0-.804.11-1.073.329a1.088 1.088 0 0 0-.4.767l-.007.141-.955-.08c.066-.58.312-1.023.738-1.327.426-.304 1-.456 1.718-.456zM612 8a6 6 0 1 1 0 12 6 6 0 0 1 0-12zm0 1a5 5 0 1 0 0 10 5 5 0 0 0 0-10zm1 2v6.192h-1v-4.825c-.24.174-.556.348-.947.522-.313.139-.6.25-.862.334l-.191.057v-.732c.56-.199 1.048-.44 1.467-.723.358-.243.627-.48.806-.71l.083-.115H613z" fill-opacity=".6" fill="#000"/>
        </g>
        <g>
            <path d="M551 1h48v48h-48z"/>
            <path d="M594 39v1h-26v-1h26zm0-10v1h-26v-1h26zm0-10v1h-26v-1h26zm0-10v1h-26V9h26zm-34.992 22c.83 0 1.486.205 1.97.614.483.41.724.916.724 1.522 0 .308-.07.61-.212.907-.141.298-.376.61-.704.94-.292.292-.755.681-1.39 1.167l-.637.481c-.417.317-.695.542-.836.674-.12.113-.227.226-.32.34l-.128.171h4.24v.908H556a1.507 1.507 0 0 1 .124-.656c.145-.346.378-.687.698-1.023a9.524 9.524 0 0 1 1.138-.98l.251-.185c.94-.686 1.574-1.229 1.904-1.63.33-.4.496-.778.496-1.135 0-.375-.15-.69-.451-.947-.301-.258-.693-.386-1.177-.386-.51 0-.92.136-1.226.41-.268.238-.42.557-.457.956l-.009.177-1.09-.1c.074-.724.355-1.276.843-1.656.487-.38 1.141-.569 1.963-.569zM564 37.897V39h-1.143v-1.103H564zM559.429 10v7.724h-1.143v-6.019a5.992 5.992 0 0 1-1.083.651 9.215 9.215 0 0 1-.984.417l-.219.071v-.913a7.185 7.185 0 0 0 1.676-.903c.41-.302.718-.598.922-.885l.094-.143h.737zM562 16.62v1.104h-1.143v-1.103H562z" fill-opacity=".6" fill="#000"/>
        </g>
        <g>
            <path d="M501 1h48v48h-48z"/>
            <path d="M544 40v1h-12v-1h12zm0-10v1h-18v-1h18zm0-10v1h-24v-1h24zm0-10v1h-28v-1h28zm-33 32v1h-1v-1h1zm6 0v1h-1v-1h1zm6 0v1h-1v-1h1zm6 0v1h-1v-1h1zm-20-6v7h-1v-5.454c-.24.196-.556.393-.947.59-.313.156-.6.282-.862.377l-.191.064v-.827a6.221 6.221 0 0 0 1.467-.818c.358-.274.627-.542.806-.802l.083-.13H509zm12 0v7h-1v-5.454c-.24.196-.556.393-.947.59-.313.156-.6.282-.862.377l-.191.064v-.827a6.221 6.221 0 0 0 1.467-.818c.358-.274.627-.542.806-.802l.083-.13H521zm6 0v7h-1v-5.454c-.24.196-.556.393-.947.59-.313.156-.6.282-.862.377l-.191.064v-.827a6.221 6.221 0 0 0 1.467-.818c.358-.274.627-.542.806-.802l.083-.13H527zm-12 0v7h-1v-5.454c-.24.196-.556.393-.947.59-.313.156-.6.282-.862.377l-.191.064v-.827a6.221 6.221 0 0 0 1.467-.818c.358-.274.627-.542.806-.802l.083-.13H515zm-4-4v1h-1v-1h1zm6 0v1h-1v-1h1zm6 0v1h-1v-1h1zm-14-6v7h-1v-5.454c-.24.196-.556.393-.947.59-.313.156-.6.282-.862.377l-.191.064v-.827a6.221 6.221 0 0 0 1.467-.818c.358-.274.627-.542.806-.802l.083-.13H509zm12 0v7h-1v-5.454c-.24.196-.556.393-.947.59-.313.156-.6.282-.862.377l-.191.064v-.827a6.221 6.221 0 0 0 1.467-.818c.358-.274.627-.542.806-.802l.083-.13H521zm-6 0v7h-1v-5.454c-.24.196-.556.393-.947.59-.313.156-.6.282-.862.377l-.191.064v-.827a6.221 6.221 0 0 0 1.467-.818c.358-.274.627-.542.806-.802l.083-.13H515zm-4-4v1h-1v-1h1zm6 0v1h-1v-1h1zm-8-6v7h-1v-5.454c-.24.196-.556.393-.947.59-.313.156-.6.282-.862.377l-.191.064v-.827a6.221 6.221 0 0 0 1.467-.818c.358-.274.627-.542.806-.802l.083-.13H509zm6 0v7h-1v-5.454c-.24.196-.556.393-.947.59-.313.156-.6.282-.862.377l-.191.064v-.827a6.221 6.221 0 0 0 1.467-.818c.358-.274.627-.542.806-.802l.083-.13H515zm-4-4v1h-1v-1h1zm-2-6v7h-1V7.546c-.24.196-.556.393-.947.59-.313.156-.6.282-.862.377l-.191.064V7.75a6.221 6.221 0 0 0 1.467-.818c.358-.274.627-.542.806-.802l.083-.13H509z" fill-opacity=".6" fill="#000"/>
        </g>
        <g>
            <path d="M451 1h48v48h-48z"/>
            <path d="M466.8 36c.776.696 1.35 1.396 1.723 2.098.318.605.477 1.237.477 1.898 0 .75-.214 1.473-.642 2.173a7.63 7.63 0 0 1-1.302 1.602L466.8 44h-.8c1.236-1.332 1.853-2.665 1.853-4 0-.522-.089-1.04-.266-1.553a5.2 5.2 0 0 0-.59-1.198l-.132-.191-.184-.24-.234-.29a24.383 24.383 0 0 0-.136-.164L466 36h.8zm-7.8 0-.31.364-.26.314-.21.265-.085.115-.133.19a5.2 5.2 0 0 0-.589 1.2 4.718 4.718 0 0 0-.266 1.552c0 1.335.617 2.668 1.853 4h-.8a7.605 7.605 0 0 1-1.558-1.831c-.428-.7-.642-1.424-.642-2.173 0-.66.16-1.293.477-1.898.372-.702.947-1.402 1.723-2.098h.8zm3.607 1c.464 0 .84.058 1.13.173.29.115.503.26.64.435a1.572 1.572 0 0 1 .308.837l.015.24.008.305.001 1.694.004.434.013.524.013.266.009.108.02.165c.029.18.08.354.152.523l.08.166h-.961a2.155 2.155 0 0 1-.184-.708c-.341.306-.67.523-.984.649-.316.126-.654.189-1.015.189-.597 0-1.055-.154-1.375-.462-.32-.308-.481-.702-.481-1.181 0-.281.06-.538.181-.77.121-.233.28-.42.476-.56a2.18 2.18 0 0 1 .662-.319c.09-.025.204-.05.34-.074l.303-.048.175-.024c.743-.094 1.29-.205 1.641-.335l.005-.254c0-.396-.087-.676-.26-.838-.236-.22-.585-.33-1.049-.33-.432 0-.752.08-.958.24-.177.138-.314.367-.412.685l-.046.167-.9-.13c.082-.407.217-.735.404-.986.188-.25.459-.443.813-.578a3.447 3.447 0 0 1 1.232-.203zM464 40c-.314.112-.764.21-1.352.292l-.26.035c-.406.051-.693.109-.861.173a.843.843 0 0 0-.39.281.702.702 0 0 0 .162.988c.2.154.49.231.875.231.38 0 .718-.073 1.014-.219.296-.146.514-.345.653-.598.088-.163.14-.39.155-.683l.004-.183V40zm30-1v1h-20v-1h20zm-29.999-9.1c.454 0 .729.388.729 1.022 0 .848-.462 1.523-1.216 1.901l-.166.077-.208-.511c.587-.256.937-.71.946-1.287-.037.01-.066.01-.104.01-.331 0-.634-.209-.634-.606 0-.37.303-.606.653-.606zm-2.217-4.9v2.816h1.184v.768h-1.184v3.8h-.912V25h.912zm-1.816.608a7.612 7.612 0 0 1-.272 1.608c-.144.501-.352.97-.624 1.408a5.552 5.552 0 0 1-1.032 1.212 7.34 7.34 0 0 1-1.152.83l-.336.19-.552-.584.292-.157a6.124 6.124 0 0 0 1.004-.699c.363-.315.664-.643.904-.984.24-.341.423-.688.548-1.04.125-.352.201-.693.228-1.024l-.91.018-.906.006h-.84v-.768h2.416l.592-.004.64-.012zM494 29v1h-24v-1h24zm-33-8v1h-1v-1h1zm-2-5v6h-1v-4.675c-.24.168-.556.337-.947.505-.313.135-.6.243-.862.324l-.191.055V17.5a6.575 6.575 0 0 0 1.467-.701c.358-.235.627-.465.806-.688l.083-.111H459zm35 3v1h-28v-1h28zm-30-7v1h-1v-1h1zm-4.554-6 2.679 7h-.987l-.763-2.12h-2.737L456.92 13H456l2.513-7h.933zm-.486.735-1.072 3.39h2.22l-1.148-3.39zM494 9v1h-24V9h24z" fill-opacity=".6" fill="#000"/>
        </g>
        <g>
            <path d="M401 1h48v48h-48z"/>
            <path d="M444 39v1h-20v-1h20zm0-10v1h-24v-1h24zm0-10v1h-28v-1h28zm0-10v1h-28V9h28zm-27.2 27c.776.696 1.35 1.396 1.723 2.098.318.605.477 1.237.477 1.898 0 .75-.214 1.473-.642 2.173a7.63 7.63 0 0 1-1.302 1.602L416.8 44h-.8c1.236-1.332 1.853-2.665 1.853-4 0-.522-.089-1.04-.266-1.553a5.2 5.2 0 0 0-.59-1.198l-.132-.191c-.132-.18-.317-.412-.554-.694L416 36h.8zm-8.6 0h.8l-.31.364c-.334.395-.563.69-.688.885a5.2 5.2 0 0 0-.589 1.198 4.718 4.718 0 0 0-.266 1.553c0 1.335.617 2.668 1.853 4h-.8a7.605 7.605 0 0 1-1.558-1.831c-.428-.7-.642-1.424-.642-2.173 0-.66.16-1.293.477-1.898.372-.702.947-1.402 1.723-2.098zm4.407 1c.464 0 .84.058 1.13.173.29.115.503.26.64.435.136.175.231.396.286.662a4.8 4.8 0 0 1 .045.72l.001 1.694.004.434.013.524c.01.25.023.43.041.54.03.179.08.353.153.522l.08.166h-.961a2.155 2.155 0 0 1-.184-.708c-.341.306-.67.523-.984.649-.316.126-.654.189-1.015.189-.597 0-1.055-.154-1.375-.462-.32-.308-.481-.702-.481-1.181 0-.281.06-.538.181-.77.121-.233.28-.42.476-.56a2.18 2.18 0 0 1 .662-.319 5.32 5.32 0 0 1 .643-.122l.175-.024c.743-.094 1.29-.205 1.641-.335l.005-.254c0-.396-.087-.676-.26-.838-.236-.22-.585-.33-1.049-.33-.432 0-.752.08-.958.24-.177.138-.314.367-.412.685l-.046.167-.9-.13c.082-.407.217-.735.404-.986.188-.25.459-.443.813-.578a3.447 3.447 0 0 1 1.232-.203zM414 40c-.314.112-.764.21-1.352.292l-.26.035c-.406.051-.693.109-.861.173a.843.843 0 0 0-.39.281.702.702 0 0 0 .162.988c.2.154.49.231.875.231.38 0 .718-.073 1.014-.219.296-.146.514-.345.653-.598.088-.163.14-.39.155-.683l.004-.183V40zm-1.2-15c.776.784 1.35 1.57 1.723 2.36.318.68.477 1.392.477 2.135 0 .843-.214 1.658-.642 2.445a8.47 8.47 0 0 1-1.302 1.802L412.8 34h-.8c1.236-1.498 1.853-2.998 1.853-4.5a5.91 5.91 0 0 0-.266-1.747 6.179 6.179 0 0 0-.59-1.348c-.144-.253-.428-.658-.85-1.214L412 25h.8zm-4.6 0h.8l-.282.37c-.348.465-.587.81-.716 1.035-.252.43-.448.88-.589 1.348a5.91 5.91 0 0 0-.266 1.747c0 1.502.617 3.002 1.853 4.5h-.8a8.376 8.376 0 0 1-1.558-2.06 5.053 5.053 0 0 1-.642-2.445c0-.743.16-1.454.477-2.135.372-.79.947-1.576 1.723-2.36zm2.8 3v5h-1v-5h1zm0-2v1h-1v-1h1zm2-5v1h-1v-1h1zm-4.393-5c.464 0 .84.058 1.13.173.29.115.503.26.64.435.136.175.231.396.286.662a4.8 4.8 0 0 1 .045.72l.001 1.694.004.434.013.524c.01.25.023.43.041.54.03.179.08.353.153.522l.08.166h-.961a2.155 2.155 0 0 1-.184-.708c-.341.306-.67.523-.984.649-.316.126-.654.189-1.015.189-.597 0-1.055-.154-1.375-.462-.32-.308-.481-.702-.481-1.181 0-.281.06-.538.181-.77.121-.233.28-.42.476-.56a2.18 2.18 0 0 1 .662-.319 5.32 5.32 0 0 1 .643-.122l.175-.024c.743-.094 1.29-.205 1.641-.335l.005-.254c0-.396-.087-.676-.26-.838-.236-.22-.585-.33-1.049-.33-.432 0-.752.08-.958.24-.177.138-.314.367-.412.685l-.046.167-.9-.13c.082-.407.217-.735.404-.986.188-.25.459-.443.813-.578a3.447 3.447 0 0 1 1.232-.203zM410 19c-.314.112-.764.21-1.352.292l-.26.035c-.406.051-.693.109-.861.173a.843.843 0 0 0-.39.281.702.702 0 0 0 .162.988c.2.154.49.231.875.231.38 0 .718-.073 1.014-.219.296-.146.514-.345.653-.598.088-.163.14-.39.155-.683l.004-.183V19zm0-7v1h-1v-1h1zm-2-4v5h-1V8h1zm0-2v1h-1V6h1z" fill-opacity=".6" fill="#000"/>
        </g>
        <g>
            <path d="M351 1h48v48h-48z"/>
            <path d="M394 39v1h-28v-1h28zm0-10v1h-28v-1h28zm0-10v1h-28v-1h28zm0-10v1h-28V9h28zm-34.2 26c.776.784 1.35 1.57 1.723 2.36.318.68.477 1.392.477 2.135 0 .843-.214 1.658-.642 2.445a8.47 8.47 0 0 1-1.302 1.802L359.8 44h-.8c1.236-1.498 1.853-2.998 1.853-4.5a5.91 5.91 0 0 0-.266-1.747 6.179 6.179 0 0 0-.59-1.348c-.144-.253-.428-.658-.85-1.214L359 35h.8zm-1.8 3v5h-1v-5h1zm0-2v1h-1v-1h1zm3-5v1h-1v-1h1zm-2-5v6h-1v-4.675c-.24.168-.556.337-.947.505-.313.135-.6.243-.862.324l-.191.055V27.5a6.575 6.575 0 0 0 1.467-.701c.358-.235.627-.465.806-.688l.083-.111H359zm5-4v1h-1v-1h1zm-4.554-6 2.679 7h-.987l-.763-2.12h-2.737L356.92 23H356l2.513-7h.933zm-.486.735-1.072 3.39h2.22l-1.148-3.39zM360 12v1h-1v-1h1zm-2-6v7h-1V6h1z" fill-opacity=".6" fill="#000"/>
        </g>
        <g>
            <path d="M301 1h48v48h-48z"/>
            <path d="M344 40v1h-26v-1h26zm0-10v1h-20v-1h20zm0-10v1h-20v-1h20zm0-10v1h-20v-1h20zm-33.2 26c.776.696 1.35 1.396 1.723 2.098.318.605.477 1.237.477 1.898 0 .75-.214 1.473-.642 2.173a7.63 7.63 0 0 1-1.302 1.602L310.8 44h-.8c1.236-1.332 1.853-2.665 1.853-4 0-.522-.089-1.04-.266-1.553a5.2 5.2 0 0 0-.59-1.198l-.132-.191c-.132-.18-.317-.412-.554-.694L310 36h.8zm-1.8 1v6h-1v-4.675c-.24.168-.556.337-.947.505-.313.135-.6.243-.862.324l-.191.055V38.5a6.575 6.575 0 0 0 1.467-.701c.358-.235.627-.465.806-.688l.083-.111H309zm7.8-11c.776.696 1.35 1.396 1.723 2.098.318.605.477 1.237.477 1.898 0 .75-.214 1.473-.642 2.173a7.63 7.63 0 0 1-1.302 1.602L316.8 34h-.8c1.236-1.332 1.853-2.665 1.853-4 0-.522-.089-1.04-.266-1.553a5.2 5.2 0 0 0-.59-1.198l-.132-.191c-.132-.18-.317-.412-.554-.694L316 26h.8zm-8.6 0h.8l-.31.364c-.334.395-.563.69-.688.885a5.2 5.2 0 0 0-.589 1.198 4.718 4.718 0 0 0-.266 1.553c0 1.335.617 2.668 1.853 4h-.8a7.605 7.605 0 0 1-1.558-1.831c-.428-.7-.642-1.424-.642-2.173 0-.66.16-1.293.477-1.898.372-.702.947-1.402 1.723-2.098zm4.407 1c.464 0 .84.058 1.13.173.29.115.503.26.64.435.136.175.231.396.286.662a4.8 4.8 0 0 1 .045.72l.001 1.694.004.434.013.524c.01.25.023.43.041.54.03.179.08.353.153.522l.08.166h-.961a2.155 2.155 0 0 1-.184-.708c-.341.306-.67.523-.984.649-.316.126-.654.189-1.015.189-.597 0-1.055-.154-1.375-.462-.32-.308-.481-.702-.481-1.181 0-.281.06-.538.181-.77.121-.233.28-.42.476-.56a2.18 2.18 0 0 1 .662-.319 5.32 5.32 0 0 1 .643-.122l.175-.024c.743-.094 1.29-.205 1.641-.335l.005-.254c0-.396-.087-.676-.26-.838-.236-.22-.585-.33-1.049-.33-.432 0-.752.08-.958.24-.177.138-.314.367-.412.685l-.046.167-.9-.13c.082-.407.217-.735.404-.986.188-.25.459-.443.813-.578a3.447 3.447 0 0 1 1.232-.203zM314 30c-.314.112-.764.21-1.352.292l-.26.035c-.406.051-.693.109-.861.173a.843.843 0 0 0-.39.281.702.702 0 0 0 .162.988c.2.154.49.231.875.231.38 0 .718-.073 1.014-.219.296-.146.514-.345.653-.598.088-.163.14-.39.155-.683l.004-.183V30zm-.2-13c.776.696 1.35 1.396 1.723 2.098.318.605.477 1.237.477 1.898 0 .75-.214 1.473-.642 2.173a7.63 7.63 0 0 1-1.302 1.602L313.8 25h-.8c1.236-1.332 1.853-2.665 1.853-4 0-.522-.089-1.04-.266-1.553a5.2 5.2 0 0 0-.59-1.198l-.132-.191c-.132-.18-.317-.412-.554-.694L313 17h.8zm-5.6 0h.8l-.31.364c-.334.395-.563.69-.688.885a5.2 5.2 0 0 0-.589 1.198 4.718 4.718 0 0 0-.266 1.553c0 1.335.617 2.668 1.853 4h-.8a7.605 7.605 0 0 1-1.558-1.831c-.428-.7-.642-1.424-.642-2.173 0-.66.16-1.293.477-1.898.372-.702.947-1.402 1.723-2.098zm3.8 1v6h-1v-4.675c-.24.168-.556.337-.947.505-.313.135-.6.243-.862.324l-.191.055V19.5a6.575 6.575 0 0 0 1.467-.701c.358-.235.627-.465.806-.688l.083-.111H312zm4.8-11c.776.696 1.35 1.396 1.723 2.098.318.605.477 1.237.477 1.898 0 .75-.214 1.473-.642 2.173a7.63 7.63 0 0 1-1.302 1.602L316.8 15h-.8c1.236-1.332 1.853-2.665 1.853-4 0-.522-.089-1.04-.266-1.553a5.2 5.2 0 0 0-.59-1.198l-.132-.191c-.132-.18-.317-.412-.554-.694L316 7h.8zm-8.6 0h.8l-.31.364c-.334.395-.563.69-.688.885a5.2 5.2 0 0 0-.589 1.198 4.718 4.718 0 0 0-.266 1.553c0 1.335.617 2.668 1.853 4h-.8a7.605 7.605 0 0 1-1.558-1.831c-.428-.7-.642-1.424-.642-2.173 0-.66.16-1.293.477-1.898.372-.702.947-1.402 1.723-2.098zm6.8 1.5v5h-1v-4h-4v-1h5z" fill-opacity=".6" fill="#000"/>
        </g>
        <g>
            <path d="M251 1h48v48h-48z"/>
            <path d="M294 40v1h-20v-1h20zm0-10v1h-24v-1h24zm0-10v1h-24v-1h24zm0-10v1h-24v-1h24zm-27.2 26c.776.784 1.35 1.57 1.723 2.36.318.68.477 1.392.477 2.135 0 .843-.214 1.658-.642 2.445a8.47 8.47 0 0 1-1.302 1.802L266.8 45h-.8c1.236-1.498 1.853-2.998 1.853-4.5a5.91 5.91 0 0 0-.266-1.747 6.179 6.179 0 0 0-.59-1.348c-.144-.253-.428-.658-.85-1.214L266 36h.8zm-8.6 0h.8l-.282.37c-.348.465-.587.81-.716 1.035-.252.43-.448.88-.589 1.348a5.91 5.91 0 0 0-.266 1.747c0 1.502.617 3.002 1.853 4.5h-.8a8.376 8.376 0 0 1-1.558-2.06 5.053 5.053 0 0 1-.642-2.445c0-.743.16-1.454.477-2.135.372-.79.947-1.576 1.723-2.36zm5.6-10c.776.696 1.35 1.396 1.723 2.098.318.605.477 1.237.477 1.898 0 .75-.214 1.473-.642 2.173a7.63 7.63 0 0 1-1.302 1.602L263.8 34h-.8c1.236-1.332 1.853-2.665 1.853-4 0-.522-.089-1.04-.266-1.553a5.2 5.2 0 0 0-.59-1.198l-.132-.191c-.132-.18-.317-.412-.554-.694L263 26h.8zm-5.6 0h.8l-.31.364c-.334.395-.563.69-.688.885a5.2 5.2 0 0 0-.589 1.198 4.718 4.718 0 0 0-.266 1.553c0 1.335.617 2.668 1.853 4h-.8a7.605 7.605 0 0 1-1.558-1.831c-.428-.7-.642-1.424-.642-2.173 0-.66.16-1.293.477-1.898.372-.702.947-1.402 1.723-2.098zm3.8 1v6h-1v-4.675c-.24.168-.556.337-.947.505-.313.135-.6.243-.862.324l-.191.055V28.5a6.575 6.575 0 0 0 1.467-.701c.358-.235.627-.465.806-.688l.083-.111H262zm1.8-11c.776.696 1.35 1.396 1.723 2.098.318.605.477 1.237.477 1.898 0 .75-.214 1.473-.642 2.173a7.63 7.63 0 0 1-1.302 1.602L263.8 24h-.8c1.236-1.332 1.853-2.665 1.853-4 0-.522-.089-1.04-.266-1.553a5.2 5.2 0 0 0-.59-1.198l-.132-.191c-.132-.18-.317-.412-.554-.694L263 16h.8zm-4.193 1c.464 0 .84.058 1.13.173.29.115.503.26.64.435.136.175.231.396.286.662a4.8 4.8 0 0 1 .045.72l.001 1.694.004.434.013.524c.01.25.023.43.041.54.03.179.08.353.153.522l.08.166h-.961a2.155 2.155 0 0 1-.184-.708c-.341.306-.67.523-.984.649-.316.126-.654.189-1.015.189-.597 0-1.055-.154-1.375-.462-.32-.308-.481-.702-.481-1.181 0-.281.06-.538.181-.77.121-.233.28-.42.476-.56a2.18 2.18 0 0 1 .662-.319 5.32 5.32 0 0 1 .643-.122l.175-.024c.743-.094 1.29-.205 1.641-.335l.005-.254c0-.396-.087-.676-.26-.838-.236-.22-.585-.33-1.049-.33-.432 0-.752.08-.958.24-.177.138-.314.367-.412.685l-.046.167-.9-.13c.082-.407.217-.735.404-.986.188-.25.459-.443.813-.578a3.447 3.447 0 0 1 1.232-.203zM261 20c-.314.112-.764.21-1.352.292l-.26.035c-.406.051-.693.109-.861.173a.843.843 0 0 0-.39.281.702.702 0 0 0 .162.988c.2.154.49.231.875.231.38 0 .718-.073 1.014-.219.296-.146.514-.345.653-.598.088-.163.14-.39.155-.683l.004-.183V20zm2.8-14c.776.784 1.35 1.57 1.723 2.36.318.68.477 1.392.477 2.135 0 .843-.214 1.658-.642 2.445a8.47 8.47 0 0 1-1.302 1.802L263.8 15h-.8c1.236-1.498 1.853-2.998 1.853-4.5a5.91 5.91 0 0 0-.266-1.747 6.179 6.179 0 0 0-.59-1.348c-.144-.253-.428-.658-.85-1.214L263 6h.8zm-2.016 1v2.816h1.184v.768h-1.184v3.8h-.912V7h.912zm-1.816.608a7.612 7.612 0 0 1-.272 1.608c-.144.501-.352.97-.624 1.408a5.552 5.552 0 0 1-1.032 1.212 7.34 7.34 0 0 1-1.152.83l-.336.19-.552-.584.292-.157a6.124 6.124 0 0 0 1.004-.699c.363-.315.664-.643.904-.984.24-.341.423-.688.548-1.04.125-.352.201-.693.228-1.024l-.91.018-.906.006h-.84v-.768h2.416l.592-.004.64-.012zM264.784 37v2.816h1.184v.768h-1.184v3.8h-.912V37h.912zm-1.816.608a7.612 7.612 0 0 1-.272 1.608c-.144.501-.352.97-.624 1.408a5.552 5.552 0 0 1-1.032 1.212 7.34 7.34 0 0 1-1.152.83l-.336.19-.552-.584.292-.157a6.124 6.124 0 0 0 1.004-.699c.363-.315.664-.643.904-.984.24-.341.423-.688.548-1.04.125-.352.201-.693.228-1.024l-.91.018-.906.006h-.84v-.768h2.416l.592-.004.64-.012z" fill-opacity=".6" fill="#000"/>
        </g>
        <g>
            <path d="M201 1h48v48h-48z"/>
            <path d="M210.8 36c.776.696 1.35 1.396 1.723 2.098.318.605.477 1.237.477 1.898 0 .75-.214 1.473-.642 2.173a7.63 7.63 0 0 1-1.302 1.602L210.8 44h-.8c1.236-1.332 1.853-2.665 1.853-4 0-.522-.089-1.04-.266-1.553a5.2 5.2 0 0 0-.59-1.198l-.132-.191c-.132-.18-.317-.412-.554-.694L210 36h.8zm-1.8 1v6h-1v-4.675c-.24.168-.556.337-.947.505-.313.135-.6.243-.862.324l-.191.055V38.5a6.575 6.575 0 0 0 1.467-.701c.358-.235.627-.465.806-.688l.083-.111H209zm35 3v1h-26v-1h26zm-27.2-14c.776.696 1.35 1.396 1.723 2.098.318.605.477 1.237.477 1.898 0 .75-.214 1.473-.642 2.173a7.63 7.63 0 0 1-1.302 1.602L216.8 34h-.8c1.236-1.332 1.853-2.665 1.853-4 0-.522-.089-1.04-.266-1.553a5.2 5.2 0 0 0-.59-1.198l-.132-.191c-.132-.18-.317-.412-.554-.694L216 26h.8zm-8.6 0h.8l-.31.364c-.334.395-.563.69-.688.885a5.2 5.2 0 0 0-.589 1.198 4.718 4.718 0 0 0-.266 1.553c0 1.335.617 2.668 1.853 4h-.8a7.605 7.605 0 0 1-1.558-1.831c-.428-.7-.642-1.424-.642-2.173 0-.66.16-1.293.477-1.898.372-.702.947-1.402 1.723-2.098zm4.407 1c.464 0 .84.058 1.13.173.29.115.503.26.64.435.136.175.231.396.286.662a4.8 4.8 0 0 1 .045.72l.001 1.694.004.434.013.524c.01.25.023.43.041.54.03.179.08.353.153.522l.08.166h-.961a2.155 2.155 0 0 1-.184-.708c-.341.306-.67.523-.984.649-.316.126-.654.189-1.015.189-.597 0-1.055-.154-1.375-.462-.32-.308-.481-.702-.481-1.181 0-.281.06-.538.181-.77.121-.233.28-.42.476-.56a2.18 2.18 0 0 1 .662-.319 5.32 5.32 0 0 1 .643-.122l.175-.024c.743-.094 1.29-.205 1.641-.335l.005-.254c0-.396-.087-.676-.26-.838-.236-.22-.585-.33-1.049-.33-.432 0-.752.08-.958.24-.177.138-.314.367-.412.685l-.046.167-.9-.13c.082-.407.217-.735.404-.986.188-.25.459-.443.813-.578a3.447 3.447 0 0 1 1.232-.203zM214 30c-.314.112-.764.21-1.352.292l-.26.035c-.406.051-.693.109-.861.173a.843.843 0 0 0-.39.281.702.702 0 0 0 .162.988c.2.154.49.231.875.231.38 0 .718-.073 1.014-.219.296-.146.514-.345.653-.598.088-.163.14-.39.155-.683l.004-.183V30zm30 0v1h-20v-1h20zm-27.2-13c.776.696 1.35 1.396 1.723 2.098.318.605.477 1.237.477 1.898 0 .75-.214 1.473-.642 2.173a7.63 7.63 0 0 1-1.302 1.602L216.8 25h-.8c1.236-1.332 1.853-2.665 1.853-4 0-.522-.089-1.04-.266-1.553a5.2 5.2 0 0 0-.59-1.198l-.132-.191c-.132-.18-.317-.412-.554-.694L216 17h.8zm-8.6 0h.8l-.31.364c-.334.395-.563.69-.688.885a5.2 5.2 0 0 0-.589 1.198 4.718 4.718 0 0 0-.266 1.553c0 1.335.617 2.668 1.853 4h-.8a7.605 7.605 0 0 1-1.558-1.831c-.428-.7-.642-1.424-.642-2.173 0-.66.16-1.293.477-1.898.372-.702.947-1.402 1.723-2.098zm6.8 1.5v5h-1v-4h-4v-1h5zm29 1.5v1h-20v-1h20zM211.5 5a5.5 5.5 0 1 1 0 11 5.5 5.5 0 0 1 0-11zm0 1a4.5 4.5 0 1 0 0 9 4.5 4.5 0 0 0 0-9zm1 1.5v6h-1V8.825c-.24.168-.556.337-.947.505-.313.135-.6.243-.862.324l-.191.055V9a6.575 6.575 0 0 0 1.467-.701c.358-.235.627-.465.806-.688l.083-.111h.644zM244 10v1h-20v-1h20z" fill-opacity=".6" fill="#000"/>
        </g>
        <g>
            <path d="M151 1h48v48h-48z"/>
            <path d="M194 40v1h-24v-1h24zm0-10v1h-24v-1h24zm0-10v1h-24v-1h24zm0-10v1h-26v-1h26zm-30.2 26c.776.696 1.35 1.396 1.723 2.098.318.605.477 1.237.477 1.898 0 .75-.214 1.473-.642 2.173a7.63 7.63 0 0 1-1.302 1.602L163.8 44h-.8c1.236-1.332 1.853-2.665 1.853-4 0-.522-.089-1.04-.266-1.553a5.2 5.2 0 0 0-.59-1.198l-.132-.191c-.132-.18-.317-.412-.554-.694L163 36h.8zm-5.6 0h.8l-.31.364c-.334.395-.563.69-.688.885a5.2 5.2 0 0 0-.589 1.198 4.718 4.718 0 0 0-.266 1.553c0 1.335.617 2.668 1.853 4h-.8a7.605 7.605 0 0 1-1.558-1.831c-.428-.7-.642-1.424-.642-2.173 0-.66.16-1.293.477-1.898.372-.702.947-1.402 1.723-2.098zm3.8 1v6h-1v-4.675c-.24.168-.556.337-.947.505-.313.135-.6.243-.862.324l-.191.055V38.5a6.575 6.575 0 0 0 1.467-.701c.358-.235.627-.465.806-.688l.083-.111H162zm1.8-11c.776.696 1.35 1.396 1.723 2.098.318.605.477 1.237.477 1.898 0 .75-.214 1.473-.642 2.173a7.63 7.63 0 0 1-1.302 1.602L163.8 34h-.8c1.236-1.332 1.853-2.665 1.853-4 0-.522-.089-1.04-.266-1.553a5.2 5.2 0 0 0-.59-1.198l-.132-.191c-.132-.18-.317-.412-.554-.694L163 26h.8zm-4.193 1c.464 0 .84.058 1.13.173.29.115.503.26.64.435.136.175.231.396.286.662a4.8 4.8 0 0 1 .045.72l.001 1.694.004.434.013.524c.01.25.023.43.041.54.03.179.08.353.153.522l.08.166h-.961a2.155 2.155 0 0 1-.184-.708c-.341.306-.67.523-.984.649-.316.126-.654.189-1.015.189-.597 0-1.055-.154-1.375-.462-.32-.308-.481-.702-.481-1.181 0-.281.06-.538.181-.77.121-.233.28-.42.476-.56a2.18 2.18 0 0 1 .662-.319 5.32 5.32 0 0 1 .643-.122l.175-.024c.743-.094 1.29-.205 1.641-.335l.005-.254c0-.396-.087-.676-.26-.838-.236-.22-.585-.33-1.049-.33-.432 0-.752.08-.958.24-.177.138-.314.367-.412.685l-.046.167-.9-.13c.082-.407.217-.735.404-.986.188-.25.459-.443.813-.578a3.447 3.447 0 0 1 1.232-.203zM161 30c-.314.112-.764.21-1.352.292l-.26.035c-.406.051-.693.109-.861.173a.843.843 0 0 0-.39.281.702.702 0 0 0 .162.988c.2.154.49.231.875.231.38 0 .718-.073 1.014-.219.296-.146.514-.345.653-.598.088-.163.14-.39.155-.683l.004-.183V30zm2.8-14c.776.784 1.35 1.57 1.723 2.36.318.68.477 1.392.477 2.135 0 .843-.214 1.658-.642 2.445a8.47 8.47 0 0 1-1.302 1.802L163.8 25h-.8c1.236-1.498 1.853-2.998 1.853-4.5a5.91 5.91 0 0 0-.266-1.747 6.179 6.179 0 0 0-.59-1.348c-.144-.253-.428-.658-.85-1.214L163 16h.8zm-2.016 1v2.816h1.184v.768h-1.184v3.8h-.912V17h.912zm-1.816.608a7.612 7.612 0 0 1-.272 1.608c-.144.501-.352.97-.624 1.408a5.552 5.552 0 0 1-1.032 1.212 7.34 7.34 0 0 1-1.152.83l-.336.19-.552-.584.292-.157a6.124 6.124 0 0 0 1.004-.699c.363-.315.664-.643.904-.984.24-.341.423-.688.548-1.04.125-.352.201-.693.228-1.024l-.91.018-.906.006h-.84v-.768h2.416l.592-.004.64-.012zM160.8 6c.776.696 1.35 1.396 1.723 2.098.318.605.477 1.237.477 1.898 0 .75-.214 1.473-.642 2.173a7.63 7.63 0 0 1-1.302 1.602L160.8 14h-.8c1.236-1.332 1.853-2.665 1.853-4 0-.522-.089-1.04-.266-1.553a5.2 5.2 0 0 0-.59-1.198l-.132-.191c-.132-.18-.317-.412-.554-.694L160 6h.8zM159 7v6h-1V8.325c-.24.168-.556.337-.947.505-.313.135-.6.243-.862.324l-.191.055V8.5a6.575 6.575 0 0 0 1.467-.701c.358-.235.627-.465.806-.688l.083-.111H159z" fill-opacity=".6" fill="#000"/>
        </g>
        <g>
            <path d="M101 1h48v48h-48z"/>
            <path d="M144 40v1h-28v-1h28zm0-10v1h-20v-1h20zm0-10v1h-20v-1h20zm0-10v1h-24v-1h24zm-33.2 26c.776.696 1.35 1.396 1.723 2.098.318.605.477 1.237.477 1.898 0 .75-.214 1.473-.642 2.173a7.63 7.63 0 0 1-1.302 1.602L110.8 44h-.8c1.236-1.332 1.853-2.665 1.853-4 0-.522-.089-1.04-.266-1.553a5.2 5.2 0 0 0-.59-1.198l-.132-.191c-.132-.18-.317-.412-.554-.694L110 36h.8zm-1.8 1v6h-1v-4.675c-.24.168-.556.337-.947.505-.313.135-.6.243-.862.324l-.191.055V38.5a6.575 6.575 0 0 0 1.467-.701c.358-.235.627-.465.806-.688l.083-.111H109zm7.8-11c.776.696 1.35 1.396 1.723 2.098.318.605.477 1.237.477 1.898 0 .75-.214 1.473-.642 2.173a7.63 7.63 0 0 1-1.302 1.602L116.8 34h-.8c1.236-1.332 1.853-2.665 1.853-4 0-.522-.089-1.04-.266-1.553a5.2 5.2 0 0 0-.59-1.198l-.132-.191c-.132-.18-.317-.412-.554-.694L116 26h.8zm-8.6 0h.8l-.31.364c-.334.395-.563.69-.688.885a5.2 5.2 0 0 0-.589 1.198 4.718 4.718 0 0 0-.266 1.553c0 1.335.617 2.668 1.853 4h-.8a7.605 7.605 0 0 1-1.558-1.831c-.428-.7-.642-1.424-.642-2.173 0-.66.16-1.293.477-1.898.372-.702.947-1.402 1.723-2.098zm4.407 1c.464 0 .84.058 1.13.173.29.115.503.26.64.435.136.175.231.396.286.662a4.8 4.8 0 0 1 .045.72l.001 1.694.004.434.013.524c.01.25.023.43.041.54.03.179.08.353.153.522l.08.166h-.961a2.155 2.155 0 0 1-.184-.708c-.341.306-.67.523-.984.649-.316.126-.654.189-1.015.189-.597 0-1.055-.154-1.375-.462-.32-.308-.481-.702-.481-1.181 0-.281.06-.538.181-.77.121-.233.28-.42.476-.56a2.18 2.18 0 0 1 .662-.319 5.32 5.32 0 0 1 .643-.122l.175-.024c.743-.094 1.29-.205 1.641-.335l.005-.254c0-.396-.087-.676-.26-.838-.236-.22-.585-.33-1.049-.33-.432 0-.752.08-.958.24-.177.138-.314.367-.412.685l-.046.167-.9-.13c.082-.407.217-.735.404-.986.188-.25.459-.443.813-.578a3.447 3.447 0 0 1 1.232-.203zM114 30c-.314.112-.764.21-1.352.292l-.26.035c-.406.051-.693.109-.861.173a.843.843 0 0 0-.39.281.702.702 0 0 0 .162.988c.2.154.49.231.875.231.38 0 .718-.073 1.014-.219.296-.146.514-.345.653-.598.088-.163.14-.39.155-.683l.004-.183V30zm2.8-14c.776.784 1.35 1.57 1.723 2.36.318.68.477 1.392.477 2.135 0 .843-.214 1.658-.642 2.445a8.47 8.47 0 0 1-1.302 1.802L116.8 25h-.8c1.236-1.498 1.853-2.998 1.853-4.5a5.91 5.91 0 0 0-.266-1.747 6.179 6.179 0 0 0-.59-1.348c-.144-.253-.428-.658-.85-1.214L116 16h.8zm-8.6 0h.8l-.282.37c-.348.465-.587.81-.716 1.035-.252.43-.448.88-.589 1.348a5.91 5.91 0 0 0-.266 1.747c0 1.502.617 3.002 1.853 4.5h-.8a8.376 8.376 0 0 1-1.558-2.06 5.053 5.053 0 0 1-.642-2.445c0-.743.16-1.454.477-2.135.372-.79.947-1.576 1.723-2.36zm6.584 1v2.816h1.184v.768h-1.184v3.8h-.912V17h.912zm-1.816.608a7.612 7.612 0 0 1-.272 1.608c-.144.501-.352.97-.624 1.408a5.552 5.552 0 0 1-1.032 1.212 7.34 7.34 0 0 1-1.152.83l-.336.19-.552-.584.292-.157a6.124 6.124 0 0 0 1.004-.699c.363-.315.664-.643.904-.984.24-.341.423-.688.548-1.04.125-.352.201-.693.228-1.024l-.91.018-.906.006h-.84v-.768h2.416l.592-.004.64-.012zM113.8 6c.776.696 1.35 1.396 1.723 2.098.318.605.477 1.237.477 1.898 0 .75-.214 1.473-.642 2.173a7.63 7.63 0 0 1-1.302 1.602L113.8 14h-.8c1.236-1.332 1.853-2.665 1.853-4 0-.522-.089-1.04-.266-1.553a5.2 5.2 0 0 0-.59-1.198l-.132-.191c-.132-.18-.317-.412-.554-.694L113 6h.8zm-5.6 0h.8l-.31.364c-.334.395-.563.69-.688.885a5.2 5.2 0 0 0-.589 1.198 4.718 4.718 0 0 0-.266 1.553c0 1.335.617 2.668 1.853 4h-.8a7.605 7.605 0 0 1-1.558-1.831c-.428-.7-.642-1.424-.642-2.173 0-.66.16-1.293.477-1.898.372-.702.947-1.402 1.723-2.098zm3.8 1v6h-1V8.325c-.24.168-.556.337-.947.505-.313.135-.6.243-.862.324l-.191.055V8.5a6.575 6.575 0 0 0 1.467-.701c.358-.235.627-.465.806-.688l.083-.111H112z" fill-opacity=".6" fill="#000"/>
        </g>
        <g>
            <path d="M51 1h48v48H51z"/>
            <path d="M94 40v1H70v-1h24zm0-10v1H70v-1h24zm0-10v1H70v-1h24zm0-10v1H68v-1h26zM63.8 35c.776.784 1.35 1.57 1.723 2.36.318.68.477 1.392.477 2.135 0 .843-.214 1.658-.642 2.445a8.47 8.47 0 0 1-1.302 1.802L63.8 44H63c1.236-1.498 1.853-2.998 1.853-4.5a5.91 5.91 0 0 0-.266-1.747 6.179 6.179 0 0 0-.59-1.348c-.144-.253-.428-.658-.85-1.214L63 35h.8zm-2.016 1v2.816h1.184v.768h-1.184v3.8h-.912V36h.912zm-1.816.608a7.612 7.612 0 0 1-.272 1.608c-.144.501-.352.97-.624 1.408a5.552 5.552 0 0 1-1.032 1.212 7.34 7.34 0 0 1-1.152.83l-.336.19-.552-.584.292-.157a6.124 6.124 0 0 0 1.004-.699c.363-.315.664-.643.904-.984.24-.341.423-.688.548-1.04.125-.352.201-.693.228-1.024l-.91.018-.906.006h-.84v-.768h2.416l.592-.004.64-.012zM60.8 25c.776.696 1.35 1.396 1.723 2.098.318.605.477 1.237.477 1.898 0 .75-.214 1.473-.642 2.173a7.63 7.63 0 0 1-1.302 1.602L60.8 33H60c1.236-1.332 1.853-2.665 1.853-4 0-.522-.089-1.04-.266-1.553a5.2 5.2 0 0 0-.59-1.198l-.132-.191c-.132-.18-.317-.412-.554-.694L60 25h.8zM59 26v6h-1v-4.675c-.24.168-.556.337-.947.505-.313.135-.6.243-.862.324l-.191.055V27.5a6.575 6.575 0 0 0 1.467-.701c.358-.235.627-.465.806-.688l.083-.111H59zm2.784-10v2.816h1.184v.768h-1.184v3.8h-.912V16h.912zM64 22v1h-1v-1h1zm-4.032-5.392a7.612 7.612 0 0 1-.272 1.608c-.144.501-.352.97-.624 1.408a5.552 5.552 0 0 1-1.032 1.212 7.34 7.34 0 0 1-1.152.83l-.336.19-.552-.584.292-.157a6.124 6.124 0 0 0 1.004-.699c.363-.315.664-.643.904-.984.24-.341.423-.688.548-1.04.125-.352.201-.693.228-1.024l-.91.018-.906.006h-.84v-.768h2.416l.592-.004.64-.012zM59 7v6h-1V8.325c-.24.168-.556.337-.947.505-.313.135-.6.243-.862.324L56 9.209V8.5a6.575 6.575 0 0 0 1.467-.701c.358-.235.627-.465.806-.688L58.356 7H59zm2 5v1h-1v-1h1z" fill-opacity=".6" fill="#000"/>
        </g>
        <g>
            <path d="M1 1h48v48H1z"/>
            <path d="M41 9v32H9V9h32zm-1 1H10v30h30V10z" fill-opacity=".6" fill="#000"/>
            <path fill="#E13A1B" fill-rule="nonzero" d="m39.646 9.646.708.708-30 30-.708-.708z"/>
        </g>
        <g>
            <path d="M1001 1h48v48h-48z"/>
            <path d="M1044 39v1h-12v-1h12zm0-14v1h-18v-1h18zm0-14v1h-28v-1h28zm-27 31v1h-1v-1h1zm6 0v1h-1v-1h1zm-8-6v7h-1v-5.454c-.24.196-.556.393-.947.59-.313.156-.6.282-.862.377l-.191.064v-.827a6.221 6.221 0 0 0 1.467-.818c.358-.274.627-.542.806-.802l.083-.13h.644zm12 0v7h-1v-5.454c-.24.196-.556.393-.947.59-.313.156-.6.282-.862.377l-.191.064v-.827a6.221 6.221 0 0 0 1.467-.818c.358-.274.627-.542.806-.802l.083-.13h.644zm-6 0v7h-1v-5.454c-.24.196-.556.393-.947.59-.313.156-.6.282-.862.377l-.191.064v-.827a6.221 6.221 0 0 0 1.467-.818c.358-.274.627-.542.806-.802l.083-.13h.644zm-7-9v1h-1v-1h1zm-2-6v7h-1v-5.454c-.24.196-.556.393-.947.59-.313.156-.6.282-.862.377l-.191.064v-.827a6.221 6.221 0 0 0 1.467-.818c.358-.274.627-.542.806-.802l.083-.13h.644zm6 0v7h-1v-5.454c-.24.196-.556.393-.947.59-.313.156-.6.282-.862.377l-.191.064v-.827a6.221 6.221 0 0 0 1.467-.818c.358-.274.627-.542.806-.802l.083-.13h.644zm-9-15v7h-1V7.546c-.24.196-.556.393-.947.59-.313.156-.6.282-.862.377l-.191.064V7.75a6.221 6.221 0 0 0 1.467-.818c.358-.274.627-.542.806-.802l.083-.13h.644z" fill-opacity=".6" fill="#000"/>
        </g>
        <g>
            <path d="M951 51h48v48h-48z"/>
            <path d="M961.02 79a6.501 6.501 0 0 0 5.98 5.982v.038a6.501 6.501 0 0 0-5.98 5.98h-.039A6.501 6.501 0 0 0 955 85.02v-.038a6.501 6.501 0 0 0 5.982-5.981h.038zM994 90v1h-24v-1h24zm-33-7.756-.035.061a7.536 7.536 0 0 1-2.66 2.661l-.062.035.06.035a7.536 7.536 0 0 1 2.662 2.66l.035.063.035-.062a7.536 7.536 0 0 1 2.66-2.66l.063-.036-.062-.035a7.536 7.536 0 0 1-2.661-2.661l-.035-.061zM994 80v1h-24v-1h24zm0-10v1h-24v-1h24zm-32.98-12a6.501 6.501 0 0 0 5.98 5.982v.038a6.501 6.501 0 0 0-5.98 5.98h-.039A6.501 6.501 0 0 0 955 64.02v-.038a6.501 6.501 0 0 0 5.982-5.981h.038zm-.02 3.244-.035.061a7.536 7.536 0 0 1-2.66 2.661l-.062.035.06.035a7.536 7.536 0 0 1 2.662 2.66l.035.063.035-.062a7.536 7.536 0 0 1 2.66-2.66l.063-.036-.062-.035a7.536 7.536 0 0 1-2.661-2.661l-.035-.061zM994 60v1h-24v-1h24z" fill-opacity=".6" fill="#000"/>
        </g>
    </g>
</svg>
