<svg xmlns="http://www.w3.org/2000/svg" fill="#666666" height="500" viewBox="0 0 1200 500" width="1200">
	<!--1-1-ko.svg-->
	<svg x="0" y="0">
		<style type="text/css">
			.st1_1_0{fill:none;}
		</style>
		<path class="st1_1_0" d="M0,0h16v16H0V0z"/>
		<path d="M0,2v12h16V2H0z M15,13H1V3h14V13z"/>
		<rect x="2" y="11" width="12" height="1"/>
		<rect x="6" y="4" width="8" height="1"/>
		<rect x="6" y="6" width="8" height="1"/>
		<rect x="2" y="9" width="12" height="1"/>
		<rect x="2" y="4" width="3" height="1"/>
		<rect x="4" y="4" width="1" height="3"/>
	</svg>
	<!--1-2-ko.svg-->
	<svg x="20" y="0">
		<style type="text/css">
			.st1_2_0{fill:none;}
		</style>
		<path class="st1_2_0" d="M0,0h16v16H0V0z"/>
		<path d="M0,2v12h16V2H0z M15,13H1V3h14V13z"/>
		<rect x="2" y="4" width="1" height="8"/>
		<rect x="4" y="4" width="1" height="8"/>
		<rect x="6" y="4" width="1" height="8"/>
		<rect x="8" y="4" width="1" height="8"/>
		<rect x="11" y="8" width="1" height="4"/>
		<rect x="13" y="8" width="1" height="4"/>
		<polygon points="13,4 11,4 11,5 13,5 13,7 14,7 14,5 14,4 "/>
	</svg>
	<!--1-3.svg-->
	<svg x="40" y="0">
		<style type="text/css">
			.st1_3_0{fill:none;}
		</style>
		<path class="st1_3_0" d="M0,0h16v16H0V0z"/>
		<path d="M8,1.7c3.5,0,6.3,2.8,6.3,6.3s-2.8,6.3-6.3,6.3S1.7,11.5,1.7,8S4.5,1.7,8,1.7 M8,1C4.1,1,1,4.1,1,8s3.1,7,7,7s7-3.1,7-7
			S11.9,1,8,1L8,1z"/>
	</svg>
	<!--1-4.svg-->
	<svg x="60" y="0">
		<style type="text/css">
			.st1_4_0{fill:none;}
		</style>
		<path class="st1_4_0" d="M0,0h16v16H0V0z"/>
		<path d="M7.5,1L0,15h15L7.5,1z M13.7,14H1.3L7.5,2.5L13.7,14z"/>
	</svg>
	<!--1-5.svg-->
	<svg x="80" y="0">
		<style type="text/css">
			.st1_5_0{fill:none;}
		</style>
		<path class="st1_5_0" d="M0,0h16v16H0V0z"/>
		<path d="M1,1v14h14L1,1z M2,3l11,11H2V3z"/>
	</svg>
	<!--1-6.svg-->
	<svg x="100" y="0">
		<style type="text/css">
			.st1_6_0{fill:none;}
		</style>
		<path class="st1_6_0" d="M0,0h16v16H0V0z"/>
		<path d="M4,1L0,15h12l4-14H4z M11.6,14H1L4.4,2H15L11.6,14z"/>
	</svg>
	<!--1-7.svg-->
	<svg x="120" y="0">
		<style type="text/css">
			.st1_7_0{fill:none;}
		</style>
		<path class="st1_7_0" d="M0,0h16v16H0V0z"/>
		<path d="M12,1H4L0,14h16L12,1z M4.4,2h7.2L15,13H1L4.4,2z"/>
	</svg>
	<!--1-8.svg-->
	<svg x="140" y="0">
		<style type="text/css">
			.st1_8_0{fill:none;}
		</style>
		<path class="st1_8_0" d="M0,0h16v16H0V0z"/>
		<g>
			<path d="M7.5,1L14,7.5L7.5,14L1,7.5L7.5,1 M7.5,0L0,7.5L7.5,15L15,7.5L7.5,0L7.5,0z"/>
		</g>
	</svg>
	<!--1-9.svg-->
	<svg x="160" y="0">
		<style type="text/css">
			.st1_9_0{fill:none;}
		</style>
		<path class="st1_9_0" d="M0,0h16v16H0V0z"/>
		<path d="M8,0L0,6l3,9h10l3-9L8,0z M12.6,14H3.4L0.8,6.3L8,0.9l7.2,5.4L12.6,14z"/>
	</svg>
	<!--1-10.svg-->
	<svg x="180" y="0">
		<style type="text/css">
			.st1_10_0{fill:none;}
		</style>
		<path class="st1_10_0" d="M0,0h16v16H0V0z"/>
		<path d="M13,0H3L0,7.5L3,15h10l3-7.5L13,0z M12.5,14H3.5L0.9,7.5L3.5,1h9.1l2.6,6.5L12.5,14z"/>
	</svg>
	<!--1-11.svg-->
	<svg x="200" y="0">
		<style type="text/css">
			.st1_11_0{fill:none;}
		</style>
		<path class="st1_11_0" d="M0,0h16v16H0V0z"/>
		<path d="M10,0H5L0,5v5l5,5h5l5-5V5L10,0z M10,14L10,14l-5,0v0l-4-4h0V5h0l4-4v0h5v0l4,4h0v5h0L10,14z"/>
		<g>
			<polygon points="6,5 6,6 8,6 8,7 9,7 9,5 	"/>
			<rect x="7" y="7" width="1" height="3"/>
		</g>
	</svg>
	<!--1-12.svg-->
	<svg x="220" y="0">
		<style type="text/css">
			.st1_12_0{fill:none;}
		</style>
		<path class="st1_12_0" d="M0,0h16v16H0V0z"/>
		<path d="M10,0H5L0,5v5l5,5h5l5-5V5L10,0z M10,14L10,14l-5,0v0l-4-4h0V5h0l4-4v0h5v0l4,4h0v5h0L10,14z"/>
		<path d="M6,5v5h3V5H6z M8,9H7V8h1V9z M8,7H7V6h1V7z"/>
	</svg>
	<!--1-13.svg-->
	<svg x="240" y="0">
		<style type="text/css">
			.st1_13_0{fill:none;}
		</style>
		<path class="st1_13_0" d="M0,0h16v16H0V0z"/>
		<path d="M10,0H5L0,5v5l5,5h5l5-5V5L10,0z M10,14L10,14l-5,0v0l-4-4h0V5h0l4-4v0h5v0l4,4h0v5h0L10,14z"/>
		<g>
			<path d="M9,6v3H8V6H9 M10,5H7v5h3V5L10,5z"/>
			<polygon points="4,5 4,6 5,6 5,10 6,10 6,5 	"/>
		</g>
	</svg>
	<!--1-14.svg-->
	<svg x="260" y="0">
		<style type="text/css">
			.st1_14_0{fill:none;}
		</style>
		<path class="st1_14_0" d="M0,0h16v16H0V0z"/>
		<path d="M10,0H5L0,5v5l5,5h5l5-5V5L10,0z M10,14L10,14l-5,0v0l-4-4h0V5h0l4-4v0h5v0l4,4h0v5h0L10,14z"/>
		<g>
			<polygon points="7,5 7,6 9,6 9,7 7,7 7,10 10,10 10,9 8,9 8,8 10,8 10,5 	"/>
			<polygon points="4,5 4,6 5,6 5,10 6,10 6,5 	"/>
		</g>
	</svg>
	<!--1-15.svg-->
	<svg x="280" y="0">
		<style type="text/css">
			.st1_15_0{fill:none;}
		</style>
		<path class="st1_15_0" d="M0,0h16v16H0V0z"/>
		<path d="M14.8,0C6.6,0,0,6.6,0,14.8V15h15V0H14.8z M14,0.7V14H0.7C1.2,6.9,6.9,1.2,14,0.7z"/>
	</svg>
	<!--1-16.svg-->
	<svg x="300" y="0">
		<style type="text/css">
			.st1_16_0{fill:none;}
		</style>
		<path class="st1_16_0" d="M0,0h16v16H0V0z"/>
		<path d="M15.9,7h-0.2H8V0.3V0C3.6,0,0,3.6,0,8s3.6,8,8,8s8-3.6,8-8C16,7.7,16,7.3,15.9,7z M8,15.3C4,15.3,0.7,12,0.7,8
			c0-3.7,2.7-6.7,6.3-7.2V8h8.3C15.3,12,12,15.3,8,15.3z"/>
	</svg>
	<!--1-17.svg-->
	<svg x="320" y="0">
		<style type="text/css">
			.st1_17_0{fill:none;}
		</style>
		<path class="st1_17_0" d="M0,0h16v16H0V0z"/>
		<g>
			<path d="M6.1,0.8l9.1,9.1c-0.9,3.1-3.9,5.4-7.2,5.4C4,15.3,0.7,12,0.7,8C0.7,4.7,3,1.6,6.1,0.8 M6.3,0C2.7,0.8,0,4.2,0,8
				c0,4.4,3.6,8,8,8c3.8,0,7.2-2.7,8-6.3L6.3,0L6.3,0z"/>
		</g>
	</svg>
	<!--1-18.svg-->
	<svg x="340" y="0">
		<style type="text/css">
			.st1_18_0{fill:none;}
		</style>
		<path class="st1_18_0" d="M0,0h16v16H0V0z"/>
		<path d="M14.3,7.6c0,3.7-3,6.7-6.7,6.7H7.4c-3.7,0-6.7-3-6.7-6.7V7.4c0-3.7,3-6.7,6.7-6.7L14,1 M15,0H7.4C3.3,0,0,3.3,0,7.4v0.1
			C0,11.7,3.3,15,7.4,15h0.1c4.1,0,7.4-3.3,7.4-7.4V0L15,0z"/>
	</svg>
	<!--1-19.svg-->
	<svg x="360" y="0">
		<style type="text/css">
			.st1_19_0{fill:none;}
		</style>
		<path class="st1_19_0" d="M0,0h16v16H0V0z"/>
		<g>
			<path d="M15,2v12H1V2H15 M16,1H0v14h16V1L16,1z"/>
		</g>
		<g>
			<path d="M13,4v8H3V4H13 M14,3H2v10h12V3L14,3z"/>
		</g>
	</svg>
	<!--1-20.svg-->
	<svg x="380" y="0">
		<style type="text/css">
			.st1_20_0{fill:none;}
		</style>
		<path class="st1_20_0" d="M0,0h16v16H0V0z"/>
		<path d="M0,1v14h0.9H1v-0.1L4.9,11H5v-0.1V6h4.9H10V5.9L13.9,2H14V1.9V1H0z M10,5H4v6l-3,3V2h12L10,5z"/>
	</svg>
	<!--1-21.svg-->
	<svg x="400" y="0">
		<style type="text/css">
			.st1_21_0{fill:none;}
		</style>
		<path class="st1_21_0" d="M0,0h16v16H0V0z"/>
		<g>
			<path d="M7,2v7v1h1h6v4H2V2H7 M8,1H1v14h14V9H8V1L8,1z"/>
		</g>
	</svg>
	<!--1-22.svg-->
	<svg x="420" y="0">
		<style type="text/css">
			.st1_22_0{fill:none;}
		</style>
		<path class="st1_22_0" d="M0,0h16v16H0V0z"/>
		<path d="M8,0L0,8v0v7L15,0H8z M8,1L8,1l5,0L1,13V8h0L8,1z"/>
	</svg>
	<!--1-23.svg-->
	<svg x="440" y="0">
		<style type="text/css">
			.st1_23_0{fill:none;}
		</style>
		<path class="st1_23_0" d="M0,0h16v16H0V0z"/>
		<g>
			<path d="M11,1v3v1h1h3v5h-3h-1v1v3H5v-3v-1H4H1V5h3h1V4V1H11 M12,0H4v4H0v7h4v4h8v-4h4V4h-4V0L12,0z"/>
		</g>
	</svg>
	<!--1-24.svg-->
	<svg x="460" y="0">
		<style type="text/css">
			.st1_24_0{fill:none;}
		</style>
		<path class="st1_24_0" d="M0,0h16v16H0V0z"/>
		<path d="M14,5c-1.1,0-2-0.9-2-2V1H4v2c0,1.1-0.9,2-2,2H0v6h2c1.1,0,2,0.9,2,2v2h8v-2c0-1.1,0.9-2,2-2h2V5H14z M14,10.3
			c-1.5,0-2.7,1.2-2.7,2.7v1H4.7v-1c0-1.5-1.2-2.7-2.7-2.7H1V5.7h1c1.5,0,2.7-1.2,2.7-2.7V2h6.6v1c0,1.5,1.2,2.7,2.7,2.7h1v4.6H14z"/>
	</svg>
	<!--1-25.svg-->
	<svg x="480" y="0">
		<style type="text/css">
			.st1_25_0{fill:none;}
		</style>
		<path class="st1_25_0" d="M0,0h16v16H0V0z"/>
		<path d="M8,0C4.7,0,2,1.3,2,3v10c0,1.7,2.7,3,6,3s6-1.3,6-3V3C14,1.3,11.3,0,8,0z M8,0.7c3,0,5.3,1.2,5.3,2.3c0,1.1-2.3,2.3-5.3,2.3
			S2.7,4.1,2.7,3C2.7,1.9,5,0.7,8,0.7z M8,15.3c-3,0-5-1.2-5-2.3V4.7C4.1,5.5,5.9,6,8,6s3.9-0.5,5-1.3V13C13,14.1,11,15.3,8,15.3z"/>
	</svg>
	<!--1-26.svg-->
	<svg x="500" y="0">
		<style type="text/css">
			.st1_26_0{fill:none;}
		</style>
		<path class="st1_26_0" d="M0,0h16v16H0V0z"/>
		<path d="M4,1L0,5v10h12l4-4V2V1H4z M11,14H1V6h10V14z M8,5H1l3-3v0h4h6h0.5l-3,3H11H8z M12,14V5.5l3-3V5v6h0L12,14z"/>
	</svg>
	<!--1-27.svg-->
	<svg x="520" y="0">
		<style type="text/css">
			.st1_27_0{fill:none;}
		</style>
		<path class="st1_27_0" d="M0,0h16v16H0V0z"/>
		<path d="M0,1v14h16V1H0z M4,11V5h8v6H4z M12.5,4h-9l-2-2h13L12.5,4z M3,11.5l-2,2v-11l2,2V11.5z M3.5,12h9l2,2h-13L3.5,12z M13,4.5
			l2-2v11l-2-2V4.5z"/>
	</svg>
	<!--1-28.svg-->
	<svg x="540" y="0">
		<style type="text/css">
			.st1_28_0{fill:none;}
		</style>
		<path class="st1_28_0" d="M0,0h16v16H0V0z"/>
		<g>
			<path d="M8,0.7c4,0,7.3,3.3,7.3,7.3S12,15.3,8,15.3S0.7,12,0.7,8S4,0.7,8,0.7 M8,0C3.6,0,0,3.6,0,8s3.6,8,8,8s8-3.6,8-8S12.4,0,8,0
				L8,0z"/>
		</g>
		<g>
			<path d="M8,3.7c2.4,0,4.3,1.9,4.3,4.3s-1.9,4.3-4.3,4.3S3.7,10.4,3.7,8S5.6,3.7,8,3.7 M8,3C5.2,3,3,5.2,3,8s2.2,5,5,5s5-2.2,5-5
				S10.8,3,8,3L8,3z"/>
		</g>
	</svg>
	<!--1-29.svg-->
	<svg x="560" y="0">
		<style type="text/css">
			.st1_29_0{fill:none;}
		</style>
		<path class="st1_29_0" d="M0,0h16v16H0V0z"/>
		<g>
			<path d="M8,0.7c4,0,7.3,3.3,7.3,7.3S12,15.3,8,15.3S0.7,12,0.7,8S4,0.7,8,0.7 M8,0C3.6,0,0,3.6,0,8s3.6,8,8,8s8-3.6,8-8S12.4,0,8,0
				L8,0z"/>
		</g>
		<g>
			<path d="M8,3.7c2.4,0,4.3,1.9,4.3,4.3c0,0.5-0.1,1.1-0.3,1.6L6.4,4C6.9,3.8,7.5,3.7,8,3.7 M8,3C7,3,6,3.3,5.2,3.8l6.9,6.9
				C12.7,10,13,9,13,8C13,5.2,10.8,3,8,3L8,3z"/>
		</g>
		<g>
			<path d="M4,6.4L9.6,12c-0.5,0.2-1,0.3-1.6,0.3c-2.4,0-4.3-1.9-4.3-4.3C3.7,7.5,3.8,6.9,4,6.4 M3.8,5.2C3.3,6,3,7,3,8
				c0,2.8,2.2,5,5,5c1,0,2-0.3,2.8-0.8L3.8,5.2L3.8,5.2z"/>
		</g>
	</svg>
	<!--1-30.svg-->
	<svg x="580" y="0">
		<style type="text/css">
			.st1_30_0{fill:none;}
		</style>
		<path class="st1_30_0" d="M0,0h16v16H0V0z"/>
		<path d="M8,2c-4.4,0-8,3.6-8,8v1h0.1H4h0.1C4.1,10.7,4,10.3,4,10c0-2.2,1.8-4,4-4s4,1.8,4,4c0,0.3-0.1,0.7-0.1,1H12h3.9H16v-1
			C16,5.6,12.4,2,8,2z M12.7,10c0-2.6-2.1-4.7-4.7-4.7S3.3,7.4,3.3,10H0.7C0.7,6,4,2.7,8,2.7S15.3,6,15.3,10H12.7z"/>
	</svg>
	<!--1-31.svg-->
	<svg x="600" y="0">
		<style type="text/css">
			.st1_31_0{fill:none;}
		</style>
		<path class="st1_31_0" d="M0,0h16v16H0V0z"/>
		<path d="M1,1v14h10.5l3.5-3.5V1H1z M12,13.5V12h1.5L12,13.5z M14,8.2V11h-3v3H2V2h12V8.2z"/>
	</svg>
	<!--1-32.svg-->
	<svg x="620" y="0">
		<style type="text/css">
			.st1_32_0{fill:none;}
			.st1_32_1{fill:none;stroke:#808184;stroke-width:0.7;stroke-miterlimit:10;}
		</style>
		<path class="st1_32_0" d="M0,0h16v16H0V0z"/>
		<g>
			<path d="M8,0.7c4,0,7.3,3.3,7.3,7.3S12,15.3,8,15.3S0.7,12,0.7,8S4,0.7,8,0.7 M8,0C3.6,0,0,3.6,0,8s3.6,8,8,8s8-3.6,8-8S12.4,0,8,0
				L8,0z"/>
		</g>
		<path class="st1_32_1" d="M4.3,10.5c0.6,1.2,2.1,2,3.8,2s3.1-0.8,3.8-2"/>
		<g>
			<path d="M10.5,4.6c0.5,0,0.9,0.4,0.9,0.9S11,6.4,10.5,6.4S9.6,6,9.6,5.5S10,4.6,10.5,4.6 M10.5,4C9.7,4,9,4.7,9,5.5S9.7,7,10.5,7
				S12,6.3,12,5.5S11.3,4,10.5,4L10.5,4z"/>
		</g>
		<g>
			<path d="M5.5,4.6C6,4.6,6.4,5,6.4,5.5S6,6.4,5.5,6.4S4.6,6,4.6,5.5S5,4.6,5.5,4.6 M5.5,4C4.7,4,4,4.7,4,5.5S4.7,7,5.5,7
				S7,6.3,7,5.5S6.3,4,5.5,4L5.5,4z"/>
		</g>
	</svg>
	<!--1-33.svg-->
	<svg x="640" y="0">
		<style type="text/css">
			.st1_33_0{fill:none;}
		</style>
		<path class="st1_33_0" d="M0,0h16v16H0V0z"/>
		<g>
			<path d="M12,1.8c0.9,0,1.7,0.4,2.3,1c1.3,1.3,1.3,3.5,0,4.8L8,14.1L1.7,7.6c-1.3-1.3-1.3-3.5,0-4.8c0.6-0.6,1.4-1,2.3-1
				s1.7,0.4,2.3,1l1.2,1.2L8,4.5l0.5-0.5l1.2-1.2C10.3,2.1,11.1,1.8,12,1.8 M12,1.1c-1,0-2,0.4-2.8,1.2L8,3.5L6.8,2.3
				C6,1.5,5,1.1,4,1.1S2,1.5,1.2,2.3c-1.6,1.6-1.6,4.2,0,5.8l6.8,7l6.8-7c1.6-1.6,1.6-4.2,0-5.8C14,1.5,13,1.1,12,1.1L12,1.1z"/>
		</g>
	</svg>
	<!--1-34.svg-->
	<svg x="660" y="0">
		<style type="text/css">
			.st1_34_0{fill:none;}
		</style>
		<path class="st1_34_0" d="M0,0h16v16H0V0z"/>
		<path d="M15,3c0-1.7-3.4-3-7.5-3S0,1.3,0,3c0,0.1,0,0.2,0,0.3c0,0.4,0.1,0.8,0.3,1.2l4.9,9.1C5.8,14.5,6.7,15,7.5,15
			s1.7-0.5,2.2-1.4l4.9-9.1c0.2-0.4,0.3-0.8,0.3-1.2C15,3.2,15,3.1,15,3z M7.5,0.7c4.2,0,6.8,1.4,6.8,2.3h0c0,0.1,0,0.1,0,0.2
			c-0.3,0.9-2.9,2.1-6.8,2.1c-3.9,0-6.4-1.2-6.8-2.1c0-0.1,0-0.1,0-0.2h0C0.7,2.1,3.3,0.7,7.5,0.7z M9,13.3c-0.4,0.6-0.9,1-1.5,1
			s-1.2-0.4-1.5-1L1.3,4.7C2.6,5.5,4.9,6,7.5,6s4.9-0.5,6.2-1.3L9,13.3z"/>
	</svg>
	<!--1-35.svg-->
	<svg x="680" y="0">
		<style type="text/css">
			.st1_35_0{fill:none;}
		</style>
		<path id="XMLID_7_" class="st1_35_0" d="M0,0h16v16H0V0z"/>
		<g id="XMLID_23_">
			<path id="XMLID_33_" d="M7.5,0.7c0.1,0,0.4,0,0.5,0.4l0.2,1.2l0.1,0.5l0.5,0.1c1.2,0.2,2.2,0.8,3,1.6l0.3,0.3l0.4-0.2l1.1-0.4
				c0.1,0,0.1,0,0.2,0c0.2,0,0.4,0.2,0.4,0.3c0.1,0.2,0,0.3-0.2,0.4l-0.9,0.7l-0.4,0.3L13,6.3c0.2,0.5,0.3,1.1,0.3,1.7
				c0,0.6-0.1,1.1-0.3,1.7l-0.2,0.5l0.4,0.3l0.9,0.7c0.2,0.1,0.2,0.3,0.2,0.4c-0.1,0.2-0.2,0.3-0.4,0.3c-0.1,0-0.1,0-0.2,0l-1.1-0.4
				l-0.4-0.2l-0.3,0.3c-0.8,0.8-1.9,1.4-3,1.6l-0.5,0.1l-0.1,0.5L8,14.9c-0.1,0.3-0.4,0.4-0.5,0.4s-0.4,0-0.5-0.4l-0.2-1.2l-0.1-0.5
				l-0.5-0.1c-1.2-0.2-2.2-0.8-3-1.6l-0.3-0.3l-0.4,0.2l-1.1,0.4c-0.1,0-0.1,0-0.2,0c-0.2,0-0.4-0.2-0.4-0.3c-0.1-0.2,0-0.3,0.2-0.4
				l0.9-0.7l0.4-0.3L2,9.7C1.8,9.1,1.7,8.6,1.7,8c0-0.6,0.1-1.1,0.3-1.7l0.2-0.5L1.8,5.6L0.9,4.9C0.7,4.8,0.7,4.6,0.7,4.5
				c0.1-0.2,0.2-0.3,0.4-0.3c0.1,0,0.1,0,0.2,0l1.1,0.4l0.4,0.2l0.3-0.3c0.8-0.8,1.9-1.4,3-1.6l0.5-0.1l0.1-0.5L7,1.1
				C7.1,0.7,7.4,0.7,7.5,0.7 M7.5,0C7,0,6.4,0.3,6.3,0.9L6.1,2.1C4.8,2.4,3.6,3,2.7,3.9c0,0,0,0,0,0L1.6,3.5C1.5,3.5,1.3,3.4,1.2,3.4
				c-1,0-1.6,1.3-0.7,2l0.9,0.7c0,0,0,0,0,0c0,0,0,0,0,0c0,0,0,0,0,0C1.1,6.7,1,7.3,1,8s0.1,1.3,0.3,1.9c0,0,0,0,0,0c0,0,0,0,0,0
				c0,0,0,0,0,0l-0.9,0.7c-0.9,0.7-0.3,2,0.7,2c0.1,0,0.3,0,0.4-0.1l1.1-0.4c0,0,0,0,0,0c0.9,0.9,2.1,1.5,3.4,1.8l0.2,1.2
				C6.4,15.7,7,16,7.5,16s1.1-0.3,1.2-0.9l0.2-1.2c1.3-0.3,2.5-0.9,3.4-1.8c0,0,0,0,0,0l1.1,0.4c0.2,0.1,0.3,0.1,0.4,0.1
				c1,0,1.6-1.3,0.7-2l-0.9-0.7c0,0,0,0,0,0c0,0,0,0,0,0c0,0,0,0,0,0C13.9,9.3,14,8.7,14,8s-0.1-1.3-0.3-1.9c0,0,0,0,0,0c0,0,0,0,0,0
				c0,0,0,0,0,0l0.9-0.7c0.9-0.7,0.3-2-0.7-2c-0.1,0-0.3,0-0.4,0.1l-1.1,0.4C11.4,3,10.2,2.4,8.9,2.1L8.7,0.9C8.6,0.3,8,0,7.5,0L7.5,0
				z"/>
		</g>
	</svg>
	<!--1-36.svg-->
	<svg x="700" y="0">
		<style type="text/css">
			.st1_36_0{fill:none;}
		</style>
		<path id="XMLID_7_" class="st1_36_0" d="M0,0h16v16H0V0z"/>
		<g id="XMLID_8_">
			<path id="XMLID_20_" d="M7.5,0.7c0.1,0,0.3,0,0.4,0.3l0.1,0.7C8,1.9,8,1.9,8,2l0.1,0.4l0.4,0.1c0.2,0,0.4,0.1,0.7,0.2l0.1,0
				C9.6,2.9,9.8,3,10,3.1l0.4,0.2L10.7,3c0.1,0,0.1-0.1,0.2-0.1l0.5-0.5c0.1-0.1,0.2-0.1,0.2-0.1c0.1,0,0.3,0.1,0.3,0.2
				c0.1,0.1,0.1,0.2,0,0.4l-0.4,0.6c0,0.1-0.1,0.1-0.1,0.1L11.3,4l0.3,0.4C11.7,4.6,11.9,4.8,12,5l0,0.1c0.1,0.2,0.2,0.5,0.3,0.7
				l0.2,0.4H13l0,0h0.1l0,0l0,0l0.8,0c0.3,0,0.3,0.2,0.3,0.3c0,0.1,0,0.3-0.3,0.4l-0.7,0.2l-0.1,0l0,0l-0.4,0.1l0,0.5
				c0,0.3,0,0.5-0.1,0.8c0,0,0,0.1,0,0.1c0,0.2-0.1,0.6-0.2,0.7l-0.2,0.5l0.3,0.3l0,0l0.1,0l0.6,0.4c0.1,0.1,0.2,0.2,0.1,0.4
				c0,0.1-0.2,0.3-0.3,0.3c-0.1,0-0.1,0-0.2,0l-0.7-0.3l-0.1,0l0,0l-0.4-0.2l-0.3,0.4c-0.4,0.4-0.8,0.8-1.3,1.1l-0.4,0.3L9.9,13l0,0.1
				l0,0.1l0.2,0.7c0,0.1,0,0.2-0.1,0.3c-0.1,0.1-0.2,0.2-0.3,0.2c-0.1,0-0.2-0.1-0.3-0.2l-0.3-0.7c0,0,0-0.1-0.1-0.1l-0.2-0.4L8.3,13
				C8,13,7.7,13,7.5,13S7,13,6.7,13l-0.5-0.1L6,13.3l0,0.1l0,0.1l-0.3,0.7c-0.1,0.1-0.2,0.2-0.3,0.2c-0.1,0-0.3-0.1-0.3-0.2
				c-0.1-0.1-0.1-0.2-0.1-0.3l0.2-0.7l0-0.1l0,0l0.1-0.4l-0.4-0.3c-0.5-0.3-0.9-0.6-1.3-1.1l-0.3-0.4L2.8,11l0,0l-0.1,0L2,11.4
				c-0.1,0-0.1,0-0.2,0c-0.2,0-0.3-0.1-0.3-0.3c-0.1-0.2,0-0.3,0.1-0.4l0.6-0.4l0.1-0.1l0,0l0.3-0.3L2.5,9.5C2.4,9.2,2.3,8.9,2.3,8.7
				l0-0.1c0-0.3-0.1-0.6-0.1-0.8l0-0.5L1.8,7.2l0,0l-0.1,0L1,6.9C0.7,6.8,0.7,6.6,0.7,6.5c0-0.1,0.1-0.3,0.4-0.3c0,0,0,0,0,0l0.7,0
				l0,0h0c0,0,0.1,0,0.1,0l0.4,0l0.2-0.4c0.1-0.2,0.2-0.5,0.3-0.7L3,5c0.1-0.2,0.3-0.4,0.4-0.6l0.3-0.3L3.5,3.6c0-0.1-0.1-0.1-0.1-0.2
				L3,2.8C2.9,2.7,2.9,2.6,3,2.5C3,2.3,3.2,2.2,3.3,2.2c0.1,0,0.2,0,0.2,0.1l0.5,0.5C4.1,2.9,4.2,3,4.3,3l0.4,0.3L5,3.1
				C5.2,3,5.4,2.9,5.7,2.8l0.1,0C6,2.7,6.2,2.6,6.5,2.6l0.4-0.1L7,2c0-0.1,0-0.2,0.1-0.2L7.1,1C7.2,0.7,7.4,0.7,7.5,0.7 M7.5,0
				C7,0,6.5,0.3,6.4,1L6.4,1.7c0,0.1,0,0.1,0,0.2C6.1,1.9,5.8,2,5.5,2.1c0,0-0.1,0-0.1,0C5.2,2.2,4.9,2.3,4.7,2.5c0,0-0.1-0.1-0.1-0.1
				L4,1.8C3.8,1.6,3.6,1.5,3.3,1.5c-0.8,0-1.4,0.9-0.9,1.7l0.4,0.6c0,0,0,0.1,0,0.1C2.7,4.2,2.5,4.4,2.4,4.6c0,0,0,0.1-0.1,0.1
				C2.2,5,2,5.2,1.9,5.5v0c0,0,0,0,0,0c0,0,0,0-0.1,0c0,0,0,0,0,0l-0.7,0c0,0-0.1,0-0.1,0c-1.2,0-1.5,1.8-0.3,2.1l0.7,0.2c0,0,0,0,0,0
				c0,0.3,0,0.6,0.1,0.9c0,0,0,0,0,0.1c0.1,0.3,0.1,0.6,0.2,0.9c0,0,0,0,0,0c0,0,0,0,0,0l-0.6,0.4c-0.9,0.7-0.3,2,0.6,2
				c0.1,0,0.3,0,0.4-0.1l0.7-0.3c0,0,0,0,0,0c0,0,0,0,0,0c0.4,0.5,0.9,0.9,1.4,1.2l0,0c0,0,0,0,0,0l-0.2,0.7C4,14.5,4.7,15,5.3,15
				c0.4,0,0.7-0.2,0.9-0.6l0.3-0.7c0,0,0,0,0-0.1c0.3,0,0.6,0.1,0.9,0.1s0.6,0,0.9-0.1c0,0,0,0,0,0.1l0.3,0.7C9,14.8,9.4,15,9.7,15
				c0.6,0,1.2-0.5,1.1-1.3l-0.2-0.7c0,0,0,0,0,0l0,0c0.5-0.3,1-0.7,1.4-1.2c0,0,0,0,0,0l0.7,0.3c0.2,0.1,0.3,0.1,0.4,0.1
				c0.9,0,1.5-1.3,0.6-2l-0.6-0.4c0,0,0,0,0,0c0,0,0,0,0,0c0.1-0.3,0.2-0.6,0.2-0.9c0,0,0,0,0-0.1c0-0.3,0.1-0.6,0.1-0.9c0,0,0,0,0,0
				l0.7-0.2c1.2-0.4,0.9-2.1-0.3-2.1c0,0-0.1,0-0.1,0l-0.7,0c0,0,0,0,0,0c0,0,0,0-0.1,0c0,0,0,0,0,0v0C13,5.2,12.8,5,12.7,4.7
				c0,0,0-0.1-0.1-0.1c-0.1-0.2-0.3-0.5-0.5-0.7c0,0,0-0.1,0-0.1l0.4-0.6c0.5-0.8-0.1-1.7-0.9-1.7c-0.2,0-0.5,0.1-0.7,0.3l-0.5,0.5
				c0,0-0.1,0.1-0.1,0.1c-0.2-0.1-0.5-0.2-0.7-0.3c0,0-0.1,0-0.1,0C9.2,2,8.9,1.9,8.7,1.9c0-0.1,0-0.1,0-0.2L8.6,1C8.5,0.3,8,0,7.5,0
				L7.5,0z"/>
		</g>
	</svg>
	<!--1-37.svg-->
	<svg x="720" y="0">
		<style type="text/css">
			.st1_37_0{fill:none;}
		</style>
		<path id="XMLID_9_" class="st1_37_0" d="M0,0h16v16H0V0z"/>
		<g id="XMLID_2_">
			<path id="XMLID_15_" d="M6.4,0.9l4.6,5l-0.8,0.5L9.4,6.9L10,7.5l2.9,3.3l-1.2,0.6l-0.8,0.4l0.5,0.7l1,1.3l-4-2.2l0.8-0.4l1.1-0.6
				L9.4,9.9L5.6,7.6l1.2-0.5L8,6.6L6.9,5.9L2.4,3L6.4,0.9 M6.5,0L1,3l5.5,3.5L4,7.5l5,3l-2,1l8,4.5l-3-4l2-1l-3.5-4L12,6L6.5,0L6.5,0z
				"/>
		</g>
	</svg>
	<!--1-38.svg-->
	<svg x="740" y="0">
		<style type="text/css">
			.st1_38_0{fill:none;}
		</style>
		<path id="XMLID_25_" class="st1_38_0" d="M0,0h16v16H0V0z"/>
		<g id="XMLID_14_">
			<path id="XMLID_22_" d="M7.5,3.7c2.1,0,3.8,1.7,3.8,3.8s-1.7,3.8-3.8,3.8S3.7,9.6,3.7,7.5S5.4,3.7,7.5,3.7 M7.5,3C5,3,3,5,3,7.5
				S5,12,7.5,12S12,10,12,7.5S10,3,7.5,3L7.5,3z"/>
		</g>
		<polygon id="XMLID_13_" points="6,2 7.5,0 9,2 "/>
		<polygon id="XMLID_12_" points="6,13 7.5,15 9,13 "/>
		<polygon id="XMLID_8_" points="2,9 0,7.5 2,6 "/>
		<polygon id="XMLID_7_" points="13,9 15,7.5 13,6 "/>
		<polyline id="XMLID_6_" points="2,10.5 2,13 4.5,13 "/>
		<polyline id="XMLID_5_" points="13,10.5 13,13 10.5,13 "/>
		<polyline id="XMLID_4_" points="2,4.6 2,2.1 4.5,2.1 "/>
		<polyline id="XMLID_3_" points="13,4.6 13,2.1 10.5,2.1 "/>
	</svg>
	<!--1-39.svg-->
	<svg x="760" y="0">
		<style type="text/css">
			.st1_39_0{fill:none;}
		</style>
		<path id="XMLID_7_" class="st1_39_0" d="M0,0h16v16H0V0z"/>
		<g id="XMLID_2_">
			<path id="XMLID_15_" d="M11.4,0.7C10.1,2.3,9.3,4.9,9.3,8s0.8,5.7,2.1,7.3C7.6,15,4.7,11.8,4.7,8S7.6,1,11.4,0.7 M12,0
				C7.6,0,4,3.6,4,8s3.6,8,8,8c0.5,0,0.9,0,1.3-0.1C11.4,15.2,10,12,10,8s1.4-7.2,3.3-7.9C12.9,0,12.5,0,12,0L12,0z"/>
		</g>
	</svg>
	<!--1-40.svg-->
	<svg x="780" y="0">
		<style type="text/css">
			.st1_40_0{fill:none;}
		</style>
		<path id="XMLID_4_" class="st1_40_0" d="M-0.1,0h16v16h-16V8C-0.1,8-0.1,0-0.1,0z"/>
		<path id="XMLID_2_" d="M9.5,14c-0.9,0-1.1-0.3-1.8-0.7c-0.4-0.2-0.8-0.1-0.8-0.8c-1,0.9-3.7,0.7-4.7-0.2c-0.9-0.8-0.2-1.4,0.4-2
			c-5.6-0.4-0.9-7.9,1.5-6C4.2,2.7,5.1,2,6.6,2c0.9,0,2.7,0.3,2.5,1.5c0.5-0.2,1-0.4,1.6-0.3c0.3,0.1,0.5,0.2,0.7,0.4
			c0.2-0.1,0.4-0.2,0.6-0.2c0.7-0.2,1.4-0.6,2.2-0.5c2.2,0.3,2.2,3.2,0.4,4c0.8,0.2,0.9,0.6,1.1,1.2c0.2,0.7,0.4,1.2,0.3,2.1
			c-0.3,1.4-3.8,4.5-3.8,1.4C12.3,13.7,11.1,14,9.5,14z M7.6,12.6c0.6,0.2,0.8,0.6,1.4,0.7c0.5,0.2,1.4,0.1,1.9-0.1
			c0.4-0.2,0.6-0.5,0.7-1.2c0.1-0.6-0.3-0.9-0.2-1.8c1.1,0.4,1.5,2.9,3.1,1.2c1-1.1,0.9-2.7,0.3-3.3c-0.2-0.2-0.7-0.4-1-0.5
			c-0.3-0.1-0.7-0.3-1-0.4c1-0.5,2.6-0.8,2.4-2.2c-0.3-1.7-1.8-1.3-2.9-0.8c-0.6,0.2-1.2,0.3-1.3,0.2C10.8,4.3,10.7,4,10.4,4
			C9.7,3.7,8.2,4.8,7.5,5.1c0.2-0.4,0.8-0.9,0.8-1.3c0.2-1-1.2-1.1-2-1c-2,0-1.7,2-0.9,3.1C4.7,5.6,3.9,5,3.1,4.9
			C2.5,4.6,1.8,5.5,1.5,6C1,6.9,0,8.4,1.2,9.2C2,9.8,3.3,9.6,4.3,9.6c-0.5,0.5-2.2,1.6-1.5,2.2c0.5,0.5,2.3,0.7,2.9,0.6
			c1-0.2,1.3-1.5,1.9-2.3C8.2,10.9,7.7,11.6,7.6,12.6C7.7,12.6,7.6,12.4,7.6,12.6z"/>
	</svg>
	<!--1-41.svg-->
	<svg x="800" y="0">
		<style type="text/css">
			.st1_41_0{fill:none;}
			.st1_41_1{display:none;fill:none;stroke:#808184;stroke-width:0.5;stroke-linecap:round;stroke-linejoin:bevel;stroke-miterlimit:10;}
			.st1_41_2{display:none;fill:none;stroke:#808184;stroke-miterlimit:10;}
		</style>
		<path id="XMLID_16_" class="st1_41_0" d="M0,0h16v16H0V8V0z"/>
		<line id="XMLID_15_" class="st1_41_1" x1="4.8" y1="0.8" x2="0.8" y2="4.8"/>
		<polyline id="XMLID_14_" class="st1_41_2" points="0.5,5 0.5,0.5 5,0.5 "/>
		<path id="XMLID_11_" d="M0,0v5h1v0l4-4l0,0V0H0z M1,4V1h3L1,4z"/>
		<path id="XMLID_8_" d="M11,0v1l0,0l4,4v0h1V0L11,0z M12,1h3v3L12,1z"/>
		<path id="XMLID_5_" d="M5,16v-1l0,0l-4-4v0H0v5H5z M4,15H1v-3L4,15z"/>
		<path id="XMLID_2_" d="M16,16v-5h-1v0l-4,4l0,0v1H16z M15,12v3h-3L15,12z"/>
	</svg>
	<!--1-42.svg-->
	<svg x="820" y="0">
		<style type="text/css">
			.st1_42_0{fill:none;}
		</style>
		<path id="XMLID_14_" class="st1_42_0" d="M0,0h16v16H0V8V0z"/>
		<path id="XMLID_11_" d="M5,16v-1v-1l0,0l-3-3l0,0H1H0v5H5z M4,14L4,14v1H1v-3h1l0,0L4,14z"/>
		<path id="XMLID_8_" d="M16,16v-5h-1h-1l0,0l-3,3l0,0v1v1H16z M14,12L14,12h1v3h-3v-1l0,0L14,12z"/>
		<path id="XMLID_5_" d="M0,0v5h1h1l0,0l3-3l0,0V1V0H0z M2,4L2,4H1V1h3v1l0,0L2,4z"/>
		<path id="XMLID_2_" d="M11,0v1v1l0,0l3,3l0,0h1h1V0L11,0z M12,2L12,2V1h3v3h-1l0,0L12,2z"/>
	</svg>
	<!--1-43.svg-->
	<svg x="840" y="0">
		<style type="text/css">
			.st1_43_0{fill:none;}
		</style>
		<path id="XMLID_32_" class="st1_43_0" d="M0,0h16v16H0V8V0z"/>
		<g id="XMLID_17_">
			<path id="XMLID_37_" d="M4,12v3H1v-3H4 M5,11H0v5h5V11L5,11z"/>
		</g>
		<g id="XMLID_12_">
			<path id="XMLID_33_" d="M15,12v3h-3v-3H15 M16,11h-5v5h5V11L16,11z"/>
		</g>
		<g id="XMLID_7_">
			<path id="XMLID_29_" d="M4,1v3H1V1H4 M5,0H0v5h5V0L5,0z"/>
		</g>
		<g id="XMLID_2_">
			<path id="XMLID_25_" d="M15,1v3h-3V1H15 M16,0h-5v5h5V0L16,0z"/>
		</g>
	</svg>
	<!--1-44.svg-->
	<svg x="860" y="0">
		<style type="text/css">
			.st1_44_0{fill:none;}
			.st1_44_1{fill:none;stroke:#808184;stroke-width:0.7;stroke-miterlimit:10;}
		</style>
		<path id="XMLID_4_" class="st1_44_0" d="M0,0h16v16H0V8V0z"/>
		<path id="XMLID_3_" class="st1_44_1" d="M1,1c7.2,0,13,6.3,13,14"/>
	</svg>
	<!--1-45.svg-->
	<svg x="880" y="0">
		<style type="text/css">
			.st1_45_0{fill:none;}
			.st1_45_1{display:none;}
			.st1_45_2{display:inline;}
		</style>
		<path id="XMLID_9_" class="st1_45_0" d="M0,0h16v16H0V8V0z"/>
		<g id="XMLID_4_" class="st1_45_1">
			<path id="XMLID_14_" class="st1_45_2" d="M12,1c1.1,0,2,0.9,2,2v9c0,1.1-0.9,2-2,2h-2V1H12 M12,0H9v15h3c1.7,0,3-1.3,3-3V3
				C15,1.3,13.7,0,12,0L12,0z"/>
		</g>
		<path id="XMLID_3_" d="M12,0h-2v1h2c1.1,0,2,0.9,2,2v9c0,1.1-0.9,2-2,2h-2v1h2c1.7,0,3-1.3,3-3V3C15,1.3,13.7,0,12,0z"/>
		<path id="XMLID_2_" d="M4,0l2,0v1H4C2.9,1,2,1.9,2,3v9c0,1.1,0.9,2,2,2h2v1H4c-1.7,0-3-1.3-3-3V3C1,1.3,2.3,0,4,0z"/>
	</svg>
	<!--1-46.svg-->
	<svg x="900" y="0">
		<style type="text/css">
			.st1_46_0{fill:none;}
		</style>
		<path id="XMLID_4_" class="st1_46_0" d="M0,0h16v16H0V8V0z"/>
		<path id="XMLID_3_" d="M7,14H6c-1.1,0-2-0.9-2-2V9V8.4L3.4,8.1L2.2,7.5l1.2-0.6L4,6.6V6V3c0-1.1,0.9-2,2-2h1V0H6C4.3,0,3,1.3,3,3v3
			L0,7.5L3,9v3c0,1.7,1.3,3,3,3h1V14z"/>
		<path id="XMLID_2_" d="M9,14h1c1.1,0,2-0.9,2-2V9V8.4l0.6-0.3l1.2-0.6l-1.2-0.6L12,6.6V6V3c0-1.1-0.9-2-2-2H9V0l1,0c1.7,0,3,1.3,3,3
			v3l3,1.5L13,9v3c0,1.7-1.3,3-3,3H9V14z"/>
	</svg>
	<!--1-47.svg-->
	<svg x="920" y="0">
		<style type="text/css">
			.st1_47_0{fill:none;}
		</style>
		<path id="XMLID_3_" class="st1_47_0" d="M0,0h16v16H0V8V0z"/>
		<path id="XMLID_2_" d="M8,0l2,0v1H8C6.9,1,6,1.9,6,3v9c0,1.1,0.9,2,2,2h2v1H8c-1.7,0-3-1.3-3-3V3C5,1.3,6.3,0,8,0z"/>
	</svg>
	<!--1-48.svg-->
	<svg x="940" y="0">
		<style type="text/css">
			.st1_48_0{fill:none;}
		</style>
		<path id="XMLID_3_" class="st1_48_0" d="M0,0h16v16H0V8V0z"/>
		<path id="XMLID_2_" d="M7,0H5v1h2c1.1,0,2,0.9,2,2v9c0,1.1-0.9,2-2,2H5v1h2c1.7,0,3-1.3,3-3V3C10,1.3,8.7,0,7,0z"/>
	</svg>
	<!--1-49.svg-->
	<svg x="960" y="0">
		<style type="text/css">
			.st1_49_0{fill:none;}
		</style>
		<path id="XMLID_5_" class="st1_49_0" d="M0,0h16v16H0V8V0z"/>
		<path id="XMLID_4_" d="M11,14h-1c-1.1,0-2-0.9-2-2V9V8.4L7.4,8.1L6.2,7.5l1.2-0.6L8,6.6V6V3c0-1.1,0.9-2,2-2h1V0h-1C8.3,0,7,1.3,7,3
			v3L4,7.5L7,9v3c0,1.7,1.3,3,3,3h1V14z"/>
	</svg>
	<!--1-50.svg-->
	<svg x="980" y="0">
		<style type="text/css">
			.st1_50_0{fill:none;}
		</style>
		<path id="XMLID_3_" class="st1_50_0" d="M0,0h16v16H0V8V0z"/>
		<path id="XMLID_2_" d="M5,14h1c1.1,0,2-0.9,2-2V9V8.4l0.6-0.3l1.2-0.6L8.6,6.9L8,6.6V6V3c0-1.1-0.9-2-2-2H5V0l1,0c1.7,0,3,1.3,3,3v3
			l3,1.5L9,9v3c0,1.7-1.3,3-3,3H5V14z"/>
	</svg>
	<!--2-1.svg-->
	<svg x="0" y="20">
		<style type="text/css">
			.st2_1_0{fill:none;}
			.st2_1_1{fill:none;stroke:#808184;stroke-width:0.8;stroke-linecap:square;stroke-miterlimit:10;}
		</style>
		<path class="st2_1_0" d="M0,0h16v16H0V0z"/>
		<line class="st2_1_1" x1="1.5" y1="1.5" x2="14.5" y2="14.5"/>
	</svg>
	<!--2-2.svg-->
	<svg x="20" y="20">
		<style type="text/css">
			.st2_2_0{fill:none;}
			.st2_2_1{fill:none;stroke:#808184;stroke-width:0.8;stroke-linecap:square;stroke-miterlimit:10;}
		</style>
		<path class="st2_2_0" d="M0,0h16v16H0V0z"/>
		<line class="st2_2_1" x1="1.5" y1="1.5" x2="13" y2="13"/>
		<g>
			<polygon points="14,10 14.5,14.5 10,14 	"/>
		</g>
	</svg>
	<!--2-3.svg-->
	<svg x="40" y="20">
		<style type="text/css">
			.st2_3_0{fill:none;}
			.st2_3_1{fill:none;stroke:#808184;stroke-width:0.8;stroke-linecap:square;stroke-miterlimit:10;}
		</style>
		<path class="st2_3_0" d="M0,0h16v16H0V0z"/>
		<line class="st2_3_1" x1="3" y1="3" x2="13" y2="13"/>
		<g>
			<polygon points="14,10 14.5,14.5 10,14 	"/>
		</g>
		<g>
			<polygon points="2,6 1.5,1.5 6,2 	"/>
		</g>
	</svg>
	<!--2-4.svg-->
	<svg x="60" y="20">
		<style type="text/css">
			.st2_4_0{fill:none;}
		</style>
		<path class="st2_4_0" d="M0,0h16v16H0V0z"/>
		<polygon points="8,13 8,1 0,1 0,2 7,2 7,14 15,14 15,13 8,13 "/>
	</svg>
	<!--2-5.svg-->
	<svg x="80" y="20">
		<style type="text/css">
			.st2_5_0{fill:none;}
		</style>
		<path class="st2_5_0" d="M0-0.1h16v16H0V-0.1z"/>
		<polygon points="15,13.4 11,11.4 11,12.9 8,12.9 8,0.9 0,0.9 0,1.9 7,1.9 7,13.9 11,13.9 11,15.4 "/>
	</svg>
	<!--2-6.svg-->
	<svg x="100" y="20">
		<style type="text/css">
			.st2_6_0{fill:none;}
		</style>
		<path class="st2_6_0" d="M0-0.1h16v16H0V-0.1z"/>
		<polygon points="15,13.4 11,11.4 11,12.9 8,12.9 8,1.9 4,1.9 4,0.5 0,2.5 4,4.5 4,2.9 7,2.9 7,13.9 11,13.9 11,15.4 "/>
	</svg>
	<!--2-7.svg-->
	<svg x="120" y="20">
		<style type="text/css">
			.st2_7_0{fill:none;}
		</style>
		<path class="st2_7_0" d="M0,0h16v16H0V0z"/>
		<path d="M8,13c-0.9,0-1.6-0.8-1.6-2.2c0-1.1,0.6-1.9,1.8-2.5c1.4-0.7,2.2-1.7,2.2-3.1C10.3,3.4,9.3,2,8,2H2v1h6
			c0.9,0,1.7,0.8,1.7,2.2c0,1.1-0.6,1.9-1.8,2.5C6.9,8.1,5.6,9,5.6,10.8C5.6,12.6,6.7,14,8,14h6v-1H8z"/>
	</svg>
	<!--2-8.svg-->
	<svg x="140" y="20">
		<style type="text/css">
			.st2_8_0{fill:none;}
		</style>
		<path class="st2_8_0" d="M0,0h16v16H0V0z"/>
		<path d="M11,11.5V13H8c-0.9,0-1.6-0.8-1.6-2.2c0-1.1,0.6-1.9,1.8-2.5c1.4-0.7,2.2-1.7,2.2-3.1C10.3,3.4,9.3,2,8,2H2v1h6
			c0.9,0,1.7,0.8,1.7,2.2c0,1.1-0.6,1.9-1.8,2.5C6.9,8.1,5.6,9,5.6,10.8C5.6,12.6,6.7,14,8,14h3v1.5l4-2"/>
	</svg>
	<!--2-9.svg-->
	<svg x="160" y="20">
		<style type="text/css">
			.st2_9_0{fill:none;}
		</style>
		<path class="st2_9_0" d="M0,0h16v16H0V0z"/>
		<path d="M15,13.5L14,13v0h0l-3-1.5V13H8c-0.9,0-1.6-0.8-1.6-2.2c0-1.1,0.6-1.9,1.8-2.5c1.4-0.7,2.2-1.7,2.2-3.1C10.3,3.4,9.3,2,8,2
			H5V0.5L2,2h0v0L1,2.5l4,2V3h3c0.9,0,1.7,0.8,1.7,2.2c0,1.1-0.6,1.9-1.8,2.5C6.9,8.1,5.6,9,5.6,10.8C5.6,12.6,6.7,14,8,14h3v1.5
			L15,13.5z"/>
	</svg>
	<!--2-10.svg-->
	<svg x="180" y="20">
		<style type="text/css">
			.st2_10_0{fill:none;}
		</style>
		<path class="st2_10_0" d="M0,0h16v16H0V0z"/>
		<path d="M4.5,13C2.6,13,1,11.4,1,9.5v-4C1,3,3,1,5.5,1h3v1h-3C3.6,2,2,3.6,2,5.5v4C2,10.9,3.1,12,4.5,12S7,10.9,7,9.5l0,0
			C7.2,7.5,9,6,11,6c2.2,0,4,1.8,4,4c0,1.1-0.4,2.1-1.2,2.8l-0.7-0.7c0.6-0.6,0.9-1.3,0.9-2.1c0-1.7-1.3-3-3-3s-3,1.3-3,3l0,0
			C7.7,11.7,6.3,13,4.5,13z"/>
	</svg>
	<!--2-11.svg-->
	<svg x="200" y="20">
		<style type="text/css">
			.st2_11_0{fill:none;}
		</style>
		<path class="st2_11_0" d="M0,0h16v16H0V0z"/>
		<path d="M11,7l-0.2-2c0-1.1,1.1-2.5,2.2-2.5L13.5,2l0,0H13c-1.7,0-3,1.3-3,3v2"/>
		<path d="M10,7v1h1l3,0l0.2,2c0,1.1-1.1,2.3-2.2,2.3L2,12V6.5L5.5,3h2.3h3.3H11l2-1H5.5L1,6.5V13h11c1.7,0,3-1.3,3-3V7l-4,0H10z"/>
	</svg>
	<!--2-12.svg-->
	<svg x="220" y="20">
		<style type="text/css">
			.st2_12_0{display:none;}
			.st2_12_1{display:inline;fill:none;}
			.st2_12_2{display:inline;}
			.st2_12_3{fill:none;}
			.st2_12_4{fill:none;stroke:#808184;stroke-miterlimit:10;}
		</style>
		<g id="Layer_1" class="st2_12_0">
			<path id="XMLID_5_" class="st2_12_1" d="M0,0h16v16H0V0z"/>
			<path id="XMLID_2_" class="st2_12_2" d="M1,0v15h15L1,0z M2,14V2l12,12H2z"/>
		</g>
		<g id="Layer_2" class="st2_12_0">
			<path id="XMLID_11_" class="st2_12_1" d="M0,0h16v16H0V0z"/>
			<g id="XMLID_6_" class="st2_12_2">
				<path id="XMLID_19_" d="M2,2.4L13.6,14H2V2.4 M1,0v15h15L1,0L1,0z"/>
			</g>
		</g>
		<g id="Layer_3" class="st2_12_0">
			<path id="XMLID_13_" class="st2_12_1" d="M0,0h16v16H0V0z"/>
			<g id="XMLID_7_" class="st2_12_2">
				<path id="XMLID_25_" d="M14.7,2l-3.4,12H1.3L4.8,2H14.7 M16,1H4L0,15h12L16,1L16,1z"/>
			</g>
		</g>
		<g id="Layer_4" class="st2_12_0">
			<path id="XMLID_16_" class="st2_12_1" d="M0,0h16v16H0V0z"/>
			<g id="XMLID_8_" class="st2_12_2">
				<path id="XMLID_31_" d="M12.6,2L15,4.4V13H1V3.4L2.4,2H12.6 M13,1H2L0,3v11h16V4L13,1L13,1z"/>
			</g>
		</g>
		<g id="Layer_5">
			<path id="XMLID_14_" class="st2_12_3" d="M0,0h16v16H0V0z"/>
			<path id="XMLID_17_" d="M8.5,12.5l-2-2L12.9,4c0.6-0.6,1.5-0.6,2.1,0l0,0c0.6,0.6,0.6,1.5,0,2.1L8.5,12.5z"/>
			<polyline id="XMLID_10_" points="7,14 5,14 5,12 	"/>
			<path id="XMLID_9_" class="st2_12_4" d="M7,14.5H5c-0.8,0-1.5-0.7-1.5-1.5V7.5c0-0.7,0.4-1,1-1h0c0.6,0,1,0.3,1,1v1c0,0.6-0.3,1-1,1h-2
				c-0.3,0-1-0.6-1-1v-2c0-0.8,0.5-1.3,0.7-1.4C2.5,5,3,4.6,3.3,4.4c0.2-0.2,1.3-1.3,1.3-1.9v-1c0-0.7-0.4-1-1-1h-1c-0.7,0-1,0.5-1,1
				v1"/>
		</g>
	</svg>
	<!--3-1.svg-->
	<svg x="0" y="40">
		<style type="text/css">
			.st3_1_0{fill:none;}
		</style>
		<path class="st3_1_0" d="M0,0h16v16H0V0z"/>
		<g>
			<path d="M15,2v11H1V2H15 M16,1H0v13h16V1L16,1z"/>
		</g>
	</svg>
	<!--3-2.svg-->
	<svg x="20" y="40">
		<style type="text/css">
			.st3_2_0{fill:none;}
		</style>
		<path class="st3_2_0" d="M0,0h16v16H0V0z"/>
		<path d="M12.5,1h-9C1.6,1,0,2.6,0,4.5v6C0,12.4,1.6,14,3.5,14h9c1.9,0,3.5-1.6,3.5-3.5v-6C16,2.6,14.4,1,12.5,1z M13.7,13H2.3
			c-0.5-0.3-1-0.7-1.3-1.3V3.3c0.3-0.5,0.7-1,1.3-1.3h11.5c0.5,0.3,1,0.7,1.3,1.3v8.5C14.7,12.3,14.3,12.7,13.7,13z"/>
	</svg>
	<!--3-3.svg-->
	<svg x="40" y="40">
		<style type="text/css">
			.st3_3_0{fill:none;}
		</style>
		<path class="st3_3_0" d="M0,0h16v16H0V0z"/>
		<path d="M12,1L12,1L12,1L1,1H0v1v11v1h1h14h1v-1V5L12,1z M15,5L15,5l0,8H1V2h11v0L15,5z"/>
	</svg>
	<!--3-4.svg-->
	<svg x="60" y="40">
		<style type="text/css">
			.st3_4_0{fill:none;}
		</style>
		<path class="st3_4_0" d="M0,0h16v16H0V0z"/>
		<path d="M13,1L13,1H3h0v0L0,4v9v1h1h14h1v-1V4L13,1z M3,2L3,2l10,0v0l2,2h0v9H1V4h0L3,2z"/>
	</svg>
	<!--3-5.svg-->
	<svg x="80" y="40">
		<style type="text/css">
			.st3_5_0{fill:none;}
		</style>
		<path class="st3_5_0" d="M0,0h16v16H0V0z"/>
		<path d="M13,1L13,1L13,1L1,1H0v1v9l3,3v0h0h12h1v-1V4L13,1z M1,11L1,11l0-9h12v0l2,2h0v9H3v0L1,11z"/>
	</svg>
	<!--3-6.svg-->
	<svg x="100" y="40">
		<style type="text/css">
			.st3_6_0{fill:none;}
		</style>
		<path class="st3_6_0" d="M0,0h16v16H0V0z"/>
		<path d="M13,1L13,1L13,1L3.5,1C1.6,1,0,2.6,0,4.5V13v1h0h1h14h1v-1V4L13,1z M1.5,2.5C1.7,2.3,2,2.1,2.3,2H13v0l2,2h0v9H1V3.3
			C1.1,3,1.3,2.7,1.5,2.5z"/>
	</svg>
	<!--3-7.svg-->
	<svg x="120" y="40">
		<style type="text/css">
			.st3_7_0{fill:none;}
		</style>
		<path class="st3_7_0" d="M0,0h16v16H0V0z"/>
		<path d="M0,1v12v1h16v-1V4.5C16,2.6,14.4,1,12.5,1 M15,13H1V2h12.7c0.5,0.3,1,0.7,1.3,1.3V13z"/>
	</svg>
	<!--3-8.svg-->
	<svg x="140" y="40">
		<style type="text/css">
			.st3_8_0{fill:none;}
		</style>
		<path class="st3_8_0" d="M0,0h16v16H0V0z"/>
		<path d="M12.5,1h-9C1.6,1,0,2.6,0,4.5V13v1h16v-1V4.5C16,2.6,14.4,1,12.5,1z M1,13V3.3c0.3-0.5,0.7-1,1.3-1.3h11.5
			c0.5,0.3,1,0.7,1.3,1.3V13H1z"/>
	</svg>
	<!--3-9.svg-->
	<svg x="160" y="40">
		<style type="text/css">
			.st3_9_0{fill:none;}
		</style>
		<path class="st3_9_0" d="M0,0h16v16H0V0z"/>
		<path d="M15,1H3.5C1.6,1,0,2.6,0,4.5V13v1h1h11.5c1.9,0,3.5-1.6,3.5-3.5V2V1H15z M15,11.7c-0.3,0.5-0.7,1-1.3,1.3H1V3.3
			c0.3-0.5,0.7-1,1.3-1.3H15V11.7z"/>
	</svg>
	<!--4-1.svg-->
	<svg x="0" y="60">
		<style type="text/css">
			.st4_1_0{fill:none;}
		</style>
		<path class="st4_1_0" d="M0,0h16v16H0V0z"/>
		<path d="M7,15l8-7.5L7,0v4H0v7h7V15z M1,10V5h7V1.9l6,5.6l-6,5.6V10H1z"/>
	</svg>
	<!--4-2.svg-->
	<svg x="20" y="60">
		<style type="text/css">
			.st4_2_0{fill:none;}
		</style>
		<path class="st4_2_0" d="M0,0h16v16H0V0z"/>
		<path d="M9,11h7V4H9V0L1,7.5L9,15V11z M8,10v3.1L2,7.5l6-5.6V5h7v5H8z"/>
	</svg>
	<!--4-3.svg-->
	<svg x="40" y="60">
		<style type="text/css">
			.st4_3_0{fill:none;}
		</style>
		<path class="st4_3_0" d="M0,0h16v16H0V0z"/>
		<path d="M4,8v8h7V8h4L7.5,0L0,8H4z M5,7H1.9l5.6-6l5.6,6H10v8H5V7z"/>
	</svg>
	<!--4-4.svg-->
	<svg x="60" y="60">
		<style type="text/css">
			.st4_4_0{fill:none;}
		</style>
		<path class="st4_4_0" d="M0,0h16v16H0V0z"/>
		<path d="M0,8l7.5,8L15,8h-4V0L4,0v8H0z M5,1h5v8h3.1l-5.6,6L1.9,9H5V1z"/>
	</svg>
	<!--4-5.svg-->
	<svg x="80" y="60">
		<style type="text/css">
			.st4_5_0{fill:none;}
		</style>
		<path class="st4_5_0" d="M0,0h16v16H0V0z"/>
		<path d="M11,15l5-7.5L11,0v1.8V4H5V1.8V0L0,7.5L5,15v-1.8V11h6v2.3V15z M5,10H4v1v1.2L0.8,7.5L4,2.8V4v1h1h6h1V4V2.8l3.2,4.7
			L12,12.2V11v-1h-1H5z"/>
	</svg>
	<!--4-6.svg-->
	<svg x="100" y="60">
		<style type="text/css">
			.st4_6_0{fill:none;}
		</style>
		<path class="st4_6_0" d="M0,0h16v16H0V0z"/>
		<path d="M0,11l7.5,5l7.5-5h-1.8H11V5h2.3H15L7.5,0L0,5h1.8H4v6H1.8H0z M5,5V4H4H2.8l4.7-3.2L12.2,4H11h-1v1v6v1h1h1.2l-4.7,3.2
			L2.8,12H4h1v-1V5z"/>
	</svg>
	<!--4-7.svg-->
	<svg x="120" y="60">
		<style type="text/css">
			.st4_7_0{fill:none;}
		</style>
		<path class="st4_7_0" d="M0,0h16v16H0V0z"/>
		<path d="M11,10.5l4-3l-4-3v1.3V6H9V4h0.3h1.3l-3-4l-3,4h1.3H6v2H4V5.8V4.5l-4,3l4,3V9.3V9h2v2H5.8H4.5l3,4l3-4H9.3H9V9h2v0.3V10.5z
			 M9,8H8v1v2v1h0.9l-1.4,1.8L6.1,12H7v-1V9V8H6H4H3v0.9L1.2,7.5L3,6.1V7h1h2h1V6V4V3H6.1l1.4-1.8L8.9,3H8v1v2v1h1h2h1V6.1l1.8,1.4
			L12,8.9V8h-1H9z"/>
	</svg>
	<!--4-8.svg-->
	<svg x="140" y="60">
		<style type="text/css">
			.st4_8_0{fill:none;}
		</style>
		<path class="st4_8_0" d="M0,0h16v16H0V0z"/>
		<path d="M12,15l4-4l-4-4v1.5V9h-2V5h0.5H12L8,1L4,5h1.5H6v4H4V8.5V7l-4,4l4,4v-1.5V13h2h4h2v0.5V15z M10,12H9H7H6H4H3v1v0l-2-2l2-2
			v0v1h1h2h1V9V5V4H6h0l2-2l2,2h0H9v1v4v1h1h2h1V9v0l2,2l-2,2v0v-1h-1H10z"/>
	</svg>
	<!--4-9.svg-->
	<svg x="160" y="60">
		<style type="text/css">
			.st4_9_0{fill:none;}
		</style>
		<path class="st4_9_0" d="M0,0h16v16H0V0z"/>
		<path d="M16,4l-5-4v2H3C1.3,2,0,3.3,0,5v11h4V7c0-0.7,0.3-1,1-1h6v2L16,4z M5,5C3.9,5,3,5.9,3,7v8H1V5c0-1.3,0.7-2,2-2h9V1.7L14.9,4
			L12,6.3V5H5z"/>
	</svg>
	<!--4-10.svg-->
	<svg x="180" y="60">
		<style type="text/css">
			.st4_10_0{fill:none;}
		</style>
		<path class="st4_10_0" d="M0,0h16v16H0V0z"/>
		<path d="M14,7V6c0-2.8-2.2-5-5-5H5C2.2,1,0,3.2,0,6v10h4V7c0-1.3,0.7-2,2-2h2c1.3,0,2,0.7,2,2H8l4,4.5L16,7H14z M12,10.5L10,8h1V6.9
			C11,5.3,9.6,4,8,4H6C4.3,4,3,5.3,3,7v8H1V6c0-2.4,1.6-4,4-4h4c2.4,0,4,1.6,4,4v1.7V8h1L12,10.5z"/>
	</svg>
	<!--4-11.svg-->
	<svg x="200" y="60">
		<style type="text/css">
			.st4_11_0{fill:none;}
		</style>
		<path class="st4_11_0" d="M0,0h16v16H0V0z"/>
		<path d="M11,0.5L7,5h2v4H5V7l-4.5,4L5,15v-2h8V5h2L11,0.5z M10,4H9h0l2-2.5L13,4h0h-1v8H4v1l-2.5-2L4,9v1h6"/>
	</svg>
	<!--4-12.svg-->
	<svg x="220" y="60">
		<style type="text/css">
			.st4_12_0{fill:none;}
		</style>
		<path class="st4_12_0" d="M0,0h16v16H0V0z"/>
		<path d="M11,0.5L7,5h2v4H2H1v4h12V5h2L11,0.5z M12,4v8H2v-2h8V4H9h0l2-2.5L13,4h0H12z"/>
	</svg>
	<!--4-13.svg-->
	<svg x="240" y="60">
		<style type="text/css">
			.st4_13_0{fill:none;}
		</style>
		<g id="XMLID_33_">
			<rect id="XMLID_29_" class="st4_13_0" width="16" height="16"/>
		</g>
		<path id="XMLID_8_" d="M13.5,12L9,8v2C7.2,9.6,5.6,8.6,4.7,7C5.8,5.3,7.8,4.2,10,4h1h1V0h-1h-1C6.1,0.2,3,3.3,3,7c0,3.4,2.6,6.4,6,7
			v2L13.5,12z M10,1h1v2h-1C7.6,3.2,5.6,4.4,4.3,6.3C4.2,6,4.1,5.6,4,5.3C4.7,2.9,7.1,1.2,10,1z M4,8.7c0.1-0.3,0.2-0.7,0.4-1
			C5.4,9.3,7.1,10.6,9,11h1v-1V9.7l2.6,2.3L10,14.3V13H9C6.6,12.5,4.6,10.9,4,8.7z"/>
	</svg>
	<!--4-14.svg-->
	<svg x="260" y="60">
		<style type="text/css">
			.st4_14_0{fill:none;}
		</style>
		<g id="XMLID_33_">
			<rect id="XMLID_18_" class="st4_14_0" width="16" height="16"/>
		</g>
		<path id="XMLID_8_" d="M2.5,12L7,8v2c1.8-0.4,3.4-1.4,4.3-3C10.2,5.3,8.2,4.2,6,4H5H4V0h1h1c3.9,0.2,7,3.3,7,7c0,3.4-2.6,6.4-6,7v2
			L2.5,12z M6,1H5v2h1c2.4,0.2,4.4,1.4,5.7,3.3c0.1-0.3,0.3-0.6,0.4-1C11.3,2.9,8.9,1.2,6,1z M12,8.7c-0.1-0.3-0.2-0.7-0.4-1
			C10.6,9.3,8.9,10.6,7,11H6v-1V9.7L3.4,12L6,14.3V13h1C9.4,12.5,11.4,10.9,12,8.7z"/>
	</svg>
	<!--4-15.svg-->
	<svg x="280" y="60">
		<rect id="XMLID_18_" fill="none" width="16" height="16"/>
		<path id="XMLID_8_" d="M16,7h-2c-0.6,3.4-3.6,6-7,6c-3.7,0-6.8-3.1-7-7l0-2h4v2c0.1,2.2,1.3,4.2,3,5.3c1.6-0.9,2.6-2.5,3-4.3H8
			l4-4.5L16,7z M5.3,12.1c0.4-0.1,0.7-0.3,1-0.4C4.4,10.4,3.2,8.4,3,6V5H1v1C1.2,8.9,2.9,11.3,5.3,12.1z M13,7V6h1.3L12,3.4L9.7,6H11
			v1c-0.4,1.9-1.7,3.6-3.3,4.6c0.3,0.2,0.7,0.3,1,0.4C10.9,11.4,12.5,9.4,13,7z"/>
	</svg>
	<!--4-16.svg-->
	<svg x="300" y="60">
		<rect id="XMLID_18_" fill="none" width="16" height="16"/>
		<path id="XMLID_8_" d="M16,9h-2c-0.6-3.4-3.6-6-7-6c-3.7,0-6.8,3.1-7,7l0,2h4v-2c0.1-2.2,1.3-4.2,3-5.3C8.6,5.6,9.6,7.2,10,9H8
			l4,4.5L16,9z M5.3,3.9C5.7,4,6,4.2,6.3,4.3C4.4,5.6,3.2,7.6,3,10v1H1v-1C1.2,7.1,2.9,4.7,5.3,3.9z M13,9v1h1.3L12,12.6L9.7,10H11V9
			c-0.4-1.9-1.7-3.6-3.3-4.6C8,4.2,8.4,4.1,8.7,4C10.9,4.6,12.5,6.6,13,9z"/>
	</svg>
	<!--4-17.svg-->
	<svg x="320" y="60">
		<style type="text/css">
			.st4_17_0{fill:none;}
		</style>
		<g id="XMLID_33_">
			<rect id="XMLID_18_" class="st4_17_0" width="16" height="16"/>
		</g>
		<rect id="XMLID_16_" y="4" width="1" height="7"/>
		<rect id="XMLID_17_" x="2" y="4" width="1" height="7"/>
		<path id="XMLID_7_" d="M16,7.5L8,0v4H4v7h4v4L16,7.5z M5,10V5h4V1.8l6,5.7l-6,5.7V10H5z"/>
	</svg>
	<!--4-18.svg-->
	<svg x="340" y="60">
		<style type="text/css">
			.st4_18_0{fill:none;}
		</style>
		<g id="XMLID_33_">
			<rect id="XMLID_18_" class="st4_18_0" width="16" height="16"/>
		</g>
		<path id="XMLID_6_" d="M16,7.5L8,0v4H0l3,3.5L0,11h8v4L16,7.5z M1.7,10l2.3-2.5L1.7,5H9V1.8l6,5.7l-6,5.7V10H1.7z"/>
	</svg>
	<!--4-19.svg-->
	<svg x="360" y="60">
		<style type="text/css">
			.st4_19_0{fill:none;}
		</style>
		<g id="XMLID_33_">
			<rect id="XMLID_18_" class="st4_19_0" width="16" height="16"/>
		</g>
		<path id="XMLID_8_" d="M10,3H0v11h10l6-5.5L10,3z M1,13V4h9l5,4.5L10,13H1z"/>
	</svg>
	<!--4-20.svg-->
	<svg x="380" y="60">
		<style type="text/css">
			.st4_20_0{fill:none;}
		</style>
		<g id="XMLID_33_">
			<rect id="XMLID_18_" class="st4_20_0" width="16" height="16"/>
		</g>
		<path id="XMLID_9_" d="M8,3H2v1l5,4.5L2,13v1h6l6-5.5L8,3z M8,13H3l5-4.5L3,4h5l5,4.5L8,13z"/>
	</svg>
	<!--4-21.svg-->
	<svg x="400" y="60">
		<style type="text/css">
			.st4_21_0{fill:none;}
		</style>
		<g id="XMLID_33_">
			<rect id="XMLID_18_" class="st4_21_0" width="16" height="16"/>
		</g>
		<path id="XMLID_8_" d="M16,7.5L12,2v3h-2V0H0v15h10v-5h2v3L16,7.5z M9,9v5H1V1h8v5h4V4.8l2,2.7l-2,2.7V9H9z"/>
	</svg>
	<!--4-22.svg-->
	<svg x="420" y="60">
		<style type="text/css">
			.st4_22_0{fill:none;}
		</style>
		<g id="XMLID_33_">
			<rect id="XMLID_17_" class="st4_22_0" width="16" height="16"/>
		</g>
		<path id="XMLID_8_" d="M7.5,16l5.5-4h-3v-2h5V0H0v10h5v2H2L7.5,16z M6,9H1V1h13v8H9v4h1.2l-2.7,2l-2.7-2H6V9z"/>
	</svg>
	<!--4-23.svg-->
	<svg x="440" y="60">
		<style type="text/css">
			.st4_23_0{fill:none;}
		</style>
		<g id="XMLID_33_">
			<rect id="XMLID_18_" class="st4_23_0" width="16" height="16"/>
		</g>
		<path id="XMLID_8_" d="M0,7.5L4,2v3h2V0h10v15H6v-5H4v3L0,7.5z M7,9v5h8V1H7v5H3V4.8L1,7.5l2,2.7V9H7z"/>
	</svg>
	<!--4-24.svg-->
	<svg x="460" y="60">
		<style type="text/css">
			.st4_24_0{fill:none;}
		</style>
		<g id="XMLID_33_">
			<rect id="XMLID_17_" class="st4_24_0" width="16" height="16"/>
		</g>
		<path id="XMLID_8_" d="M7.5,0L13,4h-3v2h5v10H0V6h5V4H2L7.5,0z M6,7H1v8h13V7H9V3h1.2L7.5,1L4.8,3H6V7z"/>
	</svg>
	<!--4-25.svg-->
	<svg x="480" y="60">
		<style type="text/css">
			.st4_25_0{fill:none;}
		</style>
		<g id="XMLID_33_">
			<rect id="XMLID_17_" class="st4_25_0" width="16" height="16"/>
		</g>
		<g id="XMLID_5_">
			<path id="XMLID_27_" d="M16,8l-3-4v2h-1V1H4v5H3V4L0,8l3,4v-2h1v5h8v-5h1v2L16,8z M11,9v5H5V9H2v0.6L0.8,8L2,6.4V7h3V2h6v5h3V6.4
				L15.2,8L14,9.6V9H11z"/>
		</g>
	</svg>
	<!--4-26.svg-->
	<svg x="500" y="60">
		<style type="text/css">
			.st4_26_0{fill:none;}
		</style>
		<g id="XMLID_33_">
			<rect id="XMLID_17_" class="st4_26_0" width="16" height="16"/>
		</g>
		<g id="XMLID_5_">
			<path id="XMLID_27_" d="M8,16l4-3h-2v-1h5V4h-5V3h2L8,0L4,3h2v1H1v8h5v1H4L8,16z M7,11H2V5h5V2H6.4L8,0.8L9.6,2H9v3h5v6H9v3h0.6
				L8,15.2L6.4,14H7V11z"/>
		</g>
	</svg>
	<!--4-27.svg-->
	<svg x="520" y="60">
		<style type="text/css">
			.st4_27_0{fill:none;}
		</style>
		<g id="XMLID_33_">
			<rect id="XMLID_17_" class="st4_27_0" width="16" height="16"/>
		</g>
		<g id="XMLID_13_">
			<path id="XMLID_27_" d="M16,8l-3-4v2h-1V4h-2V3h2L8,0L4,3h2v1H4v2H3V4L0,8l3,4v-2h1v2h2v1H4l4,3l4-3h-2v-1h2v-2h1v2L16,8z M11,9v2
				H9v3h0.6L8,15.2L6.4,14H7v-3H5V9H2v0.6L0.8,8L2,6.4V7h3V5h2V2H6.4L8,0.8L9.6,2H9v3h2v2h3V6.4L15.2,8L14,9.6V9H11z"/>
		</g>
	</svg>
	<!--4-28.svg-->
	<svg x="540" y="60">
		<style type="text/css">
			.st4_28_0{fill:none;}
		</style>
		<g id="XMLID_33_">
			<rect id="XMLID_17_" class="st4_28_0" width="16" height="16"/>
		</g>
		<path id="XMLID_13_" d="M14,10V9c0-3.9-3.1-7-7-7S0,5.1,0,9v1v1h4v-1V9c0-1.8,1.2-3.3,3-3.3s3,1.5,3,3.3v1H8l4,4l4-4H14z M9.9,11H11
			V9c0-2.2-1.8-4-4-4S3,6.8,3,9v1H1V9c0-3.5,2.5-6.3,6-6.3s6,2.8,6,6.3v2h1h0.1L12,13.1L9.9,11z"/>
	</svg>
	<!--4-29.svg-->
	<svg x="560" y="60">
		<style type="text/css">
			.st4_29_0{fill:none;}
		</style>
		<g id="XMLID_33_">
			<rect id="XMLID_17_" class="st4_29_0" width="16" height="16"/>
		</g>
		<path id="XMLID_13_" d="M16,6l-4-4L8,6h2v1c0,1.8-1.2,3.3-3,3.3S4,8.8,4,7V6V5H0v1v1c0,3.9,3.1,7,7,7s7-3.1,7-7V6H16z M12,2.9
			L14.1,5H14h-1v2c0,3.5-2.5,6.3-6,6.3S1,10.5,1,7V6h2v1c0,2.2,1.8,4,4,4s4-1.8,4-4V5H9.9L12,2.9z"/>
	</svg>
	<!--4-30.svg-->
	<svg x="580" y="60">
		<style type="text/css">
			.st4_30_0{fill:none;}
		</style>
		<g id="XMLID_33_">
			<rect id="XMLID_17_" class="st4_30_0" width="16" height="16"/>
		</g>
		<path id="XMLID_9_" d="M15,10V9c0-3.9-3.1-7-7-7S1,5.1,1,9v1H0l3,3.7L6,10H5V9c0-1.8,1.2-3.3,3-3.3s3,1.5,3,3.3v1h-1l3,3.7l3-3.7H15
			z M13,12.7L11.6,11H12V9c0-2.2-1.8-4-4-4S4,6.8,4,9v2h0.4L3,12.7L1.6,11H2V9c0-3.5,2.5-6.3,6-6.3s6,2.8,6,6.3v2h0.4L13,12.7z"/>
	</svg>
	<!--4-31.svg-->
	<svg x="600" y="60">
		<style type="text/css">
			.st4_31_0{fill:none;}
		</style>
		<g id="XMLID_33_">
			<rect id="XMLID_17_" class="st4_31_0" width="16" height="16"/>
		</g>
		<path id="XMLID_9_" d="M15.5,6L9,0.5V4H8c-4.5,0.5-8,4.4-8,9c0,0.4,0,1.1,0,1.2v0C1.6,10.6,4.8,9.4,8,9h1v2.5L15.5,6z M8,8
			c-3.3,0.4-6.5,1.9-7.3,4C1.5,8,3.9,5.5,8,5h2V2.3L14.4,6L10,9.7V8H8z"/>
	</svg>
	<!--4-32.svg-->
	<svg x="620" y="60">
		<style type="text/css">
			.st4_32_0{fill:none;}
		</style>
		<g id="XMLID_33_">
			<rect id="XMLID_17_" class="st4_32_0" width="16" height="16"/>
		</g>
		<path id="XMLID_12_" d="M15.3,7L11,3v2h-1c0-1.1-0.9-2-2-2H5V1L0.7,5c-0.9,0.8-0.9,2.1,0,2.9L5,12v-2h2v2h4v2l4.3-4
			C16.2,9.2,16.2,7.8,15.3,7z M9.3,5H8V3.7C8.7,3.7,9.3,4.3,9.3,5z M4,9v1.2L1.1,7.4C0.8,7.1,0.7,6.8,0.7,6.5s0.1-0.6,0.4-0.9L4,2.8V4
			h3v5H4z M14.9,9.4L12,12.2V11H8V6h4V4.8l2.9,2.8c0.3,0.2,0.3,0.5,0.3,0.9S15.2,9.1,14.9,9.4z"/>
	</svg>
	<!--5-1.svg-->
	<svg x="0" y="80">
		<style type="text/css">
			.st5_1_0{fill:none;}
		</style>
		<g id="XMLID_33_">
			<rect id="XMLID_17_" class="st5_1_0" width="16" height="16"/>
		</g>
		<g id="XMLID_4_">
			<path id="XMLID_15_" d="M9,2v4v1h1h4v2h-4H9v1v4H7v-4V9H6H2V7h4h1V6V2H9 M10,1H6v5H1v4h5v5h4v-5h5V6h-5V1L10,1z"/>
		</g>
	</svg>
	<!--5-2.svg-->
	<svg x="20" y="80">
		<style type="text/css">
			.st5_2_0{fill:none;}
		</style>
		<g id="XMLID_33_">
			<rect id="XMLID_17_" class="st5_2_0" width="16" height="16"/>
		</g>
		<path id="XMLID_3_" d="M14,7v2H2V7H14 M15,6H1v4h14V6L15,6z"/>
	</svg>
	<!--5-3.svg-->
	<svg x="40" y="80">
		<style type="text/css">
			.st5_3_0{fill:none;}
		</style>
		<g id="XMLID_33_">
			<rect id="XMLID_17_" class="st5_3_0" width="16" height="16"/>
		</g>
		<g id="XMLID_1_">
			<path id="XMLID_22_" d="M11.3,3L13,4.7l-2.8,2.8L9.7,8l0.5,0.5l2.8,2.8L11.3,13l-2.8-2.8L8,9.7l-0.5,0.5L4.7,13L3,11.3l2.8-2.8
				L6.3,8L5.8,7.5L3,4.7L4.7,3l2.8,2.8L8,6.3l0.5-0.5L11.3,3 M11.3,2L8,5.3L4.7,2L2,4.7L5.3,8L2,11.3L4.7,14L8,10.7l3.3,3.3l2.7-2.7
				L10.7,8L14,4.7L11.3,2L11.3,2z"/>
		</g>
	</svg>
	<!--5-4.svg-->
	<svg x="60" y="80">
		<style type="text/css">
			.st5_4_0{fill:none;}
		</style>
		<g id="XMLID_33_">
			<rect id="XMLID_17_" class="st5_4_0" width="16" height="16"/>
		</g>
		<path id="XMLID_3_" d="M14,7v2H2V7H14 M15,6H1v4h14V6L15,6z"/>
		<rect id="XMLID_2_" x="7" y="11" width="2" height="2"/>
		<rect id="XMLID_1_" x="7" y="3" width="2" height="2"/>
	</svg>
	<!--5-5.svg-->
	<svg x="80" y="80">
		<style type="text/css">
			.st5_5_0{fill:none;}
		</style>
		<g id="XMLID_33_">
			<rect id="XMLID_17_" class="st5_5_0" width="16" height="16"/>
		</g>
		<path id="XMLID_3_" d="M14,9v2H2V9H14 M15,8H1v4h14V8L15,8z"/>
		<path id="XMLID_1_" d="M14,4v2H2V4H14 M15,3H1v4h14V3L15,3z"/>
	</svg>
	<!--5-6.svg-->
	<svg x="100" y="80">
		<style type="text/css">
			.st5_6_0{fill:none;}
		</style>
		<g id="XMLID_33_">
			<rect id="XMLID_17_" class="st5_6_0" width="16" height="16"/>
		</g>
		<path id="XMLID_9_" d="M15,7V3h-3.1L13,1h-1H9.7H9.5L8.4,3H1v4h5.3l0,0L5.8,8H1v4h2.6L2,15h0.8h2.5h0.1l1.6-3H15V8H9.3l0.5-1H15z
			 M14,4v2h-3.7l1.1-2l0,0H14z M2,6V4h5.9L6.8,6H2z M2,11V9h3.2l-1.1,2H2z M14,9v2H7.6l1.1-2H14z M5.2,14H3.3L9.8,2h1.9L5.2,14z"/>
	</svg>
	<!--6-1.svg-->
	<svg x="0" y="100">
		<style type="text/css">
			.st6_1_0{fill:none;}
		</style>
		<g id="XMLID_33_">
			<rect id="XMLID_17_" class="st6_1_0" width="16" height="16"/>
		</g>
		<path id="XMLID_3_" d="M15,3v10H1V3H15 M16,2H0v12h16V2L16,2z"/>
	</svg>
	<!--6-2.svg-->
	<svg x="20" y="100">
		<style type="text/css">
			.st6_2_0{fill:none;}
		</style>
		<g id="XMLID_33_">
			<rect id="XMLID_17_" class="st6_2_0" width="16" height="16"/>
		</g>
		<path id="XMLID_2_" d="M14,3c0.7,0,1,0.3,1,1v8c0,0.7-0.3,1-1,1H2c-0.7,0-1-0.3-1-1V4c0-0.7,0.3-1,1-1H14 M14,2H2C0.9,2,0,2.9,0,4v8
			c0,1.1,0.9,2,2,2h12c1.1,0,2-0.9,2-2V4C16,2.9,15.1,2,14,2L14,2z"/>
	</svg>
	<!--6-3.svg-->
	<svg x="40" y="100">
		<style type="text/css">
			.st6_3_0{fill:none;}
		</style>
		<g id="XMLID_33_">
			<rect id="XMLID_17_" class="st6_3_0" width="16" height="16"/>
		</g>
		<path id="XMLID_3_" d="M8,3l6.7,5L8,13L1.3,8L8,3 M8,2L0,8l8,6l8-6L8,2L8,2z"/>
	</svg>
	<!--6-4.svg-->
	<svg x="60" y="100">
		<style type="text/css">
			.st6_4_0{fill:none;}
		</style>
		<g id="XMLID_33_">
			<rect id="XMLID_17_" class="st6_4_0" width="16" height="16"/>
		</g>
		<path id="XMLID_3_" d="M14.8,2l-4.3,12l-9.4,0L4.5,2 M16,1H4L0,15h11L16,1L16,1z"/>
	</svg>
	<!--6-5.svg-->
	<svg x="80" y="100">
		<style type="text/css">
			.st6_5_0{fill:none;}
		</style>
		<g id="XMLID_33_">
			<rect id="XMLID_17_" class="st6_5_0" width="16" height="16"/>
		</g>
		<path id="XMLID_11_" d="M0,2v13h16V2H0z M1,14V3h1v11H1z M3,14V3h10v11H3z M15,14h-1V3h1V14z"/>
	</svg>
	<!--6-6.svg-->
	<svg x="100" y="100">
		<style type="text/css">
			.st6_6_0{fill:none;}
		</style>
		<g id="XMLID_33_">
			<rect id="XMLID_17_" class="st6_6_0" width="16" height="16"/>
		</g>
		<path id="XMLID_14_" d="M1,1v3v10h13V1H1z M13,2v1H4V2H13z M2,2h1v1H2V2z M2,13V4h1v9H2z M13,13H4V4h9V13z"/>
	</svg>
	<!--6-7.svg-->
	<svg x="120" y="100">
		<style type="text/css">
			.st6_7_0{fill:none;}
		</style>
		<g id="XMLID_33_">
			<rect id="XMLID_17_" class="st6_7_0" width="16" height="16"/>
		</g>
		<path id="XMLID_7_" d="M0,1v11c0.5,0.7,1,1.3,1.7,1.9c1.2,1.1,2.4,1.2,4,0.9c3-0.7,5.5-2.8,8.3-3.8h2V1H0z M15,10.3
			c-2.4-0.1-4.7,1.9-6.8,2.9c-1.2,0.6-2.6,1.1-3.9,1.1c-1.4,0-2.3-1.1-3.3-2.1L1,2h14V10.3z"/>
	</svg>
	<!--6-8.svg-->
	<svg x="140" y="100">
		<style type="text/css">
			.st6_8_0{fill:none;}
		</style>
		<g id="XMLID_33_">
			<rect id="XMLID_17_" class="st6_8_0" width="16" height="16"/>
		</g>
		<path id="XMLID_15_" d="M4,1v2H2v2H0v7c0,0,0,0,0.1,0.1c0,0,0,0,0,0C0.4,12.6,2.3,15,5,15c0,0,0,0,0,0c3,0,7-4.5,7-4.5V9h2V8h2V1H4z
			 M5,14.3c-1.9,0-3.3-1.4-4-2.2v-0.5v-1.6V6h10v4.5C9.7,11.9,6.9,14.3,5,14.3z M12,8V5H3V4h10v4H12z M15,7h-1V4V3h-1H5V2h10V7z"/>
	</svg>
	<!--6-9.svg-->
	<svg x="160" y="100">
		<style type="text/css">
			.st6_9_0{fill:none;}
		</style>
		<g id="XMLID_33_">
			<rect id="XMLID_17_" class="st6_9_0" width="16" height="16"/>
		</g>
		<g id="XMLID_3_">
			<path id="XMLID_15_" d="M12,5c1.8,0,3.3,1.2,3.3,3s-1.5,3-3.3,3H4c-1.8,0-3.3-1.2-3.3-3S2.2,5,4,5H12 M12,4H4C1.8,4,0,5.8,0,8
				c0,2.2,1.8,4,4,4h8c2.2,0,4-1.8,4-4C16,5.8,14.2,4,12,4L12,4z"/>
		</g>
	</svg>
	<!--6-10.svg-->
	<svg x="180" y="100">
		<style type="text/css">
			.st6_10_0{fill:none;}
		</style>
		<g id="XMLID_33_">
			<rect id="XMLID_17_" class="st6_10_0" width="16" height="16"/>
		</g>
		<path id="XMLID_2_" d="M11.7,4l3.4,3.5L11.7,11H4.3L0.9,7.5L4.3,4H12 M12,3H4L0,7.5L4,12h8l4-4.5L12,3L12,3z"/>
	</svg>
	<!--6-11.svg-->
	<svg x="200" y="100">
		<style type="text/css">
			.st6_11_0{fill:none;}
		</style>
		<g id="XMLID_33_">
			<rect id="XMLID_17_" class="st6_11_0" width="16" height="16"/>
		</g>
		<path id="XMLID_2_" d="M15,2v10H1V7L15,2 M16,1L0,6.5V13h16V1L16,1z"/>
	</svg>
	<!--6-12.svg-->
	<svg x="220" y="100">
		<style type="text/css">
			.st6_12_0{fill:none;}
		</style>
		<g id="XMLID_33_">
			<rect id="XMLID_17_" class="st6_12_0" width="16" height="16"/>
		</g>
		<g id="XMLID_3_">
			<path id="XMLID_15_" d="M15,2l-4,11H5L1,2H15 M16,1H0l4.5,13h7L16,1L16,1z"/>
		</g>
	</svg>
	<!--6-13.svg-->
	<svg x="240" y="100">
		<style type="text/css">
			.st6_13_0{fill:none;}
		</style>
		<g id="XMLID_33_">
			<rect id="XMLID_17_" class="st6_13_0" width="16" height="16"/>
		</g>
		<g id="XMLID_1_">
			<path id="XMLID_15_" d="M8,2.7c2.9,0,5.3,2.4,5.3,5.3s-2.4,5.3-5.3,5.3S2.7,10.9,2.7,8S5.1,2.7,8,2.7 M8,2C4.7,2,2,4.7,2,8
				s2.7,6,6,6s6-2.7,6-6S11.3,2,8,2L8,2z"/>
		</g>
	</svg>
	<!--6-14.svg-->
	<svg x="260" y="100">
		<style type="text/css">
			.st6_14_0{fill:none;}
		</style>
		<g id="XMLID_33_">
			<rect id="XMLID_17_" class="st6_14_0" width="16" height="16"/>
		</g>
		<g id="XMLID_3_">
			<path id="XMLID_15_" d="M12,4v6.6l-4.5,2.6L3,10.6V4H12 M13,3H2v8l5.5,3l5.5-3V3L13,3z"/>
		</g>
	</svg>
	<!--6-15.svg-->
	<svg x="280" y="100">
		<style type="text/css">
			.st6_15_0{fill:none;}
		</style>
		<g id="XMLID_33_">
			<rect id="XMLID_17_" class="st6_15_0" width="16" height="16"/>
		</g>
		<g id="XMLID_3_">
			<path id="XMLID_15_" d="M15,2v11H1V5.3L4.3,2H15 M16,1H4L0,5v9h16V1L16,1z"/>
		</g>
	</svg>
	<!--6-16.svg-->
	<svg x="300" y="100">
		<style type="text/css">
			.st6_16_0{fill:none;}
		</style>
		<g id="XMLID_33_">
			<rect id="XMLID_17_" class="st6_16_0" width="16" height="16"/>
		</g>
		<path id="XMLID_10_" d="M12,0C9,0,8,3,4,3C1,3,0,0.5,0,0.5V2v9c0,0,2,3,4,3c3,0,4-3,8-3c3.1,0,4,2.5,4,2.5V12V3C16,3,14,0,12,0z
			 M7,12.1c-1,0.7-1.8,1.2-3,1.2c-1.1,0-2.3-1.2-3-2.1V2.8c0.7,0.5,1.7,0.9,3,0.9c2.4,0,3.8-0.9,5-1.8c1-0.7,1.8-1.2,3-1.2
			c1,0,2.3,1.3,3,2.1v8.4c-0.7-0.5-1.7-0.9-3-0.9C9.6,10.3,8.2,11.2,7,12.1z"/>
	</svg>
	<!--6-17.svg-->
	<svg x="320" y="100">
		<style type="text/css">
			.st6_17_0{fill:none;}
		</style>
		<g id="XMLID_33_">
			<rect id="XMLID_17_" class="st6_17_0" width="16" height="16"/>
		</g>
		<path id="XMLID_10_" d="M12.8,2.2c-2.9-2.9-7.7-2.9-10.6,0c-2.9,2.9-2.9,7.7,0,10.6c2.9,2.9,7.7,2.9,10.6,0
			C15.7,9.9,15.7,5.1,12.8,2.2z M12,2.5L7.5,7L3,2.5C5.5,0.1,9.5,0.1,12,2.5z M2.5,3L7,7.5L2.5,12C0.1,9.5,0.1,5.5,2.5,3z M3,12.5
			L7.5,8l4.5,4.5C9.5,14.9,5.5,14.9,3,12.5z M12.5,12L8,7.5L12.5,3C14.9,5.5,14.9,9.5,12.5,12z"/>
	</svg>
	<!--6-18.svg-->
	<svg x="340" y="100">
		<style type="text/css">
			.st6_18_0{fill:none;}
		</style>
		<g id="XMLID_33_">
			<rect id="XMLID_17_" class="st6_18_0" width="16" height="16"/>
		</g>
		<path id="XMLID_10_" d="M7.5,0C3.4,0,0,3.4,0,7.5S3.4,15,7.5,15S15,11.6,15,7.5S11.6,0,7.5,0z M14.3,7H8V0.7C11.4,1,14,3.6,14.3,7z
			 M7,0.7V7H0.7C1,3.6,3.6,1,7,0.7z M0.7,8H7v6.3C3.6,14,1,11.4,0.7,8z M8,14.3V8h6.3C14,11.4,11.4,14,8,14.3z"/>
	</svg>
	<!--6-19.svg-->
	<svg x="360" y="100">
		<style type="text/css">
			.st6_19_0{fill:none;}
		</style>
		<g id="XMLID_33_">
			<rect id="XMLID_17_" class="st6_19_0" width="16" height="16"/>
		</g>
		<path id="XMLID_11_" d="M11.5,1h-8l3.6,7l-3.6,7h8L7.9,8L11.5,1z M4.7,2H10h0.3L7.5,7.3l0,0l0,0L4.7,2z M10.3,14H4.7l2.8-5.3l0,0
			l0,0L10.3,14z"/>
	</svg>
	<!--6-20.svg-->
	<svg x="380" y="100">
		<style type="text/css">
			.st6_20_0{fill:none;}
		</style>
		<g id="XMLID_33_">
			<rect id="XMLID_17_" class="st6_20_0" width="16" height="16"/>
		</g>
		<path id="XMLID_1_" d="M7.5,0L3,7.5L7.5,15L12,7.5L7.5,0z M10.9,7H4.1l3.4-5.6L10.9,7z M4.1,8h6.8l-3.4,5.6L4.1,8z"/>
	</svg>
	<!--6-21.svg-->
	<svg x="400" y="100">
		<style type="text/css">
			.st6_21_0{fill:none;}
		</style>
		<g id="XMLID_33_">
			<rect id="XMLID_17_" class="st6_21_0" width="16" height="16"/>
		</g>
		<g id="XMLID_2_">
			<path id="XMLID_15_" d="M7.5,1.5L13.7,13H1.3L7.5,1.5 M7.5,0L0,14h15L7.5,0L7.5,0z"/>
		</g>
	</svg>
	<!--6-22.svg-->
	<svg x="420" y="100">
		<style type="text/css">
			.st6_22_0{fill:none;}
		</style>
		<g id="XMLID_33_">
			<rect id="XMLID_17_" class="st6_22_0" width="16" height="16"/>
		</g>
		<g id="XMLID_2_">
			<path id="XMLID_15_" d="M13.7,2L7.5,13.5L1.3,2H14 M15,1H0l7.5,14L15,1L15,1z"/>
		</g>
	</svg>
	<!--6-23.svg-->
	<svg x="440" y="100">
		<style type="text/css">
			.st6_23_0{fill:none;}
		</style>
		<g id="XMLID_33_">
			<rect id="XMLID_17_" class="st6_23_0" width="16" height="16"/>
		</g>
		<path id="XMLID_10_" d="M12,7.5C12,3,16,1,16,1h-1.8h-10H4c0,0-4,2-4,6.5S4,14,4,14h0.3h10H16C16,14,12,11.9,12,7.5z M0.7,7.5
			c0-3,2-4.8,3-5.5h9.9c-1.1,1.2-2.3,3-2.3,5.5c0,2.5,1.2,4.3,2.3,5.5H3.7C2.7,12.3,0.7,10.5,0.7,7.5z"/>
	</svg>
	<!--6-24.svg-->
	<svg x="460" y="100">
		<style type="text/css">
			.st6_24_0{fill:none;}
		</style>
		<g id="XMLID_33_">
			<rect id="XMLID_17_" class="st6_24_0" width="16" height="16"/>
		</g>
		<path id="XMLID_2_" d="M9.8,1c0.8,0,4.5,2.9,4.5,6.5c0,3.6-3.7,6.5-4.5,6.5H1V1h9 M10,0H0v15h10c0,0,5-3,5-7.5C15,3,10,0,10,0L10,0z
			"/>
	</svg>
	<!--6-25.svg-->
	<svg x="480" y="100">
		<style type="text/css">
			.st6_25_0{fill:none;}
		</style>
		<g id="XMLID_33_">
			<rect id="XMLID_17_" class="st6_25_0" width="16" height="16"/>
		</g>
		<path id="XMLID_9_" d="M13.5,12c0.9-1.3,1.5-2.8,1.5-4.5C15,3.4,11.6,0,7.5,0S0,3.4,0,7.5C0,10.8,2.1,14,5,15h11v-3H13.5z M15,14H5
			c-2.5-1-4.3-3.6-4.3-6.5c0-3.7,3.1-6.8,6.8-6.8s6.8,3.1,6.8,6.8c0,1.7-0.7,3.3-1.7,4.5H10v1h5V14z"/>
	</svg>
	<!--6-26.svg-->
	<svg x="500" y="100">
		<style type="text/css">
			.st6_26_0{fill:none;}
		</style>
		<g id="XMLID_33_">
			<rect id="XMLID_17_" class="st6_26_0" width="16" height="16"/>
		</g>
		<path id="XMLID_11_" d="M8,0C4.1,0,1,1.3,1,3v10c0,1.7,3.1,3,7,3s7-1.3,7-3V3C15,1.3,11.9,0,8,0z M8,0.7c3.9,0,6,1.3,6,2.3
			s-2.1,2.3-6,2.3S2,4,2,3S4.1,0.7,8,0.7z M8,15.3c-3.9,0-6-1.3-6-2.3V4.5C3.2,5.4,5.4,6,8,6s4.8-0.6,6-1.5V13C14,14,11.9,15.3,8,15.3
			z"/>
	</svg>
	<!--6-27.svg-->
	<svg x="520" y="100">
		<style type="text/css">
			.st6_27_0{fill:none;}
		</style>
		<g id="XMLID_33_">
			<rect id="XMLID_18_" class="st6_27_0" width="16" height="16"/>
		</g>
		<path id="XMLID_11_" d="M16,8c0-3.9-1.3-7-3-7H3C1.3,1,0,4.1,0,8s1.3,7,3,7h10C14.7,15,16,11.9,16,8z M15.3,8c0,3.9-1.3,6-2.3,6
			s-2.3-2.1-2.3-6S12,2,13,2S15.3,4.1,15.3,8z M0.7,8C0.7,4.1,2,2,3,2h8.5C10.6,3.2,10,5.4,10,8s0.6,4.8,1.5,6H3C2,14,0.7,11.9,0.7,8z
			"/>
	</svg>
	<!--6-28.svg-->
	<svg x="540" y="100">
		<style type="text/css">
			.st6_28_0{fill:none;}
		</style>
		<g id="XMLID_33_">
			<rect id="XMLID_17_" class="st6_28_0" width="16" height="16"/>
		</g>
		<g id="XMLID_3_">
			<path id="XMLID_15_" d="M11.8,1c0.7,0,3.5,2.2,3.5,7c0,4.8-2.8,7-3.5,7H4.4L0.8,8l3.6-7H12 M12,0H4L0,8l4,8h8c0,0,4-2.1,4-8
				C16,2.1,12,0,12,0L12,0z"/>
		</g>
	</svg>
	<!--7-1.svg-->
	<svg x="0" y="120">
		<style type="text/css">
			.st7_1_0{fill:none;}
		</style>
		<g id="XMLID_33_">
			<rect class="st7_1_0" width="16" height="16"/>
		</g>
		<path d="M6.7,16l-1-5l-2.9,2.9V9.5L0,8.6l3.4-1.4L0.5,4.1l3.7,0L3.5,0.9l3.4,2.7L7.6,0l3,4l1.6-1.8l0.5,3L16,6.4l-3,2l2.2,2.2h-4.1
			l1.4,3.8l-3.6-2.7L6.7,16z M6.1,9.5L7,13.7l1.6-3.1l2.3,1.7L10,9.8h3.3l-1.5-1.5l2.5-1.7l-2.3-0.8l-0.3-2l-1.2,1.3L8,1.8L7.4,4.9
			L4.6,2.8L5.1,5L2.5,5l2.3,2.6l-2.5,1L3.5,9v3.1L6.1,9.5z"/>
	</svg>
	<!--7-2.svg-->
	<svg x="20" y="120">
		<style type="text/css">
			.st7_2_0{fill:none;}
		</style>
		<g id="XMLID_33_">
			<rect class="st7_2_0" width="16" height="16"/>
		</g>
		<path d="M10.8,16l-1.9-1.9V16l-2.3-2.2L4.4,16v-3.2l-4.3,1.1l2.2-3.3L0.1,9.5l2.1-1L0,6.3h4.3L3.2,2.1l3.3,2.2L8.7,0l1,5.1l1.8-1.8
			l0.9,1.8l2.7-4l-1.4,5.4L16,7.6l-2.9,1.9l2,1l-2.4,1.2v2.2l-1.9-0.9V16z M8.2,12.5l1.9,1.9v-2.6l1.9,0.9v-1.6l1.5-0.7l-1.8-0.9
			l2.9-1.9L13,6.9l0.6-2.2l-1.2,1.7l-1-2l-2,2L8.4,2L6.8,5.3L4.3,3.7L5.1,7H1.7l1.7,1.6L1.7,9.5l1.6,0.8l-1.6,2.4L5,11.9v2.5l1.6-1.6
			l1.6,1.6V12.5z"/>
	</svg>
	<!--7-3.svg-->
	<svg x="40" y="120">
		<style type="text/css">
			.st7_3_0{fill:none;}
		</style>
		<g id="XMLID_33_">
			<rect class="st7_3_0" width="16" height="16"/>
		</g>
		<path d="M7.9,15H7.1v-0.3c0-3.7-3-6.8-6.8-6.8H0V7.1h0.3c3.7,0,6.8-3,6.8-6.8V0h0.8v0.3c0,3.7,3,6.8,6.8,6.8H15v0.8h-0.3
			c-3.7,0-6.8,3-6.8,6.8V15z M2.3,7.5c2.5,0.7,4.5,2.7,5.2,5.2c0.7-2.5,2.7-4.5,5.2-5.2c-2.5-0.7-4.5-2.7-5.2-5.2
			C6.8,4.8,4.8,6.8,2.3,7.5z"/>
	</svg>
	<!--7-4.svg-->
	<svg x="60" y="120">
		<style type="text/css">
			.st7_4_0{fill:none;}
		</style>
		<g id="XMLID_33_">
			<rect class="st7_4_0" width="16" height="16"/>
		</g>
		<path d="M7.5,2.9l1.6,3.4l0.2,0.5h0.5h3.1l-2.4,2.1l-0.4,0.4l0.2,0.5l1.3,3.4l-3.7-2.1l-0.4-0.2l-0.4,0.2l-3.7,2.1l1.3-3.4l0.2-0.5
			L4.5,8.9L2.1,6.8h3.1h0.5l0.2-0.5L7.5,2.9 M7.5,1L5.2,6H0l4,3.5L1.9,15l5.6-3.2l5.6,3.2L11,9.5L15,6H9.8L7.5,1L7.5,1z"/>
	</svg>
	<!--7-5.svg-->
	<svg x="80" y="120">
		<style type="text/css">
			.st7_5_0{fill:none;}
		</style>
		<g id="XMLID_33_">
			<rect class="st7_5_0" width="16" height="16"/>
		</g>
		<path d="M8,1.8l2.4,2.9l0.2,0.3l0.4,0L14.4,5l-2,2.5L12,8l0.4,0.5l2,2.5L11,11.1l-0.4,0l-0.2,0.3L8,14.2l-2.4-2.9l-0.2-0.3l-0.4,0
			L1.6,11l2-2.5L4,8L3.6,7.5L1.6,5L5,4.9l0.4,0l0.2-0.3L8,1.8 M8,0.5L5,4.1L0,4.3L3,8l-3,3.8l5,0.1l3,3.6l3-3.6l5-0.1L13,8l3-3.8
			l-5-0.1L8,0.5L8,0.5z"/>
	</svg>
	<!--7-6.svg-->
	<svg x="100" y="120">
		<style type="text/css">
			.st7_6_0{fill:none;}
		</style>
		<g id="XMLID_33_">
			<rect class="st7_6_0" width="16" height="16"/>
		</g>
		<path d="M8,1.7l1.4,2.6l0.3,0.5l0.6-0.1l2.9-0.5L12.1,7l-0.2,0.5l0.4,0.4l2.2,2.1l-2.8,0.9L11.1,11l0,0.6l-0.2,3l-2.4-1.7L8,12.5
			l-0.5,0.3l-2.4,1.7l-0.2-3l0-0.6l-0.5-0.2L1.6,9.9l2.2-2.1l0.4-0.4L3.9,7L2.8,4.2l2.9,0.5l0.6,0.1l0.3-0.5L8,1.7 M8,0L5.9,3.9
			L1.6,3.2l1.6,4.1l-3.2,3l4.2,1.3L4.4,16L8,13.5l3.6,2.5l0.3-4.4l4.2-1.3l-3.2-3l1.6-4.1l-4.3,0.7L8,0L8,0z"/>
	</svg>
	<!--7-7.svg-->
	<svg x="120" y="120">
		<style type="text/css">
			.st7_7_0{fill:none;}
		</style>
		<g id="XMLID_33_">
			<rect class="st7_7_0" width="16" height="16"/>
		</g>
		<path d="M13,5.5V2H9.5l-2-2l-2,2H2v3.5l-2,2l2,2V13h3.5l2,2l2-2H13V9.5l2-2L13,5.5z M12,9.5L12,9.5v1V12h-1.5h-1h0l-1,1h0l-1,1l-1-1
			h0l-1-1h0h-1H3v-1.5v-1v0l-1-1v0l-1-1l1-1v0l1-1v0v-1V3h1.5h1h0l1-1h0l1-1l1,1h0l1,1h0h1H12v1.5v1v0l1,1v0l1,1l-1,1v0L12,9.5z"/>
		<path d="M6,5v5h3V5H6z M8,9H7V8h1V9z M8,7H7V6h1V7z"/>
	</svg>
	<!--7-8.svg-->
	<svg x="140" y="120">
		<style type="text/css">
			.st7_8_0{fill:none;}
		</style>
		<rect class="st7_8_0" width="16" height="16"/>
		<g>
			<path d="M9.5,1.1L10.1,3l0.2,0.4l0.5,0l1.9,0.1l-0.5,2l-0.1,0.4l0.3,0.3l1.5,1.3l-1.5,1.3l-0.3,0.3l0.1,0.4l0.5,2l-1.9,0.1l-0.5,0
				L10.1,12l-0.7,1.9l-1.6-1.1l-0.4-0.3l-0.4,0.3l-1.6,1.1L4.9,12l-0.2-0.4l-0.5,0l-1.9-0.1l0.5-2l0.1-0.4L2.6,8.8L1.1,7.5l1.5-1.3
				l0.3-0.3L2.8,5.5l-0.5-2l1.9-0.1l0.5,0L4.9,3l0.7-1.9l1.6,1.1l0.4,0.3l0.4-0.3L9.5,1.1 M9.8,0L7.5,1.6L5.2,0l-1,2.7L1.4,2.9
				l0.7,2.8L0,7.5l2.2,1.8l-0.7,2.8l2.8,0.1l1,2.7l2.3-1.6L9.8,15l1-2.7l2.8-0.1l-0.7-2.8L15,7.5l-2.2-1.8l0.7-2.8l-2.8-0.1L9.8,0
				L9.8,0z"/>
		</g>
		<g>
			<path d="M9,6v3H8V6H9 M10,5H7v5h3V5L10,5z"/>
			<polygon points="4,5 4,6 5,6 5,10 6,10 6,5 	"/>
		</g>
	</svg>
	<!--7-9.svg-->
	<svg x="160" y="120">
		<style type="text/css">
			.st7_9_0{fill:none;}
		</style>
		<g id="XMLID_33_">
			<rect class="st7_9_0" width="16" height="16"/>
		</g>
		<path d="M9.2,1.2l0.6,1.5L10,3.2l0.6-0.1l1.6-0.3l-0.3,1.6L11.8,5l0.5,0.2l1.5,0.6l-1,1.2l-0.4,0.4l0.4,0.4l1,1.2l-1.5,0.6L11.8,10
			l0.1,0.6l0.3,1.6l-1.6-0.3L10,11.8l-0.2,0.5l-0.6,1.5l-1.2-1l-0.4-0.4l-0.4,0.4l-1.2,1l-0.6-1.5L5,11.8l-0.6,0.1l-1.6,0.3l0.3-1.6
			L3.2,10L2.7,9.8L1.2,9.2l1-1.2l0.4-0.4L2.2,7.1l-1-1.2l1.5-0.6L3.2,5L3.1,4.5L2.9,2.9l1.6,0.3L5,3.2l0.2-0.5l0.6-1.5l1.2,1l0.4,0.4
			l0.4-0.4L9.2,1.2 M9.5,0l-2,1.7L5.5,0L4.6,2.5L2,2l0.4,2.6L0,5.5l1.7,2L0,9.5l2.5,0.9L2,13l2.6-0.4L5.5,15l2-1.7l2,1.7l0.9-2.5
			L13,13l-0.4-2.6L15,9.5l-1.7-2l1.7-2l-2.5-0.9L13,2l-2.6,0.4L9.5,0L9.5,0z"/>
		<polygon points="7,5 7,6 9,6 9,7 7,7 7,10 10,10 10,9 8,9 8,8 10,8 10,5 "/>
		<polygon points="4,5 4,6 5,6 5,10 6,10 6,5 "/>
	</svg>
	<!--7-10.svg-->
	<svg x="180" y="120">
		<style type="text/css">
			.st7_10_0{fill:none;}
		</style>
		<g id="XMLID_33_">
			<rect class="st7_10_0" width="16" height="16"/>
		</g>
		<path d="M9.2,1.2l0.6,1.5L10,3.2l0.6-0.1l1.6-0.3l-0.3,1.6L11.8,5l0.5,0.2l1.5,0.6l-1,1.2l-0.4,0.4l0.4,0.4l1,1.2l-1.5,0.6L11.8,10
			l0.1,0.6l0.3,1.6l-1.6-0.3L10,11.8l-0.2,0.5l-0.6,1.5l-1.2-1l-0.4-0.4l-0.4,0.4l-1.2,1l-0.6-1.5L5,11.8l-0.6,0.1l-1.6,0.3l0.3-1.6
			L3.2,10L2.7,9.8L1.2,9.2l1-1.2l0.4-0.4L2.2,7.1l-1-1.2l1.5-0.6L3.2,5L3.1,4.5L2.9,2.9l1.6,0.3L5,3.2l0.2-0.5l0.6-1.5l1.2,1l0.4,0.4
			l0.4-0.4L9.2,1.2 M9.5,0l-2,1.7L5.5,0L4.6,2.5L2,2l0.4,2.6L0,5.5l1.7,2L0,9.5l2.5,0.9L2,13l2.6-0.4L5.5,15l2-1.7l2,1.7l0.9-2.5
			L13,13l-0.4-2.6L15,9.5l-1.7-2l1.7-2l-2.5-0.9L13,2l-2.6,0.4L9.5,0L9.5,0z"/>
		<path d="M7,5v3v2h3V7H8V6h2V5H7z M8,8h1v1H8V8z"/>
		<polygon points="4,5 4,6 5,6 5,10 6,10 6,5 "/>
		<path d="M17.8,9.5"/>
	</svg>
	<!--7-11.svg-->
	<svg x="200" y="120">
		<style type="text/css">
			.st7_11_0{fill:none;}
		</style>
		<g id="XMLID_33_">
			<rect class="st7_11_0" width="16" height="16"/>
		</g>
		<path d="M9.2,1.2l0.6,1.5L10,3.2l0.6-0.1l1.6-0.3l-0.3,1.6L11.8,5l0.5,0.2l1.5,0.6l-1,1.2l-0.4,0.4l0.4,0.4l1,1.2l-1.5,0.6L11.8,10
			l0.1,0.6l0.3,1.6l-1.6-0.3L10,11.8l-0.2,0.5l-0.6,1.5l-1.2-1l-0.4-0.4l-0.4,0.4l-1.2,1l-0.6-1.5L5,11.8l-0.6,0.1l-1.6,0.3l0.3-1.6
			L3.2,10L2.7,9.8L1.2,9.2l1-1.2l0.4-0.4L2.2,7.1l-1-1.2l1.5-0.6L3.2,5L3.1,4.5L2.9,2.9l1.6,0.3L5,3.2l0.2-0.5l0.6-1.5l1.2,1l0.4,0.4
			l0.4-0.4L9.2,1.2 M9.5,0l-2,1.7L5.5,0L4.6,2.5L2,2l0.4,2.6L0,5.5l1.7,2L0,9.5l2.5,0.9L2,13l2.6-0.4L5.5,15l2-1.7l2,1.7l0.9-2.5
			L13,13l-0.4-2.6L15,9.5l-1.7-2l1.7-2l-2.5-0.9L13,2l-2.6,0.4L9.5,0L9.5,0z"/>
		<polygon points="4,5 4,6 6,6 6,7 4,7 4,10 7,10 7,9 5,9 5,8 7,8 7,5 "/>
		<polygon points="8,5 8,8 10,8 10,10 11,10 11,5 10,5 10,7 9,7 9,5 "/>
	</svg>
	<!--7-12.svg-->
	<svg x="220" y="120">
		<style type="text/css">
			.st7_12_0{fill:none;}
		</style>
		<g id="XMLID_33_">
			<rect class="st7_12_0" width="16" height="16"/>
		</g>
		<path d="M9.2,1.2l0.6,1.5L10,3.2l0.6-0.1l1.6-0.3l-0.3,1.6L11.8,5l0.5,0.2l1.5,0.6l-1,1.2l-0.4,0.4l0.4,0.4l1,1.2l-1.5,0.6L11.8,10
			l0.1,0.6l0.3,1.6l-1.6-0.3L10,11.8l-0.2,0.5l-0.6,1.5l-1.2-1l-0.4-0.4l-0.4,0.4l-1.2,1l-0.6-1.5L5,11.8l-0.6,0.1l-1.6,0.3l0.3-1.6
			L3.2,10L2.7,9.8L1.2,9.2l1-1.2l0.4-0.4L2.2,7.1l-1-1.2l1.5-0.6L3.2,5L3.1,4.5L2.9,2.9l1.6,0.3L5,3.2l0.2-0.5l0.6-1.5l1.2,1l0.4,0.4
			l0.4-0.4L9.2,1.2 M9.5,0l-2,1.7L5.5,0L4.6,2.5L2,2l0.4,2.6L0,5.5l1.7,2L0,9.5l2.5,0.9L2,13l2.6-0.4L5.5,15l2-1.7l2,1.7l0.9-2.5
			L13,13l-0.4-2.6L15,9.5l-1.7-2l1.7-2l-2.5-0.9L13,2l-2.6,0.4L9.5,0L9.5,0z"/>
		<polygon points="8,5 8,6 10,6 10,7 8,7 8,10 11,10 11,9 9,9 9,8 11,8 11,5 "/>
		<polygon points="4,5 4,6 6,6 6,7 4,7 4,8 6,8 6,9 4,9 4,10 7,10 7,5 "/>
	</svg>
	<!--7-13.svg-->
	<svg x="240" y="120">
		<style type="text/css">
			.st7_13_0{fill:none;}
		</style>
		<g id="XMLID_33_">
			<rect id="XMLID_23_" x="0" y="0" class="st7_13_0" width="16" height="16"/>
		</g>
		<path id="XMLID_1_" d="M16,4h-4c0-1.1-0.9-2-2-2H6C4.9,2,4,2.9,4,4H0v1.5L2.2,8L0,10.5V12h4h1l2-2h2l2,2h1h4v-1.5L13.8,8L16,5.5V4z
			 M0.7,11.3v-0.6L3,8L0.7,5.3V4.7H4V10v1.3H0.7z M5,11.3V10h1.3L5,11.3z M5,9V4c0-0.7,0.3-1,1-1h4c0.7,0,1,0.3,1,1v5H5z M11,11.3
			L9.7,10H11V11.3z M15.3,5.3L13,8l2.3,2.7v0.6H12V10V4.7h3.3V5.3z"/>
	</svg>
	<!--7-14.svg-->
	<svg x="260" y="120">
		<style type="text/css">
			.st7_14_0{fill:none;}
		</style>
		<g id="XMLID_33_">
			<rect id="XMLID_23_" x="0" y="0" class="st7_14_0" width="16" height="16"/>
		</g>
		<path id="XMLID_1_" d="M16,8.5L13.8,6L16,3.5V2h-4h-1L9,4H7L5,2H4H0v1.5L2.2,6L0,8.5V10h4c0,1.1,0.9,2,2,2h4c1.1,0,2-0.9,2-2h4V8.5z
			 M4,2.7V4v5.3H0.7V8.7L3,6L0.7,3.3V2.7H4z M6.3,4H5V2.7L6.3,4z M11,5v5c0,0.7-0.3,1-1,1H6c-0.7,0-1-0.3-1-1V5H11z M11,4H9.7L11,2.7
			V4z M15.3,9.3H12V4V2.7h3.3v0.6L13,6l2.3,2.7V9.3z"/>
	</svg>
	<!--7-15.svg-->
	<svg x="280" y="120">
		<style type="text/css">
			.st7_15_0{fill:none;}
		</style>
		<g id="XMLID_33_">
			<rect id="XMLID_23_" x="0" y="0" class="st7_15_0" width="16" height="16"/>
		</g>
		<path id="XMLID_15_" d="M16,5l-4-1.6V3c0-1.1-0.9-2-2-2H6C4.9,1,4,1.9,4,3v0.4L0,5v3.5L1,9L0,9.5V14h2l1-2l3-1l1-2h2l1,2l3,1l1,2h2
			V9.5L15,9l1-0.5V5z M2.5,11.4l-0.9,1.9H0.7V9.9L2.6,9L0.7,8.1V5.5L4,4.2V9l1,1.6L2.5,11.4z M5.6,10.4L4.7,9h1.6L5.6,10.4z M5,8V3
			c0-0.7,0.3-1,1-1h4c0.7,0,1,0.3,1,1v5H5z M9.7,9h1.6l-0.9,1.4L9.7,9z M15.3,8.1L13.4,9l1.9,0.9v3.4h-0.9l-0.9-1.9L11,10.6L12,9V4.2
			l3.3,1.3V8.1z"/>
	</svg>
	<!--7-16.svg-->
	<svg x="300" y="120">
		<style type="text/css">
			.st7_16_0{fill:none;}
		</style>
		<g id="XMLID_33_">
			<rect id="XMLID_23_" x="0" y="0" class="st7_16_0" width="16" height="16"/>
		</g>
		<path id="XMLID_15_" d="M16,6.5L15,6l1-0.5V1h-2l-1,2l-3,1L9,6H7L6,4L3,3L2,1H0v4.5L1,6L0,6.5V10l4,1.6V12c0,1.1,0.9,2,2,2h4
			c1.1,0,2-0.9,2-2v-0.4l4-1.6V6.5z M5,4.4L4,6v4.8L0.7,9.5V6.9L2.6,6L0.7,5.1V1.7h0.9l0.9,1.9L5,4.4z M6.3,6H4.7l0.9-1.4L6.3,6z
			 M11,7v5c0,0.7-0.3,1-1,1H6c-0.7,0-1-0.3-1-1V7H11z M10.4,4.6L11.3,6H9.7L10.4,4.6z M15.3,9.5L12,10.8V6l-1-1.6l2.5-0.8l0.9-1.9h0.9
			v3.4L13.4,6l1.9,0.9V9.5z"/>
	</svg>
	<!--7-17.svg-->
	<svg x="320" y="120">
		<style type="text/css">
			.st7_17_0{fill:none;}
		</style>
		<rect id="XMLID_23_" class="st7_17_0" width="16" height="16"/>
		<path d="M14,0H5C3.9,0,3,0.9,3,2v11H2v-1l0,0c-1.1,0-2,0.9-2,2s0.9,2,2,2h11V4h1c1.1,0,2-0.9,2-2S15.1,0,14,0z M3,14.8
			c-0.2,0.3-0.6,0.5-1,0.5c-0.7,0-1.3-0.6-1.3-1.3c0-0.5,0.3-1,0.8-1.2V14H3V14.8z M6.2,2.4c0,0.1,0,0.1,0,0.2
			C6.1,2.9,5.8,3.2,5.4,3.2C5,3.2,4.6,2.8,4.6,2.4S5,1.6,5.4,1.6c0.1,0,0.2,0,0.3,0.1c0,0,0,0,0.1,0c0.2,0.1,0.3,0.2,0.4,0.4
			C6.2,2.2,6.2,2.3,6.2,2.4z M3.8,2.7c0-0.3-0.1-0.5-0.1-0.7c0-0.7,0.6-1.3,1.3-1.3c0.2,0,0.4,0.1,0.6,0.2c-0.1,0-0.2,0-0.3,0
			c-0.8,0-1.5,0.7-1.5,1.5C3.8,2.5,3.8,2.6,3.8,2.7z M12,15H4V3.7C4.3,3.9,4.6,4,5,4h7V15z M14,3.3H6.5l0.1-0.1C6.8,2.9,7,2.4,7,2
			c0-0.5-0.2-0.9-0.5-1.3H14c0.7,0,1.3,0.6,1.3,1.3S14.7,3.3,14,3.3z"/>
	</svg>
	<!--7-18.svg-->
	<svg x="340" y="120">
		<style type="text/css">
			.st7_18_0{fill:none;}
		</style>
		<g id="XMLID_33_">
			<rect id="XMLID_23_" x="0" y="0" class="st7_18_0" width="16" height="16"/>
		</g>
		<path id="XMLID_19_" d="M2,16c1.1,0,2-0.9,2-2v-1h12V2c0-1.1-0.9-2-2-2c-1.1,0-2,0.9-2,2l0,0h1v1H2C0.9,3,0,3.9,0,5l0,9
			C0,15.1,0.9,16,2,16z M1.6,5.4c0-0.4,0.4-0.8,0.8-0.8c0.4,0,0.8,0.4,0.8,0.8c0,0.1,0,0.2-0.1,0.3C3,5.8,2.8,6,2.7,6.1
			c-0.1,0-0.2,0.1-0.3,0.1C1.9,6.2,1.6,5.8,1.6,5.4z M2,3.7c0.2,0,0.4,0.1,0.6,0.2c-0.1,0-0.2,0-0.3,0c-0.8,0-1.5,0.7-1.5,1.5
			c0,0.1,0,0.2,0,0.3C0.8,5.4,0.7,5.2,0.7,5C0.7,4.3,1.3,3.7,2,3.7z M15.3,2c0,0.4-0.2,0.8-0.5,1H14V1.5h-1.2C13,1,13.5,0.7,14,0.7
			C14.7,0.7,15.3,1.3,15.3,2z M4,12V5c0-0.4-0.1-0.7-0.3-1H15v8H4z M2,15.3c-0.7,0-1.3-0.6-1.3-1.3V6.5C1.1,6.8,1.5,7,2,7
			c0.4,0,0.9-0.2,1.2-0.4c0,0,0.1-0.1,0.1-0.1V14C3.3,14.7,2.7,15.3,2,15.3z"/>
	</svg>
	<!--7-19.svg-->
	<svg x="360" y="120">
		<style type="text/css">
			.st7_19_0{fill:none;}
		</style>
		<g id="XMLID_33_">
			<rect id="XMLID_23_" x="0" y="0" class="st7_19_0" width="16" height="16"/>
		</g>
		<path id="XMLID_9_" d="M12,7C6.5,7,8,1,4,1C2.8,1,0,4,0,4v0.1v7.5V13c0,0,2.2-3,4-3c0,0,0,0,0,0c4,0,3,5,7,5c4,0,5-3,5-3v-0.5V5V3
			C16,3,13.8,7,12,7z M11,14.3c-1.6,0-2.2-1-2.9-2.2C7.3,10.9,6.4,9.3,4,9.3c-1.1,0-2.1,0.7-3,1.5V4c1.1-1.2,2.5-2.3,3-2.3
			c1.3,0,1.8,0.8,2.6,2.3c0.9,1.7,2,3.7,5.4,3.7c1.1,0,2.2-0.9,3-2v6.7C14.5,13.2,13.3,14.3,11,14.3z"/>
	</svg>
	<!--7-20.svg-->
	<svg x="380" y="120">
		<style type="text/css">
			.st7_20_0{fill:none;}
		</style>
		<g id="XMLID_33_">
			<rect id="XMLID_23_" x="0" y="0" class="st7_20_0" width="16" height="16"/>
		</g>
		<path id="XMLID_9_" d="M14,6c-0.6,0-2.4-5-4-5c0,0,0,0,0,0C8.4,1,7.6,6,6,6C3.8,6,3.6,1,2,1C1.4,1,0,2,0,2v1v9v1c0,0,1.4-2,2-2
			c1.3,0,1.5,5,4,5c2.5,0,1.5-4,4-4c1.5,0,3.1,4,4,4c0.6,0,2-1,2-1v-1V7V5.5C16,5.5,14.6,6,14,6z M13.1,14c-0.9-1.3-1.9-2.7-3.1-2.7
			c-1.8,0-2.3,1.4-2.7,2.5c-0.4,1.1-0.6,1.5-1.3,1.5c-0.9,0-1.4-1.1-2-2.6c-0.5-1.2-0.9-2.4-2-2.4c-0.1,0-0.4,0-1,0.5V2.2
			c0.4-0.3,0.9-0.5,1-0.5c0.3,0,0.8,1.2,1,1.8c0.6,1.4,1.3,3.2,3,3.2c1.2,0,2-1.5,2.7-2.9C9,3.2,9.7,1.7,10,1.7h0c0.6,0,1.8,2.2,2.3,3
			c0.7,1.3,1.1,2,1.7,2c0.3,0,0.6-0.1,1-0.2v8.3c-0.4,0.2-0.7,0.4-0.9,0.5C13.8,15.1,13.4,14.4,13.1,14z"/>
	</svg>
	<!--8-1.svg-->
	<svg x="0" y="140">
		<style type="text/css">
			.st8_1_0{fill:none;}
		</style>
		<g id="XMLID_33_">
			<rect id="XMLID_23_" x="0" y="0" class="st8_1_0" width="16" height="16"/>
		</g>
		<path id="XMLID_2_" d="M14,2v9H8.7l-2.2,2.8L4.3,11H2V2H14 M15,1H1v11h3l2.5,3L9,12h6V1L15,1z"/>
	</svg>
	<!--8-2.svg-->
	<svg x="20" y="140">
		<style type="text/css">
			.st8_2_0{fill:none;}
		</style>
		<g id="XMLID_33_">
			<rect id="XMLID_23_" x="0" y="0" class="st8_2_0" width="16" height="16"/>
		</g>
		<path id="XMLID_11_" d="M12,1H4C2.3,1,1,2.3,1,4v5c0,1.7,1.3,3,3,3h0l2.5,3L9,12h3c1.7,0,3-1.3,3-3V4C15,2.3,13.7,1,12,1z M13.1,11
			H8.7v0.3l0-0.3l-0.2,0.6l-2,2.4l-2-2.4L4.3,11l0,0H2.9c-0.4-0.2-0.7-0.5-0.9-0.9V2.9c0.4-0.7,1.1-1.2,2-1.2h8c0.9,0,1.6,0.5,2,1.2
			v7.2C13.8,10.5,13.5,10.8,13.1,11z"/>
	</svg>
	<!--8-3.svg-->
	<svg x="40" y="140">
		<style type="text/css">
			.st8_3_0{fill:none;}
		</style>
		<g id="XMLID_33_">
			<rect id="XMLID_23_" x="0" y="0" class="st8_3_0" width="16" height="16"/>
		</g>
		<path id="XMLID_6_" d="M14.6,5.1L14.6,5.1c-0.3-0.3-0.5-0.7-0.4-1.1c0.1-0.6-0.2-1.2-0.9-1.4l-0.5-0.1c-0.3-0.1-0.6-0.3-0.8-0.6
			l-0.2-0.4c-0.2-0.4-0.7-0.7-1.1-0.7c-0.1,0-0.1,0-0.2,0L9.7,0.8c-0.1,0-0.1,0-0.2,0c-0.2,0-0.5-0.1-0.7-0.2L8.2,0.2
			C8,0.1,7.7,0,7.5,0S7,0.1,6.8,0.2L6.1,0.6C5.9,0.8,5.7,0.8,5.4,0.8c-0.1,0-0.1,0-0.2,0L4.4,0.7c-0.1,0-0.1,0-0.2,0
			C3.7,0.7,3.3,1,3.1,1.4L2.9,1.8C2.8,2.1,2.5,2.3,2.1,2.4L1.6,2.6C1,2.7,0.6,3.4,0.8,4c0.1,0.4,0,0.8-0.4,1.1l0,0
			c-0.5,0.5-0.5,1.3,0,1.8l0,0C0.7,7.2,0.8,7.6,0.8,8C0.6,8.6,1,9.3,1.6,9.4l0.5,0.1c0.3,0.1,0.6,0.3,0.8,0.6l0.2,0.4
			c0.2,0.4,0.7,0.7,1.1,0.7c0.1,0,0.1,0,0.2,0l0.1,0c0,0.1-2.1,3.1-2.4,3.6c-0.2,0.3,4.1-1.8,4.1-1.8c0.4-0.2,1-0.6,1.2-1.1
			c0,0,0.1,0,0.1,0c0.2,0,0.5-0.1,0.7-0.2l0.7-0.4c0.2-0.1,0.4-0.2,0.7-0.2c0.1,0,0.1,0,0.2,0l0.9,0.1c0.1,0,0.1,0,0.2,0
			c0.5,0,0.9-0.3,1.1-0.7l0.2-0.4c0.2-0.3,0.4-0.5,0.8-0.6l0.5-0.1c0.6-0.2,1-0.8,0.9-1.4c-0.1-0.4,0-0.8,0.4-1.1l0,0
			C15.1,6.4,15.1,5.6,14.6,5.1z M14.1,6.4c-0.5,0.5-0.7,1.1-0.6,1.8c0.1,0.3-0.1,0.5-0.4,0.6l-0.5,0.1c-0.5,0.2-1,0.5-1.2,1l-0.2,0.4
			c-0.1,0.2-0.3,0.3-0.5,0.3c0,0-0.1,0-0.1,0l-0.9-0.1c-0.1,0-0.2,0-0.2,0c-0.4,0-0.7,0.1-1.1,0.3l-0.7,0.4c-0.1,0.1-0.2,0.1-0.3,0.1
			l-0.1,0c0,0-0.4-0.1-0.5,0c-0.1,0.1-0.2,0.5-0.2,0.5c-0.1,0.3-0.2,0.6-0.8,0.8C5.1,13,4.7,13,4.5,12.9c-0.2-0.2,0-0.6,0.4-1.2
			c0.2-0.3,0.8-1.6,0.4-1.6c-0.6-0.1-0.9,0.6-0.9,0.6l-0.1,0c0,0-0.1,0-0.1,0c-0.2,0-0.4-0.1-0.5-0.3L3.5,9.9c-0.2-0.5-0.7-0.9-1.2-1
			L1.8,8.8C1.6,8.7,1.4,8.4,1.4,8.2c0.1-0.6-0.1-1.3-0.6-1.8C0.8,6.3,0.7,6.1,0.7,6s0.1-0.3,0.2-0.4c0.5-0.5,0.7-1.1,0.6-1.8
			C1.4,3.6,1.6,3.3,1.8,3.2l0.5-0.1c0.5-0.2,1-0.5,1.2-1l0.2-0.4C3.8,1.5,4,1.4,4.2,1.4c0,0,0.1,0,0.1,0l0.9,0.1c0.1,0,0.2,0,0.2,0
			c0.4,0,0.7-0.1,1.1-0.3l0.7-0.4c0.1-0.1,0.2-0.1,0.3-0.1s0.2,0,0.3,0.1l0.7,0.4c0.3,0.2,0.7,0.3,1.1,0.3c0.1,0,0.2,0,0.2,0l0.9-0.1
			c0,0,0.1,0,0.1,0c0.2,0,0.4,0.1,0.5,0.3l0.2,0.4c0.2,0.5,0.7,0.9,1.2,1l0.5,0.1c0.3,0.1,0.4,0.3,0.4,0.6c-0.1,0.6,0.1,1.3,0.6,1.8
			c0.1,0.1,0.2,0.2,0.2,0.4S14.2,6.3,14.1,6.4z"/>
	</svg>
	<!--8-4.svg-->
	<svg x="60" y="140">
		<style type="text/css">
			.st8_4_0{fill:none;}
		</style>
		<g id="XMLID_33_">
			<rect id="XMLID_23_" x="0" y="0" class="st8_4_0" width="16" height="16"/>
		</g>
		<path id="XMLID_2_" d="M9.5,12c-0.9,0-1.1-0.3-1.8-0.7c-0.4-0.2-0.8-0.1-0.8-0.8c-1,0.9-3.7,0.7-4.7-0.2C1.3,9.5,2,8.9,2.6,8.3
			c-5.6-0.4-0.9-7.9,1.5-6C4.2,0.7,5.1,0,6.6,0c0.9,0,2.7,0.3,2.5,1.5c0.5-0.2,1-0.4,1.6-0.3c0.3,0.1,0.5,0.2,0.7,0.4
			c0.2-0.1,0.4-0.2,0.6-0.2c0.7-0.2,1.4-0.6,2.2-0.5c2.2,0.3,2.2,3.2,0.4,4c0.8,0.2,0.9,0.6,1.1,1.2c0.2,0.7,0.4,1.2,0.3,2.1
			c-0.3,1.4-3.8,4.5-3.8,1.4C12.3,11.7,11.1,12,9.5,12z M7.6,10.6c0.6,0.2,0.8,0.6,1.4,0.7c0.5,0.2,1.4,0.1,1.9-0.1
			c0.4-0.2,0.6-0.5,0.7-1.2c0.1-0.6-0.3-0.9-0.2-1.8c1.1,0.4,1.5,2.9,3.1,1.2c1-1.1,0.9-2.7,0.3-3.3c-0.2-0.2-0.7-0.4-1-0.5
			c-0.3-0.1-0.7-0.3-1-0.4c1-0.5,2.6-0.8,2.4-2.2c-0.3-1.7-1.8-1.3-2.9-0.8c-0.6,0.2-1.2,0.3-1.3,0.2C10.8,2.3,10.7,2,10.4,2
			C9.7,1.7,8.2,2.8,7.5,3.1c0.2-0.4,0.8-0.9,0.8-1.3c0.2-1-1.2-1.1-2-1c-2,0-1.7,2-0.9,3.1C4.7,3.6,3.9,3,3.1,2.9
			C2.5,2.6,1.8,3.5,1.5,4C1,4.9,0,6.4,1.2,7.2C2,7.8,3.3,7.6,4.3,7.6C3.8,8.1,2.1,9.2,2.8,9.8c0.5,0.5,2.3,0.7,2.9,0.6
			c1-0.2,1.3-1.5,1.9-2.3C8.2,8.9,7.7,9.6,7.6,10.6C7.7,10.6,7.6,10.4,7.6,10.6z"/>
		<circle id="XMLID_1_" cx="1.3" cy="14.3" r="0.8"/>
		<circle id="XMLID_3_" cx="3.3" cy="12.3" r="0.8"/>
	</svg>
	<!--8-5.svg-->
	<svg x="80" y="140">
		<style type="text/css">
			.st8_5_0{fill:none;}
		</style>
		<g id="XMLID_33_">
			<rect id="XMLID_23_" x="0" y="0" class="st8_5_0" width="16" height="16"/>
		</g>
		<path id="XMLID_8_" d="M6,2v4l-6,5.5v1L6,7v4h10V2H6z M15,10H7V3h8V10z"/>
	</svg>
	<!--8-6.svg-->
	<svg x="100" y="140">
		<style type="text/css">
			.st8_6_0{fill:none;}
		</style>
		<g id="XMLID_33_">
			<rect id="XMLID_23_" class="st8_6_0" width="16" height="16"/>
		</g>
		<path d="M6,2v4H2.5L0,11v1.5L2.8,7H6v4h10V2H6z M15,10H7V3h8V10z"/>
	</svg>
	<!--8-7.svg-->
	<svg x="120" y="140">
		<style type="text/css">
			.st8_7_0{fill:none;}
		</style>
		<g id="XMLID_33_">
			<rect id="XMLID_23_" x="0" y="0" class="st8_7_0" width="16" height="16"/>
		</g>
		<path id="XMLID_8_" d="M15,11V2H5v4H1H0v1v4.7V12v0.5L7,16v-0.8l-6-3V7h4v4H15z M6,3h8v7H6V3z"/>
	</svg>
	<!--8-8.svg-->
	<svg x="140" y="140">
		<style type="text/css">
			.st8_8_0{fill:none;}
		</style>
		<g id="XMLID_33_">
			<rect id="XMLID_23_" x="0" y="0" class="st8_8_0" width="16" height="16"/>
		</g>
		<rect id="XMLID_14_" x="12" y="10" width="1" height="1"/>
		<rect id="XMLID_13_" x="14" y="10" width="1" height="1"/>
		<rect id="XMLID_11_" x="8" y="10" width="1" height="1"/>
		<rect id="XMLID_10_" x="10" y="10" width="1" height="1"/>
		<rect id="XMLID_9_" x="12" y="2" width="1" height="1"/>
		<rect id="XMLID_8_" x="14" y="2" width="1" height="1"/>
		<rect id="XMLID_7_" x="8" y="2" width="1" height="1"/>
		<rect id="XMLID_6_" x="10" y="2" width="1" height="1"/>
		<rect id="XMLID_5_" x="15" y="9" width="1" height="1"/>
		<rect id="XMLID_4_" x="15" y="7" width="1" height="1"/>
		<rect id="XMLID_3_" x="15" y="5" width="1" height="1"/>
		<rect id="XMLID_2_" x="15" y="3" width="1" height="1"/>
		<polygon id="XMLID_17_" points="6,2 6,6 0,11.5 0,12.5 6,7 6,11 7,11 7,2 "/>
	</svg>
	<!--8-9.svg-->
	<svg x="160" y="140">
		<style type="text/css">
			.st8_9_0{fill:none;}
		</style>
		<g id="XMLID_33_">
			<rect id="XMLID_23_" x="0" y="0" class="st8_9_0" width="16" height="16"/>
		</g>
		<rect id="XMLID_14_" x="12" y="10" width="1" height="1"/>
		<rect id="XMLID_13_" x="14" y="10" width="1" height="1"/>
		<rect id="XMLID_11_" x="8" y="10" width="1" height="1"/>
		<rect id="XMLID_10_" x="10" y="10" width="1" height="1"/>
		<rect id="XMLID_9_" x="12" y="2" width="1" height="1"/>
		<rect id="XMLID_8_" x="14" y="2" width="1" height="1"/>
		<rect id="XMLID_7_" x="8" y="2" width="1" height="1"/>
		<rect id="XMLID_6_" x="10" y="2" width="1" height="1"/>
		<rect id="XMLID_5_" x="15" y="9" width="1" height="1"/>
		<rect id="XMLID_4_" x="15" y="7" width="1" height="1"/>
		<rect id="XMLID_3_" x="15" y="5" width="1" height="1"/>
		<rect id="XMLID_2_" x="15" y="3" width="1" height="1"/>
		<polygon id="XMLID_17_" points="6,2 6,6 2.5,6 0,11 0,12.5 2.8,7 6,7 6,11 7,11 7,2 "/>
	</svg>
	<!--8-10.svg-->
	<svg x="180" y="140">
		<style type="text/css">
			.st8_10_0{fill:none;}
		</style>
		<g id="XMLID_33_">
			<rect id="XMLID_23_" x="0" y="0" class="st8_10_0" width="16" height="16"/>
		</g>
		<rect id="XMLID_14_" x="11" y="10" width="1" height="1"/>
		<rect id="XMLID_13_" x="13" y="10" width="1" height="1"/>
		<rect id="XMLID_11_" x="7" y="10" width="1" height="1"/>
		<rect id="XMLID_10_" x="9" y="10" width="1" height="1"/>
		<rect id="XMLID_9_" x="11" y="2" width="1" height="1"/>
		<rect id="XMLID_8_" x="13" y="2" width="1" height="1"/>
		<rect id="XMLID_7_" x="7" y="2" width="1" height="1"/>
		<rect id="XMLID_6_" x="9" y="2" width="1" height="1"/>
		<rect id="XMLID_5_" x="14" y="9" width="1" height="1"/>
		<rect id="XMLID_4_" x="14" y="7" width="1" height="1"/>
		<rect id="XMLID_3_" x="14" y="5" width="1" height="1"/>
		<rect id="XMLID_2_" x="14" y="3" width="1" height="1"/>
		<polygon id="XMLID_17_" points="1,12.2 1,7 5,7 5,11 6,11 6,2 5,2 5,6 1,6 0,6 0,7 0,11.7 0,12 0,12.5 7,16 7,15.2 "/>
	</svg>
	<!--8-11.svg-->
	<svg x="200" y="140">
		<style type="text/css">
			.st8_11_0{fill:none;}
		</style>
		<g id="XMLID_33_">
			<rect id="XMLID_23_" x="0" y="0" class="st8_11_0" width="16" height="16"/>
		</g>
		<rect id="XMLID_14_" x="12" y="10" width="1" height="1"/>
		<rect id="XMLID_13_" x="14" y="10" width="1" height="1"/>
		<rect id="XMLID_11_" x="8" y="10" width="1" height="1"/>
		<rect id="XMLID_10_" x="10" y="10" width="1" height="1"/>
		<rect id="XMLID_9_" x="12" y="2" width="1" height="1"/>
		<rect id="XMLID_8_" x="14" y="2" width="1" height="1"/>
		<rect id="XMLID_7_" x="8" y="2" width="1" height="1"/>
		<rect id="XMLID_6_" x="10" y="2" width="1" height="1"/>
		<rect id="XMLID_5_" x="15" y="9" width="1" height="1"/>
		<rect id="XMLID_4_" x="15" y="7" width="1" height="1"/>
		<rect id="XMLID_3_" x="15" y="5" width="1" height="1"/>
		<rect id="XMLID_2_" x="15" y="3" width="1" height="1"/>
		<rect id="XMLID_1_" x="6" y="9" width="1" height="1"/>
		<rect id="XMLID_17_" x="6" y="7" width="1" height="1"/>
		<rect id="XMLID_16_" x="6" y="5" width="1" height="1"/>
		<rect id="XMLID_15_" x="6" y="3" width="1" height="1"/>
		<polyline id="XMLID_18_" points="0,11.5 6,6 6,7 0,12.5 "/>
	</svg>
	<!--8-12.svg-->
	<svg x="220" y="140">
		<style type="text/css">
			.st8_12_0{fill:none;}
		</style>
		<g id="XMLID_33_">
			<rect id="XMLID_23_" x="0" y="0" class="st8_12_0" width="16" height="16"/>
		</g>
		<rect id="XMLID_14_" x="12" y="10" width="1" height="1"/>
		<rect id="XMLID_13_" x="14" y="10" width="1" height="1"/>
		<rect id="XMLID_11_" x="8" y="10" width="1" height="1"/>
		<rect id="XMLID_10_" x="10" y="10" width="1" height="1"/>
		<rect id="XMLID_9_" x="12" y="2" width="1" height="1"/>
		<rect id="XMLID_8_" x="14" y="2" width="1" height="1"/>
		<rect id="XMLID_7_" x="8" y="2" width="1" height="1"/>
		<rect id="XMLID_6_" x="10" y="2" width="1" height="1"/>
		<rect id="XMLID_5_" x="15" y="9" width="1" height="1"/>
		<rect id="XMLID_4_" x="15" y="7" width="1" height="1"/>
		<rect id="XMLID_3_" x="15" y="5" width="1" height="1"/>
		<rect id="XMLID_2_" x="15" y="3" width="1" height="1"/>
		<rect id="XMLID_1_" x="6" y="9" width="1" height="1"/>
		<rect id="XMLID_17_" x="6" y="7" width="1" height="1"/>
		<rect id="XMLID_16_" x="6" y="5" width="1" height="1"/>
		<rect id="XMLID_15_" x="6" y="3" width="1" height="1"/>
		<polygon id="XMLID_18_" points="2.5,6 0,11 0,12.5 2.8,7 6,7 6,6 "/>
	</svg>
	<!--8-13.svg-->
	<svg x="240" y="140">
		<style type="text/css">
			.st8_13_0{fill:none;}
		</style>
		<g id="XMLID_33_">
			<rect id="XMLID_23_" x="0" y="0" class="st8_13_0" width="16" height="16"/>
		</g>
		<rect id="XMLID_14_" x="11" y="10" width="1" height="1"/>
		<rect id="XMLID_13_" x="13" y="10" width="1" height="1"/>
		<rect id="XMLID_11_" x="7" y="10" width="1" height="1"/>
		<rect id="XMLID_10_" x="9" y="10" width="1" height="1"/>
		<rect id="XMLID_9_" x="11" y="2" width="1" height="1"/>
		<rect id="XMLID_8_" x="13" y="2" width="1" height="1"/>
		<rect id="XMLID_7_" x="7" y="2" width="1" height="1"/>
		<rect id="XMLID_6_" x="9" y="2" width="1" height="1"/>
		<rect id="XMLID_5_" x="14" y="9" width="1" height="1"/>
		<rect id="XMLID_4_" x="14" y="7" width="1" height="1"/>
		<rect id="XMLID_3_" x="14" y="5" width="1" height="1"/>
		<rect id="XMLID_2_" x="14" y="3" width="1" height="1"/>
		<rect id="XMLID_1_" x="5" y="9" width="1" height="1"/>
		<rect id="XMLID_17_" x="5" y="7" width="1" height="1"/>
		<rect id="XMLID_16_" x="5" y="5" width="1" height="1"/>
		<rect id="XMLID_15_" x="5" y="3" width="1" height="1"/>
		<polygon id="XMLID_19_" points="1,12.2 1,7 5,7 5,6 1,6 0,6 0,7 0,11.7 0,12 0,12.5 7,16 7,15.2 "/>
	</svg>
	<!--8-14.svg-->
	<svg x="260" y="140">
		<style type="text/css">
			.st8_14_0{fill:none;}
		</style>
		<g id="XMLID_33_">
			<rect id="XMLID_23_" x="0" y="0" class="st8_14_0" width="16" height="16"/>
		</g>
		<path id="XMLID_3_" d="M15,3v7H9V3H15 M16,2H8v9h8V2L16,2z"/>
		<polygon id="XMLID_7_" points="6,2 6,6 0,11.5 0,12.5 6,7 6,11 7,11 7,2 "/>
	</svg>
	<!--8-15.svg-->
	<svg x="280" y="140">
		<style type="text/css">
			.st8_15_0{fill:none;}
		</style>
		<g id="XMLID_33_">
			<rect id="XMLID_23_" x="0" y="0" class="st8_15_0" width="16" height="16"/>
		</g>
		<path id="XMLID_3_" d="M15,3v7H9V3H15 M16,2H8v9h8V2L16,2z"/>
		<polygon id="XMLID_4_" points="6,2 6,6 2.5,6 0,11 0,12.5 2.8,7 6,7 6,11 7,11 7,2 "/>
	</svg>
	<!--8-16.svg-->
	<svg x="300" y="140">
		<style type="text/css">
			.st8_16_0{fill:none;}
		</style>
		<g id="XMLID_33_">
			<rect id="XMLID_23_" x="0" y="0" class="st8_16_0" width="16" height="16"/>
		</g>
		<path id="XMLID_3_" d="M14,3v7H8V3H14 M15,2H7v9h8V2L15,2z"/>
		<polygon id="XMLID_4_" points="1,12.2 1,7 5,7 5,11 6,11 6,2 5,2 5,6 1,6 0,6 0,7 0,11.7 0,12 0,12.5 7,16 7,15.2 "/>
	</svg>
	<!--9-1.svg-->
	<svg x="0" y="160">
		<style type="text/css">
			.st9_1_0{fill:none;}
		</style>
		<g id="XMLID_33_">
			<rect id="XMLID_22_" x="0" y="0" class="st9_1_0" width="16" height="16"/>
		</g>
		<g id="XMLID_1_">
			<path id="XMLID_19_" d="M15,1v14H1V1H15 M16,0H0v16h16V0L16,0z"/>
		</g>
		<path id="XMLID_4_" d="M9,5v6L5.4,8L9,5 M10,3.5L4.5,8l5.5,4.5V3.5L10,3.5z"/>
	</svg>
	<!--9-2.svg-->
	<svg x="20" y="160">
		<style type="text/css">
			.st9_2_0{fill:none;}
		</style>
		<g id="XMLID_33_">
			<rect id="XMLID_18_" class="st9_2_0" width="16" height="16"/>
		</g>
		<g id="XMLID_1_">
			<path id="XMLID_15_" d="M15,1v14H1V1H15 M16,0H0v16h16V0L16,0z"/>
		</g>
		<path id="XMLID_4_" d="M7,5l3.6,3L7,11L7,5 M6,3.5v9L11.5,8L6,3.5L6,3.5z"/>
	</svg>
	<!--9-3.svg-->
	<svg x="40" y="160">
		<style type="text/css">
			.st9_3_0{fill:none;}
		</style>
		<g id="XMLID_33_">
			<rect id="XMLID_23_" x="0" y="0" class="st9_3_0" width="16" height="16"/>
		</g>
		<g id="XMLID_1_">
			<path id="XMLID_19_" d="M15,1v14H1V1H15 M16,0H0v16h16V0L16,0z"/>
		</g>
		<path id="XMLID_4_" d="M10,6v4L7.5,8L10,6 M11,4.5L6.5,8l4.5,3.5V4.5L11,4.5z"/>
		<rect id="XMLID_2_" x="4" y="4.5" width="1" height="7"/>
	</svg>
	<!--9-4.svg-->
	<svg x="60" y="160">
		<style type="text/css">
			.st9_4_0{fill:none;}
		</style>
		<g id="XMLID_33_">
			<rect id="XMLID_22_" class="st9_4_0" width="16" height="16"/>
		</g>
		<g id="XMLID_1_">
			<path id="XMLID_17_" d="M15,1v14H1V1H15 M16,0H0v16h16V0L16,0z"/>
		</g>
		<path id="XMLID_4_" d="M6.1,6l2.5,2L6,10L6.1,6 M5,4.5v7L9.5,8L5,4.5L5,4.5z"/>
		<rect id="XMLID_2_" x="11" y="4.5" width="1" height="7"/>
	</svg>
	<!--9-5.svg-->
	<svg x="80" y="160">
		<style type="text/css">
			.st9_5_0{fill:none;}
		</style>
		<g id="XMLID_33_">
			<rect id="XMLID_23_" x="0" y="0" class="st9_5_0" width="16" height="16"/>
		</g>
		<path id="XMLID_3_" d="M15,1v14H1V1H15 M16,0H0v16h16V0L16,0z"/>
		<g id="XMLID_14_">
			<path id="XMLID_49_" d="M7.5,4.2l0.9,1l1.4,1.5v0l0.4,0.4H4.8L7.5,4.2 M12,3H9v1.7L7.5,3L3,8v6h9V3L12,3z M11,6.9l-1-1.1V4h1V6.9
				L11,6.9z M4,13V8h7v5H9v-3H6v3H4L4,13z M7,13v-2h1v2H7L7,13z"/>
		</g>
	</svg>
	<!--9-6.svg-->
	<svg x="100" y="160">
		<style type="text/css">
			.st9_6_0{fill:none;}
		</style>
		<g id="XMLID_33_">
			<rect id="XMLID_23_" x="0" y="0" class="st9_6_0" width="16" height="16"/>
		</g>
		<path id="XMLID_3_" d="M15,1v14H1V1H15 M16,0H0v16h16V0L16,0z"/>
		<path id="XMLID_4_" d="M8.5,4.7c2.1,0,3.8,1.7,3.8,3.8s-1.7,3.8-3.8,3.8s-3.8-1.7-3.8-3.8S6.4,4.7,8.5,4.7 M8.5,4C6,4,4,6,4,8.5
			S6,13,8.5,13S13,11,13,8.5S11,4,8.5,4L8.5,4z"/>
		<g id="XMLID_7_">
			<polygon id="XMLID_8_" points="9,10 9,8 8,8 7,8 7,9 8,9 8,10 7,10 7,11 8,11 9,11 10,11 10,10 	"/>
			<rect id="XMLID_9_" x="8" y="6" width="1" height="1"/>
		</g>
	</svg>
	<!--9-7.svg-->
	<svg x="120" y="160">
		<style type="text/css">
			.st9_7_0{fill:none;}
		</style>
		<g id="XMLID_33_">
			<rect id="XMLID_23_" x="0" y="0" class="st9_7_0" width="16" height="16"/>
		</g>
		<path id="XMLID_3_" d="M15,1v14H1V1H15 M16,0H0v16h16V0L16,0z"/>
		<path id="XMLID_8_" d="M10,10c0,0.7-0.3,1-1,1H5c-0.7,0-1-0.3-1-1V7h1v3h1h2h1V9V7H8v2H6V6H5H4H3v4c0,1.1,0.9,2,2,2h4
			c1.1,0,2-0.9,2-2V7h-1V10z"/>
		<polygon id="XMLID_11_" points="9.5,3 7,7 8,7 9.5,4.3 11,7 12,7 "/>
	</svg>
	<!--9-8.svg-->
	<svg x="140" y="160">
		<style type="text/css">
			.st9_8_0{fill:none;}
		</style>
		<g id="XMLID_33_">
			<rect id="XMLID_23_" x="0" y="0" class="st9_8_0" width="16" height="16"/>
		</g>
		<path id="XMLID_3_" d="M15,1v14H1V1H15 M16,0H0v16h16V0L16,0z"/>
		<path id="XMLID_2_" d="M11,5v1h-1V5H3v4h1V8h1v2v1h5V9h1v1h1V5H11z M4,7V6h3v1H4z M9,10H6V8h2V7V6h1V10z M11,8h-1V7h1V8z"/>
	</svg>
	<!--9-9.svg-->
	<svg x="160" y="160">
		<style type="text/css">
			.st9_9_0{fill:none;}
		</style>
		<g id="XMLID_33_">
			<rect id="XMLID_23_" x="0" y="0" class="st9_9_0" width="16" height="16"/>
		</g>
		<path id="XMLID_3_" d="M15,1v14H1V1H15 M16,0H0v16h16V0L16,0z"/>
		<path id="XMLID_9_" d="M9.5,4H8H5v9h7V8V6.5L9.5,4z M9,5h0.5L11,6.5V7H9V5z M11,12H6V5h2v3h3V12z"/>
	</svg>
	<!--9-10.svg-->
	<svg x="180" y="160">
		<style type="text/css">
			.st9_10_0{fill:none;}
		</style>
		<g id="XMLID_33_">
			<rect id="XMLID_23_" class="st9_10_0" width="16" height="16"/>
		</g>
		<path id="XMLID_3_" d="M15,1v14H1V1H15 M16,0H0v16h16V0L16,0z"/>
		<path id="XMLID_2_" d="M9,4.7v7.6l-2.5-2H5V6.7h1.5 M10,4H9L6.5,6H4v5h2.5L9,13h1V4L10,4z"/>
		<rect x="11" y="8" width="2" height="1"/>
		<rect x="10.9" y="10.7" transform="matrix(0.7071 0.7071 -0.7071 0.7071 11.2929 -5.2635)" width="2.1" height="0.7"/>
		<rect x="11.7" y="4.9" transform="matrix(0.7064 0.7078 -0.7078 0.7064 7.7699 -6.7321)" width="0.7" height="2.1"/>
	</svg>
	<!--9-11.svg-->
	<svg x="200" y="160">
		<style type="text/css">
			.st9_11_0{fill:none;}
		</style>
		<g id="XMLID_33_">
			<rect id="XMLID_23_" class="st9_11_0" width="16" height="16"/>
		</g>
		<path id="XMLID_3_" d="M15,1v14H1V1H15 M16,0H0v16h16V0L16,0z"/>
		<path d="M7.5,3C5.6,3,4,4.6,4,6.5C4,6.7,4,6.8,4.1,7h0h0.7h1.9l0-0.7C6.8,6,7.1,5.7,7.5,5.7c0.4,0,0.8,0.4,0.8,0.8
			c0,0.4-0.4,0.8-0.8,0.8c-0.2,0-0.3,0-0.5,0.1v0c0,0,0,0,0,0c-0.1,0-0.3,0.1-0.4,0.2c0,0,0,0,0,0C6.5,7.7,6.4,7.8,6.3,7.9
			c0,0,0,0,0,0C6.2,8,6.1,8.2,6.1,8.3c0,0,0,0.1,0,0.1C6,8.5,6,8.6,6,8.8c0,0,0,0,0,0v0.4c0,0.5,0.2,0.9,0.5,1.1C6.2,10.6,6,11,6,11.5
			C6,12.3,6.7,13,7.5,13S9,12.3,9,11.5c0-0.5-0.2-0.9-0.5-1.1C8.8,10.1,9,9.7,9,9.2v0c1.2-0.6,2-1.3,2-2.7C11,4.6,9.4,3,7.5,3z
			 M7.5,12.3c-0.4,0-0.8-0.4-0.8-0.8c0-0.4,0.4-0.8,0.8-0.8s0.8,0.4,0.8,0.8C8.3,11.9,7.9,12.3,7.5,12.3z M9,8.5c0,0-0.7,0.3-0.7,0.6
			C8.2,9.5,8.3,10,7.5,10h0c-0.4,0-0.8-0.4-0.8-0.8V8.8c0,0,0,0,0,0c0-0.1,0-0.2,0.1-0.3c0,0,0,0,0-0.1c0-0.1,0.1-0.2,0.2-0.2
			C7.1,8.1,7.3,8,7.5,8C8.3,8,9,7.3,9,6.5S8.3,5,7.5,5C6.8,5,6.3,5.4,6.1,6H4.8C5,4.7,6.1,3.7,7.5,3.7c1.5,0,2.8,1.3,2.8,2.8
			C10.3,7.5,9.8,8,9,8.5z"/>
	</svg>
	<!--9-12.svg-->
	<svg x="220" y="160">
		<style type="text/css">
			.st9_12_0{fill:none;}
		</style>
		<g id="XMLID_33_">
			<rect id="XMLID_23_" class="st9_12_0" width="16" height="16"/>
		</g>
		<path id="XMLID_3_" d="M15,1v14H1V1H15 M16,0H0v16h16V0L16,0z"/>
	</svg>
</svg>