<svg xmlns="http://www.w3.org/2000/svg" width="200" height="200" fill="none"><path fill="#666" d="M1 3v12h16V3H1Zm15 11H2V4h14v10Z"/><path fill="#666" d="M15 12H3v1h12v-1ZM15 5H7v1h8V5ZM15 7H7v1h8V7ZM15 10H3v1h12v-1ZM6 5H3v1h3V5Z"/><path fill="#666" d="M6 5H5v3h1V5ZM21 3v12h16V3H21Zm15 11H22V4h14v10Z"/><path fill="#666" d="M24 5h-1v8h1V5ZM26 5h-1v8h1V5ZM28 5h-1v8h1V5ZM30 5h-1v8h1V5ZM33 9h-1v4h1V9ZM35 9h-1v4h1V9ZM34 5h-2v1h2v2h1V5h-1Z"/><path fill="#666" fill-rule="evenodd" d="M49 15a6 6 0 1 0 0-12 6 6 0 0 0 0 12Zm0 1a7 7 0 1 0 0-14 7 7 0 0 0 0 14ZM74.5 16c0-7.46-5.612-13.5-12.5-13.5v-1c7.512 0 13.5 6.56 13.5 14.5h-1Z" clip-rule="evenodd"/><path stroke="#666" d="m82.5 2.5 13 13"/><path fill="#666" d="M105.5 14c-1.9 0-3.5-1.6-3.5-3.5v-4c0-2.5 2-4.5 4.5-4.5h3v1h-3c-1.9 0-3.5 1.6-3.5 3.5v4c0 1.4 1.1 2.5 2.5 2.5s2.5-1.1 2.5-2.5c.2-2 2-3.5 4-3.5 2.2 0 4 1.8 4 4 0 1.1-.4 2.1-1.2 2.8l-.7-.7c.6-.6.9-1.3.9-2.1 0-1.7-1.3-3-3-3s-3 1.3-3 3c-.3 1.7-1.7 3-3.5 3ZM131 8v1h4l.2 2c0 1.1-1.1 2.3-2.2 2.3l-10-.3V7.5l3.5-3.5h5.5l2-1h-7.5L122 7.5V14h11c1.7 0 3-1.3 3-3V8h-5ZM149.5 13.5l-2-2 6.4-6.5c.6-.6 1.5-.6 2.1 0 .6.6.6 1.5 0 2.1l-6.5 6.4ZM148 15h-2v-2"/><path stroke="#666" d="M148 15.5h-2c-.8 0-1.5-.7-1.5-1.5V8.5c0-.7.4-1 1-1s1 .3 1 1v1c0 .6-.3 1-1 1h-2c-.3 0-1-.6-1-1v-2c0-.8.5-1.3.7-1.4.3-.1.8-.5 1.1-.7.2-.2 1.3-1.3 1.3-1.9v-1c0-.7-.4-1-1-1h-1c-.7 0-1 .5-1 1v1"/><path fill="#666" d="m132 8-.2-2c0-1.1 1.1-2.5 2.2-2.5l.5-.5h-.5c-1.7 0-3 1.3-3 3v2M176 3v11h-14V3h14Zm1-1h-16v13h16V2Z"/></svg>